<?xml version="1.0" standalone="no"?>
<!DOCTYPE svg PUBLIC "-//W3C//DTD SVG 1.1//EN" "http://www.w3.org/Graphics/SVG/1.1/DTD/svg11.dtd" >
<svg xmlns="http://www.w3.org/2000/svg" xmlns:xlink="http://www.w3.org/1999/xlink" version="1.1">
<metadata>
Created by FontForge 20170731 at Thu Jul 23 05:57:33 2020
 By Aleksey,,,
Copyright (c) 2013 by Jerak Durzan. All rights reserved.
</metadata>
<defs>
<font id="Bernice" horiz-adv-x="1024" >
  <font-face 
    font-family="Bernice"
    font-weight="400"
    font-stretch="normal"
    units-per-em="2048"
    panose-1="2 0 5 4 0 0 0 2 0 3"
    ascent="1638"
    descent="-410"
    x-height="887"
    cap-height="1432"
    bbox="-164 -592 2306 1972"
    underline-thickness="20"
    underline-position="-163"
    unicode-range="U+0020-2122"
  />
<missing-glyph 
d="M897 0h-768v1972h768v-1972zM256 1845v-1716h512v1716h-512z" />
    <glyph glyph-name=".notdef" 
d="M897 0h-768v1972h768v-1972zM256 1845v-1716h512v1716h-512z" />
    <glyph glyph-name=".null" horiz-adv-x="0" 
 />
    <glyph glyph-name="nonmarkingreturn" horiz-adv-x="682" 
 />
    <glyph glyph-name="space" unicode=" " horiz-adv-x="501" 
 />
    <glyph glyph-name="exclam" unicode="!" horiz-adv-x="673" 
d="M418 1407q0 -97 -17 -289l-28 -289l-33 -380h-45q0 97 -27 438q-17 234 -51 502l59 30h25q43 0 117 -12zM428 74q0 -47 -33 -80t-80 -33q-45 0 -77.5 33t-32.5 80q0 44 33 77t77 33q50 0 81.5 -30.5t31.5 -79.5z" />
    <glyph glyph-name="quotedbl" unicode="&#x22;" horiz-adv-x="677" 
d="M588 1339q0 -14 -2 -18l-68 -457h-31l-65 457q-4 36 -4 39q0 102 86 102q84 0 84 -123zM260 1362q0 -2 -0.5 -6.5t-1.5 -13t-2 -15.5l-66 -463h-32l-64 457q-4 36 -4 41q0 100 84 100q86 0 86 -100z" />
    <glyph glyph-name="numbersign" unicode="#" horiz-adv-x="1574" 
d="M1163 985h307l-40 -117h-310l-98 -286h330l-43 -113l-328 -2l-168 -469h-131l166 469h-289l-166 -469h-131l166 469h-324l43 115h322l100 286h-348l43 117h348l166 471h133l-168 -471h287l168 471h131zM889 582l102 286h-291l-100 -286h289z" />
    <glyph glyph-name="dollar" unicode="$" horiz-adv-x="1005" 
d="M905 358q0 -160 -104 -264.5t-271 -118.5v-262h-73v262q-102 0 -217 48q-140 59 -140 147q0 72 68 72q47 0 82 -56l67 -106q52 -55 140 -55v596q-161 79 -232 147q-106 100 -106 242q0 144 100 237q97 91 238 103v149h73v-143q107 0 211 -37q140 -53 140 -135
q0 -70 -68 -70q-43 0 -72 51q-45 74 -63 92q-52 52 -148 52v-539q375 -129 375 -412zM776 305q0 191 -246 283v-568q246 46 246 285zM457 805v500q-99 -11 -163.5 -78t-64.5 -164t70 -164q51 -48 158 -94z" />
    <glyph glyph-name="percent" unicode="%" horiz-adv-x="1511" 
d="M1436 500q0 -172 -117 -342q-127 -183 -295 -183q-113 0 -180 82q-64 76 -64 191q0 172 150 313t321 141q185 0 185 -202zM1245 1389h76l-1047 -1450h-90l885 1226q-139 -45 -209 -45q-52 0 -129 23q0 -101 -20 -162q-44 -143 -142 -250q-113 -125 -247 -125
q-114 0 -181 82q-65 77 -65 191q0 175 147 313q151 139 326 139q127 0 174 -123q60 -32 143 -32q234 0 379 213zM1382 500q0 147 -108 147q-121 0 -240 -180q-108 -169 -108 -297q0 -62 32.5 -101.5t90.5 -39.5q93 0 190 112q86 103 119 201q24 74 24 158zM678 1171
q-31 21 -60 95q-20 10 -63 10q-110 0 -227 -184q-109 -174 -109 -291q0 -142 123 -142q102 0 203 125q88 112 114 220q19 74 19 167z" />
    <glyph glyph-name="ampersand" unicode="&#x26;" horiz-adv-x="1538" 
d="M1481 96l16 -22q-98 -107 -248 -107q-111 0 -200 92q-55 55 -131 189q-108 -140 -183 -193q-116 -84 -248 -84q-165 0 -272 101q-106 100 -106 266q0 242 337 485q-141 169 -141 310q0 126 98 208q96 78 222 78q114 0 194 -57q88 -64 88 -174q0 -103 -94 -182
q-62 -52 -184 -109q183 -203 196 -219q118 -137 183 -234q51 54 92 131q49 85 49 148q0 78 -127 78v37q31 -2 133 -2q99 0 262 10v-37q-87 0 -157 -76q-19 -19 -101 -149q-71 -111 -123 -178q99 -158 133 -207q113 -146 187 -146q32 0 125 43zM799 1184q0 88 -49 141
t-134 53q-75 0 -127.5 -48t-52.5 -120q0 -111 168 -282q195 109 195 256zM895 289q-242 336 -422 504q-197 -129 -197 -351q0 -137 99 -245q101 -107 239 -107q131 0 281 199z" />
    <glyph glyph-name="quotesingle" unicode="'" horiz-adv-x="348" 
d="M260 1362q0 -2 -0.5 -6.5t-1.5 -13t-2 -15.5l-66 -463h-32l-66 457q-2 10 -2 39q0 102 84 102q86 0 86 -100z" />
    <glyph glyph-name="parenleft" unicode="(" horiz-adv-x="645" 
d="M608 -301l-8 -10q-40 3 -123 102q-334 389 -334 784q0 398 326 777q94 110 131 110l8 -8q0 -14 -82 -133q-225 -325 -225 -746q0 -169 47 -352q51 -198 137 -327q57 -81 123 -197z" />
    <glyph glyph-name="parenright" unicode=")" horiz-adv-x="645" 
d="M496 575q0 -344 -283 -720q-126 -166 -174 -166l-6 4q0 1 -1 3t-1 3q0 15 82 131q225 322 225 745q0 170 -47 353q-54 199 -137 327q-52 73 -123 199l8 8q42 -3 123 -100q334 -389 334 -787z" />
    <glyph glyph-name="asterisk" unicode="*" 
d="M879 883q0 -32 -25 -56t-57 -24q-59 0 -123 88q-65 89 -150 137v-16q0 -60 35 -156q37 -93 37 -123q0 -94 -84 -94q-35 0 -58.5 26t-23.5 62q0 30 35 133t35 168q-53 -29 -146 -135q-76 -88 -133 -88q-30 0 -53 24.5t-23 55.5q0 82 136 100q125 18 206 64q-68 43 -163 59
q-102 17 -113 22q-66 25 -66 84q0 35 23.5 57.5t58.5 22.5q58 0 121 -84q67 -91 152 -139v16q0 58 -35 154t-35 123q0 96 82 96q84 0 84 -88q0 -32 -37 -133q-35 -103 -35 -168q37 19 140 131q84 90 139 90q31 0 53.5 -23.5t22.5 -54.5q0 -70 -95 -94l-153 -28
q-40 -10 -94 -43q75 -43 163 -58q99 -17 111 -22q68 -27 68 -86z" />
    <glyph glyph-name="plus" unicode="+" horiz-adv-x="1705" 
d="M1452 670v-117h-539v-553h-118v553h-541v117h541v551h118v-551h539z" />
    <glyph glyph-name="comma" unicode="," horiz-adv-x="501" 
d="M375 14q0 -180 -203 -356l-27 27q134 140 134 252q0 66 -86 81q-87 18 -87 93q0 43 28 71.5t71 28.5q76 0 123 -57.5t47 -139.5z" />
    <glyph glyph-name="hyphen" unicode="-" horiz-adv-x="673" 
d="M592 516v-151h-512v151h512z" />
    <glyph glyph-name="hyphen" unicode="&#x2010;" horiz-adv-x="673" 
d="M592 516v-151h-512v151h512z" />
    <glyph glyph-name="period" unicode="." horiz-adv-x="501" 
d="M362 88q0 -45 -33 -79t-79 -34q-47 0 -79 33t-32 80t33 79t78 32q47 0 79.5 -33t32.5 -78z" />
    <glyph glyph-name="slash" unicode="/" horiz-adv-x="569" 
d="M467 1460h90l-473 -1650h-94z" />
    <glyph glyph-name="zero" unicode="0" horiz-adv-x="1005" 
d="M940 672q0 -266 -94 -453q-120 -244 -361 -244q-219 0 -333 236q-89 183 -89 428q0 266 89 461q120 256 352 256q234 0 348 -240q88 -183 88 -444zM764 696q0 627 -252 627q-268 0 -268 -696q0 -245 30 -371q58 -240 228 -240q262 0 262 680z" />
    <glyph glyph-name="one" unicode="1" horiz-adv-x="1005" 
d="M770 41v-41h-508v41q106 0 137 25q33 23 33 124v910q0 82 -176 82v39q157 15 326 135h20v-1198q0 -83 45 -103q25 -14 123 -14z" />
    <glyph glyph-name="two" unicode="2" horiz-adv-x="1005" 
d="M817 248l37 -15l-66 -172q-21 -61 -81 -61h-596v33q220 267 331 438q201 310 201 487q0 120 -68.5 195.5t-183.5 75.5q-122 0 -235 -113l-33 21q141 221 371 221q141 0 230 -87.5t89 -228.5q0 -154 -172 -405q-49 -70 -276 -356q-31 -39 -80 -111q17 -14 84 -14h313
q59 0 84.5 18t50.5 74z" />
    <glyph glyph-name="three" unicode="3" horiz-adv-x="1005" 
d="M793 467q0 -150 -103 -277q-90 -112 -237 -178q-81 -37 -144 -37q-102 0 -102 72q0 70 72 70q28 0 79 -23l76 -37q81 0 146 121q55 104 55 197q0 257 -307 321v35q282 153 282 324q0 87 -51 140.5t-135 53.5q-104 0 -191 -78l-26 25q140 162 311 162q104 0 174 -58
q76 -64 76 -165q0 -153 -231 -312q256 -123 256 -356z" />
    <glyph glyph-name="four" unicode="4" horiz-adv-x="1005" 
d="M956 588v-146q-221 0 -229 -8q-11 -22 -8 -201q3 -206 0 -233l-6 -25h-154q0 457 -6 463t-469 6q-53 0 -53 37q0 93 305 484q308 391 385 391q29 0 29 -41q0 -43 -7 -193q-4 -172 -4 -194v-301q0 -17 6 -29q23 -10 211 -10zM573 631v540q-77 -87 -237 -286
q-192 -241 -195 -281q10 -16 76 -16h309q47 0 47 43z" />
    <glyph glyph-name="five" unicode="5" horiz-adv-x="1005" 
d="M793 1409h41l-50 -186q-9 -33 -47 -33h-266q-75 0 -92 -33l-37 -115q-10 -38 -10 -43q0 -14 78 -55l102 -49q223 -125 223 -383q0 -152 -86 -291q-85 -135 -225 -203q-87 -43 -158 -43q-121 0 -121 78q0 70 80 70q32 0 92 -31t80 -31q89 0 154 134q55 113 55 213
q0 227 -241 340q-57 27 -127 67q20 103 73 289q60 198 78 233q23 8 98 11q79 0 136 -2q95 -3 106 -3q25 0 41 23q5 11 23 43z" />
    <glyph glyph-name="six" unicode="6" horiz-adv-x="1005" 
d="M928 399q0 -177 -127 -301q-126 -123 -305 -123q-191 0 -308 144q-108 132 -108 327q0 231 182 478q169 224 389 344q116 62 246 92v-37q-303 -163 -516 -537q93 19 154 19q162 0 276 -123q117 -120 117 -283zM741 401q0 151 -57 240q-67 113 -205 113q-128 0 -190 -133
q-45 -96 -45 -244q0 -144 55 -238q65 -121 197 -121q133 0 198 134q47 100 47 249z" />
    <glyph glyph-name="seven" unicode="7" horiz-adv-x="1005" 
d="M879 1321q0 -35 -99 -281l-98 -245l-104 -267q-39 -100 -195 -551h-113l387 932q30 66 107 269q-65 10 -172 10h-227q-91 0 -125 -21q-42 -25 -76 -110h-47q59 157 119 350h47q-7 -24 -11 -51l17 -15q59 -2 530 -2q60 0 60 -18z" />
    <glyph glyph-name="eight" unicode="8" horiz-adv-x="1005" 
d="M879 362q0 -161 -107 -274t-268 -113q-147 0 -264 97q-113 94 -113 245q0 220 262 334q-229 116 -229 344q0 157 98 258q103 103 254 103q152 0 250 -76q106 -84 106 -231q0 -201 -241 -326q252 -132 252 -361zM748 1057q0 116 -59.5 189t-166.5 73q-108 0 -174.5 -70
t-66.5 -180q0 -189 299 -315q168 113 168 303zM741 276q0 130 -98 218q-67 61 -211 127q-90 -61 -126 -132.5t-36 -181.5q0 -125 58 -201q64 -88 184 -88q108 0 172 76q57 69 57 182z" />
    <glyph glyph-name="nine" unicode="9" horiz-adv-x="1005" 
d="M922 870q0 -284 -209 -534q-181 -212 -463 -361l-25 27q340 304 422 543q-96 -45 -172 -45q-171 0 -285 129q-106 121 -106 297q0 180 121 307q120 129 299 129q199 0 313 -150q105 -135 105 -342zM754 924q0 147 -52 254q-64 141 -194 141q-131 0 -195 -143
q-47 -109 -47 -258q0 -138 53 -244q68 -129 195 -129q126 0 191 133q49 101 49 246z" />
    <glyph glyph-name="colon" unicode=":" horiz-adv-x="559" 
d="M397 795q0 -50 -30.5 -81.5t-79.5 -31.5q-44 0 -78.5 34.5t-34.5 78.5q0 47 32.5 78.5t80.5 31.5q47 0 78.5 -31.5t31.5 -78.5zM397 88q0 -50 -30.5 -81.5t-79.5 -31.5q-44 0 -78.5 34.5t-34.5 78.5q0 45 33 78t80 33t78.5 -32t31.5 -79z" />
    <glyph glyph-name="semicolon" unicode=";" horiz-adv-x="559" 
d="M387 795q0 -47 -33 -80t-80 -33q-45 0 -77.5 33t-32.5 80q0 44 33 77t77 33q50 0 81.5 -30.5t31.5 -79.5zM420 14q0 -180 -203 -356l-27 27q134 140 134 252q0 56 -45 71q-27 6 -86 25q-43 15 -43 78q0 42 29 71t71 29q76 0 123 -57.5t47 -139.5z" />
    <glyph glyph-name="less" unicode="&#x3c;" horiz-adv-x="1705" 
d="M1442 205v-129l-1178 483v103l1178 483v-127l-1000 -408z" />
    <glyph glyph-name="equal" unicode="=" horiz-adv-x="1705" 
d="M1452 860v-117h-1198v117h1198zM1452 477v-117h-1198v117h1198z" />
    <glyph glyph-name="greater" unicode="&#x3e;" horiz-adv-x="1705" 
d="M1442 662v-103l-1178 -483v129l1000 405l-1000 408v127z" />
    <glyph glyph-name="question" unicode="?" horiz-adv-x="890" 
d="M711 872q0 -188 -72 -235q-50 -32 -246 -47l-26 -4q-14 -3 -19 -17l-22 -168h-37q-3 86 -6.5 168.5t-5 117t-1.5 38.5q0 17 132 23q135 6 174 16q86 27 86 131q0 215 -125 270q-17 7 -232 31q-120 15 -114 129l6 109h51q0 -55 39 -72q24 -9 92 -12q69 0 111 -11
q215 -62 215 -467zM414 88q0 -47 -33 -80t-80 -33t-79 33t-32 80t33 79t78 32q47 0 80 -32t33 -79z" />
    <glyph glyph-name="at" unicode="@" horiz-adv-x="2019" 
d="M1876 766q0 -226 -123 -420q-141 -221 -356 -221q-98 0 -152.5 56t-54.5 155q-123 -211 -309 -211q-134 0 -209 106q-68 95 -68 230q0 192 146 364q150 181 340 181q174 0 221 -195l53 180h143l-170 -610q-18 -65 -18 -109t26 -73t68 -29q77 0 164 66q252 190 252 546
q0 282 -205 457q-194 164 -481 164q-194 0 -340 -55q-257 -95 -402 -334q-139 -230 -139 -508q0 -343 242 -545q227 -190 577 -190q333 0 613 206l30 -36q-301 -222 -655 -222q-393 0 -649 209q-275 227 -275 609q0 393 293 657q282 258 678 258q336 0 541 -172
q219 -186 219 -514zM1266 752q0 84 -41 143q-46 70 -127 70q-136 0 -250 -232q-98 -197 -98 -358q0 -80 34 -135q41 -66 115 -66q149 0 266 221q101 189 101 357z" />
    <glyph glyph-name="A" unicode="A" horiz-adv-x="1488" 
d="M1483 41v-41h-588v41q176 0 176 53q0 13 -22 74l-109 274q-38 95 -115 95h-362q-57 0 -92 -62q-15 -21 -45 -110q-74 -210 -74 -230q0 -55 84 -76q28 -9 127 -18v-41h-463v41q137 0 236 246l370 923q7 20 31 74q68 158 88 158q15 0 41 -45q24 -39 115 -262l364 -881
q52 -125 80 -156q51 -57 158 -57zM868 608l-202 510q-2 8 -17 39l-6 4q-29 -33 -129 -291q-94 -248 -94 -268l6 -12q28 -4 35 -4h358q32 0 40.5 4t8.5 18z" />
    <glyph glyph-name="B" unicode="B" horiz-adv-x="1341" 
d="M1243 356q0 -194 -176 -286q-134 -70 -350 -70h-651v45q92 0 129 12q67 21 67 97v1120q0 83 -59 104q-21 8 -137 8v46h634q490 0 490 -334q0 -242 -359 -330q412 -105 412 -412zM948 1092q0 140 -75 217t-211 77q-86 0 -121 -12q-62 -21 -62 -94v-416q0 -62 29 -78
q17 -10 88 -10q83 0 135 10q103 24 162 113q55 82 55 193zM999 381q0 350 -403 350q-61 0 -84 -10q-33 -17 -33 -74v-477q0 -73 24 -99t95 -26q401 0 401 336z" />
    <glyph glyph-name="C" unicode="C" horiz-adv-x="1458" 
d="M1368 1030l-39 -4q-129 381 -479 381q-265 0 -404 -219q-116 -180 -116 -465q0 -303 100 -475q126 -225 404 -225q171 0 296 104q105 85 193 256l39 -6l-23 -279q-234 -129 -508 -129q-335 0 -542 201q-203 203 -203 539q0 321 211 532q213 213 528 213q179 0 389 -76
q76 13 107 13q27 0 27 -74q0 -3 2.5 -34t7.5 -103t10 -150z" />
    <glyph glyph-name="D" unicode="D" horiz-adv-x="1677" 
d="M1591 752q0 -389 -254 -582q-226 -170 -628 -170h-613v43q120 0 158 53q27 40 27 168v901q0 141 -29 181q-37 43 -172 43v43h643q372 0 600 -150q268 -176 268 -530zM1337 723q0 311 -176 487q-176 179 -485 179q-101 0 -131 -21q-43 -27 -43 -121v-1036
q0 -102 33.5 -135t136.5 -33q61 0 123 4q257 24 405 225q137 183 137 451z" />
    <glyph glyph-name="E" unicode="E" horiz-adv-x="1345" 
d="M1307 305l32 -8q-13 -68 -34 -158q-27 -116 -50 -139q-20 -20 -59 -20q-172 0 -565 12q-416 10 -565 8v41q151 0 178 35q22 28 22 182v993q0 104 -47 125q-27 15 -145 15v41q616 0 661 2q97 3 185 5.5t125.5 3.5t41.5 1q53 0 74 -55l90 -244l-30 -17q-122 151 -158 181
q-94 82 -219 82h-189q-161 0 -161 -95v-495q0 -76 67 -76h31q14 2 37 2q252 0 252 293h39q0 -473 8 -590h-37q-34 172 -103 217q-59 35 -245 35q-32 0 -41.5 -9.5t-9.5 -41.5v-490q0 -74 57 -92q24 -8 125 -8h311q101 0 191 90q49 49 131 174z" />
    <glyph glyph-name="F" unicode="F" horiz-adv-x="1232" 
d="M1163 1399l60 -246l-33 -12q-164 206 -270 243q-21 9 -140 9q-145 0 -180 -7q-119 -21 -119 -106v-471q0 -62 23 -78q15 -12 84 -12q150 0 213 69q58 64 76 216h34q0 -109 4 -367q3 -194 7 -215h-35q0 256 -291 256q-56 0 -74 -6q-37 -12 -37 -54v-419q0 -116 60 -144
q37 -16 168 -16v-39h-652v39q205 0 205 108v963q0 178 -18 215q-35 68 -180 68v39q11 0 122 1t370.5 3.5t543.5 5.5q33 0 42.5 -6.5t16.5 -36.5z" />
    <glyph glyph-name="G" unicode="G" horiz-adv-x="1681" 
d="M1647 616v-38q-118 0 -162 -33q-39 -26 -45 -101v-174q0 -145 104 -145l6 -41q-82 -14 -338 -72q-214 -47 -340 -47q-326 0 -555 197q-237 206 -237 526q0 338 227 555q224 211 565 211q245 0 504 -131q53 27 76 27q18 0 18 -56q0 -18 1 -42.5t2 -60.5t2 -61q1 -34 2 -73
t1.5 -60t0.5 -32h-41q-81 208 -191 315q-134 131 -338 131q-287 0 -444 -213q-137 -189 -137 -491q0 -289 139 -478q156 -211 434 -211q322 0 322 197v240q0 84 -23 100q-21 18 -262 18v43h709z" />
    <glyph glyph-name="H" unicode="H" horiz-adv-x="1787" 
d="M1706 41v-41h-657v41q145 0 198 47t53 193v362q0 40 -20 51q-12 6 -57 6h-656q-54 0 -65 -8q-19 -13 -19 -63v-363q0 -131 46.5 -178t175.5 -47v-41h-631v41q133 0 172 57q28 45 28 187v643q0 354 -30 407q-30 56 -170 56v41h631v-41q-134 0 -173 -17q-59 -30 -59 -149
v-420q0 -31 10.5 -39t44.5 -8h693q42 0 55.5 11t13.5 48v391q0 126 -61 160q-44 23 -180 23v41h657v-41q-122 0 -160 -41q-35 -41 -35 -164v-524q0 -126 7 -320q6 -177 20 -215q35 -86 168 -86z" />
    <glyph glyph-name="I" unicode="I" horiz-adv-x="770" 
d="M680 39v-39h-604v39q193 0 196 82q0 33 2 72q2 29 2 69v1000q0 89 -59 116q-43 17 -141 17v37h604v-37q-186 0 -186 -107v-1042q0 -101 22 -150q35 -65 127 -59q20 2 37 2z" />
    <glyph glyph-name="J" unicode="J" horiz-adv-x="782" 
d="M707 1432v-37q-67 0 -144 -27q-35 -26 -45 -78q-2 -8 -2 -94v-1143q0 -154 -39 -252q-52 -136 -186 -229q-133 -92 -279 -92q-176 0 -176 129q0 51 33 83t84 32q55 0 121 -78q65 -80 100 -80q125 0 125 448v1176q0 129 -51 168q-44 35 -174 35v39h633z" />
    <glyph glyph-name="K" unicode="K" horiz-adv-x="1566" 
d="M1565 39v-39h-666v39q168 0 168 53q0 40 -104 174l-203 264q-71 91 -78 99q-45 45 -111 45q-39 0 -55 -4q-20 -9 -20 -49v-416q0 -113 51 -142q41 -24 158 -24v-39h-621v39q104 0 131 12q53 21 53 109v1042q0 124 -30 158q-30 35 -154 35v37h621v-37q-77 0 -142 -15
q-53 -12 -65 -71q-2 -8 -2 -111v-436q0 -36 26 -39h58q34 0 88 57l71 80q30 32 113 126t131 147q113 131 113 172q0 90 -166 90v37h522v-37q-150 0 -369 -219q-86 -86 -288 -338q92 -133 249 -330l158 -193q117 -142 156 -178q107 -98 207 -98z" />
    <glyph glyph-name="L" unicode="L" horiz-adv-x="1341" 
d="M1311 377q-5 -40 -62 -332q-9 -45 -75 -45h-1106v43q2 -2 18 -2q120 0 154 63q32 60 32 318v723q0 143 -26 182q-36 54 -166 66v39h598v-39q-193 0 -193 -127l-4 -1063q0 -106 8 -119q15 -41 95 -41q242 0 299 8q130 15 213 86q93 75 182 252l4 8h27q4 -15 2 -20z" />
    <glyph glyph-name="M" unicode="M" horiz-adv-x="1902" 
d="M1858 39v-39h-592v39q112 0 145 20q45 26 45 131q0 175 -12 439q-21 427 -21 436q0 73 -16 106l-96 -204l-363 -836q-65 -147 -84 -147q-29 0 -69 112q-12 34 -314 789q-18 56 -94 239q-27 -134 -51 -356l-53 -461q-11 -108 -11 -117q0 -77 47 -112q41 -25 123 -39v-39
h-417v39q113 0 159 98q25 55 43 197l84 682q15 117 15 170q0 182 -183 209v37h250q69 0 137 -136q18 -34 80 -192l213 -549l56 -145q36 -96 69 -140q13 3 68 131l317 744l62 164q24 72 38 93q23 29 56 30h297v-37q-92 0 -128 -35.5t-36 -126.5q0 -181 14 -408q3 -72 23 -407
l6 -168q6 -113 27 -160q13 -29 43 -41q27 -10 61 -10h62z" />
    <glyph glyph-name="N" unicode="N" horiz-adv-x="1792" 
d="M1737 1432v-39q-154 0 -197 -125q-20 -59 -20 -258v-516q0 -26 4 -222q6 -147 6 -219q0 -63 -35 -63q-42 0 -246 223l-702 760l-182 190q-15 -246 -15 -633q0 -307 25 -399q24 -90 213 -90v-41h-531v41q107 17 150 36t55 52q31 85 31 469v637q-93 158 -254 158v39h348
q73 0 82 -15q128 -169 553 -635l209 -231q125 -134 221 -217q6 46 6 92v594q0 195 -31 262q-49 111 -215 111v39h525z" />
    <glyph glyph-name="O" unicode="O" horiz-adv-x="1677" 
d="M1593 743q0 -330 -219 -557q-218 -225 -551 -225q-321 0 -530 209q-209 212 -209 530q0 324 217 541q219 219 541 219q323 0 536 -198q215 -200 215 -519zM1343 694q0 287 -96 477q-125 242 -387 242q-272 0 -409 -223q-115 -186 -115 -473t100 -471q127 -238 385 -238
q267 0 406 219q116 183 116 467z" />
    <glyph glyph-name="P" unicode="P" horiz-adv-x="1261" 
d="M1221 1026q0 -191 -131 -307q-129 -117 -324 -117h-64q-23 0 -110 19q-37 6 -111 22v-444q0 -117 62 -144q32 -14 170 -14v-41q-90 0 -162 2t-162 2q-84 0 -164 -2q-131 -4 -166 -2v41q142 0 181 39q24 24 24 225v916q0 111 -49 145q-38 27 -147 27v39q277 10 448 10
q240 0 367 -31q203 -53 291 -205q47 -83 47 -180zM983 1036q0 170 -93 263.5t-263 93.5q-79 0 -107 -25q-35 -27 -35 -104v-545q86 -45 160 -45q161 0 252 102q86 100 86 260z" />
    <glyph glyph-name="Q" unicode="Q" horiz-adv-x="1677" 
d="M1638 -209l19 -33q-144 -123 -389 -123q-132 0 -289 89q-82 45 -258 172q-127 91 -152 108l-71 37q-155 79 -228 152q-89 89 -141 235q-45 122 -45 270q0 332 223 545q224 217 553 217q313 0 522 -203q211 -202 211 -514q0 -310 -174 -514q-176 -203 -481 -258
q196 -120 246 -147q173 -92 264 -92q90 0 190 59zM1343 694q0 287 -96 477q-125 242 -387 242q-276 0 -411 -225q-113 -183 -113 -479q0 -275 96 -465q127 -238 379 -238q272 0 414 219q118 181 118 469z" />
    <glyph glyph-name="R" unicode="R" horiz-adv-x="1452" 
d="M1446 41v-41h-262q-22 0 -36 3.5t-24.5 8t-24.5 22.5t-24 32t-35 53t-47 71q-13 29 -133 222q-135 218 -162 233q-36 19 -82 19q-52 0 -124 -7v-383q0 -156 38 -188q30 -30 185 -45v-41q-208 4 -309 4q-104 0 -312 -4v41q116 0 154 59q28 48 28 170v877q0 150 -22 192
q-34 58 -174 58v37l510 6q220 0 332 -25q187 -46 262 -182q37 -67 37 -152q0 -257 -320 -352q24 -24 68 -94l61 -100l191 -293q60 -91 94 -125q64 -70 131 -76zM985 1059q0 169 -100 256q-94 82 -267 82q-77 0 -104 -21q-33 -26 -33 -104v-506q0 -53 76 -53q428 0 428 346z
" />
    <glyph glyph-name="S" unicode="S" horiz-adv-x="1228" 
d="M1081 397q0 -196 -139 -317q-132 -111 -334 -111q-295 0 -405 49q-27 12 -33 84q-2 24 -31 299l39 9q81 -182 156 -263q110 -122 264 -122q133 0 217 84q86 86 86 217q0 178 -199 280q-53 22 -177.5 75t-192.5 81q-199 108 -199 303q0 173 131 283q121 106 297 106
q65 0 174 -33q117 -30 174 -30q47 0 74 8q32 -215 35 -340l-39 -6q-163 358 -406 358q-120 0 -197 -71t-77 -187q0 -110 84 -170q50 -36 283 -119q415 -147 415 -467z" />
    <glyph glyph-name="T" unicode="T" horiz-adv-x="1566" 
d="M1477 1360l61 -201l-31 -14q-88 134 -170 186q-94 58 -245 58q-152 0 -179 -21q-26 -17 -26 -104v-1057q0 -107 55 -141q42 -25 156 -25v-41h-645v41q107 0 137 12q55 21 67 109q11 90 11 143v940q0 100 -29 123q-22 16 -129 16q-160 0 -254 -55q-95 -53 -180 -190
l-35 10l59 211l17 63q14 44 33 47q116 -45 159 -45h590q315 0 520 54q9 3 23.5 -26.5t34.5 -92.5z" />
    <glyph glyph-name="U" unicode="U" horiz-adv-x="1677" 
d="M1618 1432v-41q-132 -15 -180 -99q-14 -25 -17 -278q-3 -416 -12 -492q-27 -263 -141 -395q-143 -162 -451 -162q-303 0 -434 162q-123 144 -123 455v608q0 116 -33 149q-32 37 -145 52v41h633v-41q-143 -15 -189 -64q-44 -47 -47 -194l-4 -351q0 -338 55 -475
q91 -229 379 -229q104 0 191 37q183 77 235 291q29 122 29 393q0 27 -4 145q-1 30 -2 64.5t-1.5 52.5t-0.5 26q-3 91 -13 144q-18 84 -68 116.5t-169 43.5v41h512z" />
    <glyph glyph-name="V" unicode="V" horiz-adv-x="1548" 
d="M1548 1432v-37q-74 -21 -110 -47q-32 -22 -74 -86q-38 -62 -121 -269q-55 -140 -373 -819q-99 -211 -135 -211q-18 0 -61 107l-43 118l-369 949q-55 137 -88 176q-55 61 -174 82v37h604v-37q-166 -15 -166 -76q0 -47 27 -117l270 -700l101 -246q61 90 237 481
q172 385 178 449t6 121q0 61 -202 88v37h493z" />
    <glyph glyph-name="W" unicode="W" horiz-adv-x="2009" 
d="M1985 1432v-39q-127 -27 -197 -238q-132 -390 -408 -1173h-30q-37 92 -150 448l-153 492l-17 39q-18 -15 -112 -242q-35 -90 -109 -270q-119 -279 -215 -467h-33q-95 270 -184 604q-32 128 -158 610q-29 109 -55 147q-41 50 -141 50v39h524v-39q-131 0 -131 -58
q0 -41 26 -151l105 -459q64 -271 123 -457q77 164 200 457q65 160 131 344q10 40 -36 152q-47 119 -80 139q-40 25 -129 33v39h581v-39q-176 0 -176 -90q0 -20 10 -62q45 -165 269 -944q309 840 309 987q0 58 -55 82q-26 15 -105 27v39h396z" />
    <glyph glyph-name="X" unicode="X" horiz-adv-x="1564" 
d="M1522 1432v-39q-173 0 -400 -269l-268 -321l377 -584q114 -178 250 -178v-41h-607v41h17q6 -2 14 -2q113 0 113 72q0 43 -92 188l-219 342l-172 -227q-156 -218 -156 -283q0 -90 209 -90v-41h-549v41q143 0 287 188l352 457l-320 502q-132 205 -301 205v39h617v-39
q-66 0 -86 -4q-47 -12 -47 -60q0 -41 139 -260q114 -172 145 -221q301 365 301 459q0 59 -59 77q-35 9 -111 9v39h566z" />
    <glyph glyph-name="Y" unicode="Y" horiz-adv-x="1456" 
d="M1415 1432v-39q-109 0 -201 -117q-33 -42 -124 -209l-238 -442v-379q0 -108 25 -156q30 -55 114 -55q27 0 62 6v-41h-613v41l109 16q76 21 76 101v420q-75 109 -189 307l-102 178q-60 105 -115 190q-103 142 -168 142q-12 0 -18 -2v39h594v-39q-168 0 -168 -56
q0 -81 159 -348q121 -200 199 -307q20 36 78.5 143t89.5 166q141 261 141 297q0 105 -180 105v39h469z" />
    <glyph glyph-name="Z" unicode="Z" horiz-adv-x="1452" 
d="M1382 344l31 -8l-88 -268q-17 -54 -31 -64q-12 -6 -82 -6h-194q-86 2 -195 2h-317q-125 0 -373 -8q-37 -3 -37 22q0 14 133 203l658 930q67 93 78 113q46 68 65 116q-76 9 -133 6l-338 -6q-170 -3 -262 -63q-100 -65 -180 -211l-35 10l59 246l17 76q15 57 39 57
q37 -32 67 -51q71 -22 189 -19l524 9q41 0 143 6q118 4 142 4q38 0 41 -19q0 -43 -363 -565l-375 -528q-42 -69 -164 -258q115 -23 234 -23h184q170 0 250 25q103 35 209 147q36 46 104 125z" />
    <glyph glyph-name="bracketleft" unicode="[" horiz-adv-x="645" 
d="M641 -252v-57h-444v1741h444v-58h-301v-1626h301z" />
    <glyph glyph-name="backslash" unicode="\" horiz-adv-x="569" 
d="M100 1460l480 -1650h-95l-473 1650h88z" />
    <glyph glyph-name="bracketright" unicode="]" horiz-adv-x="645" 
d="M449 1432v-1741h-445v57h301v1626h-301v58h445z" />
    <glyph glyph-name="asciicircum" unicode="^" horiz-adv-x="2048" 
d="M1112 1462l520 -565h-92l-518 436l-520 -436h-90l522 565h178z" />
    <glyph glyph-name="underscore" unicode="_" 
d="M1024 -365v-118h-1024v118h1024z" />
    <glyph glyph-name="grave" unicode="`" 
d="M399 1315l289 -299h-67l-330 205q-62 41 -62 84q0 69 74 69q37 0 96 -59z" />
    <glyph glyph-name="a" unicode="a" horiz-adv-x="894" 
d="M842 150l32 -29q-83 -139 -198 -139q-89 0 -129 94q-186 -101 -287 -101q-82 0 -131 46.5t-49 125.5q0 100 82 164q84 65 393 176v172q0 168 -162 168q-53 0 -98 -26q-55 -30 -55 -80q0 -8 5 -38.5t5 -39.5q0 -94 -92 -94q-76 0 -76 86q0 68 106 149q80 63 170 99
q76 28 148 28q217 0 217 -262v-452q0 -103 43 -103q29 0 76 56zM551 199v231q-131 -34 -199 -76q-106 -63 -106 -170q0 -133 112 -133q34 0 99 27q66 27 84 55q10 17 10 66z" />
    <glyph glyph-name="b" unicode="b" horiz-adv-x="1112" 
d="M1042 446q0 -211 -122 -342q-119 -131 -330 -131q-167 0 -320 78l-82 -51h-30q8 153 8 260v944q0 64 -20 86t-85 29v41l258 98h23q-4 -180 -4 -205v-417q152 73 268 73q191 0 314 -135q122 -134 122 -328zM846 449q0 160 -47 266q-64 143 -209 143q-96 0 -170 -47
q-88 -55 -88 -145v-387q0 -116 70.5 -189.5t185.5 -73.5q258 0 258 433z" />
    <glyph glyph-name="c" unicode="c" horiz-adv-x="894" 
d="M852 223l33 -20q-135 -228 -400 -228q-186 0 -307 127q-117 129 -117 320q0 206 144 344q145 139 350 139q97 0 178 -37q107 -46 107 -131q0 -38 -26 -64t-64 -26q-76 0 -134 105q-54 106 -129 106q-116 0 -186 -137q-57 -111 -57 -242q0 -157 88 -270q94 -125 248 -125
t272 139z" />
    <glyph glyph-name="d" unicode="d" horiz-adv-x="1118" 
d="M1059 74v-37l-283 -66v105q-159 -105 -313 -105q-174 0 -283 127q-100 115 -100 297q0 222 139 367t363 145h39q73 0 155 -30v340q0 82 -35 112q-33 26 -114 45v39q290 51 323 47q-6 -387 -6 -389v-856q0 -72 21.5 -98t93.5 -43zM774 274v295q0 287 -235 287
q-143 0 -220 -111q-67 -98 -67 -245q0 -161 72 -293q89 -154 239 -154q211 0 211 221z" />
    <glyph glyph-name="e" unicode="e" horiz-adv-x="905" 
d="M819 244l31 -23q-126 -246 -373 -246q-188 0 -303 142q-108 132 -108 321q0 196 106 326q116 143 303 143q145 0 252 -82q119 -88 119 -227q0 -31 -58 -31h-497q-41 0 -47 -24v-64q0 -153 73 -260q83 -123 230 -123q139 0 272 148zM676 649q0 89 -58 151t-145 62
q-82 0 -151 -69q-68 -68 -68 -150q0 -27 68 -27h288q66 0 66 33z" />
    <glyph glyph-name="f" unicode="f" horiz-adv-x="667" 
d="M807 1350q0 -84 -98 -84q-45 0 -111 51q-65 53 -90 53q-97 0 -121 -162q-10 -65 -10 -231q0 -56 6 -68q9 -22 57 -22h197v-88h-250v-604q0 -106 29 -132q27 -24 137 -24v-39h-504v39q112 0 141 39q25 31 25 147v463q0 111 -158 111v47q34 5 107 22q26 13 35 37l53 236
q30 134 141 225q115 92 250 92q164 0 164 -108z" />
    <glyph glyph-name="g" unicode="g" horiz-adv-x="1009" 
d="M1008 797q0 -26 -20 -47t-46 -21q-38 0 -72 55q-30 56 -63 56q-31 0 -78 -21q102 -95 102 -250t-114 -250q-110 -90 -266 -90q-54 0 -172 33q-60 -57 -60 -106q0 -68 172 -86q15 -3 211 -9q141 -3 205 -34q92 -47 92 -172q0 -111 -37 -181q-65 -120 -244 -196
q-157 -68 -313 -68q-102 0 -172 43q-88 52 -88 144t178 331q-125 40 -125 123q0 82 135 232q-153 114 -153 272q0 155 119 256q116 96 268 96q104 0 219 -59q131 55 182 55q140 0 140 -106zM651 569q0 295 -188 295q-199 0 -199 -297q0 -120 39 -194q50 -103 156 -103
q192 0 192 299zM811 -256q0 96 -102 137q-98 39 -435 39q-106 -118 -106 -207q0 -92 115 -145q85 -39 196 -39q130 0 217 43q115 59 115 172z" />
    <glyph glyph-name="h" unicode="h" horiz-adv-x="1118" 
d="M1096 39v-39h-465v39q151 0 151 102v422q0 127 -32 178q-44 74 -158 74q-236 0 -236 -215v-448q0 -75 39 -95q27 -18 107 -18v-39h-455v39q73 0 100 18q37 27 37 99v1058q0 78 -20 107q-26 39 -105 39v37q48 0 168 30q115 33 131 33v-686q180 133 322 133q172 0 231 -121
q41 -84 41 -272q0 -82 -0.5 -152t-1.5 -106v-37q6 -128 29 -151q29 -29 117 -29z" />
    <glyph glyph-name="i" unicode="i" horiz-adv-x="559" 
d="M406 1327q0 -44 -34 -77t-79 -33q-47 0 -79 31.5t-32 78.5t32 80t79 33q49 0 81 -32t32 -81zM512 39v-39h-449v39q146 0 146 102v484q0 82 -24.5 113.5t-100.5 31.5v39q276 105 297 96v-676q0 -114 14 -139q20 -51 117 -51z" />
    <glyph glyph-name="j" unicode="j" horiz-adv-x="550" 
d="M356 1327q0 -47 -32.5 -78.5t-79.5 -31.5q-44 0 -77.5 33t-33.5 77q0 47 33 80t78 33q47 0 79.5 -33t32.5 -80zM381 905v-934q0 -368 -322 -561l-22 43q172 117 172 438v711q0 104 -27 125q-30 23 -131 23v38q132 21 299 117h31z" />
    <glyph glyph-name="k" unicode="k" horiz-adv-x="1005" 
d="M1006 39v-39h-408v39q92 0 92 37q-7 23 -43 74l-147 202q-22 31 -62 37q-6 2 -76 2v-241q0 -68 24.5 -89.5t98.5 -21.5v-39h-424v39q89 0 113 35q19 28 19 121v972q0 106 -17 140q-27 47 -123 47v39q286 74 316 67l-7 -237v-787h33q59 0 88 19q16 10 56 67l104 146
q53 74 53 112q0 68 -112 68v39h403v-39q-190 0 -389 -346l250 -346q77 -105 158 -117z" />
    <glyph glyph-name="l" unicode="l" horiz-adv-x="559" 
d="M504 39v-39h-453v39q137 0 137 102v1092q0 95 -20 115q-23 23 -117 38v37q278 40 311 37v-55q-2 -25 -2 -55v-1129q0 -107 19 -139q27 -43 125 -43z" />
    <glyph glyph-name="m" unicode="m" horiz-adv-x="1701" 
d="M1679 39v-39h-462v39q153 0 153 102v422q0 125 -33 178q-44 74 -155 74q-238 0 -238 -215v-371q0 -72 4 -104q12 -61 60 -76q67 -7 82 -10v-39h-463v39q78 0 106 14q45 20 45 88v422q0 125 -33 178q-44 74 -155 74q-234 0 -234 -215v-446q0 -74 39 -97q27 -18 107 -18
v-39h-455v39q73 0 100 18q37 27 37 99v469q0 83 -28 114t-109 31v39q112 0 293 96h22l3 -123q173 123 315 123q170 0 240 -143q213 143 348 143q169 0 231 -121q39 -79 39 -270v-285q0 -131 27 -161q29 -29 114 -29z" />
    <glyph glyph-name="n" unicode="n" horiz-adv-x="1118" 
d="M1096 39v-39h-465v39q151 0 151 102v422q0 127 -32 178q-44 74 -158 74q-236 0 -236 -215v-448q0 -75 39 -95q27 -18 107 -18v-39h-455v39q73 0 100 18q37 27 37 99v469q0 83 -28 114t-109 31v39q112 0 293 96h22l3 -123q188 123 313 123q73 0 137 -31q97 -51 123 -153
q14 -49 14 -207v-102t-0.5 -82t-1 -58t-0.5 -39v-16q6 -126 29 -149q29 -29 117 -29z" />
    <glyph glyph-name="o" unicode="o" horiz-adv-x="1019" 
d="M963 455q0 -205 -127 -344q-127 -136 -334 -136q-199 0 -322 129t-123 328q0 202 131 336q131 137 330 137q200 0 322 -125q123 -126 123 -325zM764 446q0 418 -250 418q-260 0 -260 -438q0 -182 39 -270q59 -138 209 -138q262 0 262 428z" />
    <glyph glyph-name="p" unicode="p" horiz-adv-x="1099" 
d="M1038 459q0 -216 -131 -344q-129 -129 -344 -129q-100 0 -227 37v-441q0 -80 35 -104q27 -21 112 -21v-39h-454v39q77 0 107 26t30 99v1073q0 83 -28.5 114.5t-108.5 31.5v39q109 0 293 96h22l2 -123q148 92 287 92q182 0 297 -133q108 -129 108 -313zM850 420
q0 163 -70 276q-83 133 -237 133q-211 0 -211 -170v-352q0 -124 59 -198q65 -80 189 -80q146 0 217 129q53 103 53 262z" />
    <glyph glyph-name="q" unicode="q" horiz-adv-x="1089" 
d="M1069 -545v-37h-451v39q93 0 117 15q33 20 33 106v438q-36 0 -113 -18q-77 -21 -116 -21q-219 0 -346 129t-127 349q0 191 129 323q130 133 321 133q49 0 156 -22q105 -21 157 -21q38 0 99 37h22q-10 -160 -10 -260v-1104q0 -58 37 -73q18 -7 92 -13zM770 66v532
q0 276 -242 276q-270 0 -270 -356q0 -191 64 -319q79 -166 251 -166h58q54 0 139 33z" />
    <glyph glyph-name="r" unicode="r" horiz-adv-x="782" 
d="M766 801q0 -107 -94 -107q-32 0 -88 47t-82 47q-49 0 -96 -53q-44 -53 -44 -106v-432q0 -103 31 -131q30 -27 131 -27v-39h-477v39q85 0 113 30t28 117v490q0 64 -20 86.5t-88 40.5v39q255 83 268 80q11 -63 8 -179q157 177 285 177q56 0 90.5 -32t34.5 -87z" />
    <glyph glyph-name="s" unicode="s" horiz-adv-x="782" 
d="M692 248q0 -118 -78.5 -195.5t-197.5 -77.5q-19 0 -105 11q-75 10 -90 10q-9 0 -44 -5t-44 -5h-6q-4 2 -8 2q-18 9 -33 116l-12 136l28 14q137 -236 275 -236q75 0 122.5 47t47.5 125q0 90 -117 160q-51 28 -215 121q-117 79 -117 191q0 115 92 186q81 63 201 63
q50 0 195 -22q21 3 49 26h22q6 -43 27 -249l-29 -7q-130 213 -258 213q-68 0 -112.5 -42t-44.5 -109q0 -87 116 -148l219 -112q117 -83 117 -213z" />
    <glyph glyph-name="t" unicode="t" horiz-adv-x="667" 
d="M625 106l20 -28q-108 -105 -248 -105q-237 0 -237 275q0 47 2 82t2 80v387h-123v41l268 239h33v-190h303v-90h-262q-51 0 -51 -43v-529q0 -164 139 -164q83 0 154 45z" />
    <glyph glyph-name="u" unicode="u" horiz-adv-x="1118" 
d="M1067 72v-35q-112 -26 -156 -35q-133 -27 -145 -25l-4 119q-131 -119 -301 -119q-283 0 -283 338q0 278 -6 383q-6 94 -25 119q-25 31 -112 31v39l317 8q-4 -46 -4 -107v-428q0 -141 31 -208q47 -99 170 -99q76 0 141 41q66 45 66 117v516q0 79 -43 100q-12 6 -119 21v39
l338 8q-4 -152 -4 -172v-508q0 -97 24 -121q25 -22 115 -22z" />
    <glyph glyph-name="v" unicode="v" horiz-adv-x="1005" 
d="M971 887v-39q-75 -26 -137 -125q-34 -63 -78 -174q-155 -394 -250 -574h-41q-59 125 -129 310l-137 368q-64 180 -160 195v39h410v-39q-127 0 -127 -47q0 -36 102 -297q87 -228 127 -307q217 441 217 553q0 57 -45 77q-27 15 -96 21v39h344z" />
    <glyph glyph-name="w" unicode="w" horiz-adv-x="1566" 
d="M1530 887v-37q-82 -27 -125 -115l-223 -456q-21 -44 -150 -297h-39q-59 121 -186 550q-179 -380 -272 -550h-35q-1 3 -34 72t-56 120l-193 457q-92 219 -186 219v37h411v-37q-63 0 -69 -2q-41 -9 -41 -45q0 -48 192 -508l51 -123q37 61 111 213q92 195 92 233
q0 17 -14 52l-49 131q-27 49 -109 49v37h412v-37q-123 0 -123 -62q0 -27 20 -88q43 -151 164 -520q9 19 246 494q21 41 21 86q0 78 -115 90v37h299z" />
    <glyph glyph-name="x" unicode="x" horiz-adv-x="1005" 
d="M956 39l7 -39h-433v39q115 0 115 35q0 24 -82 149q-69 106 -100 150q-205 -214 -205 -275q0 -38 111 -59v-39h-326v39q65 0 227 180q7 4 166 197l-229 344q-48 72 -154 90v37h434v-37q-27 0 -57 -10q-37 -15 -37 -37q0 -60 158 -268q170 200 170 243q0 45 -37 60
q-21 9 -76 12v37h346v-37q-87 -18 -213 -156l-163 -198l159 -248q135 -209 219 -209z" />
    <glyph glyph-name="y" unicode="y" horiz-adv-x="1118" 
d="M1073 887v-37q-81 -9 -164 -141q-23 -35 -102 -203l-205 -447q-84 -177 -153 -307q-131 -247 -203 -307q-43 -37 -94 -37q-44 0 -75.5 31.5t-31.5 75.5t33 75t78 31q38 0 112 -45q22 0 31 21q190 292 190 380q-3 26 -8 37q-6 28 -16 54l-244 604q-40 95 -59 119
q-44 59 -113 59l-4 37h432v-37q-70 0 -78 -2q-49 -9 -49 -47q0 -31 29 -103l178 -426q19 -51 43 -90q40 54 107 209l84 193q57 123 57 182t-51 76q-24 8 -101 8v37h377z" />
    <glyph glyph-name="z" unicode="z" horiz-adv-x="894" 
d="M836 274l30 -8l-20 -135q-17 -104 -35 -129h-10q-4 -2 -10 -2h-734v33q138 231 328 510q180 259 180 288l-12 13l-109 6q-133 0 -211.5 -46.5t-140.5 -162.5l-31 6q13 74 68 279h31q9 -21 26 -31q36 -8 82 -8h512v-25q-203 -308 -522 -803q17 -14 98 -14h201
q103 0 170 70q42 42 109 159z" />
    <glyph glyph-name="braceleft" unicode="{" 
d="M846 -193v-51h-10q-214 0 -297 74q-84 72 -84 268q0 54 2 97t2 96q0 150 -47 221q-64 94 -236 94v60q161 15 219 73q62 59 62 217q0 264 6 310q15 130 92 186q85 64 291 64v-52q-143 0 -195 -55q-53 -56 -53 -254v-49q2 -23 2 -51q0 -222 -59 -305q-57 -80 -228 -115
q159 -26 224 -113q61 -82 61 -313v-92q0 -203 53 -256q54 -54 195 -54z" />
    <glyph glyph-name="bar" unicode="|" 
d="M575 1565v-2048h-126v2048h126z" />
    <glyph glyph-name="braceright" unicode="}" 
d="M848 666v-60q-172 0 -236 -94q-49 -70 -49 -223q0 -51 2 -94t2 -97q0 -195 -82 -268q-83 -74 -307 -74v51q141 0 195 54q51 51 51 260v76q0 241 61 323q63 88 226 115q-166 35 -226 115q-61 82 -61 309v104q0 197 -51 248q-53 53 -195 53v52h10q222 0 299 -74
q80 -74 80 -303q0 -41 -2 -72v-72q0 -191 60 -254q51 -54 223 -75z" />
    <glyph glyph-name="asciitilde" unicode="~" horiz-adv-x="1705" 
d="M1530 758v-131q-117 -81 -207 -111q-95 -33 -233 -33q-15 5 -46 11q-38 6 -237 75q-146 52 -244 52q-159 0 -385 -160v133q216 145 387 145q107 0 291 -69q192 -68 289 -68q165 0 385 156z" />
    <glyph glyph-name="uni0080" horiz-adv-x="1835" 
d="M0 696v39q0 181 258 119l-18 160h-240l39 160h219q239 573 735 675q539 41 815 -258l-59 -159q-299 316 -756 258q-377 -120 -555 -496l1192 -20l-39 -119l-41 -41h-1153v-160h1114l-100 -158h-973q99 -319 537 -518q458 -77 774 260l-18 -239q-138 -120 -379 -179h-377
q-237 58 -397 199q-241 201 -320 477h-258z" />
    <glyph glyph-name="uni0080" unicode="&#x20ac;" horiz-adv-x="1835" 
d="M0 696v39q0 181 258 119l-18 160h-240l39 160h219q239 573 735 675q539 41 815 -258l-59 -159q-299 316 -756 258q-377 -120 -555 -496l1192 -20l-39 -119l-41 -41h-1153v-160h1114l-100 -158h-973q99 -319 537 -518q458 -77 774 260l-18 -239q-138 -120 -379 -179h-377
q-237 58 -397 199q-241 201 -320 477h-258z" />
    <glyph glyph-name="nbspace" unicode="&#xa0;" horiz-adv-x="1005" 
 />
    <glyph glyph-name="exclamdown" unicode="&#xa1;" horiz-adv-x="673" 
d="M438 -25q-60 -14 -121 -14h-20l-59 33q28 228 53 504l24 436h45l33 -381l29 -289q16 -181 16 -289zM449 1309q0 -47 -33 -80t-80 -33t-79 33t-32 80t32 78.5t79 31.5q50 0 81.5 -30.5t31.5 -79.5z" />
    <glyph glyph-name="cent" unicode="&#xa2;" horiz-adv-x="1005" 
d="M909 252l33 -21q-135 -231 -377 -231q-86 0 -135 14l-111 -272h-67l119 293q-116 55 -184 166.5t-68 242.5q0 209 141 347q142 139 348 139q78 0 121 -15l98 244h70l-106 -264q104 -49 104 -135q0 -88 -92 -88q-41 0 -88 41l-230 -568q73 -36 150 -36q161 0 274 143z
M432 188l240 594q-43 101 -129 101q-115 0 -185 -138q-57 -111 -57 -239q0 -208 131 -318z" />
    <glyph glyph-name="sterling" unicode="&#xa3;" horiz-adv-x="1005" 
d="M930 340h39q-34 -371 -297 -371q-85 0 -168 47q-38 23 -117 88q-60 48 -92 48q-54 0 -98 -93q-44 -92 -101 -92q-26 0 -46.5 22.5t-20.5 51.5q0 39 59 74q85 52 107 82q59 77 59 217t-33 286h-178v68h170q-12 86 -12 176q0 181 114 295q115 115 295 115q108 0 197 -47
q108 -59 108 -154q0 -86 -84 -86q-47 0 -71 61q-41 106 -49 117q-44 62 -136 62q-217 0 -217 -312q0 -45 15 -112q5 -31 22 -115h287l-2 -68h-274q4 -28 4 -94q0 -227 -134 -399q24 4 54 4q74 0 198 -39q130 -37 199 -37q163 0 203 205z" />
    <glyph glyph-name="currency" unicode="&#xa4;" horiz-adv-x="1241" 
d="M952 629l205 -205l-72 -74l-204 207q-110 -88 -260 -88q-143 0 -256 88l-207 -207l-72 74l207 205q-88 119 -88 256q0 149 88 256l-207 205l72 73l207 -207q133 91 256 91q140 0 260 -91l204 207l72 -73l-205 -205q86 -115 86 -256t-86 -256zM936 887q0 133 -90 223
t-223 90q-130 0 -222 -92q-92 -89 -92 -221q0 -128 92 -223q93 -93 222 -93q131 0 221 93q92 92 92 223z" />
    <glyph glyph-name="yen" unicode="&#xa5;" horiz-adv-x="1191" 
d="M1245 1331v-37q-118 0 -231 -155q-26 -40 -146 -256h308v-58h-340l-103 -180h443v-57h-474q0 -1 -1 -3t-1 -3v-355q0 -104 17 -143q27 -49 127 -49q41 0 51 2v-37h-537v37l117 18q62 21 62 90v392l-33 51h-486v57h451l-115 180h-336v58h301q-16 27 -66 108t-77 127
q-126 184 -190 178h-13q-4 -2 -10 -2v37h514v-37q-166 0 -166 -51q0 -65 160 -325q108 -177 193 -291l282 497q25 45 25 76q0 94 -178 94v37h452z" />
    <glyph glyph-name="brokenbar" unicode="&#xa6;" 
d="M575 1432v-758h-126v758h126zM575 408v-758h-126v758h126z" />
    <glyph glyph-name="section" unicode="&#xa7;" 
d="M889 563q0 -119 -90 -188q-85 -60 -207 -60q199 -156 199 -303q0 -116 -99 -186q-88 -64 -211 -64q-101 0 -186 52q-100 57 -100 153q0 113 104 113q37 0 63.5 -25t26.5 -61q0 -9 -3.5 -20t-7 -19t-12.5 -21.5t-12.5 -18.5t-15.5 -20.5t-14 -17.5q0 -37 61 -55
q47 -15 94 -15q77 0 129 37q60 45 60 119q0 91 -138 217l-258 226q-137 137 -137 247q0 121 88 191q82 61 205 61q-195 160 -195 297q0 115 84 187q83 71 203 71q105 0 182 -51q93 -59 93 -156q0 -110 -105 -110q-36 0 -63 23t-27 57q0 30 33 69t33 54q0 32 -58 53
q-50 16 -84 16q-70 0 -119 -43.5t-49 -111.5q0 -100 138 -220l258 -217q137 -134 137 -260zM772 512q0 88 -137 219q-136 133 -221 133q-70 0 -116 -42.5t-46 -110.5q0 -83 137 -217q140 -134 221 -134q67 0 114.5 43.5t47.5 108.5z" />
    <glyph glyph-name="dieresis" unicode="&#xa8;" 
d="M784 1171q0 -41 -29.5 -70.5t-70.5 -29.5q-43 0 -71.5 28.5t-28.5 71.5q0 38 31 68.5t69 30.5t69 -30.5t31 -68.5zM440 1171q0 -41 -29.5 -70.5t-70.5 -29.5t-69.5 29.5t-28.5 70.5q0 38 30 68.5t68 30.5t69 -30.5t31 -68.5z" />
    <glyph glyph-name="copyright" unicode="&#xa9;" horiz-adv-x="1683" 
d="M1544 678q0 -293 -205 -498t-497 -205q-293 0 -498 205t-205 498t205 498q206 206 500 206q292 0 495 -206q205 -205 205 -498zM1458 678q0 259 -178 440q-179 185 -436 185q-256 0 -438 -185q-181 -181 -181 -440q0 -257 181 -438q183 -183 436 -183q258 0 436 181
q180 180 180 440zM1137 477l34 -24q-114 -209 -342 -209q-167 0 -286 125q-117 126 -117 295q0 183 111 309q114 129 290 129q59 0 230 -68q54 0 63 62h35l2 -314h-41q-68 275 -280 275q-248 0 -248 -373q0 -381 266 -381q170 0 283 174z" />
    <glyph glyph-name="ordfeminine" unicode="&#xaa;" horiz-adv-x="671" 
d="M631 915l24 -20q-66 -96 -147 -96q-68 0 -98 65q-117 -69 -215 -69q-58 0 -97 32t-39 86q0 94 140 162q48 25 217 78v119q0 119 -121 119q-36 0 -72 -19q-43 -21 -43 -57q0 -5 4 -25t4 -28q0 -66 -69 -66q-58 0 -58 59q0 46 80 105q129 90 238 90q164 0 164 -184v-318
q0 -71 32 -71q12 0 56 38zM414 950v162q-230 -52 -230 -172q0 -92 84 -92q40 0 107 33q39 17 39 69z" />
    <glyph glyph-name="guillemotleft" unicode="&#xab;" horiz-adv-x="794" 
d="M754 133v-6q-2 -4 -2 -8l-9 -4q-3 0 -157 145q-175 164 -191 176q39 33 189 174q155 146 159 146l9 -4q0 -5 2 -7v-6q0 -56 -203 -303q203 -247 203 -303zM432 133l-4 -14l-6 -4q-3 0 -160 145l-188 176q26 20 188 174q155 146 160 146l6 -4l4 -13q0 -64 -207 -303
q204 -242 207 -303z" />
    <glyph glyph-name="logicalnot" unicode="&#xac;" horiz-adv-x="1705" 
d="M1452 858v-502h-115v385h-1083v117h1198z" />
    <glyph glyph-name="minus" unicode="&#xad;" horiz-adv-x="673" 
d="M592 516v-151h-512v151h512z" />
    <glyph glyph-name="minus" unicode="&#x2212;" horiz-adv-x="673" 
d="M592 516v-151h-512v151h512z" />
    <glyph glyph-name="registered" unicode="&#xae;" horiz-adv-x="1683" 
d="M1544 676q0 -290 -209 -496q-208 -205 -499 -205q-287 0 -494 207q-203 206 -203 496q0 293 205 498q206 206 500 206t497 -206t203 -500zM1458 678q0 261 -178 442q-177 183 -436 183q-256 0 -438 -185q-181 -184 -181 -440q0 -257 181 -438q183 -183 436 -183
q258 0 436 181q180 180 180 440zM1286 463v-12q0 -179 -160 -179q-121 0 -139 107l-29 194q-46 107 -229 107v-248q0 -100 125 -100v-41h-385v41q127 0 127 100v516q0 63 -37 84q-31 17 -90 17v43h393q128 0 207 -39q111 -53 111 -162q0 -143 -287 -199q107 -30 160 -98
q45 -56 63 -176q15 -88 60 -88q67 0 67 133h43zM1030 891q0 80 -61 123q-51 39 -135 39q-105 0 -105 -72v-262h16q8 -2 17 -2h33q235 0 235 174z" />
    <glyph glyph-name="overscore" unicode="&#xaf;" 
d="M770 1233v-125h-516v125h516z" />
    <glyph glyph-name="overscore" unicode="&#x2c9;" 
d="M770 1233v-125h-516v125h516z" />
    <glyph glyph-name="degree" unicode="&#xb0;" horiz-adv-x="673" 
d="M621 1171q0 -116 -84 -200q-82 -82 -201 -82t-201 82q-80 83 -80 200q0 119 82 201t201 82q122 0 201 -82q82 -79 82 -201zM539 1171q0 82 -59.5 141.5t-141.5 59.5q-85 0 -144 -58t-59 -143t58.5 -143.5t144.5 -58.5t143.5 58t57.5 144z" />
    <glyph glyph-name="plusminus" unicode="&#xb1;" horiz-adv-x="1705" 
d="M1452 836v-117h-539v-344h-118v344h-541v117h541v344h118v-344h539zM1452 158v-117h-1198v117h1198z" />
    <glyph glyph-name="twosuperior" unicode="&#xb2;" horiz-adv-x="663" 
d="M539 682l24 -10l-33 -86q-25 -54 -63 -54h-393v21q350 385 350 555q0 73 -46 117.5t-120 44.5q-79 0 -156 -68l-20 12q104 134 244 134q93 0 152 -51t59 -140q0 -104 -142 -278l-207 -244l13 -6h22q10 -2 21 -2h207q38 0 53.5 10t34.5 45z" />
    <glyph glyph-name="threesuperior" unicode="&#xb3;" horiz-adv-x="663" 
d="M522 813q0 -109 -104 -203q-103 -92 -213 -92q-68 0 -68 43q0 41 47 41q19 0 103 -35q50 0 94 72q37 61 37 119q0 157 -201 192v21q186 104 186 194q0 117 -122 117q-77 0 -127 -47l-17 14q102 99 205 99q71 0 118.5 -36t47.5 -100q0 -80 -154 -186q168 -70 168 -213z
" />
    <glyph glyph-name="acute" unicode="&#xb4;" 
d="M795 1305q0 -43 -62 -84l-330 -205h-67l289 299q59 59 96 59q74 0 74 -69z" />
    <glyph glyph-name="mu" unicode="&#xb5;" horiz-adv-x="1120" 
d="M1087 295q0 -66 -40 -150q-76 -163 -230 -163q-149 0 -149 213q-86 -218 -281 -218q-188 0 -223 216q-24 -122 -51 -338q-35 -273 -113 -273q-80 0 -80 88q0 29 66 275q59 212 104 426l109 514h147l-104 -492q-13 -63 -13 -123q0 -164 160 -164q199 0 258 269l111 510
h149l-114 -531q-21 -95 -21 -145q0 -39 28 -69.5t64 -30.5q68 0 107 57q24 35 53 108q21 58 37 58q26 0 26 -37z" />
    <glyph glyph-name="mu" unicode="&#x3bc;" horiz-adv-x="1120" 
d="M1087 295q0 -66 -40 -150q-76 -163 -230 -163q-149 0 -149 213q-86 -218 -281 -218q-188 0 -223 216q-24 -122 -51 -338q-35 -273 -113 -273q-80 0 -80 88q0 29 66 275q59 212 104 426l109 514h147l-104 -492q-13 -63 -13 -123q0 -164 160 -164q199 0 258 269l111 510
h149l-114 -531q-21 -95 -21 -145q0 -39 28 -69.5t64 -30.5q68 0 107 57q24 35 53 108q21 58 37 58q26 0 26 -37z" />
    <glyph glyph-name="paragraph" unicode="&#xb6;" 
d="M948 1479v-78h-125v-1401h-94v1401h-182v-1401h-96v782q-159 0 -265 95q-110 94 -110 253q0 166 117 261q107 88 276 88h479z" />
    <glyph glyph-name="middot" unicode="&#xb7;" horiz-adv-x="501" 
d="M362 666q0 -45 -32.5 -78t-79.5 -33q-44 0 -77.5 33.5t-33.5 77.5q0 47 32 79.5t79 32.5q44 0 78 -34t34 -78z" />
    <glyph glyph-name="middot" unicode="&#x2219;" horiz-adv-x="501" 
d="M362 666q0 -45 -32.5 -78t-79.5 -33q-44 0 -77.5 33.5t-33.5 77.5q0 47 32 79.5t79 32.5q44 0 78 -34t34 -78z" />
    <glyph glyph-name="cedilla" unicode="&#xb8;" 
d="M786 -270q0 -176 -219 -176q-121 0 -293 75l35 78q132 -72 223 -72q121 0 121 93q0 90 -141 90q-3 0 -33 -6v188h64v-113q44 7 75 7q78 0 123 -44.5t45 -119.5z" />
    <glyph glyph-name="onesuperior" unicode="&#xb9;" horiz-adv-x="663" 
d="M508 557v-25h-336v25q68 0 86 12q27 15 27 78v545q0 40 -117 49v25q112 15 215 80h14v-719q0 -50 31 -62q16 -8 80 -8z" />
    <glyph glyph-name="ordmasculine" unicode="&#xba;" horiz-adv-x="765" 
d="M723 1128q0 -146 -100 -239q-98 -94 -246 -94q-146 0 -240 88t-94 231q0 147 98 238q103 92 248 92q144 0 239 -87.5t95 -228.5zM573 1124q0 291 -188 291q-195 0 -195 -305q0 -126 29 -195q44 -92 158 -92q196 0 196 301z" />
    <glyph glyph-name="guillemotright" unicode="&#xbb;" horiz-adv-x="794" 
d="M399 436q-20 -18 -148.5 -137.5t-199.5 -183.5l-8 4v8q-2 2 -2 6q0 58 205 303q-205 248 -205 303q0 4 2 6v7l8 4q5 0 160 -146zM721 436q-202 -189 -348 -321l-8 4v8q-3 3 -3 6q0 52 207 303q-37 42 -116 152q-91 126 -91 151q0 3 3 6v7l8 4q1 0 159 -146
q150 -141 189 -174z" />
    <glyph glyph-name="onequarter" unicode="&#xbc;" horiz-adv-x="1607" 
d="M1577 330v-80q-61 3 -143 -6l-7 -217q0 -21 -4 -41h-96q0 248 -4 260q-37 13 -156 4q-124 -6 -168 4q-6 12 -6 16q0 52 195 271q198 219 242 219l12 -6l6 -17v-16q0 -10 -4 -100t-4 -103v-168l4 -16q20 -4 133 -4zM1223 1356h92l-932 -1381h-90zM485 608v-22h-319v22
q66 0 86 14.5t20 69.5v510q0 36 -110 45v23q103 15 205 76h12v-672q0 -49 33 -60q15 -6 73 -6zM1335 352v303l-149 -159q-120 -135 -123 -158l10 -6h21q8 -2 18 -2h195q9 0 13 0.5t9.5 5.5t5.5 16z" />
    <glyph glyph-name="onehalf" unicode="&#xbd;" horiz-adv-x="1607" 
d="M1223 1356h92l-932 -1381h-90zM1489 139l24 -8l-30 -82q-24 -49 -64 -49h-375v18q336 374 336 519q0 68 -44.5 109.5t-114.5 41.5q-79 0 -148 -63l-20 12q89 123 233 123q90 0 145.5 -46t55.5 -130q0 -96 -135 -260l-197 -230l12 -6h238q58 0 84 51zM485 608v-22h-319v22
q66 0 86 14.5t20 69.5v510q0 36 -110 45v23q103 15 205 76h12v-672q0 -49 33 -60q15 -6 73 -6z" />
    <glyph glyph-name="threequarters" unicode="&#xbe;" horiz-adv-x="1609" 
d="M1577 330v-80q-61 3 -143 -6l-7 -217q0 -21 -4 -41h-96q0 248 -4 260q-37 13 -156 4q-124 -6 -168 4q-6 12 -6 16q0 52 195 271q198 219 242 219l12 -6l6 -17v-16q0 -10 -4 -100t-4 -103v-168l4 -16q20 -4 133 -4zM1223 1356h92l-932 -1381h-92zM500 848
q0 -103 -101 -191q-103 -86 -204 -86q-64 0 -64 41q0 39 45 39q31 0 98 -33q50 0 91 66q34 58 34 111q0 146 -192 180v20q178 88 178 181q0 110 -119 110q-68 0 -119 -45l-16 14q97 91 195 91q61 0 106 -31q51 -34 51 -94q0 -79 -145 -174q162 -64 162 -199zM1335 352v303
l-149 -159q-120 -135 -123 -158l10 -6h21q8 -2 18 -2h195q9 0 13 0.5t9.5 5.5t5.5 16z" />
    <glyph glyph-name="questiondown" unicode="&#xbf;" horiz-adv-x="890" 
d="M686 111l-6 -107h-51q0 45 -15 57q-12 15 -102 21q-111 9 -125 14q-215 62 -215 467q0 258 174 273l100 6q86 9 89 26q20 120 22 166h37q12 -302 12 -305q0 -41 -114 -41h-41q-108 0 -158 -20q-78 -35 -78 -125q0 -214 125 -269q12 -5 231 -32q121 -15 115 -131z
M692 1350q0 -50 -30.5 -81.5t-79.5 -31.5q-44 0 -78.5 34.5t-34.5 78.5q0 47 32.5 78.5t80.5 31.5q47 0 78.5 -31.5t31.5 -78.5z" />
    <glyph glyph-name="Agrave" unicode="&#xc0;" horiz-adv-x="1488" 
d="M1483 41v-41h-588v41q176 0 176 53q0 13 -22 74l-109 274q-38 95 -115 95h-362q-57 0 -92 -62q-15 -21 -45 -110q-74 -210 -74 -230q0 -55 84 -76q28 -9 127 -18v-41h-463v41q137 0 236 246l370 923q7 20 31 74q68 158 88 158q15 0 41 -45q24 -39 115 -262l364 -881
q52 -125 80 -156q51 -57 158 -57zM868 608l-202 510q-2 8 -17 39l-6 4q-29 -33 -129 -291q-94 -248 -94 -268l6 -12q28 -4 35 -4h358q32 0 40.5 4t8.5 18zM625 1870l288 -299h-67l-330 205q-61 40 -61 84q0 69 73 69q38 0 97 -59z" />
    <glyph glyph-name="Aacute" unicode="&#xc1;" horiz-adv-x="1488" 
d="M1483 41v-41h-588v41q176 0 176 53q0 13 -22 74l-109 274q-38 95 -115 95h-362q-57 0 -92 -62q-15 -21 -45 -110q-74 -210 -74 -230q0 -55 84 -76q28 -9 127 -18v-41h-463v41q137 0 236 246l370 923q7 20 31 74q68 158 88 158q15 0 41 -45q24 -39 115 -262l364 -881
q52 -125 80 -156q51 -57 158 -57zM868 608l-202 510q-2 8 -17 39l-6 4q-29 -33 -129 -291q-94 -248 -94 -268l6 -12q28 -4 35 -4h358q32 0 40.5 4t8.5 18zM1020 1860q0 -43 -62 -84l-329 -205h-68l289 299q59 59 96 59q74 0 74 -69z" />
    <glyph glyph-name="Acircumflex" unicode="&#xc2;" horiz-adv-x="1488" 
d="M1483 41v-41h-588v41q176 0 176 53q0 13 -22 74l-109 274q-38 95 -115 95h-362q-57 0 -92 -62q-15 -21 -45 -110q-74 -210 -74 -230q0 -55 84 -76q28 -9 127 -18v-41h-463v41q137 0 236 246l370 923q7 20 31 74q68 158 88 158q15 0 41 -45q24 -39 115 -262l364 -881
q52 -125 80 -156q51 -57 158 -57zM868 608l-202 510q-2 8 -17 39l-6 4q-29 -33 -129 -291q-94 -248 -94 -268l6 -12q28 -4 35 -4h358q32 0 40.5 4t8.5 18zM797 1919l231 -348h-57l-234 211l-233 -211h-58l232 348h119z" />
    <glyph glyph-name="Atilde" unicode="&#xc3;" horiz-adv-x="1488" 
d="M1483 41v-41h-588v41q176 0 176 53q0 13 -22 74l-109 274q-38 95 -115 95h-362q-57 0 -92 -62q-15 -21 -45 -110q-74 -210 -74 -230q0 -55 84 -76q28 -9 127 -18v-41h-463v41q137 0 236 246l370 923q7 20 31 74q68 158 88 158q15 0 41 -45q24 -39 115 -262l364 -881
q52 -125 80 -156q51 -57 158 -57zM868 608l-202 510q-2 8 -17 39l-6 4q-29 -33 -129 -291q-94 -248 -94 -268l6 -12q28 -4 35 -4h358q32 0 40.5 4t8.5 18zM971 1868h53q-12 -83 -53 -139q-54 -66 -129 -66q-37 0 -127 23q-86 22 -125 22q-61 0 -88 -90h-51q34 211 186 211
q35 0 125 -23q86 -22 123 -22q62 0 86 84z" />
    <glyph glyph-name="Adieresis" unicode="&#xc4;" horiz-adv-x="1488" 
d="M1483 41v-41h-588v41q176 0 176 53q0 13 -22 74l-109 274q-38 95 -115 95h-362q-57 0 -92 -62q-15 -21 -45 -110q-74 -210 -74 -230q0 -55 84 -76q28 -9 127 -18v-41h-463v41q137 0 236 246l370 923q7 20 31 74q68 158 88 158q15 0 41 -45q24 -39 115 -262l364 -881
q52 -125 80 -156q51 -57 158 -57zM868 608l-202 510q-2 8 -17 39l-6 4q-29 -33 -129 -291q-94 -248 -94 -268l6 -12q28 -4 35 -4h358q32 0 40.5 4t8.5 18zM1010 1726q0 -41 -30 -70.5t-71 -29.5q-43 0 -71.5 28.5t-28.5 71.5q0 38 31.5 68.5t68.5 30.5q41 0 71 -30t30 -69z
M666 1726q0 -41 -30 -70.5t-71 -29.5t-69.5 29.5t-28.5 70.5t29.5 70t68.5 29q38 0 69.5 -30.5t31.5 -68.5z" />
    <glyph glyph-name="Aring" unicode="&#xc5;" horiz-adv-x="1488" 
d="M1483 41v-41h-588v41q176 0 176 53q0 13 -22 74l-109 274q-38 95 -115 95h-362q-57 0 -92 -62q-15 -21 -45 -110q-74 -210 -74 -230q0 -55 84 -76q28 -9 127 -18v-41h-463v41q137 0 236 246l370 923q7 20 31 74q68 158 88 158q15 0 41 -45q24 -39 115 -262l364 -881
q52 -125 80 -156q51 -57 158 -57zM973 1733q0 -100 -72 -172q-70 -70 -170 -70q-103 0 -172.5 69.5t-69.5 172.5q0 102 69.5 170.5t172.5 68.5t172.5 -68.5t69.5 -170.5zM868 608l-202 510q-2 8 -17 39l-6 4q-29 -33 -129 -291q-94 -248 -94 -268l6 -12q28 -4 35 -4h358
q32 0 40.5 4t8.5 18zM881 1733q0 63 -43.5 106t-106.5 43q-61 0 -105 -44t-44 -105q0 -63 43 -107.5t106 -44.5t106.5 44.5t43.5 107.5z" />
    <glyph glyph-name="AE" unicode="&#xc6;" horiz-adv-x="1984" 
d="M1939 305l33 -8l-37 -158q-30 -120 -49 -139q-17 -20 -57 -20q-17 0 -115 4q-110 4 -115 4q-750 12 -901 12v41q149 0 179 37q22 28 22 180v360q0 56 -61 56h-263q-41 0 -53 -8t-33 -45l-135 -242q-108 -200 -108 -248q0 -66 203 -90l-5 -41h-458v43q82 0 151 78
q40 47 96 151l508 924q35 65 35 109q0 88 -207 88v39q746 0 797 2q39 1 76 2t67 1.5t57 1.5t48 1.5t39 1t30 1t20.5 1t12 0.5t2.5 0q55 -3 76 -55l90 -244l-33 -17q-168 205 -231 232q-65 33 -334 33q-69 0 -106 -13q-52 -21 -52 -84v-495q0 -76 66 -76h31q14 2 37 2
q139 0 198 80q53 68 53 213h39q0 -458 9 -590h-39q-34 172 -103 217q-53 35 -243 35q-33 0 -43.5 -9.5t-10.5 -41.5v-490q0 -77 60 -92q21 -8 127 -8h307q102 0 192 90q44 44 131 174zM907 770v571h-20q-328 -586 -328 -600l4 -16h12q4 -2 11 -2h282q39 0 39 47z" />
    <glyph glyph-name="Ccedilla" unicode="&#xc7;" horiz-adv-x="1458" 
d="M1069 -270q0 -89 -68 -136q-58 -40 -151 -40q-112 0 -293 75l35 78q150 -72 223 -72q121 0 121 93q0 90 -141 90q-3 0 -33 -6v159q-308 21 -494 222q-182 200 -182 516q0 320 209 532q213 213 530 213q179 0 389 -76q76 13 107 13q27 0 27 -74q0 -3 2.5 -34t7.5 -103
t10 -150l-39 -4q-129 381 -479 381q-265 0 -404 -219q-116 -180 -116 -465q0 -303 100 -475q126 -225 404 -225q171 0 296 104q105 85 193 256l39 -6l-23 -279q-234 -129 -508 -129h-6v-82q44 7 76 7q75 0 121.5 -44.5t46.5 -119.5z" />
    <glyph glyph-name="Egrave" unicode="&#xc8;" horiz-adv-x="1345" 
d="M535 1870l288 -299h-67l-330 205q-61 40 -61 84q0 69 73 69q38 0 97 -59zM1307 305l32 -8q-13 -68 -34 -158q-27 -116 -50 -139q-20 -20 -59 -20q-172 0 -565 12q-416 10 -565 8v41q151 0 178 35q22 28 22 182v993q0 104 -47 125q-27 15 -145 15v41q616 0 661 2
q97 3 185 5.5t125.5 3.5t41.5 1q53 0 74 -55l90 -244l-30 -17q-122 151 -158 181q-94 82 -219 82h-189q-161 0 -161 -95v-495q0 -76 67 -76h31q14 2 37 2q252 0 252 293h39q0 -473 8 -590h-37q-34 172 -103 217q-59 35 -245 35q-32 0 -41.5 -9.5t-9.5 -41.5v-490
q0 -74 57 -92q24 -8 125 -8h311q101 0 191 90q49 49 131 174z" />
    <glyph glyph-name="Eacute" unicode="&#xc9;" horiz-adv-x="1345" 
d="M930 1860q0 -43 -62 -84l-329 -205h-68l289 299q59 59 96 59q74 0 74 -69zM1307 305l32 -8q-13 -68 -34 -158q-27 -116 -50 -139q-20 -20 -59 -20q-172 0 -565 12q-416 10 -565 8v41q151 0 178 35q22 28 22 182v993q0 104 -47 125q-27 15 -145 15v41q616 0 661 2
q97 3 185 5.5t125.5 3.5t41.5 1q53 0 74 -55l90 -244l-30 -17q-122 151 -158 181q-94 82 -219 82h-189q-161 0 -161 -95v-495q0 -76 67 -76h31q14 2 37 2q252 0 252 293h39q0 -473 8 -590h-37q-34 172 -103 217q-59 35 -245 35q-32 0 -41.5 -9.5t-9.5 -41.5v-490
q0 -74 57 -92q24 -8 125 -8h311q101 0 191 90q49 49 131 174z" />
    <glyph glyph-name="Ecircumflex" unicode="&#xca;" horiz-adv-x="1345" 
d="M707 1919l231 -348h-57l-234 211l-233 -211h-58l232 348h119zM1307 305l32 -8q-13 -68 -34 -158q-27 -116 -50 -139q-20 -20 -59 -20q-172 0 -565 12q-416 10 -565 8v41q151 0 178 35q22 28 22 182v993q0 104 -47 125q-27 15 -145 15v41q616 0 661 2q97 3 185 5.5
t125.5 3.5t41.5 1q53 0 74 -55l90 -244l-30 -17q-122 151 -158 181q-94 82 -219 82h-189q-161 0 -161 -95v-495q0 -76 67 -76h31q14 2 37 2q252 0 252 293h39q0 -473 8 -590h-37q-34 172 -103 217q-59 35 -245 35q-32 0 -41.5 -9.5t-9.5 -41.5v-490q0 -74 57 -92
q24 -8 125 -8h311q101 0 191 90q49 49 131 174z" />
    <glyph glyph-name="Edieresis" unicode="&#xcb;" horiz-adv-x="1345" 
d="M920 1726q0 -41 -30 -70.5t-71 -29.5q-43 0 -71.5 28.5t-28.5 71.5q0 38 31 68.5t69 30.5t69.5 -30.5t31.5 -68.5zM575 1726q0 -41 -29.5 -70.5t-70.5 -29.5t-69.5 29.5t-28.5 70.5q0 38 30 68.5t68 30.5t69 -30.5t31 -68.5zM1307 305l32 -8q-13 -68 -34 -158
q-27 -116 -50 -139q-20 -20 -59 -20q-172 0 -565 12q-416 10 -565 8v41q151 0 178 35q22 28 22 182v993q0 104 -47 125q-27 15 -145 15v41q616 0 661 2q97 3 185 5.5t125.5 3.5t41.5 1q53 0 74 -55l90 -244l-30 -17q-122 151 -158 181q-94 82 -219 82h-189q-161 0 -161 -95
v-495q0 -76 67 -76h31q14 2 37 2q252 0 252 293h39q0 -473 8 -590h-37q-34 172 -103 217q-59 35 -245 35q-32 0 -41.5 -9.5t-9.5 -41.5v-490q0 -74 57 -92q24 -8 125 -8h311q101 0 191 90q49 49 131 174z" />
    <glyph glyph-name="Igrave" unicode="&#xcc;" horiz-adv-x="770" 
d="M272 1870l289 -299h-67l-330 205q-62 41 -62 84q0 69 74 69q37 0 96 -59zM680 39v-39h-604v39q193 0 196 82q0 33 2 72q2 29 2 69v1000q0 89 -59 116q-43 17 -141 17v37h604v-37q-186 0 -186 -107v-1042q0 -101 22 -150q35 -65 127 -59q20 2 37 2z" />
    <glyph glyph-name="Iacute" unicode="&#xcd;" horiz-adv-x="770" 
d="M668 1860q0 -43 -62 -84l-330 -205h-67l289 299q59 59 96 59q74 0 74 -69zM680 39v-39h-604v39q193 0 196 82q0 33 2 72q2 29 2 69v1000q0 89 -59 116q-43 17 -141 17v37h604v-37q-186 0 -186 -107v-1042q0 -101 22 -150q35 -65 127 -59q20 2 37 2z" />
    <glyph glyph-name="Icircumflex" unicode="&#xce;" horiz-adv-x="770" 
d="M444 1919l232 -348h-58l-233 211l-233 -211h-58l232 348h118zM680 39v-39h-604v39q193 0 196 82q0 33 2 72q2 29 2 69v1000q0 89 -59 116q-43 17 -141 17v37h604v-37q-186 0 -186 -107v-1042q0 -101 22 -150q35 -65 127 -59q20 2 37 2z" />
    <glyph glyph-name="Idieresis" unicode="&#xcf;" horiz-adv-x="770" 
d="M657 1726q0 -41 -29.5 -70.5t-70.5 -29.5q-43 0 -71.5 28.5t-28.5 71.5q0 38 31 68.5t69 30.5t69 -30.5t31 -68.5zM313 1726q0 -41 -29.5 -70.5t-70.5 -29.5t-69.5 29.5t-28.5 70.5q0 38 30 68.5t68 30.5t69 -30.5t31 -68.5zM680 39v-39h-604v39q193 0 196 82q0 33 2 72
q2 29 2 69v1000q0 89 -59 116q-43 17 -141 17v37h604v-37q-186 0 -186 -107v-1042q0 -101 22 -150q35 -65 127 -59q20 2 37 2z" />
    <glyph glyph-name="Eth" unicode="&#xd0;" horiz-adv-x="1677" 
d="M1591 752q0 -389 -254 -582q-226 -170 -628 -170h-613v43q120 0 158 53q27 40 27 168v436h-279v58h279v407q0 141 -29 181q-37 43 -172 43v43h643q372 0 600 -150q268 -176 268 -530zM1337 723q0 311 -176 487q-176 179 -485 179q-101 0 -131 -21q-43 -27 -43 -121v-489
h358v-58h-358v-489q0 -102 33.5 -135t136.5 -33q61 0 123 4q257 24 405 225q137 183 137 451z" />
    <glyph glyph-name="Ntilde" unicode="&#xd1;" horiz-adv-x="1792" 
d="M1737 1432v-39q-154 0 -197 -125q-20 -59 -20 -258v-516q0 -26 4 -222q6 -147 6 -219q0 -63 -35 -63q-42 0 -246 223l-702 760l-182 190q-15 -246 -15 -633q0 -307 25 -399q24 -90 213 -90v-41h-531v41q107 17 150 36t55 52q31 85 31 469v637q-93 158 -254 158v39h348
q73 0 82 -15q128 -169 553 -635l209 -231q125 -134 221 -217q6 46 6 92v594q0 195 -31 262q-49 111 -215 111v39h525zM1130 1868h54q-34 -205 -185 -205q-35 0 -125 23q-86 22 -124 22q-61 0 -88 -90h-52q40 211 187 211q35 0 125 -23q86 -22 122 -22q59 0 86 84z" />
    <glyph glyph-name="Ograve" unicode="&#xd2;" horiz-adv-x="1677" 
d="M727 1870l289 -299h-68l-330 205q-61 40 -61 84q0 69 74 69q37 0 96 -59zM1593 743q0 -330 -219 -557q-218 -225 -551 -225q-321 0 -530 209q-209 212 -209 530q0 324 217 541q219 219 541 219q323 0 536 -198q215 -200 215 -519zM1343 694q0 287 -96 477
q-125 242 -387 242q-272 0 -409 -223q-115 -186 -115 -473t100 -471q127 -238 385 -238q267 0 406 219q116 183 116 467z" />
    <glyph glyph-name="Oacute" unicode="&#xd3;" horiz-adv-x="1677" 
d="M1122 1860q0 -44 -61 -84l-330 -205h-67l288 299q59 59 97 59q73 0 73 -69zM1593 743q0 -330 -219 -557q-218 -225 -551 -225q-321 0 -530 209q-209 212 -209 530q0 324 217 541q219 219 541 219q323 0 536 -198q215 -200 215 -519zM1343 694q0 287 -96 477
q-125 242 -387 242q-272 0 -409 -223q-115 -186 -115 -473t100 -471q127 -238 385 -238q267 0 406 219q116 183 116 467z" />
    <glyph glyph-name="Ocircumflex" unicode="&#xd4;" horiz-adv-x="1677" 
d="M899 1919l231 -348h-57l-233 211l-234 -211h-57l231 348h119zM1593 743q0 -330 -219 -557q-218 -225 -551 -225q-321 0 -530 209q-209 212 -209 530q0 324 217 541q219 219 541 219q323 0 536 -198q215 -200 215 -519zM1343 694q0 287 -96 477q-125 242 -387 242
q-272 0 -409 -223q-115 -186 -115 -473t100 -471q127 -238 385 -238q267 0 406 219q116 183 116 467z" />
    <glyph glyph-name="Otilde" unicode="&#xd5;" horiz-adv-x="1677" 
d="M1073 1868h53q-40 -205 -182 -205q-37 0 -127 23q-86 22 -125 22q-61 0 -88 -90h-51q40 211 186 211q35 0 125 -23q86 -22 123 -22q59 0 86 84zM1593 743q0 -330 -219 -557q-218 -225 -551 -225q-321 0 -530 209q-209 212 -209 530q0 324 217 541q219 219 541 219
q323 0 536 -198q215 -200 215 -519zM1343 694q0 287 -96 477q-125 242 -387 242q-272 0 -409 -223q-115 -186 -115 -473t100 -471q127 -238 385 -238q267 0 406 219q116 183 116 467z" />
    <glyph glyph-name="Odieresis" unicode="&#xd6;" horiz-adv-x="1677" 
d="M1112 1726q0 -43 -28.5 -71.5t-71.5 -28.5t-72 28.5t-29 71.5q0 41 30 70t71 29t70.5 -30t29.5 -69zM768 1726q0 -43 -28.5 -71.5t-71.5 -28.5t-71 28.5t-28 71.5q0 38 30.5 68.5t68.5 30.5q41 0 70.5 -30t29.5 -69zM1593 743q0 -330 -219 -557q-218 -225 -551 -225
q-321 0 -530 209q-209 212 -209 530q0 324 217 541q219 219 541 219q323 0 536 -198q215 -200 215 -519zM1343 694q0 287 -96 477q-125 242 -387 242q-272 0 -409 -223q-115 -186 -115 -473t100 -471q127 -238 385 -238q267 0 406 219q116 183 116 467z" />
    <glyph glyph-name="multiply" unicode="&#xd7;" horiz-adv-x="1705" 
d="M940 610l475 -475l-82 -82l-475 475l-477 -475l-80 82l475 475l-475 477l80 82l477 -477l475 477l82 -82z" />
    <glyph glyph-name="Oslash" unicode="&#xd8;" horiz-adv-x="1677" 
d="M1591 735q0 -333 -219 -555q-219 -219 -551 -219q-193 0 -377 96l-174 -258h-100l203 305q-289 199 -289 592q0 332 221 547q224 217 557 217q207 0 371 -92l147 219h101l-176 -264q286 -209 286 -588zM449 215l720 1061q-121 139 -305 139q-275 0 -413 -221
q-115 -186 -115 -479q0 -329 113 -500zM1343 692q0 312 -118 514l-721 -1063q114 -135 319 -135q265 0 404 219q116 186 116 465z" />
    <glyph glyph-name="Ugrave" unicode="&#xd9;" horiz-adv-x="1677" 
d="M803 1870l289 -299h-68l-330 205q-61 40 -61 84q0 69 74 69q37 0 96 -59zM1618 1432v-41q-132 -15 -180 -99q-14 -25 -17 -278q-3 -416 -12 -492q-27 -263 -141 -395q-143 -162 -451 -162q-303 0 -434 162q-123 144 -123 455v608q0 116 -33 149q-32 37 -145 52v41h633
v-41q-143 -15 -189 -64q-44 -47 -47 -194l-4 -351q0 -338 55 -475q91 -229 379 -229q104 0 191 37q183 77 235 291q29 122 29 393q0 27 -4 145q-1 30 -2 64.5t-1.5 52.5t-0.5 26q-3 91 -13 144q-18 84 -68 116.5t-169 43.5v41h512z" />
    <glyph glyph-name="Uacute" unicode="&#xda;" horiz-adv-x="1677" 
d="M1198 1860q0 -44 -61 -84l-330 -205h-68l289 299q59 59 96 59q74 0 74 -69zM1618 1432v-41q-132 -15 -180 -99q-14 -25 -17 -278q-3 -416 -12 -492q-27 -263 -141 -395q-143 -162 -451 -162q-303 0 -434 162q-123 144 -123 455v608q0 116 -33 149q-32 37 -145 52v41h633
v-41q-143 -15 -189 -64q-44 -47 -47 -194l-4 -351q0 -338 55 -475q91 -229 379 -229q104 0 191 37q183 77 235 291q29 122 29 393q0 27 -4 145q-1 30 -2 64.5t-1.5 52.5t-0.5 26q-3 91 -13 144q-18 84 -68 116.5t-169 43.5v41h512z" />
    <glyph glyph-name="Ucircumflex" unicode="&#xdb;" horiz-adv-x="1677" 
d="M975 1919l231 -348h-57l-234 211l-233 -211h-57l231 348h119zM1618 1432v-41q-132 -15 -180 -99q-14 -25 -17 -278q-3 -416 -12 -492q-27 -263 -141 -395q-143 -162 -451 -162q-303 0 -434 162q-123 144 -123 455v608q0 116 -33 149q-32 37 -145 52v41h633v-41
q-143 -15 -189 -64q-44 -47 -47 -194l-4 -351q0 -338 55 -475q91 -229 379 -229q104 0 191 37q183 77 235 291q29 122 29 393q0 27 -4 145q-1 30 -2 64.5t-1.5 52.5t-0.5 26q-3 91 -13 144q-18 84 -68 116.5t-169 43.5v41h512z" />
    <glyph glyph-name="Udieresis" unicode="&#xdc;" horiz-adv-x="1677" 
d="M1188 1726q0 -41 -30 -70.5t-71 -29.5q-43 0 -71.5 28.5t-28.5 71.5q0 38 31.5 68.5t68.5 30.5q41 0 71 -30t30 -69zM844 1726q0 -41 -30 -70.5t-71 -29.5t-69.5 29.5t-28.5 70.5q0 38 30 68.5t68 30.5q41 0 71 -30t30 -69zM1618 1432v-41q-132 -15 -180 -99
q-14 -25 -17 -278q-3 -416 -12 -492q-27 -263 -141 -395q-143 -162 -451 -162q-303 0 -434 162q-123 144 -123 455v608q0 116 -33 149q-32 37 -145 52v41h633v-41q-143 -15 -189 -64q-44 -47 -47 -194l-4 -351q0 -338 55 -475q91 -229 379 -229q104 0 191 37q183 77 235 291
q29 122 29 393q0 27 -4 145q-1 30 -2 64.5t-1.5 52.5t-0.5 26q-3 91 -13 144q-18 84 -68 116.5t-169 43.5v41h512z" />
    <glyph glyph-name="Yacute" unicode="&#xdd;" horiz-adv-x="1456" 
d="M1415 1432v-39q-109 0 -201 -117q-33 -42 -124 -209l-238 -442v-379q0 -108 25 -156q30 -55 114 -55q27 0 62 6v-41h-613v41l109 16q76 21 76 101v420q-75 109 -189 307l-102 178q-60 105 -115 190q-103 142 -168 142q-12 0 -18 -2v39h594v-39q-168 0 -168 -56
q0 -81 159 -348q121 -200 199 -307q20 36 78.5 143t89.5 166q141 261 141 297q0 105 -180 105v39h469zM1012 1860q0 -43 -62 -84l-329 -205h-68l289 299q59 59 96 59q74 0 74 -69z" />
    <glyph glyph-name="Thorn" unicode="&#xde;" horiz-adv-x="1261" 
d="M1221 795q0 -192 -131 -308q-132 -114 -324 -114q-98 0 -285 41v-215q0 -117 62 -144q32 -14 170 -14v-41q-90 0 -162 2t-162 2q-84 0 -164 -2q-131 -4 -166 -2v41q160 0 189 57q16 29 16 203v920q0 111 -49 145q-38 27 -147 27v39h647v-41q-136 0 -172 -19
q-60 -31 -60 -151q0 -5 2 -9v-8q153 6 156 6q237 0 389 -88q191 -111 191 -327zM983 815q0 159 -98 253.5t-260 94.5q-75 0 -107.5 -28.5t-32.5 -100.5v-545q86 -45 160 -45q164 0 252 107q86 103 86 264z" />
    <glyph glyph-name="germandbls" unicode="&#xdf;" 
d="M965 391q0 -158 -86 -282q-95 -136 -250 -136q-78 0 -146 35q-80 41 -80 113q0 80 82 80q63 0 90 -92q31 -91 72 -91q74 0 101 154q18 89 18 207q0 199 -47 291q-68 127 -250 127v30q131 15 188 109q45 74 45 219q0 264 -178 264q-186 0 -186 -313v-1106h-301v39
q106 0 127 74q10 33 10 166v778q0 401 371 401q141 0 239 -88q99 -86 99 -225q0 -239 -269 -316v-12q167 -43 259 -152.5t92 -273.5z" />
    <glyph glyph-name="agrave" unicode="&#xe0;" horiz-adv-x="894" 
d="M332 1315l289 -299h-68l-330 205q-61 40 -61 84q0 69 74 69q37 0 96 -59zM842 150l32 -29q-83 -139 -198 -139q-89 0 -129 94q-186 -101 -287 -101q-82 0 -131 46.5t-49 125.5q0 100 82 164q84 65 393 176v172q0 168 -162 168q-53 0 -98 -26q-55 -30 -55 -80
q0 -8 5 -38.5t5 -39.5q0 -94 -92 -94q-76 0 -76 86q0 68 106 149q80 63 170 99q76 28 148 28q217 0 217 -262v-452q0 -103 43 -103q29 0 76 56zM551 199v231q-131 -34 -199 -76q-106 -63 -106 -170q0 -133 112 -133q34 0 99 27q66 27 84 55q10 17 10 66z" />
    <glyph glyph-name="aacute" unicode="&#xe1;" horiz-adv-x="894" 
d="M727 1305q0 -44 -61 -84l-330 -205h-68l289 299q59 59 96 59q74 0 74 -69zM842 150l32 -29q-83 -139 -198 -139q-89 0 -129 94q-186 -101 -287 -101q-82 0 -131 46.5t-49 125.5q0 100 82 164q84 65 393 176v172q0 168 -162 168q-53 0 -98 -26q-55 -30 -55 -80
q0 -8 5 -38.5t5 -39.5q0 -94 -92 -94q-76 0 -76 86q0 68 106 149q80 63 170 99q76 28 148 28q217 0 217 -262v-452q0 -103 43 -103q29 0 76 56zM551 199v231q-131 -34 -199 -76q-106 -63 -106 -170q0 -133 112 -133q34 0 99 27q66 27 84 55q10 17 10 66z" />
    <glyph glyph-name="acircumflex" unicode="&#xe2;" horiz-adv-x="894" 
d="M504 1364l231 -348h-57l-234 211l-233 -211h-57l231 348h119zM842 150l32 -29q-83 -139 -198 -139q-89 0 -129 94q-186 -101 -287 -101q-82 0 -131 46.5t-49 125.5q0 100 82 164q84 65 393 176v172q0 168 -162 168q-53 0 -98 -26q-55 -30 -55 -80q0 -8 5 -38.5t5 -39.5
q0 -94 -92 -94q-76 0 -76 86q0 68 106 149q80 63 170 99q76 28 148 28q217 0 217 -262v-452q0 -103 43 -103q29 0 76 56zM551 199v231q-131 -34 -199 -76q-106 -63 -106 -170q0 -133 112 -133q34 0 99 27q66 27 84 55q10 17 10 66z" />
    <glyph glyph-name="atilde" unicode="&#xe3;" horiz-adv-x="894" 
d="M678 1313h53q-34 -205 -182 -205q-41 0 -127 22q-90 23 -125 23q-67 0 -88 -90h-51q34 211 186 211q35 0 125 -23q86 -22 123 -22q59 0 86 84zM842 150l32 -29q-83 -139 -198 -139q-89 0 -129 94q-186 -101 -287 -101q-82 0 -131 46.5t-49 125.5q0 100 82 164
q84 65 393 176v172q0 168 -162 168q-53 0 -98 -26q-55 -30 -55 -80q0 -8 5 -38.5t5 -39.5q0 -94 -92 -94q-76 0 -76 86q0 68 106 149q80 63 170 99q76 28 148 28q217 0 217 -262v-452q0 -103 43 -103q29 0 76 56zM551 199v231q-131 -34 -199 -76q-106 -63 -106 -170
q0 -133 112 -133q34 0 99 27q66 27 84 55q10 17 10 66z" />
    <glyph glyph-name="adieresis" unicode="&#xe4;" horiz-adv-x="894" 
d="M717 1171q0 -41 -30 -70.5t-71 -29.5q-43 0 -71.5 28.5t-28.5 71.5q0 38 31.5 68.5t68.5 30.5q41 0 71 -30t30 -69zM373 1171q0 -41 -30 -70.5t-71 -29.5t-69.5 29.5t-28.5 70.5q0 38 30 68.5t68 30.5q41 0 71 -30t30 -69zM842 150l32 -29q-83 -139 -198 -139
q-89 0 -129 94q-186 -101 -287 -101q-82 0 -131 46.5t-49 125.5q0 100 82 164q84 65 393 176v172q0 168 -162 168q-53 0 -98 -26q-55 -30 -55 -80q0 -8 5 -38.5t5 -39.5q0 -94 -92 -94q-76 0 -76 86q0 68 106 149q80 63 170 99q76 28 148 28q217 0 217 -262v-452
q0 -103 43 -103q29 0 76 56zM551 199v231q-131 -34 -199 -76q-106 -63 -106 -170q0 -133 112 -133q34 0 99 27q66 27 84 55q10 17 10 66z" />
    <glyph glyph-name="aring" unicode="&#xe5;" horiz-adv-x="894" 
d="M694 1217q0 -100 -69.5 -170t-169.5 -70q-102 0 -172 70t-70 170q0 99 70 169q72 72 172 72q101 0 170 -69t69 -172zM842 150l32 -29q-83 -139 -198 -139q-89 0 -129 94q-186 -101 -287 -101q-82 0 -131 46.5t-49 125.5q0 100 82 164q84 65 393 176v172q0 168 -162 168
q-53 0 -98 -26q-55 -30 -55 -80q0 -8 5 -38.5t5 -39.5q0 -94 -92 -94q-76 0 -76 86q0 68 106 149q80 63 170 99q76 28 148 28q217 0 217 -262v-452q0 -103 43 -103q29 0 76 56zM602 1219q0 60 -44.5 104.5t-104.5 44.5q-62 0 -106 -43t-44 -106t43.5 -107.5t106.5 -44.5
q61 0 105 45t44 107zM551 199v231q-131 -34 -199 -76q-106 -63 -106 -170q0 -133 112 -133q34 0 99 27q66 27 84 55q10 17 10 66z" />
    <glyph glyph-name="ae" unicode="&#xe6;" horiz-adv-x="1345" 
d="M1270 203l30 -31q-165 -195 -378 -195q-191 0 -299 144q-187 -144 -357 -144q-88 0 -140 45t-52 125q0 134 190 228q76 40 303 106v178q0 77 -48 122.5t-128 45.5q-55 0 -110 -30q-66 -38 -66 -86q0 -8 3 -38.5t3 -39.5q0 -84 -80 -84q-84 0 -84 86q0 67 111 147
q76 54 176 95q76 28 158 28q136 0 182 -117q123 117 279 117q107 0 213 -65q116 -76 116 -176q0 -19 -78 -43l-446 -142q-30 -9 -39 -30q-4 -16 -4 -54q0 -299 270 -299q141 0 275 107zM567 188v246q-143 -40 -207 -76q-112 -66 -112 -174q0 -133 117 -133q39 0 106 27
q65 26 86 57q10 17 10 53zM1104 655q0 83 -47.5 143t-122.5 60q-109 0 -160 -100q-39 -74 -39 -199q0 -30 23 -33q29 2 141 39l145 49q60 18 60 41z" />
    <glyph glyph-name="ccedilla" unicode="&#xe7;" horiz-adv-x="894" 
d="M758 -270q0 -89 -68 -136q-58 -40 -151 -40q-121 0 -293 75l35 78q119 -72 223 -72q121 0 121 93q0 90 -142 90q-2 0 -32 -6v165q-175 12 -283 138q-107 125 -107 307q0 206 144 344q145 139 350 139q97 0 178 -37q107 -46 107 -131q0 -38 -26 -64t-64 -26
q-76 0 -134 105q-54 106 -129 106q-116 0 -186 -137q-57 -111 -57 -242q0 -157 88 -270q94 -125 248 -125t272 139l33 -20q-127 -213 -371 -228v-88q44 7 78 7q75 0 120.5 -44.5t45.5 -119.5z" />
    <glyph glyph-name="egrave" unicode="&#xe8;" horiz-adv-x="905" 
d="M369 1315l288 -299h-67l-330 205q-61 40 -61 84q0 69 73 69q38 0 97 -59zM819 244l31 -23q-126 -246 -373 -246q-188 0 -303 142q-108 132 -108 321q0 196 106 326q116 143 303 143q145 0 252 -82q119 -88 119 -227q0 -31 -58 -31h-497q-41 0 -47 -24v-64q0 -153 73 -260
q83 -123 230 -123q139 0 272 148zM676 649q0 89 -58 151t-145 62q-82 0 -151 -69q-68 -68 -68 -150q0 -27 68 -27h288q66 0 66 33z" />
    <glyph glyph-name="eacute" unicode="&#xe9;" horiz-adv-x="905" 
d="M764 1305q0 -43 -62 -84l-329 -205h-68l289 299q59 59 96 59q74 0 74 -69zM819 244l31 -23q-126 -246 -373 -246q-188 0 -303 142q-108 132 -108 321q0 196 106 326q116 143 303 143q145 0 252 -82q119 -88 119 -227q0 -31 -58 -31h-497q-41 0 -47 -24v-64
q0 -153 73 -260q83 -123 230 -123q139 0 272 148zM676 649q0 89 -58 151t-145 62q-82 0 -151 -69q-68 -68 -68 -150q0 -27 68 -27h288q66 0 66 33z" />
    <glyph glyph-name="ecircumflex" unicode="&#xea;" horiz-adv-x="905" 
d="M541 1364l231 -348h-57l-234 211l-233 -211h-58l232 348h119zM819 244l31 -23q-126 -246 -373 -246q-188 0 -303 142q-108 132 -108 321q0 196 106 326q116 143 303 143q145 0 252 -82q119 -88 119 -227q0 -31 -58 -31h-497q-41 0 -47 -24v-64q0 -153 73 -260
q83 -123 230 -123q139 0 272 148zM676 649q0 89 -58 151t-145 62q-82 0 -151 -69q-68 -68 -68 -150q0 -27 68 -27h288q66 0 66 33z" />
    <glyph glyph-name="edieresis" unicode="&#xeb;" horiz-adv-x="905" 
d="M754 1171q0 -41 -30 -70.5t-71 -29.5q-43 0 -71.5 28.5t-28.5 71.5q0 38 31.5 68.5t68.5 30.5q41 0 71 -30t30 -69zM410 1171q0 -41 -30 -70.5t-71 -29.5q-42 0 -69 28.5t-27 71.5q0 39 29 69t67 30t69.5 -30.5t31.5 -68.5zM819 244l31 -23q-126 -246 -373 -246
q-188 0 -303 142q-108 132 -108 321q0 196 106 326q116 143 303 143q145 0 252 -82q119 -88 119 -227q0 -31 -58 -31h-497q-41 0 -47 -24v-64q0 -153 73 -260q83 -123 230 -123q139 0 272 148zM676 649q0 89 -58 151t-145 62q-82 0 -151 -69q-68 -68 -68 -150q0 -27 68 -27
h288q66 0 66 33z" />
    <glyph glyph-name="igrave" unicode="&#xec;" horiz-adv-x="559" 
d="M168 1315l289 -299h-68l-330 205q-61 40 -61 84q0 69 74 69q37 0 96 -59zM512 39v-39h-449v39q146 0 146 102v484q0 82 -24.5 113.5t-100.5 31.5v39q276 105 297 96v-676q0 -114 14 -139q20 -51 117 -51z" />
    <glyph glyph-name="iacute" unicode="&#xed;" horiz-adv-x="559" 
d="M563 1305q0 -44 -61 -84l-330 -205h-68l289 299q59 59 96 59q74 0 74 -69zM512 39v-39h-449v39q146 0 146 102v484q0 82 -24.5 113.5t-100.5 31.5v39q276 105 297 96v-676q0 -114 14 -139q20 -51 117 -51z" />
    <glyph glyph-name="icircumflex" unicode="&#xee;" horiz-adv-x="559" 
d="M340 1364l231 -348h-57l-233 211l-234 -211h-57l231 348h119zM512 39v-39h-449v39q146 0 146 102v484q0 82 -24.5 113.5t-100.5 31.5v39q276 105 297 96v-676q0 -114 14 -139q20 -51 117 -51z" />
    <glyph glyph-name="idieresis" unicode="&#xef;" horiz-adv-x="559" 
d="M553 1171q0 -43 -28.5 -71.5t-71.5 -28.5q-41 0 -71 29.5t-30 70.5t30 70t71 29t70.5 -30t29.5 -69zM209 1171q0 -42 -29 -71t-71 -29q-41 0 -70 29.5t-29 70.5q0 37 31 68t68 31q41 0 70.5 -30t29.5 -69zM512 39v-39h-449v39q146 0 146 102v484q0 82 -24.5 113.5
t-100.5 31.5v39q276 105 297 96v-676q0 -114 14 -139q20 -51 117 -51z" />
    <glyph glyph-name="eth" unicode="&#xf0;" horiz-adv-x="1019" 
d="M965 479q0 -215 -123 -356q-127 -148 -340 -148q-199 0 -322 129t-123 328q0 201 129 336q131 137 332 137h39q56 0 143 -35q-44 131 -145 289l-317 -147l-23 49l307 145q-72 110 -172 219l41 31q79 -69 221 -211l283 133l25 -49l-269 -125q314 -373 314 -725zM764 446
q0 418 -250 418q-260 0 -260 -438q0 -182 39 -270q59 -138 209 -138q262 0 262 428z" />
    <glyph glyph-name="ntilde" unicode="&#xf1;" horiz-adv-x="1118" 
d="M1096 39v-39h-465v39q151 0 151 102v422q0 127 -32 178q-44 74 -158 74q-236 0 -236 -215v-448q0 -75 39 -95q27 -18 107 -18v-39h-455v39q73 0 100 18q37 27 37 99v469q0 83 -28 114t-109 31v39q112 0 293 96h22l3 -123q188 123 313 123q73 0 137 -31q97 -51 123 -153
q14 -49 14 -207v-102t-0.5 -82t-1 -58t-0.5 -39v-16q6 -126 29 -149q29 -29 117 -29zM793 1313h55q-40 -205 -186 -205q-39 0 -125 22q-90 23 -125 23q-61 0 -88 -90h-52q34 211 187 211q35 0 125 -23q86 -22 123 -22q59 0 86 84z" />
    <glyph glyph-name="ograve" unicode="&#xf2;" horiz-adv-x="1019" 
d="M397 1315l289 -299h-68l-329 205q-62 41 -62 84q0 69 74 69q37 0 96 -59zM963 455q0 -205 -127 -344q-127 -136 -334 -136q-199 0 -322 129t-123 328q0 202 131 336q131 137 330 137q200 0 322 -125q123 -126 123 -325zM764 446q0 418 -250 418q-260 0 -260 -438
q0 -182 39 -270q59 -138 209 -138q262 0 262 428z" />
    <glyph glyph-name="oacute" unicode="&#xf3;" horiz-adv-x="1019" 
d="M793 1305q0 -43 -62 -84l-330 -205h-67l289 299q59 59 96 59q74 0 74 -69zM963 455q0 -205 -127 -344q-127 -136 -334 -136q-199 0 -322 129t-123 328q0 202 131 336q131 137 330 137q200 0 322 -125q123 -126 123 -325zM764 446q0 418 -250 418q-260 0 -260 -438
q0 -182 39 -270q59 -138 209 -138q262 0 262 428z" />
    <glyph glyph-name="ocircumflex" unicode="&#xf4;" horiz-adv-x="1019" 
d="M569 1364l232 -348h-58l-233 211l-234 -211h-57l232 348h118zM963 455q0 -205 -127 -344q-127 -136 -334 -136q-199 0 -322 129t-123 328q0 202 131 336q131 137 330 137q200 0 322 -125q123 -126 123 -325zM764 446q0 418 -250 418q-260 0 -260 -438q0 -182 39 -270
q59 -138 209 -138q262 0 262 428z" />
    <glyph glyph-name="otilde" unicode="&#xf5;" horiz-adv-x="1019" 
d="M743 1313h54q-40 -205 -185 -205q-39 0 -125 22q-90 23 -125 23q-61 0 -88 -90h-51q34 211 187 211q35 0 125 -23q86 -22 122 -22q59 0 86 84zM963 455q0 -205 -127 -344q-127 -136 -334 -136q-199 0 -322 129t-123 328q0 202 131 336q131 137 330 137q200 0 322 -125
q123 -126 123 -325zM764 446q0 418 -250 418q-260 0 -260 -438q0 -182 39 -270q59 -138 209 -138q262 0 262 428z" />
    <glyph glyph-name="odieresis" unicode="&#xf6;" horiz-adv-x="1019" 
d="M782 1171q0 -41 -29.5 -70.5t-70.5 -29.5q-43 0 -71.5 28.5t-28.5 71.5q0 38 31 68.5t69 30.5t69 -30.5t31 -68.5zM438 1171q0 -41 -29.5 -70.5t-70.5 -29.5t-69.5 29.5t-28.5 70.5q0 38 30 68.5t68 30.5t69 -30.5t31 -68.5zM963 455q0 -205 -127 -344
q-127 -136 -334 -136q-199 0 -322 129t-123 328q0 202 131 336q131 137 330 137q200 0 322 -125q123 -126 123 -325zM764 446q0 418 -250 418q-260 0 -260 -438q0 -182 39 -270q59 -138 209 -138q262 0 262 428z" />
    <glyph glyph-name="divide" unicode="&#xf7;" horiz-adv-x="1705" 
d="M969 971q0 -49 -32.5 -82t-82.5 -33t-82.5 33t-32.5 82q0 47 34 80.5t81 33.5t81 -33.5t34 -80.5zM1452 670v-117h-1198v117h1198zM969 250q0 -47 -34 -81t-81 -34q-50 0 -82.5 32.5t-32.5 82.5q0 47 34 81t81 34q50 0 82.5 -32.5t32.5 -82.5z" />
    <glyph glyph-name="oslash" unicode="&#xf8;" horiz-adv-x="1019" 
d="M963 455q0 -205 -127 -344q-127 -136 -334 -136q-106 0 -193 43l-151 -274h-72l166 305q-195 133 -195 383q0 199 131 336q133 139 328 139h31q68 0 153 -39l140 256h71l-153 -284q205 -138 205 -385zM301 137l363 668q-65 59 -146 59q-264 0 -264 -452q0 -169 47 -275z
M766 455q0 184 -59 293l-365 -668q74 -62 160 -62q264 0 264 437z" />
    <glyph glyph-name="ugrave" unicode="&#xf9;" horiz-adv-x="1118" 
d="M420 1315l289 -299h-68l-330 205q-61 40 -61 84q0 69 74 69q37 0 96 -59zM1067 72v-35q-112 -26 -156 -35q-133 -27 -145 -25l-4 119q-131 -119 -301 -119q-283 0 -283 338q0 278 -6 383q-6 94 -25 119q-25 31 -112 31v39l317 8q-4 -46 -4 -107v-428q0 -141 31 -208
q47 -99 170 -99q76 0 141 41q66 45 66 117v516q0 79 -43 100q-12 6 -119 21v39l338 8q-4 -152 -4 -172v-508q0 -97 24 -121q25 -22 115 -22z" />
    <glyph glyph-name="uacute" unicode="&#xfa;" horiz-adv-x="1118" 
d="M815 1305q0 -44 -61 -84l-330 -205h-68l289 299q59 59 96 59q74 0 74 -69zM1067 72v-35q-112 -26 -156 -35q-133 -27 -145 -25l-4 119q-131 -119 -301 -119q-283 0 -283 338q0 278 -6 383q-6 94 -25 119q-25 31 -112 31v39l317 8q-4 -46 -4 -107v-428q0 -141 31 -208
q47 -99 170 -99q76 0 141 41q66 45 66 117v516q0 79 -43 100q-12 6 -119 21v39l338 8q-4 -152 -4 -172v-508q0 -97 24 -121q25 -22 115 -22z" />
    <glyph glyph-name="ucircumflex" unicode="&#xfb;" horiz-adv-x="1118" 
d="M592 1364l231 -348h-57l-234 211l-233 -211h-57l231 348h119zM1067 72v-35q-112 -26 -156 -35q-133 -27 -145 -25l-4 119q-131 -119 -301 -119q-283 0 -283 338q0 278 -6 383q-6 94 -25 119q-25 31 -112 31v39l317 8q-4 -46 -4 -107v-428q0 -141 31 -208q47 -99 170 -99
q76 0 141 41q66 45 66 117v516q0 79 -43 100q-12 6 -119 21v39l338 8q-4 -152 -4 -172v-508q0 -97 24 -121q25 -22 115 -22z" />
    <glyph glyph-name="udieresis" unicode="&#xfc;" horiz-adv-x="1118" 
d="M805 1171q0 -41 -29.5 -70.5t-70.5 -29.5q-43 0 -72 28.5t-29 71.5q0 38 32 68.5t69 30.5q41 0 70.5 -30t29.5 -69zM461 1171q0 -41 -30 -70.5t-71 -29.5t-69.5 29.5t-28.5 70.5q0 38 30 68.5t68 30.5q41 0 71 -30t30 -69zM1067 72v-35q-112 -26 -156 -35
q-133 -27 -145 -25l-4 119q-131 -119 -301 -119q-283 0 -283 338q0 278 -6 383q-6 94 -25 119q-25 31 -112 31v39l317 8q-4 -46 -4 -107v-428q0 -141 31 -208q47 -99 170 -99q76 0 141 41q66 45 66 117v516q0 79 -43 100q-12 6 -119 21v39l338 8q-4 -152 -4 -172v-508
q0 -97 24 -121q25 -22 115 -22z" />
    <glyph glyph-name="yacute" unicode="&#xfd;" horiz-adv-x="1118" 
d="M1073 887v-37q-81 -9 -164 -141q-23 -35 -102 -203l-205 -447q-84 -177 -153 -307q-131 -247 -203 -307q-43 -37 -94 -37q-44 0 -75.5 31.5t-31.5 75.5t33 75t78 31q38 0 112 -45q22 0 31 21q190 292 190 380q-3 26 -8 37q-6 28 -16 54l-244 604q-40 95 -59 119
q-44 59 -113 59l-4 37h432v-37q-70 0 -78 -2q-49 -9 -49 -47q0 -31 29 -103l178 -426q19 -51 43 -90q40 54 107 209l84 193q57 123 57 182t-51 76q-24 8 -101 8v37h377zM842 1305q0 -43 -62 -84l-329 -205h-68l289 299q59 59 96 59q74 0 74 -69z" />
    <glyph glyph-name="thorn" unicode="&#xfe;" horiz-adv-x="1099" 
d="M1038 459q0 -216 -131 -344q-129 -129 -344 -129q-82 0 -227 37v-441q0 -80 37 -104q27 -21 110 -21v-39h-454v39q77 0 107 26t30 99v1622q0 64 -20 86t-85 29v41l258 98h23q-4 -180 -4 -205v-448q135 100 295 100q182 0 297 -133q108 -129 108 -313zM850 420
q0 163 -70 276q-83 133 -237 133q-211 0 -211 -170v-352q0 -124 59 -198q65 -80 189 -80q146 0 217 129q53 103 53 262z" />
    <glyph glyph-name="ydieresis" unicode="&#xff;" horiz-adv-x="1118" 
d="M1073 887v-37q-81 -9 -164 -141q-23 -35 -102 -203l-205 -447q-84 -177 -153 -307q-131 -247 -203 -307q-43 -37 -94 -37q-44 0 -75.5 31.5t-31.5 75.5t33 75t78 31q38 0 112 -45q22 0 31 21q190 292 190 380q-3 26 -8 37q-6 28 -16 54l-244 604q-40 95 -59 119
q-44 59 -113 59l-4 37h432v-37q-70 0 -78 -2q-49 -9 -49 -47q0 -31 29 -103l178 -426q19 -51 43 -90q40 54 107 209l84 193q57 123 57 182t-51 76q-24 8 -101 8v37h377zM831 1171q0 -41 -29.5 -70.5t-70.5 -29.5q-43 0 -71.5 28.5t-28.5 71.5q0 38 31 68.5t69 30.5t69 -30.5
t31 -68.5zM487 1171q0 -41 -29.5 -70.5t-70.5 -29.5t-69.5 29.5t-28.5 70.5q0 38 30 68.5t68 30.5t69 -30.5t31 -68.5z" />
    <glyph glyph-name="OE" unicode="&#x152;" horiz-adv-x="2314" 
d="M2271 305l35 -8q-36 -156 -47 -197q-24 -81 -37 -98q-23 -23 -92 -20q-810 16 -830 16q-69 0 -247 -16q-176 -19 -250 -19q-307 0 -514 213q-205 211 -205 522q0 338 225 549q227 213 563 213q61 0 134 -8l131 -10l170 -10q119 -7 166 -7q97 0 284 9q212 10 285 10
q65 0 86 -55l90 -244l-33 -17q-160 201 -229 230q-65 33 -336 33q-74 0 -107 -11q-51 -17 -51 -84v-495q0 -76 66 -76h31q14 2 36 2q140 0 199 80q53 68 53 213h39q-3 -408 8 -590h-39q-34 173 -102 217q-53 35 -244 35q-33 0 -43 -9.5t-10 -41.5v-490q0 -78 68 -96
q24 -6 135 -6h291q99 0 188 92q40 40 133 174zM1231 268v944q0 131 -125 177q-71 26 -236 26q-279 0 -417 -221q-117 -182 -117 -479t104 -477q129 -228 406 -228q75 0 172 17q119 20 168 69q45 48 45 172z" />
    <glyph glyph-name="oe" unicode="&#x153;" horiz-adv-x="1574" 
d="M1495 244l33 -23q-126 -246 -373 -246q-202 0 -321 162q-137 -162 -342 -162q-194 0 -314 129q-119 128 -119 326q0 200 123 338q125 137 324 137q203 0 334 -155q113 155 325 155q134 0 244 -84q113 -88 113 -223q0 -16 -11 -27q-4 0 -23 -2t-24 -2h-495q-41 0 -47 -24
v-64q0 -153 73 -260q83 -123 230 -123q140 0 270 148zM1356 649q0 92 -57.5 152.5t-147.5 60.5q-81 0 -150 -69q-67 -70 -67 -150q0 -27 67 -27h289q66 0 66 33zM745 446q0 416 -241 416q-252 0 -252 -436q0 -178 35 -268q56 -140 205 -140q253 0 253 428z" />
    <glyph glyph-name="Scaron" unicode="&#x160;" horiz-adv-x="1228" 
d="M848 1919h57l-231 -348h-119l-231 348h57l233 -209zM1081 397q0 -196 -139 -317q-132 -111 -334 -111q-295 0 -405 49q-27 12 -33 84q-2 24 -31 299l39 9q81 -182 156 -263q110 -122 264 -122q133 0 217 84q86 86 86 217q0 178 -199 280q-53 22 -177.5 75t-192.5 81
q-199 108 -199 303q0 173 131 283q121 106 297 106q65 0 174 -33q117 -30 174 -30q47 0 74 8q32 -215 35 -340l-39 -6q-163 358 -406 358q-120 0 -197 -71t-77 -187q0 -110 84 -170q50 -36 283 -119q415 -147 415 -467z" />
    <glyph glyph-name="scaron" unicode="&#x161;" horiz-adv-x="782" 
d="M692 248q0 -118 -78.5 -195.5t-197.5 -77.5q-19 0 -105 11q-75 10 -90 10q-9 0 -44 -5t-44 -5h-6q-4 2 -8 2q-18 9 -33 116l-12 136l28 14q137 -236 275 -236q75 0 122.5 47t47.5 125q0 90 -117 160q-51 28 -215 121q-117 79 -117 191q0 115 92 186q81 63 201 63
q50 0 195 -22q21 3 49 26h22q6 -43 27 -249l-29 -7q-130 213 -258 213q-68 0 -112.5 -42t-44.5 -109q0 -87 116 -148l219 -112q117 -83 117 -213zM625 1364h57l-231 -348h-119l-232 348h58l233 -209z" />
    <glyph glyph-name="Ydieresis" unicode="&#x178;" horiz-adv-x="1456" 
d="M1415 1432v-39q-109 0 -201 -117q-33 -42 -124 -209l-238 -442v-379q0 -108 25 -156q30 -55 114 -55q27 0 62 6v-41h-613v41l109 16q76 21 76 101v420q-75 109 -189 307l-102 178q-60 105 -115 190q-103 142 -168 142q-12 0 -18 -2v39h594v-39q-168 0 -168 -56
q0 -81 159 -348q121 -200 199 -307q20 36 78.5 143t89.5 166q141 261 141 297q0 105 -180 105v39h469zM1001 1726q0 -41 -29.5 -70.5t-70.5 -29.5q-43 0 -71.5 28.5t-28.5 71.5q0 38 31 68.5t69 30.5t69 -30.5t31 -68.5zM657 1726q0 -42 -29 -71t-71 -29q-41 0 -69.5 29.5
t-28.5 70.5q0 38 30 68.5t68 30.5t69 -30.5t31 -68.5z" />
    <glyph glyph-name="florin" unicode="&#x192;" horiz-adv-x="1005" 
d="M946 1348q0 -88 -88 -88q-40 0 -104 43q-62 45 -90 45q-50 0 -68 -150l-12 -182l-17 -211h209v-78h-215l-43 -469l-12 -184q-8 -91 -33 -183q-110 -376 -360 -376q-52 0 -97 26q-53 30 -53 78q0 84 88 84q39 0 101 -39q68 -41 98 -41q86 0 86 334q0 46 20 272l43 498
h-206v78h213q0 231 81 409q105 236 304 236q155 0 155 -102z" />
    <glyph glyph-name="circumflex" unicode="&#x2c6;" 
d="M571 1364l232 -348h-58l-233 211l-233 -211h-58l232 348h118z" />
    <glyph glyph-name="tilde" unicode="&#x2dc;" 
d="M745 1313h54q-34 -205 -185 -205q-39 0 -125 22q-90 23 -124 23q-62 0 -89 -90h-51q40 211 187 211q35 0 125 -23q86 -22 122 -22q59 0 86 84z" />
    <glyph glyph-name="endash" unicode="&#x2013;" 
d="M1024 498v-115h-1024v115h1024z" />
    <glyph glyph-name="emdash" unicode="&#x2014;" horiz-adv-x="2048" 
d="M2048 498v-115h-2048v115h2048z" />
    <glyph glyph-name="quoteleft" unicode="&#x2018;" horiz-adv-x="501" 
d="M389 1008q0 -43 -28 -72t-72 -29q-74 0 -122 57t-48 138q0 188 203 358l26 -26q-133 -133 -133 -252q0 -66 86 -84q88 -15 88 -90z" />
    <glyph glyph-name="quoteright" unicode="&#x2019;" horiz-adv-x="501" 
d="M393 1266q0 -189 -203 -359l-26 27q133 142 133 252q0 71 -86 86t-86 88q0 41 28.5 70.5t69.5 29.5q74 0 122 -56.5t48 -137.5z" />
    <glyph glyph-name="quotesinglbase" unicode="&#x201a;" horiz-adv-x="501" 
d="M375 14q0 -180 -203 -356l-27 27q134 140 134 252q0 66 -86 81q-87 18 -87 93q0 43 28 71.5t71 28.5q76 0 123 -57.5t47 -139.5z" />
    <glyph glyph-name="quotedblleft" unicode="&#x201c;" horiz-adv-x="890" 
d="M774 1008q0 -42 -29 -71.5t-71 -29.5q-74 0 -122 57t-48 138q0 188 203 358l26 -26q-133 -133 -133 -252q0 -66 86 -84q88 -15 88 -90zM389 1008q0 -43 -28 -72t-72 -29q-74 0 -122 57t-48 138q0 188 203 358l26 -26q-133 -133 -133 -252q0 -66 86 -84q88 -15 88 -90z
" />
    <glyph glyph-name="quotedblright" unicode="&#x201d;" horiz-adv-x="890" 
d="M780 1266q0 -185 -202 -357l-25 27q131 134 131 250q0 66 -86 84t-86 92q0 43 27.5 71.5t70.5 28.5q76 0 123 -57.5t47 -138.5zM395 1266q0 -185 -202 -357l-27 27q133 133 133 250q0 68 -86 86t-86 90q0 41 28.5 70.5t69.5 29.5q76 0 123 -57.5t47 -138.5z" />
    <glyph glyph-name="quotedblbase" unicode="&#x201e;" horiz-adv-x="890" 
d="M780 14q0 -181 -202 -356l-25 27q131 143 131 252q0 66 -86 81q-86 18 -86 93q0 43 27.5 71.5t70.5 28.5q76 0 123 -57.5t47 -139.5zM395 14q0 -181 -202 -356l-27 27q133 139 133 252q0 63 -86 81q-86 21 -86 93q0 43 28.5 71.5t69.5 28.5q76 0 123 -57.5t47 -139.5z
" />
    <glyph glyph-name="dagger" unicode="&#x2020;" 
d="M926 979q0 -96 -107 -96q-20 0 -121 37q-96 38 -163 38q0 -227 92 -366q-84 -344 -84 -866h-58q0 505 -88 866q90 159 90 319v23q-2 10 -2 22q-56 0 -151 -36q-93 -37 -129 -37q-107 0 -107 96q0 42 28.5 68t72.5 26q31 0 127 -35q88 -32 159 -32q0 8 2 33t2 32
q0 63 -40 170q-39 104 -39 131q0 31 35 59.5t69 28.5q96 0 96 -102q0 -17 -55 -154q-12 -30 -18 -198h22q53 0 143 34q96 35 117 35q107 0 107 -96z" />
    <glyph glyph-name="daggerdbl" unicode="&#x2021;" 
d="M926 201q0 -41 -30.5 -68t-72.5 -27q-35 0 -125 33q-96 35 -161 35q-2 -10 -2 -47q0 -102 36 -197q39 -95 39 -108q0 -43 -29 -73t-71 -30t-69 30t-27 73q0 22 55 153q13 29 16 99v98h-20q-51 0 -141 -35q-85 -33 -119 -33q-45 0 -76 27t-31 70q0 96 107 96q30 0 125 -39
q98 -37 159 -37q0 243 -94 371q92 151 92 321v23q-2 10 -2 20q-56 0 -151 -36q-98 -37 -131 -37q-107 0 -107 96q0 94 103 94q31 0 127 -35q88 -32 159 -32q0 8 2 33t2 32q0 63 -40 170q-39 104 -39 131q0 31 35 59.5t69 28.5q96 0 96 -102q0 -11 -55 -154q-12 -30 -18 -198
h22q52 0 139 34q90 35 119 35q109 0 109 -96t-109 -96q-18 0 -119 37q-96 38 -163 38q0 -231 92 -370q-92 -164 -92 -322l1 -46q1 1 1 3q55 0 153 37t129 37q107 0 107 -96z" />
    <glyph glyph-name="bullet" unicode="&#x2022;" horiz-adv-x="1208" 
d="M899 762q0 -125 -86 -211t-211 -86q-123 0 -209 86q-86 89 -86 211q0 123 86 209q89 86 211 86q126 0 209 -86q86 -83 86 -209z" />
    <glyph glyph-name="ellipsis" unicode="&#x2026;" horiz-adv-x="2048" 
d="M1819 88q0 -45 -33 -79t-80 -34t-79 33t-32 80t33 79t78 32q47 0 80 -33t33 -78zM1135 88q0 -45 -33 -79t-80 -34t-79 33t-32 80t33 79t78 32q47 0 80 -33t33 -78zM453 88q0 -45 -33 -79t-80 -34t-79 33t-32 80t33 79t78 32q47 0 80 -33t33 -78z" />
    <glyph glyph-name="perthousand" unicode="&#x2030;" horiz-adv-x="2256" 
d="M2185 500q0 -172 -119 -340q-129 -185 -292 -185q-114 0 -181 82q-63 75 -63 191q0 177 147 315q148 139 324 139q184 0 184 -202zM1440 500q0 -172 -117 -342q-127 -183 -295 -183q-113 0 -180 82q-64 76 -64 191q0 176 148 315t323 139q185 0 185 -202zM1245 1389h76
l-1047 -1450h-90l885 1226q-134 -45 -209 -45q-52 0 -129 23q0 -105 -20 -166q-47 -145 -144 -248q-113 -125 -248 -125q-111 0 -178 82q-63 75 -63 188q0 178 147 316q147 141 326 141q142 0 172 -123q60 -32 143 -32q234 0 379 213zM2128 500q0 147 -109 147
q-123 0 -239 -180q-109 -165 -109 -297q0 -62 32.5 -101.5t90.5 -39.5q130 0 238 176q96 158 96 295zM1382 500q0 147 -108 147q-121 0 -240 -180q-108 -169 -108 -297q0 -62 32.5 -101.5t90.5 -39.5q93 0 190 112q86 103 119 201q24 74 24 158zM678 1171q-31 21 -60 95
q-20 10 -63 10q-110 0 -227 -184q-109 -174 -109 -291q0 -142 123 -142q102 0 203 125q88 112 114 220q19 74 19 167z" />
    <glyph glyph-name="guilsinglleft" unicode="&#x2039;" horiz-adv-x="473" 
d="M432 133l-4 -14l-6 -4q-3 0 -160 145l-188 176q6 4 27 23.5t68.5 64t92.5 86.5q155 146 160 146l6 -4l4 -13q0 -64 -207 -303q201 -239 207 -303z" />
    <glyph glyph-name="guilsinglright" unicode="&#x203a;" horiz-adv-x="473" 
d="M401 436q-14 -12 -190 -174q-156 -147 -160 -147l-8 4v8q-2 2 -2 6q0 62 209 303q-209 241 -209 303q0 4 2 6v7l8 4q6 0 162 -144z" />
    <glyph glyph-name="trademark" unicode="&#x2122;" horiz-adv-x="1683" 
d="M1434 930v-27h-236v27q76 3 76 55v395l-178 -479h-15l-174 479v-395q0 -52 78 -55v-27h-197v27q78 3 78 55v371q0 52 -78 55v27h183l141 -400l148 400h174v-25q-76 -3 -76 -55v-373q0 -52 76 -55zM696 1438l11 -178h-25q0 151 -158 151v-426q0 -52 76 -55v-27h-248v27
q76 3 76 55v426h-20q-123 0 -138 -151h-26l12 178h440z" />
    <glyph glyph-name="NULL" horiz-adv-x="0" 
 />
    <glyph glyph-name="CR" horiz-adv-x="501" 
 />
    <glyph glyph-name="_140" horiz-adv-x="0" 
 />
    <glyph glyph-name="HT" horiz-adv-x="501" 
 />
    <glyph glyph-name="BS" horiz-adv-x="0" 
 />
    <glyph glyph-name="GS" horiz-adv-x="0" 
 />
    <glyph glyph-name="dotoperator" horiz-adv-x="501" 
d="M362 666q0 -45 -32.5 -78t-79.5 -33q-44 0 -77.5 33.5t-33.5 77.5q0 47 32 79.5t79 32.5q44 0 78 -34t34 -78z" />
  </font>
</defs>
</svg>
