<?xml version="1.0" standalone="no"?>
<!DOCTYPE svg PUBLIC "-//W3C//DTD SVG 1.1//EN" "http://www.w3.org/Graphics/SVG/1.1/DTD/svg11.dtd" >
<svg xmlns="http://www.w3.org/2000/svg" xmlns:xlink="http://www.w3.org/1999/xlink" version="1.1">
<metadata>
Created by FontForge 20170731 at Fri Nov  2 21:12:09 2012
 By Aleksey,,,
Copyright (c) 2012 by Kimberly Geswein. All rights reserved.
</metadata>
<defs>
<font id="KGHowManyTimes" horiz-adv-x="264" >
  <font-face 
    font-family="KG How Many Times"
    font-weight="400"
    font-stretch="normal"
    units-per-em="1024"
    panose-1="2 0 0 0 0 0 0 0 0 0"
    ascent="819"
    descent="-205"
    x-height="677.5"
    cap-height="758"
    bbox="-83.8 -175.571 520.977 914.562"
    underline-thickness="0"
    underline-position="0"
    unicode-range="U+0020-2265"
  />
<missing-glyph horiz-adv-x="500" 
 />
    <glyph glyph-name=".notdef" horiz-adv-x="500" 
 />
    <glyph glyph-name=".null" horiz-adv-x="0" 
 />
    <glyph glyph-name="nonmarkingreturn" horiz-adv-x="500" 
 />
    <glyph glyph-name="space" unicode=" " horiz-adv-x="164" 
 />
    <glyph glyph-name="space" unicode="&#xa0;" horiz-adv-x="164" 
 />
    <glyph glyph-name="exclam" unicode="!" horiz-adv-x="118" 
d="M87 103q0 -9 -8.5 -15t-16.5 -6q-12 0 -18 9t-7 20v73t-0.5 104.5t-1 122t-1 125.5t-1 114t-0.5 88q3 12 11 16.5t16.5 3t15 -7.5t6.5 -16zM89 26q0 -13 -7.5 -21t-21.5 -8q-13 0 -21 8t-8 21q0 14 8 21.5t21 7.5q29 0 29 -29z" />
    <glyph glyph-name="quotedbl" unicode="&#x22;" horiz-adv-x="186" 
d="M35 680q-7 7 -6 15.5t6.5 14.5t14.5 7t17 -8q9 -10 15 -26.5t6.5 -35.5t-5 -39t-19.5 -36q-7 -8 -16 -8.5t-16 4t-10 11.5t2 13q13 10 18.5 23t5.5 25.5t-3.5 23t-9.5 16.5zM110 682q-7 7 -6 15.5t6.5 14.5t14.5 7t17 -8q9 -10 15 -26.5t6.5 -35.5t-5 -39t-19.5 -36
q-7 -8 -16 -8.5t-16 4t-10 11.5t2 13q13 10 18.5 23t5.5 25.5t-3.5 23t-9.5 16.5z" />
    <glyph glyph-name="numbersign" unicode="#" horiz-adv-x="318" 
d="M233 381l1 -42l42 1q9 0 13 -7t3.5 -16t-5 -16.5t-13.5 -7.5l-39 -1l1 -44q0 -8 -8 -12.5t-17.5 -5t-17.5 3.5t-6 12l-1 45l-40 -1l1 -41q0 -8 -8 -12.5t-17.5 -5t-17.5 3.5t-6 12l-1 42l-42 -1q-8 0 -12.5 8t-5 17.5t3.5 17t12 6.5h43v41l-40 -1q-8 0 -12.5 8t-5 17.5
t3.5 17t12 6.5h41v44q0 9 7 13t16 3.5t16.5 -5t7.5 -13.5l1 -41h41v42q0 9 7 13t16 3.5t16.5 -5t7.5 -13.5l1 -39l45 1q9 0 13 -7t3.5 -16t-5 -16.5t-13.5 -7.5zM145 338h40v42l-41 -1z" />
    <glyph glyph-name="dollar" unicode="$" horiz-adv-x="295" 
d="M115 -12q-1 2 -1 6.5v8.5q-27 7 -46 26t-29.5 44.5t-13.5 54.5t2 56q1 12 9 17.5t17 4.5t16.5 -7t8.5 -18q-5 -52 7 -80.5t29 -40.5q1 51 2.5 126.5t3.5 161.5q-1 1 -1 2q-17 19 -33 39.5t-28.5 45.5t-21 54.5t-8.5 66.5q0 27 3 58t13 59t28.5 50t48.5 30v19q2 8 10 12
t17 4t16 -4.5t8 -13.5v-14q24 -4 42 -19.5t29.5 -38.5t17.5 -52t6 -61q0 -13 -7.5 -19.5t-17 -7t-17 5.5t-7.5 18q0 54 -13.5 81t-31.5 35q1 -78 -0.5 -159t-3.5 -164q21 -26 40.5 -52.5t33.5 -55t22 -60.5t7 -69q-2 -54 -29.5 -91t-75.5 -45q0 -3 0.5 -6t0.5 -6
q1 -8 -7.5 -12.5t-19 -5t-19 3.5t-7.5 12zM217 116q8 53 -6.5 93.5t-43.5 80.5q-2 -61 -2.5 -120.5t1.5 -116.5q21 6 34 22.5t17 40.5zM76 559q0 -37 13 -68t33 -57q1 69 1.5 136t-0.5 124q-14 -9 -23.5 -25.5t-14.5 -35.5t-7 -39t-2 -35z" />
    <glyph glyph-name="percent" unicode="%" horiz-adv-x="299" 
d="M26 21q2 12 14.5 55.5t31.5 106t41.5 138t45 152.5t42.5 148.5t33 126.5q4 7 12.5 9t17 -0.5t14.5 -9t4 -15.5q-22 -88 -48.5 -178.5t-54 -182t-54 -182.5t-47.5 -180q-2 -8 -11 -10t-19.5 0.5t-17.5 8t-4 13.5zM97 692q0 18 -18 18q-19 0 -19 -18q0 -19 19 -19
q18 0 18 19zM138 692q0 -26 -15.5 -42t-42.5 -16q-26 0 -42 16t-16 42q0 27 16 42.5t42 15.5q27 0 42.5 -15.5t15.5 -42.5zM234 67q0 18 -18 18q-19 0 -19 -18q0 -19 19 -19q18 0 18 19zM275 67q0 -26 -15.5 -42t-42.5 -16q-26 0 -42 16t-16 42q0 27 16 42.5t42 15.5
q27 0 42.5 -15.5t15.5 -42.5z" />
    <glyph glyph-name="ampersand" unicode="&#x26;" horiz-adv-x="328" 
d="M115 410q-8 26 -16.5 63t-14.5 77t-6.5 79t9 69t31 48t59.5 16q35 -2 54 -42t7 -118q-6 -40 -23 -94t-43 -101q-1 -2 3 -17t10.5 -37t14.5 -47t15 -47t13 -38t8 -20q5 22 7 45.5t1.5 46t-2.5 42t-5 34.5q-2 10 5 15.5t16.5 6t18 -4.5t10.5 -15q5 -35 4 -72t-5 -70.5
t-10.5 -59t-11.5 -36.5l43 -107q3 -8 -2 -14.5t-13 -10.5t-16.5 -4t-12.5 6l-25 77q-10 -18 -24 -34t-31.5 -27.5t-36 -17.5t-37.5 -3q-39 6 -59 30.5t-25 60t1.5 79.5t20 87.5t32 84t36.5 70.5zM120 47q13 -2 27 4.5t26.5 18.5t22 28.5t15.5 34.5l-77 214
q-27 -55 -43 -107.5t-19 -94.5t8.5 -68.5t39.5 -29.5zM150 465q14 30 24.5 66.5t15.5 63.5q11 58 4.5 88t-23.5 32t-29 -12t-16.5 -45t1 -79t23.5 -114z" />
    <glyph glyph-name="quotesingle" unicode="'" horiz-adv-x="120" 
d="M35 680q-7 7 -6 15.5t6.5 14.5t14.5 7t17 -8q9 -10 15 -26.5t6.5 -35.5t-5 -39t-19.5 -36q-7 -8 -16 -8.5t-16 4t-10 11.5t2 13q13 10 18.5 23t5.5 25.5t-3.5 23t-9.5 16.5z" />
    <glyph glyph-name="parenleft" unicode="(" horiz-adv-x="234" 
d="M210 -5q10 -9 10.5 -19t-5 -17.5t-13.5 -10.5t-15 3q-44 35 -74.5 85t-50 106.5t-28.5 115.5t-11 113q-2 47 2.5 110.5t21.5 127.5t50.5 120.5t89.5 88.5q9 5 17.5 2t12.5 -10.5t2.5 -17t-10.5 -15.5q-47 -30 -74.5 -77.5t-42 -103t-18 -115t-0.5 -112.5q2 -44 9 -95.5
t22 -102.5t40.5 -97t64.5 -79z" />
    <glyph glyph-name="parenright" unicode=")" horiz-adv-x="232" 
d="M24 -5q39 33 64.5 79t40.5 97t22 102.5t9 95.5q3 53 -0.5 112.5t-18 115t-42.5 103t-74 77.5q-9 6 -10.5 15.5t2.5 17t12.5 10.5t17.5 -2q56 -32 89.5 -88.5t50.5 -120.5t21 -127.5t3 -110.5q-2 -54 -11 -113t-28.5 -115.5t-50 -106.5t-74.5 -85q-7 -6 -15 -3t-13.5 10.5
t-5 17.5t10.5 19z" />
    <glyph glyph-name="asterisk" unicode="*" horiz-adv-x="330" 
d="M149 391l-12 84q0 10 8.5 15t19 4.5t19.5 -6.5t9 -17l-13 -80l52 70q7 7 17 4t16.5 -10.5t8.5 -18t-5 -17.5l-66 -50l85 15q10 0 15 -9t4.5 -19.5t-6.5 -19.5t-17 -9l-81 11l69 -49q7 -7 4 -17.5t-11 -19t-17.5 -11.5t-15.5 6l-51 67l15 -80q0 -10 -9.5 -15.5t-21.5 -5.5
t-21 5t-7 15l12 82l-47 -66q-7 -7 -17.5 -3.5t-19 11.5t-11.5 17.5t6 15.5l67 48l-80 -12q-10 0 -15.5 9.5t-5.5 21.5t5 21t15 7l80 -16l-66 50q-8 7 -5 16t11 16t18.5 9.5t18.5 -4.5z" />
    <glyph glyph-name="plus" unicode="+" horiz-adv-x="297" 
d="M176 379h78q9 0 13 -7.5t3.5 -16t-5.5 -16t-14 -7.5l-75 -1l1 -77q0 -8 -8 -12.5t-17.5 -4.5t-17.5 4t-6 12v78h-75q-8 0 -12.5 8t-4.5 17.5t4 17t12 6.5l76 -1v76q0 9 7 13t16 3.5t16.5 -5.5t7.5 -14z" />
    <glyph glyph-name="comma" unicode="," horiz-adv-x="120" 
d="M33 46q-7 7 -5.5 15.5t8 14.5t16 7t17.5 -8q9 -10 15 -26t7 -34.5t-5.5 -38.5t-21.5 -38q-6 -6 -14 -6.5t-15 2.5t-11 9.5t-2 14.5q13 10 18.5 23t5.5 25.5t-3.5 23t-9.5 16.5z" />
    <glyph glyph-name="hyphen" unicode="-" horiz-adv-x="295" 
d="M55 329q-8 0 -12.5 6.5t-4.5 15t3.5 16t11.5 9.5l202 3q9 0 13 -7t3.5 -16t-5 -16.5t-13.5 -7.5z" />
    <glyph glyph-name="period" unicode="." horiz-adv-x="98" 
d="M18 31q0 13 7.5 21t21.5 8q13 0 21 -8t8 -21q0 -14 -8 -21.5t-21 -7.5q-29 0 -29 29z" />
    <glyph glyph-name="slash" unicode="/" horiz-adv-x="299" 
d="M26 21q2 12 14.5 55.5t31.5 106t41.5 138t45 152.5t42.5 148.5t33 126.5q4 7 12.5 9t17 -0.5t14.5 -9t4 -15.5q-22 -88 -48.5 -178.5t-54 -182t-54 -182.5t-47.5 -180q-2 -8 -11 -10t-19.5 0.5t-17.5 8t-4 13.5z" />
    <glyph glyph-name="zero" unicode="0" horiz-adv-x="284" 
d="M143 -2q-30 0 -51 13t-34.5 34.5t-21 49.5t-10.5 59q-11 118 -9.5 224.5t11.5 193.5q4 36 12 68.5t21.5 58t33 41t48.5 17.5q28 1 49 -12.5t34.5 -38t21 -57.5t9.5 -69q4 -67 6.5 -119.5t2.5 -100.5t-2 -96.5t-6 -106.5q-3 -32 -9.5 -61t-19.5 -50.5t-34 -34.5t-52 -13z
M209 156q6 63 8.5 108.5t2 89.5t-3 94.5t-6.5 124.5q-2 27 -6.5 51t-13 41t-20 26.5t-26.5 8.5q-29 -3 -46 -38t-22 -84q-7 -65 -10.5 -116.5t-3.5 -99t3.5 -96t10.5 -108.5q3 -23 8 -44t13.5 -36.5t20.5 -24t28 -6.5q29 1 43.5 32.5t19.5 76.5z" />
    <glyph glyph-name="one" unicode="1" horiz-adv-x="105" 
d="M27 10q-1 12 -1 55.5t0.5 106t1 138.5t1 153t-0.5 150t-3 129q2 8 10 12t17 4t16 -4.5t8 -13.5q3 -91 2.5 -181.5t-1.5 -181.5t-1 -182.5t4 -182.5q1 -8 -7.5 -12.5t-19 -5t-19 3.5t-7.5 12z" />
    <glyph glyph-name="two" unicode="2" horiz-adv-x="241" 
d="M25 72q16 39 33 88.5t33 103.5t30.5 109.5t25 105.5t16.5 92t6 70q0 31 -12 48t-28 17q-20 0 -31.5 -10t-17.5 -25t-7 -32.5t2 -32.5q3 -10 -2.5 -17.5t-14 -11t-16.5 -0.5t-11 14q-6 25 -4 55.5t14 56.5t34.5 42.5t56.5 13.5q16 -1 31.5 -9t28 -22t20.5 -34.5t8 -47.5
q1 -40 -7.5 -94t-22 -114t-30.5 -121t-33 -114t-29 -94t-19 -60h16h36.5h40.5h28q10 0 14 -7.5t3.5 -17t-5 -17t-11.5 -7.5h-145q-8 0 -17 3.5t-15 11.5t-6.5 22t7.5 35z" />
    <glyph glyph-name="three" unicode="3" horiz-adv-x="272" 
d="M20 82q-4 14 3 22.5t17.5 11t20.5 -2.5t12 -18q3 -23 21 -34.5t38 -11.5q33 1 50 36.5t21 90.5q3 46 -4 98t-22.5 96t-38.5 74.5t-52 34.5q-8 2 -12 9t-4.5 15t3.5 15.5t14 11.5q29 17 45 47.5t20.5 60.5t-3 52t-26.5 22q-2 0 -7.5 -1t-12.5 -7.5t-13 -20.5t-8 -40
q0 -8 -7.5 -12t-17 -4t-17 4t-7.5 12q-1 24 5 45.5t17.5 37t28.5 25t38 9.5q27 0 44.5 -14.5t26.5 -37.5t10 -51.5t-5.5 -56.5t-20 -51.5t-33.5 -37.5q27 -17 48.5 -52.5t36.5 -81t22.5 -96.5t4.5 -99q-2 -38 -10.5 -71.5t-25 -58.5t-40.5 -39.5t-56 -13.5q-33 1 -62.5 20.5
t-41.5 62.5z" />
    <glyph glyph-name="four" unicode="4" horiz-adv-x="250" 
d="M183 374l-119 1q-14 0 -22 4.5t-12.5 11t-6 13.5t-1.5 13v321q0 11 7.5 16.5t17 5.5t17.5 -5.5t9 -16.5v-310q24 0 55 -1t55 1v319q1 9 9.5 13t17.5 3.5t16 -5.5t6 -14v-728q0 -9 -7.5 -13.5t-17 -4.5t-17 4.5t-7.5 13.5v358z" />
    <glyph glyph-name="five" unicode="5" horiz-adv-x="267" 
d="M23 178q1 11 9.5 16.5t17.5 5t16.5 -5.5t6.5 -15q0 -21 2 -44t7 -42.5t14 -32t23 -10.5q21 2 36 20t24.5 46t14 62.5t5.5 69.5q0 19 -1.5 41t-7 43t-14.5 38.5t-23 26.5t-33.5 7.5t-44.5 -17.5q-15 -10 -31.5 -6.5t-21.5 24.5q-1 39 -1 73.5v69.5t0.5 73t0.5 83
q0 26 13.5 40t41.5 13h148q7 1 12 -5.5t5.5 -15.5t-4 -17.5t-15.5 -9.5l-154 -1l1 -265q90 31 133 -13.5t45 -172.5q0 -39 -5.5 -83t-20 -81.5t-39.5 -63.5t-63 -29q-30 -2 -49 14t-30 42.5t-14.5 59t-3.5 62.5z" />
    <glyph glyph-name="six" unicode="6" horiz-adv-x="260" 
d="M23 302q0 87 0.5 169t10.5 145.5t34 102t71 40.5q51 2 77 -36t24 -104q0 -11 -8.5 -15t-18.5 -3.5t-17 5.5t-4 13q0 15 -2 32t-7 31t-15.5 22.5t-26.5 7.5q-19 -2 -31.5 -18t-20 -42t-11.5 -61t-5 -74q-1 -25 -1.5 -53.5t-0.5 -57.5v-57v-51q14 15 31.5 25.5t36.5 13
t37 -4t33 -25.5q18 -23 26.5 -57t7.5 -72t-8.5 -70.5t-21.5 -56t-33.5 -37.5t-44.5 -14q-44 -1 -67 26t-33 70t-11 97.5t-1 108.5zM74 220q0 -14 0.5 -42t5.5 -56t17.5 -49t36.5 -21q15 0 26 11.5t18.5 29.5t11 40.5t3.5 45.5q-1 37 -12 67.5t-33 36.5q-17 5 -38 -10.5
t-36 -52.5z" />
    <glyph glyph-name="seven" unicode="7" horiz-adv-x="252" 
d="M175 702l-127 1q-12 -3 -18.5 5.5t-6.5 19t7 19.5t23 8h21h42t43 0.5t25 0.5q12 0 22 -2.5t16.5 -10t8.5 -20.5t-4 -35l-159 -675q-6 -7 -15.5 -9t-18 -0.5t-14 6.5t-3.5 12z" />
    <glyph glyph-name="eight" unicode="8" horiz-adv-x="270" 
d="M165 402q23 -32 42 -74.5t30.5 -88t13.5 -89t-8.5 -78t-36.5 -55t-71 -18.5q-42 1 -68 19.5t-38 49.5t-11 71.5t12.5 85.5t31.5 92.5t46 91.5q-11 17 -25.5 49t-26 69.5t-16.5 77t1 73t26 56t61 26.5q31 3 60 -17.5t41 -65t-0.5 -113.5t-63.5 -162zM127 710
q-11 0 -23 -14.5t-16 -44.5t6.5 -76.5t44.5 -110.5q22 38 34 82t11.5 80.5t-14.5 60.5t-43 23zM136 45q27 2 41.5 21t19 47t1 62t-12.5 68t-22.5 64t-27.5 50q-45 -79 -58 -138t-7 -98.5t25.5 -58.5t40.5 -17z" />
    <glyph glyph-name="nine" unicode="9" horiz-adv-x="298" 
d="M272 12q-2 -6 -10 -9.5t-17 -4.5t-16.5 2.5t-8.5 11.5v390q-42 -24 -78 -20t-62 26.5t-40.5 59t-15.5 77.5q-1 52 14.5 96.5t42.5 72.5t63.5 34t77.5 -20v18q-3 6 4.5 10.5t17.5 4.5t19.5 -5t11.5 -18zM222 675q-33 25 -60.5 23t-46.5 -22t-29.5 -53.5t-10.5 -71.5
q0 -36 11.5 -63.5t31.5 -41.5t46.5 -11.5t55.5 25.5z" />
    <glyph glyph-name="colon" unicode=":" horiz-adv-x="130" 
d="M94 284q0 -13 -7.5 -21t-21.5 -8q-13 0 -21 8t-8 21q0 14 8 21.5t21 7.5q29 0 29 -29zM97 432q0 -13 -7.5 -21t-21.5 -8q-13 0 -21 8t-8 21q0 14 8 21.5t21 7.5q29 0 29 -29z" />
    <glyph glyph-name="semicolon" unicode=";" horiz-adv-x="131" 
d="M50 46q-7 7 -5.5 15.5t8 14.5t16 7t17.5 -8q9 -10 15 -26t7 -34.5t-5.5 -38.5t-21.5 -38q-6 -6 -14 -6.5t-15 2.5t-11 9.5t-2 14.5q13 10 18.5 23t5.5 25.5t-3.5 23t-9.5 16.5zM84 158q0 -13 -7.5 -21t-21.5 -8q-13 0 -21 8t-8 21q0 14 8 21.5t21 7.5q29 0 29 -29z" />
    <glyph glyph-name="less" unicode="&#x3c;" horiz-adv-x="230" 
d="M38 319q-9 3 -12.5 12t-3 19t5 18.5t12.5 11.5l120 55q12 3 20.5 -3t11.5 -15.5t-1 -19.5t-17 -14l-81 -33l83 -31q11 -3 15 -12t2.5 -18.5t-8.5 -16.5t-18 -6z" />
    <glyph glyph-name="equal" unicode="=" horiz-adv-x="294" 
d="M55 288q-8 0 -12.5 8t-5 17.5t3.5 17t12 6.5l202 3q9 0 13 -7t3.5 -16t-5 -16.5t-13.5 -7.5zM56 377q-8 0 -12.5 8t-5 17.5t3.5 17t12 6.5l202 3q9 0 13 -7t3.5 -16t-5 -16.5t-13.5 -7.5z" />
    <glyph glyph-name="greater" unicode="&#x3e;" horiz-adv-x="221" 
d="M56 266q-11 -1 -18 6t-8.5 16.5t2.5 18.5t15 12l83 31l-81 33q-13 4 -17 14t-1 19.5t11.5 15.5t20.5 3l120 -55q8 -3 12.5 -11.5t5 -18.5t-3 -19t-12.5 -12z" />
    <glyph glyph-name="question" unicode="?" horiz-adv-x="267" 
d="M19 580q0 30 4.5 62.5t16 59t31 42.5t49.5 14q38 -3 63 -29t40 -63.5t21 -81.5t6 -83q-1 -53 -10.5 -95t-27 -71t-42.5 -42.5t-58 -8.5l-1 -110q0 -8 -7.5 -13t-17 -5.5t-17 4.5t-7.5 18v136q3 15 13 20.5t21 1.5q31 -9 51 5t32 41t16.5 61.5t3.5 66.5q-1 34 -6.5 69.5
t-16 64t-25.5 46t-36 16.5q-14 -1 -22.5 -14t-13.5 -32.5t-7.5 -41t-3.5 -39.5q-1 -9 -8 -13t-15.5 -3.5t-16 5t-9.5 12.5zM119 29q0 -13 -7.5 -21t-21.5 -8q-13 0 -21 8t-8 21q0 14 8 21.5t21 7.5q29 0 29 -29z" />
    <glyph glyph-name="at" unicode="@" horiz-adv-x="547" 
d="M413 111q10 6 18.5 3t13 -10.5t3.5 -18t-10 -19.5q-21 -26 -51.5 -42.5t-73.5 -22.5q-74 -11 -126.5 18.5t-87 83t-51.5 121.5t-18 134q-2 74 12.5 146t45 128.5t77 91t108.5 33.5q73 -1 124.5 -40.5t82 -100t38.5 -133.5t-5.5 -140.5t-49.5 -121t-94 -75.5
q-21 -6 -32.5 2.5t-16.5 25.5q-40 -23 -69.5 -18.5t-49.5 27t-30 59.5t-11 81q0 16 -1 45t0 64t6 71t16 66.5t29.5 50.5t48.5 22q38 3 57 -26l2 20q1 10 9 15.5t18 6t18 -4.5t9 -17q-2 -77 -3 -136t-1 -104v-78t1 -56t1.5 -38t1.5 -26q11 7 21.5 16t19.5 20q28 34 43.5 82.5
t18 101t-9 104.5t-36 93.5t-63.5 67.5t-91 27q-51 0 -89 -31t-62 -81t-35 -114t-8 -129q1 -31 7 -67t17 -72t28 -68.5t41 -56.5t56 -36.5t72 -7.5q36 5 65 23t46 41zM210 331q0 -14 2 -35t8 -40.5t17.5 -33.5t31.5 -14t31 15t18 30v285q-4 10 -11 21t-15.5 19.5t-18.5 12
t-20 -2.5q-23 -14 -32.5 -42t-11.5 -64t-0.5 -75.5t1.5 -75.5z" />
    <glyph glyph-name="A" unicode="A" horiz-adv-x="322" 
d="M27 23q-1 3 4 45t13 105.5t18.5 140.5t21 152.5t20.5 140t17 103.5q3 17 13.5 27.5t23.5 12t24 -6t16 -25.5q15 -70 27 -143t22 -143t18.5 -134.5t15.5 -118.5t12.5 -94.5t10.5 -62.5q0 -12 -7.5 -18.5t-17 -7t-18 4.5t-10.5 16l-35 267h-110l-30 -270q-3 -11 -11 -15.5
t-16 -3t-15 8.5t-7 19zM117 337h90q-1 7 -3.5 30.5t-6.5 55.5t-8.5 69t-9.5 72t-10 64t-9 45z" />
    <glyph glyph-name="B" unicode="B" horiz-adv-x="257" 
d="M17 731q0 12 6 17t14 5t15.5 -3t11.5 -8q34 5 64 -2.5t52.5 -25t35.5 -44t13 -60.5t-8.5 -61t-22.5 -49t-31.5 -40.5t-36.5 -35.5q22 -6 41 -19t34 -34t24 -52.5t11 -75.5q3 -67 -13.5 -114t-42.5 -75t-58.5 -36.5t-60.5 1.5q-2 -9 -9.5 -13.5t-15.5 -5t-14.5 4
t-7.5 13.5zM65 68q22 -12 46 -5.5t43 28.5t30.5 58.5t10.5 85.5q-2 60 -18 91.5t-36.5 44t-42 12.5t-33.5 -2v-313zM64 697q0 -40 0.5 -72t1 -60.5t0.5 -57t-1 -61.5q27 8 48.5 26.5t36 41.5t22 47.5t7.5 44.5q0 25 -9.5 44t-25.5 31t-36.5 16.5t-43.5 -0.5z" />
    <glyph glyph-name="C" unicode="C" horiz-adv-x="249" 
d="M132 755q22 0 39 -11t28.5 -28t17 -38t5.5 -41q0 -9 -6.5 -17t-17.5 -8q-17 0 -22 14t-8 31t-9 31t-25 14q-12 0 -20 -7.5t-13 -18t-8.5 -22.5t-4.5 -21q-1 -5 -2 -32.5t-1.5 -86.5t-1 -152t-0.5 -228q0 -9 2.5 -23.5t8 -28t14.5 -23t22 -9.5q12 0 19.5 8.5t12 21t7.5 27
t7 27t9.5 20.5t15.5 8q23 0 23 -24q0 -20 -4.5 -44t-15.5 -45t-29 -35t-44 -14q-29 0 -48.5 16t-31 40.5t-16.5 52.5t-5 52q0 120 0.5 207.5t2 146t2.5 89t3 37.5q3 18 10 38.5t18.5 37t27.5 27.5t38 11z" />
    <glyph glyph-name="D" unicode="D" horiz-adv-x="286" 
d="M23 733q0 12 6 17.5t13.5 6.5t15.5 -3.5t13 -12.5q40 4 70 -10.5t51.5 -41.5t36 -62.5t23 -71.5t12 -70t3.5 -57q1 -67 -7 -129.5t-29.5 -116t-59 -96t-96.5 -69.5q-2 -12 -10.5 -17.5t-17.5 -5.5t-16.5 5.5t-7.5 16.5v717zM73 72q47 20 75.5 60.5t44 90t20.5 103t5 98.5
q0 19 -2.5 47.5t-8.5 59.5t-16 61.5t-26 53.5t-38.5 35t-52.5 7z" />
    <glyph glyph-name="E" unicode="E" horiz-adv-x="217" 
d="M23 691q0 24 4 37.5t10.5 20t14.5 8t15 1.5h19h32.5t32.5 -0.5t20 -0.5q13 0 19 -8t6 -17t-6 -16.5t-19 -7.5h-16.5t-29 -0.5t-29.5 -1t-19 -1.5q0 -15 -0.5 -50.5t-1 -75.5t-0.5 -76.5t2 -52.5l82 -1q9 0 13 -7.5t3.5 -16.5t-5 -17t-13.5 -9l-80 -3q-1 -11 -1.5 -34
t-1 -53.5t0 -65.5t1 -69.5t1 -66t0.5 -54.5l100 -3q8 0 12.5 -7.5t5 -16.5t-4 -16t-14.5 -7q-14 -3 -41.5 -2.5t-47.5 -0.5q-35 0 -47 11.5t-13 34.5z" />
    <glyph glyph-name="F" unicode="F" horiz-adv-x="213" 
d="M23 691q0 24 4 37.5t10.5 20t14.5 8t15 1.5h19h32.5t32.5 -0.5t20 -0.5q13 0 19 -8t6 -17t-6 -16.5t-19 -7.5h-16.5t-29 -0.5t-29.5 -1t-19 -1.5q0 -15 -0.5 -50.5t-1 -75.5t-0.5 -76.5t2 -52.5l82 -1q9 0 13 -7.5t3.5 -16.5t-5 -17t-13.5 -9l-80 -3q-1 -11 -1.5 -39
t-0.5 -64.5t0.5 -78t1 -79.5t1 -69t0.5 -47q0 -9 -8 -14t-17 -5t-17 4t-8 13z" />
    <glyph glyph-name="G" unicode="G" horiz-adv-x="248" 
d="M130 2q-62 3 -85.5 94.5t-26.5 264.5q-3 204 32 300t93 96q28 0 44.5 -15t25 -36t11 -44.5t1.5 -40.5q0 -11 -8 -16.5t-17 -6t-16 3t-6 11.5q1 16 1.5 32t-2 29t-10.5 22t-24 11q-20 2 -34.5 -28.5t-24 -81t-14 -114.5t-4.5 -129q0 -57 4 -110.5t12 -95.5t19 -68t26 -28
q13 -2 25 24t20 72t11 109t-3 136l-58 -1q-10 1 -14 9t-4 16q0 11 6 16t15 7l47 1q19 0 29.5 -3t16 -10t6.5 -18.5t2 -29.5q1 -15 2 -49t-0.5 -76.5t-6.5 -88t-16 -82.5t-29 -60t-46 -22z" />
    <glyph glyph-name="H" unicode="H" horiz-adv-x="294" 
d="M191 8q-1 10 -1 45v86t1 114t1 130l-107 -2q1 -111 -1 -205.5t-4 -163.5q1 -8 -7 -12.5t-18 -5t-17.5 3.5t-6.5 12q1 21 2.5 58.5t2 86.5t0.5 106.5v118.5h-14q-8 0 -12.5 8t-5 17.5t3.5 17t12 6.5h16q-1 85 -3 166t-4 147q2 8 9 12t15.5 4t15 -4.5t7.5 -13.5
q4 -80 6 -158t3 -153l107 2q1 85 0 166t-3 143q2 8 9 12t15.5 4t15 -4.5t7.5 -13.5q2 -77 2.5 -153t-0.5 -154l21 1q8 -2 12 -9.5t4 -16t-4.5 -15t-13.5 -6.5l-20 -1q-1 -94 -1 -187t4 -187q1 -8 -7 -12.5t-18 -5t-17.5 3.5t-6.5 12z" />
    <glyph glyph-name="I" unicode="I" horiz-adv-x="113" 
d="M27 10q-1 12 -1 55.5t0.5 106t1 138.5t1 153t-0.5 150t-3 129q2 8 10 12t17 4t16 -4.5t8 -13.5q3 -91 2.5 -181.5t-1.5 -181.5t-1 -182.5t4 -182.5q1 -8 -7.5 -12.5t-19 -5t-19 3.5t-7.5 12z" />
    <glyph glyph-name="J" unicode="J" horiz-adv-x="258" 
d="M120 0q-38 0 -58.5 25t-30 59.5t-10.5 72t1 63.5q1 10 10 14.5t19.5 3.5t18 -6t6.5 -14q-2 -12 -3.5 -39.5t2 -56t13.5 -50t32 -20.5q11 1 21 6.5t17.5 27t13 65t8.5 119t3 189t-2 276.5q-2 10 6.5 16t19.5 6.5t20 -4.5t9 -18q-4 -175 -1.5 -312t-4.5 -231t-31 -143.5
t-79 -48.5z" />
    <glyph glyph-name="K" unicode="K" horiz-adv-x="298" 
d="M130 574l-48 -52l-8 -504q-1 -9 -8 -13.5t-15.5 -5t-16.5 3.5t-11 12q-1 6 -0.5 40.5t2 116t4 218.5t4.5 348q0 15 8 21t17 5t17 -6.5t8 -12.5v-147l131 160q7 8 16 8t15.5 -5t8.5 -14t-6 -19q-12 -16 -21.5 -27t-18.5 -21.5t-18 -22t-20 -27.5q21 -113 37 -194.5
t28 -149.5t21.5 -132.5t18.5 -142.5q0 -8 -8.5 -10.5t-13.5 -2.5q-9 0 -16.5 4t-8.5 14z" />
    <glyph glyph-name="L" unicode="L" horiz-adv-x="227" 
d="M27 737q0 12 8 19t17.5 7.5t17.5 -5.5t8 -21l-3 -686h119q9 0 14 -7.5t5 -17.5t-4.5 -18t-12.5 -8q-30 0 -61 -0.5t-66 1.5q-30 -1 -38.5 14t-8.5 39z" />
    <glyph glyph-name="M" unicode="M" horiz-adv-x="339" 
d="M264 670l-66 -136q-3 -8 -11.5 -12t-18.5 -3.5t-18 6t-10 16.5q-4 10 -12.5 30t-18 42t-19 41.5t-15.5 29.5q0 -84 1 -153.5t2 -142.5t2 -159.5t1 -204.5q-2 -10 -11 -15.5t-18.5 -6t-17.5 4t-7 15.5l-3 704q2 16 11 23t21 8t23.5 -4t19.5 -14q5 -7 16 -27t23 -43
t21.5 -44t12.5 -31l77 143q9 15 20.5 20t21.5 3t16.5 -9.5t4.5 -18.5l11 -713q-1 -8 -8.5 -13.5t-16.5 -6.5t-16.5 3t-8.5 15z" />
    <glyph glyph-name="N" unicode="N" horiz-adv-x="368" 
d="M31 718q0 15 10.5 25.5t24 14t26.5 -2t19 -23.5l188 -616q-1 42 -3 117t-4 163t-3.5 177.5t-0.5 161.5q-1 13 7.5 20t19 7.5t19 -5.5t7.5 -20l5 -710q-3 -14 -14 -20t-23.5 -6t-22.5 5t-10 14l-196 645l4 -635q0 -11 -8.5 -17.5t-18.5 -7.5t-18.5 4.5t-9.5 17.5z" />
    <glyph glyph-name="O" unicode="O" horiz-adv-x="284" 
d="M143 -2q-30 0 -51 13t-34.5 34.5t-21 49.5t-10.5 59q-11 118 -9.5 224.5t11.5 193.5q4 36 12 68.5t21.5 58t33 41t48.5 17.5q28 1 49 -12.5t34.5 -38t21 -57.5t9.5 -69q4 -67 6.5 -119.5t2.5 -100.5t-2 -96.5t-6 -106.5q-3 -32 -9.5 -61t-19.5 -50.5t-34 -34.5t-52 -13z
M209 156q6 63 8.5 108.5t2 89.5t-3 94.5t-6.5 124.5q-2 27 -6.5 51t-13 41t-20 26.5t-26.5 8.5q-29 -3 -46 -38t-22 -84q-7 -65 -10.5 -116.5t-3.5 -99t3.5 -96t10.5 -108.5q3 -23 8 -44t13.5 -36.5t20.5 -24t28 -6.5q29 1 43.5 32.5t19.5 76.5z" />
    <glyph glyph-name="P" unicode="P" horiz-adv-x="286" 
d="M23 12q0 99 0.5 178.5t0.5 144.5t-0.5 118.5t-0.5 101t-1 92t-2 91.5q2 13 11.5 18t19.5 5t17 -4.5t4 -10.5l3 -27q44 30 75 31.5t52.5 -17t34 -52t19 -72.5t7.5 -78.5t-1 -70.5q-3 -62 -15 -116.5t-33 -85.5q-23 -34 -57 -47.5t-82 -5.5v-193q-1 -8 -8.5 -11.5
t-16.5 -2.5t-17 4.5t-10 9.5zM75 261q35 -10 57.5 -2.5t36.5 30.5q17 29 26.5 72.5t11.5 93.5q2 25 2.5 59.5t-2.5 68t-10.5 61.5t-22.5 41.5t-39.5 7.5t-59.5 -41l-0.5 -3.5t-1 -16t-1.5 -37t-1 -68t1 -108.5t3 -158z" />
    <glyph glyph-name="Q" unicode="Q" horiz-adv-x="288" 
d="M173 2q-7 -2 -14.5 -3t-15.5 -1q-30 0 -51 13t-34.5 34.5t-21 49.5t-10.5 59q-11 118 -9.5 224.5t11.5 193.5q4 36 12 68.5t21.5 58t33 41t48.5 17.5q28 1 49 -12.5t34.5 -38t21 -57.5t9.5 -69q4 -67 6.5 -119.5t2.5 -100.5t-2 -96.5t-6 -106.5q-4 -39 -13 -73t-29 -57
l16 -56q3 -12 -3 -19.5t-15 -9.5t-17.5 1.5t-11.5 13.5zM209 156q6 63 8.5 108.5t2 89.5t-3 94.5t-6.5 124.5q-2 27 -6.5 51t-13 41t-20 26.5t-26.5 8.5q-29 -3 -46 -38t-22 -84q-7 -65 -10.5 -116.5t-3.5 -99t3.5 -96t10.5 -108.5q3 -23 8 -44t13.5 -36.5t20.5 -24t28 -6.5
q4 0 7 0.5t7 1.5l-25 94q0 9 6 14.5t14 7.5t15.5 -0.5t10.5 -11.5l16 -57q9 25 12 60z" />
    <glyph glyph-name="R" unicode="R" horiz-adv-x="325" 
d="M24 13q3 57 5 142t3 182.5t0 200t-5 192.5q2 17 12 22.5t20.5 2.5t17 -13.5t1.5 -23.5q56 38 99.5 39t72.5 -24t41.5 -70.5t6.5 -99.5q-6 -53 -29.5 -93t-60.5 -63l1 -2.5t3.5 -13.5t7 -34t12.5 -66t19 -108.5t27 -160.5q0 -14 -7.5 -20t-16.5 -6t-17 5t-9 13l-68 380
q-22 -4 -40.5 -4t-34.5 -2l-7 -378q-4 -9 -13.5 -12.5t-19 -2t-16.5 6.5t-5 11zM85 444q30 -6 58 1t49.5 24t36 42.5t17.5 55.5q5 45 -4.5 78t-31 48t-53.5 8.5t-73 -41.5v-40v-67t0.5 -68t0.5 -41z" />
    <glyph glyph-name="S" unicode="S" horiz-adv-x="295" 
d="M144 0q-36 0 -60.5 17.5t-39 44.5t-18.5 59.5t1 62.5q1 12 9 17.5t17 4.5t16.5 -7t8.5 -18q-4 -37 2 -62t16.5 -40.5t23.5 -22t24 -6.5q32 0 50 18.5t23 47.5q6 36 0.5 66t-19 57.5t-34 54t-45.5 56.5q-17 19 -33 39.5t-28.5 45.5t-21 54.5t-8.5 66.5q0 31 4 66.5
t18 65.5t39 50t67 20q28 0 49 -14t34.5 -38t20.5 -55.5t7 -65.5q0 -13 -7.5 -19.5t-17 -7t-17 5.5t-7.5 18q0 35 -6 58t-15 37t-20.5 20t-23.5 6q-24 0 -39 -15.5t-23.5 -38t-11.5 -47t-3 -43.5q0 -27 7.5 -50.5t19.5 -44.5t26.5 -40t29.5 -37q23 -27 44 -55t36.5 -58
t24.5 -63.5t8 -72.5q-2 -60 -36.5 -99t-91.5 -39z" />
    <glyph glyph-name="T" unicode="T" horiz-adv-x="327" 
d="M142 16v150.5t-0.5 160t-0.5 177.5v204h-102q-10 0 -16.5 7t-8 15t3 15.5t16.5 9.5q9 1 43.5 1t76 -1t80.5 -1t57 1q10 1 15 -7t5 -17.5t-5.5 -17t-16.5 -5.5h-95l-5 -690q-1 -9 -8.5 -14t-16.5 -5.5t-15.5 3.5t-6.5 14z" />
    <glyph glyph-name="U" unicode="U" horiz-adv-x="271" 
d="M249 732q-2 -191 -3.5 -328.5t-12 -227t-33.5 -133t-67 -44.5q-33 -1 -54 26.5t-33.5 77t-17 118.5t-6 151t-0.5 174t1 189q1 15 10.5 21t19.5 5.5t18 -7t7 -17.5q-1 -144 -1 -266.5t5 -213t17 -142.5t34 -54q18 -2 30.5 34.5t20.5 117t11 208.5t0 308q0 16 8 23.5
t18 6.5t18.5 -8t9.5 -19z" />
    <glyph glyph-name="V" unicode="V" horiz-adv-x="293" 
d="M29 741q-1 11 6.5 16.5t17.5 6t19 -4.5t10 -15l69 -631l76 630q2 10 10 14.5t17 3t16 -8t6 -17.5l-85 -717q-3 -8 -14 -12t-24 -4t-23.5 4.5t-13.5 13.5q-16 119 -27.5 212t-20 164.5t-14.5 125t-10 94t-7.5 70.5t-7.5 55z" />
    <glyph glyph-name="W" unicode="W" horiz-adv-x="460" 
d="M445 739q-6 -42 -12.5 -100t-17 -143t-26 -202t-39.5 -276q-3 -9 -14.5 -13.5t-25.5 -4.5t-26 4t-15 12l-42 313l-39 -314q-3 -8 -14.5 -12t-25 -4t-25 4.5t-14.5 13.5q-24 159 -39.5 276.5t-25 203t-15.5 144t-12 100.5q-1 11 6 16.5t16 6t17.5 -4.5t9.5 -15l82 -666
l45 328q1 9 11 14t21.5 5.5t21 -4t11.5 -13.5l53 -336l85 670q1 10 9.5 15t17.5 4.5t16 -6t6 -16.5z" />
    <glyph glyph-name="X" unicode="X" horiz-adv-x="281" 
d="M166 375q13 -47 27.5 -98.5t27.5 -100t24 -89t18 -65.5q0 -12 -6.5 -18.5t-15.5 -7.5t-17 3.5t-10 13.5l-74 271l-72 -272q-2 -9 -10 -13.5t-17 -3.5t-15.5 7.5t-6.5 18.5q7 25 17.5 65.5t23.5 89t27 100.5t28 99l-102 357q-2 9 4.5 17t14.5 10q11 3 19 -4t12 -18
q4 -15 12.5 -46t19.5 -69t22.5 -79.5t22.5 -78.5q11 37 22 78.5t21 79.5t18 69t12 46q4 11 12 18t19 4q8 -2 14.5 -10t4.5 -17z" />
    <glyph glyph-name="Y" unicode="Y" 
d="M196 737q-2 13 5.5 19t17 6t17.5 -6t7 -17q0 -91 -0.5 -163.5t-0.5 -133v-112v-100.5q0 -62 -3.5 -104.5t-14 -69.5t-29.5 -40t-51 -16q-21 -2 -46.5 7t-45.5 32q-6 9 -5 18.5t6 16.5t12.5 9t14.5 -3q10 -11 29 -21.5t38 -8.5q18 2 26.5 13t12.5 26.5t4 32v28.5
q-11 -20 -27.5 -27.5t-35.5 -7.5q-21 0 -36.5 13t-27 36t-19 54.5t-11.5 68.5q-6 52 -8 112.5t-2 121t1.5 119t2.5 108.5q0 6 7.5 10t16 4t15.5 -5t7 -15q0 -4 -1 -31t-2 -68t-1 -92t2 -103.5t6 -102.5t11 -88.5t18.5 -62t27.5 -22.5q7 0 16 5.5t17.5 16t15 26t7.5 35.5
q3 61 4 120t1 118v119.5t1 124.5z" />
    <glyph glyph-name="Z" unicode="Z" horiz-adv-x="252" 
d="M177 702l-129 1q-12 -3 -18.5 5.5t-6.5 19t7 19.5t23 8h21h42t43 0.5t25 0.5q12 0 22 -2.5t16.5 -10t8.5 -20.5t-4 -35l-150 -635h138q13 0 17 -9.5t2 -20t-9 -18t-17 -3.5q-29 -4 -66 -1t-73 -1q-11 0 -20.5 1.5t-16.5 6.5t-10 15t0 28z" />
    <glyph glyph-name="bracketleft" unicode="[" horiz-adv-x="202" 
d="M23 739q0 24 4 37.5t10.5 20t14.5 8t15 1.5h16.5h26t25.5 -0.5t17 -0.5q13 0 19 -8t6 -17t-6 -16.5t-19 -7.5h-13.5t-22.5 -0.5t-23 -1t-16 -1.5q0 -15 -0.5 -74.5t-1 -158.5t-0.5 -234t2 -300l81 -3q8 0 12.5 -7.5t5 -16.5t-4 -16t-14.5 -7q-14 -3 -32 -2.5t-38 -0.5
q-35 0 -47 11.5t-13 34.5z" />
    <glyph glyph-name="backslash" unicode="\" horiz-adv-x="299" 
d="M282 21q3 -8 -4 -13.5t-17.5 -8t-20 -0.5t-10.5 10q-21 89 -47.5 180t-54 182.5t-54 182t-48.5 178.5q-2 9 4 15.5t14.5 9t17 0.5t12.5 -9q13 -55 33 -126.5t42.5 -148.5t45 -152.5t41.5 -138t31.5 -106t14.5 -55.5z" />
    <glyph glyph-name="bracketright" unicode="]" horiz-adv-x="217" 
d="M169 -23q-1 -23 -13 -34.5t-47 -11.5q-20 1 -38 0.5t-32 2.5q-11 0 -15 7t-3.5 16t5 16.5t12.5 7.5l81 3q2 165 2 300t-0.5 234t-1 158.5t-0.5 74.5q-5 1 -16 1.5t-23 1t-22.5 0.5h-13.5q-13 0 -19.5 7.5t-6.5 16.5t6.5 17t19.5 8q5 0 17 0.5t25.5 0.5h25.5h17
q7 0 15 -1.5t14.5 -8t10.5 -20t4 -37.5z" />
    <glyph glyph-name="asciicircum" unicode="^" horiz-adv-x="204" 
d="M81 437q3 9 12 12.5t19 3t19 -5t12 -12.5l42 -91q3 -12 -2.5 -20.5t-15 -11.5t-19.5 1t-14 16l-22 53l-21 -53q-3 -11 -12 -14.5t-18.5 -2t-16.5 8.5t-6 18z" />
    <glyph glyph-name="underscore" unicode="_" horiz-adv-x="286" 
d="M44 -1q-8 0 -12.5 6.5t-4.5 15t3.5 16t11.5 9.5h202q9 0 13 -7t3.5 -16t-5 -16.5t-13.5 -7.5h-198z" />
    <glyph glyph-name="grave" unicode="`" horiz-adv-x="173" 
d="M44 759q-8 8 -6.5 18t8 16.5t17 7t20.5 -8.5l59 -58q7 -10 4.5 -19.5t-10 -15.5t-18 -6t-19.5 10z" />
    <glyph glyph-name="a" unicode="a" 
d="M182 23q-16 -8 -25.5 -11t-26.5 -3q-27 1 -44 12t-27.5 29t-15.5 41t-7 47q-3 35 -4.5 79.5t-2 91t0.5 90.5t3 79q1 22 4.5 54.5t13 62.5t28.5 52.5t51 24.5q38 3 57 -26l2 20q1 10 9 15.5t18 6t18 -4.5t9 -17q-4 -151 -6 -272t-2 -205t1 -128t3 -41q-4 -8 -13.5 -13.5
t-18.5 -5.5q-18 0 -25 22zM80 467q-1 -11 -2 -47.5t-1.5 -83t0.5 -97t5 -89.5q1 -12 3 -27.5t7.5 -29.5t15.5 -23.5t28 -9.5q20 0 29.5 16.5t16.5 31.5l7 460q-3 8 -8 18t-11 18t-14.5 13.5t-19.5 4.5q-20 -2 -31 -20.5t-16 -43.5t-6.5 -50.5t-2.5 -40.5z" />
    <glyph glyph-name="b" unicode="b" 
d="M82 25q-3 -9 -8 -21t-15 -12q-18 0 -26 18q1 -2 1.5 23.5t0 72.5t-1.5 114t-1.5 148.5t-0.5 174t1 192.5q1 12 8.5 17.5t16.5 5.5t16 -5.5t7 -15.5q0 -48 -0.5 -79t-0.5 -35q9 14 25 21t36 6t34.5 -10.5t24.5 -23.5t15.5 -32t8.5 -36q6 -49 9 -95t4 -91.5t1 -91v-92.5
q0 -49 -13 -86.5t-34.5 -59t-49.5 -24.5t-58 17zM187 185q1 115 -0.5 182.5t-3.5 103t-4 47t-2 14.5q-1 4 -2.5 12.5t-5.5 18.5t-9.5 19t-14.5 14q-10 6 -20 2t-18.5 -12.5t-15.5 -19.5t-11 -21l4 -446q7 -15 15.5 -28.5t28.5 -12.5q19 0 31 15t18 35t8 41.5t2 35.5z" />
    <glyph glyph-name="c" unicode="c" horiz-adv-x="247" 
d="M135 675q22 0 39 -11t28.5 -28t17 -38t5.5 -41q0 -9 -6.5 -17t-17.5 -8q-17 0 -22 14t-8 31t-9 31t-25 14q-12 0 -20 -7.5t-13 -18t-8.5 -22.5t-4.5 -21q-1 -5 -2.5 -20t-2.5 -59t-2 -124.5t-1 -215.5q0 -9 2.5 -23.5t8 -28t14.5 -23t22 -9.5q18 0 22.5 18t6.5 40t7 40
t25 18q23 0 23 -24q0 -20 -3 -44.5t-12 -46.5t-25.5 -36.5t-42.5 -14.5q-29 0 -48.5 16t-31 40.5t-16.5 52.5t-5 52q0 120 1 195t3 118.5t3.5 61.5t3.5 25q3 18 10 38.5t18.5 37t27.5 27.5t38 11z" />
    <glyph glyph-name="d" unicode="d" horiz-adv-x="280" 
d="M188 21q-16 -8 -27.5 -10t-28.5 -4q-19 -2 -37 9.5t-32.5 34t-23.5 54.5t-9 71q0 95 4 186.5t18 189.5q3 18 8.5 36t15.5 32.5t25 24t35 11.5q41 3 60 -26v114q0 10 8 15.5t18 6t18.5 -4.5t9.5 -17q1 -149 -0.5 -282.5t-3 -233t-2.5 -156.5t1 -54q-4 -8 -13.5 -13.5
t-18.5 -5.5q-18 0 -25 22zM80 184q0 -14 1.5 -35.5t7.5 -41.5t17.5 -34.5t31.5 -14.5t31.5 16.5t18.5 31.5l7 446q-4 10 -11 21t-15.5 19.5t-18.5 12t-20 -2.5q-9 -5 -14.5 -14.5t-9.5 -19.5t-5.5 -18.5t-2.5 -12.5q0 -3 -3 -15.5t-6.5 -49.5t-6 -105t-2.5 -183z" />
    <glyph glyph-name="e" unicode="e" horiz-adv-x="242" 
d="M126 0q-24 -2 -41 18.5t-28.5 56t-18 82.5t-9 97.5t-2.5 101.5t2.5 95t6 77.5t6.5 48.5q11 48 31 76t51 29t49 -13.5t27 -36t11.5 -47t2.5 -47.5q0 -25 -14 -38t-34.5 -18.5t-43.5 -6t-42 0.5q-3 -14 -4.5 -51t-1 -84t3.5 -98t9.5 -93.5t16.5 -69.5t24 -26q10 1 17 19.5
t12 47.5t7.5 65t3.5 71t0 65t-4 48q0 8 7.5 12.5t16.5 4.5t17.5 -5t10.5 -16q1 -31 1.5 -69t-2 -78.5t-8.5 -79t-16.5 -69t-26.5 -49.5t-38 -21zM126 634q-12 -1 -20 -14t-13.5 -30.5t-7.5 -34.5t-2 -27q5 0 18 -1t27 -0.5t25 3.5t12 11q0 7 -0.5 23t-4 32t-11.5 28t-23 10z
" />
    <glyph glyph-name="f" unicode="f" horiz-adv-x="222" 
d="M43 14q-2 120 -3.5 210.5t-2 157t-0.5 112.5v78t0.5 53.5t1.5 38.5q2 39 19.5 67.5t49.5 28.5q24 0 41 -12.5t28 -33.5t16.5 -48.5t5.5 -58.5q-2 -11 -9.5 -17.5t-16 -8t-16 3t-8.5 15.5q0 57 -12.5 83.5t-29.5 26.5q-5 -1 -9.5 -7.5t-7.5 -25.5t-4.5 -52.5t0.5 -87.5
l77 3q9 0 14 -8t5 -17.5t-6 -18t-19 -9.5q-4 0 -14 -0.5t-21 -1t-21.5 -1t-14.5 -0.5v-1v-1l4 -468q0 -8 -6.5 -12t-15 -4t-16 4t-9.5 12z" />
    <glyph glyph-name="g" unicode="g" horiz-adv-x="288" 
d="M73 -68q-6 9 -5 18.5t6 16t12.5 8.5t14.5 -3q10 -11 29 -21.5t38 -8.5q18 2 26.5 13.5t11.5 26.5t3 32v29q-11 -20 -26.5 -27.5t-34.5 -7.5q-23 0 -40 12t-29 33t-20 50t-12 64q-5 40 -7.5 86.5t-2.5 92.5t1.5 87.5t4.5 72.5q2 27 7 58.5t17.5 58t36 43.5t62.5 14
q11 -1 21.5 -3.5t22.5 -6.5h2q5 0 11.5 1t12.5 0t10.5 -4t5.5 -12q-1 -150 2 -264.5t5 -198t0.5 -140t-11 -91t-29.5 -50.5t-54 -18q-21 -2 -46.5 7t-45.5 32zM170 631q-23 5 -38 -8.5t-23.5 -35t-12 -46t-4.5 -41.5q-2 -26 -3 -60.5t-1 -72t1.5 -76t4.5 -71.5
q2 -33 6.5 -62.5t11.5 -51t17 -33.5t24 -12q12 0 20 8t12.5 18.5t7 23t5.5 21.5q-1 103 1.5 213.5t2.5 214.5v55q-17 13 -32 16z" />
    <glyph glyph-name="h" unicode="h" horiz-adv-x="250" 
d="M170 10q1 49 2.5 108.5t3 124t2 132t0.5 133.5q0 24 -2 52.5t-11.5 46t-28.5 17.5t-53 -32l-7 -580q0 -8 -6.5 -11t-15 -2.5t-16 5t-9.5 10.5q1 24 2 82t1.5 131.5t0.5 155t0.5 153.5t0.5 126v73q1 12 9.5 18t18 5.5t17.5 -7t7 -17.5l2 -74q32 17 54.5 16t37.5 -13.5
t23.5 -33t12.5 -43.5t5 -45t1 -36q0 -55 -1 -116t-2 -124.5t-1.5 -128t0.5 -126.5q-1 -9 -8 -13t-16 -3.5t-16 4.5t-8 12z" />
    <glyph glyph-name="i" unicode="i" horiz-adv-x="120" 
d="M35 651q0 9 8.5 15t16.5 6q12 0 18 -9t7 -20v-73t0.5 -104.5t1 -122t1 -125.5t1 -114t0.5 -88q-3 -12 -11 -16.5t-16.5 -3t-15 7.5t-6.5 16zM33 723q0 13 7.5 21t21.5 8q13 0 21 -8t8 -21q0 -14 -8 -21.5t-21 -7.5q-29 0 -29 29z" />
    <glyph glyph-name="j" unicode="j" horiz-adv-x="128" 
d="M-2 -104q-11 1 -17 10.5t-7 21t4.5 21t19.5 9.5q15 0 23 6t12.5 15t5.5 20t1 21q0 84 0.5 161t1 153.5t1 156t1.5 167.5q0 12 8 17.5t17.5 4.5t17.5 -7.5t7 -17.5v-126v-102.5t-0.5 -90.5t-1 -89.5t-0.5 -100.5v-122q0 -24 -4 -47.5t-14.5 -42t-29 -29.5t-46.5 -9z
M42 729q0 11 6.5 17.5t17.5 6.5q10 0 17 -6t7 -17q0 -10 -7 -17.5t-17 -7.5q-24 0 -24 24z" />
    <glyph glyph-name="k" unicode="k" horiz-adv-x="230" 
d="M26 742q0 10 7 15t15 6t15 -3.5t9 -14.5v-189l82 120q6 4 14 3.5t14.5 -6t10 -14t0.5 -18.5l-93 -129q4 -6 11 -31.5t16 -64t19.5 -87t21.5 -101t21 -106.5t19 -102q0 -12 -7.5 -19t-16 -8.5t-16 2.5t-8.5 13q-11 64 -23.5 133.5t-25 131.5t-22.5 110t-16 69
q0 -29 1.5 -84.5t3 -119t2.5 -126.5t0 -108q0 -8 -8 -14t-17 -8t-17 0.5t-9 10.5z" />
    <glyph glyph-name="l" unicode="l" horiz-adv-x="106" 
d="M31 10q-1 12 -1 55.5t0.5 106t1 138.5t1 153t-0.5 150t-3 129q2 8 9 12t15.5 4t15 -4.5t7.5 -13.5q3 -91 2.5 -181.5t-1.5 -181.5t-1 -182.5t4 -182.5q1 -8 -7 -12.5t-18 -5t-17.5 3.5t-6.5 12z" />
    <glyph glyph-name="m" unicode="m" horiz-adv-x="342" 
d="M266 580q0 12 -0.5 25.5t-5.5 18.5q-8 6 -26 -1t-30 -33l-6 -548q-2 -9 -9.5 -13t-16.5 -3.5t-15.5 5.5t-6.5 13l8 530q-1 15 -0.5 27t-3.5 17q-6 6 -15.5 3.5t-19 -9.5t-17.5 -15.5t-12 -12.5q0 -66 -1 -136.5t-2 -143l-2 -145t-1 -141.5q-2 -11 -8.5 -16t-14.5 -5
t-15.5 4.5t-9.5 14.5q2 47 3.5 201.5t-3.5 400.5v48q7 10 16.5 13t18 1t13 -8t2.5 -14l-2 -20q15 10 30 20.5t28.5 14.5t25.5 -1.5t22 -25.5q30 19 52.5 23.5t37.5 -3.5t23 -27.5t10 -46.5q-1 -206 0.5 -350.5t4.5 -225.5q-1 -11 -8.5 -16.5t-17 -6t-17.5 5t-9 17.5v564z
" />
    <glyph glyph-name="n" unicode="n" horiz-adv-x="254" 
d="M29 26q0 15 1.5 59t2.5 103t2 126.5t0.5 130.5t-3.5 115t-9 80q-5 22 4.5 29.5t20.5 7.5q7 0 12 -5t8.5 -12t6 -14.5t5.5 -13.5q3 0 9 6t16 13.5t23 14.5t30 8q25 2 40 -33.5t22 -93t8 -130.5t0 -145.5t-3.5 -137t-2.5 -106.5q-2 -15 -10 -22t-17 -7.5t-16.5 5t-6.5 16.5
q5 130 7 226t1 163t-4 109t-7.5 65t-10.5 30.5t-12 6.5q-8 -2 -17.5 -8.5t-18 -15.5t-15.5 -18t-10 -15v-150.5t-0.5 -135t-1.5 -125.5t-1 -122q0 -17 -8.5 -24t-18 -7t-18 7.5t-8.5 19.5z" />
    <glyph glyph-name="o" unicode="o" horiz-adv-x="222" 
d="M26 90q-4 57 -5.5 116.5t-0.5 117.5t2.5 111t3.5 95q4 77 32 114.5t62 36.5q33 -1 59 -38.5t27 -112.5q1 -59 1 -122.5t-1 -123t-3 -110.5t-5 -84q-4 -44 -29 -67.5t-54 -23.5q-15 0 -30.5 6.5t-28 18.5t-21 29t-9.5 37zM157 530q0 51 -11.5 72.5t-25.5 22.5
q-16 1 -29.5 -21.5t-15.5 -73.5q-2 -56 -4 -118t-2 -120.5t1.5 -110t6.5 -86.5q3 -22 13 -32.5t22 -10.5q13 0 24 11t13 29q4 39 6 90.5t2.5 110t0 119.5t-0.5 118z" />
    <glyph glyph-name="p" unicode="p" horiz-adv-x="235" 
d="M23 -91q7 169 6 356t-3 385q-2 15 7.5 24t20.5 11.5t20 -4t5 -23.5q21 12 40.5 16t36 -1t29 -19.5t17.5 -39.5q6 -28 8.5 -77t2.5 -106.5t-2 -119.5t-6 -116.5t-9 -96t-10 -58.5q-6 -21 -20.5 -30.5t-31 -11.5t-32.5 2t-27 10l-1 -99q0 -9 -7.5 -14.5t-16.5 -6t-17 3.5
t-10 15zM75 67q7 -7 16 -11.5t18.5 -5.5t17.5 4t14 17t10 48.5t7 86.5t4 108t1 113t-2.5 101.5t-6.5 74.5q-2 15 -10.5 20t-20 2t-23.5 -11.5t-21 -18.5z" />
    <glyph glyph-name="q" unicode="q" horiz-adv-x="266" 
d="M177 29q-27 -20 -52 -22.5t-44.5 9.5t-31 37t-12.5 60q0 17 -1 51t-1.5 82t0 108t2.5 128q1 25 2 56.5t9 60.5t26 49.5t51 23.5q29 3 57 -11q4 6 12 10t17 3.5t16 -6t8 -18.5q-3 -95 -4.5 -197.5t-2 -200.5t0 -187t1.5 -158q-2 -9 -10 -13t-17.5 -4t-17 5t-8.5 15v119z
M132 622q-18 -1 -27 -19t-13 -41.5t-4.5 -47t-0.5 -36.5q0 -108 -0.5 -172t-0.5 -102t0.5 -57t2.5 -37q3 -27 15 -37t26 -7.5t26.5 15.5t15.5 33l5 483q-8 9 -20.5 17.5t-24.5 7.5z" />
    <glyph glyph-name="r" unicode="r" horiz-adv-x="184" 
d="M26 19v137.5v110.5v94t-1 89.5t-2.5 95.5t-3.5 112q0 12 8 17.5t18 4.5t17.5 -7t6.5 -17q21 10 44 12t48 -23q6 -5 7 -14t-2 -17t-9 -12t-15 1q-8 10 -28.5 14t-40.5 -14l5 -579q1 -12 -6.5 -19t-17 -7.5t-18.5 4.5t-10 17z" />
    <glyph glyph-name="s" unicode="s" horiz-adv-x="213" 
d="M32 163q0 17 9 24t19.5 6t18 -9t5.5 -20q-2 -10 -2.5 -28t2 -36t8.5 -32t17 -16q12 -2 18.5 20.5t9 55.5t1 69.5t-5.5 63.5q-4 25 -21 40t-35.5 30.5t-33.5 37.5t-15 60l1 137q0 20 5.5 40t17 35.5t28 25.5t37.5 10q10 0 21.5 -2.5t21.5 -15t16.5 -38.5t5.5 -73
q0 -8 -7 -12t-16 -4t-17 4t-9 12q1 33 -1 49.5t-5 23t-6 6.5h-5q-11 0 -18 -8t-11.5 -19t-6 -22.5t-1.5 -19.5l-1 -121q0 -25 13 -42t30.5 -31.5t34 -30t23.5 -36.5q4 -13 8 -39.5t5 -59.5t-1.5 -68t-11.5 -63.5t-25.5 -47.5t-42.5 -19q-29 0 -44.5 17t-23 42t-9 53t-1.5 51
z" />
    <glyph glyph-name="t" unicode="t" horiz-adv-x="186" 
d="M66 15q0 128 0.5 223t0.5 162.5t-0.5 112t-0.5 71t-0.5 39t-0.5 17.5h-31q-8 -1 -12.5 6t-4.5 16t3.5 17t11.5 8h33v55q-1 10 6.5 14.5t17 4.5t18 -4t9.5 -13l1 -57h38q9 1 13 -6.5t4 -16.5t-4.5 -16.5t-11.5 -7.5h-38v-155v-162t0.5 -159.5t0.5 -145.5q0 -12 -9 -17
t-19.5 -4.5t-18.5 5.5t-6 13z" />
    <glyph glyph-name="u" unicode="u" horiz-adv-x="232" 
d="M212 654q0 -15 -1 -62.5t-2 -112t-1.5 -138t-1 -140t0 -118t2.5 -72.5q1 -9 -6 -13.5t-16.5 -4.5t-17 3.5t-7.5 11.5l-3 29q-13 -13 -27 -23t-30 -12q-39 -4 -56 43.5t-22 134.5t-2.5 208.5t2.5 266.5q1 15 9.5 21t18 5.5t17 -7t6.5 -17.5q-1 -144 -1.5 -255t2.5 -186.5
t9.5 -115t20.5 -39.5q13 0 22 13t23 31q7 142 10.5 273.5t-1.5 270.5q0 16 8 23.5t17.5 7.5t17.5 -7t9 -19z" />
    <glyph glyph-name="v" unicode="v" horiz-adv-x="255" 
d="M20 656q-1 11 6.5 16.5t17.5 6t19 -4.5t10 -15l64 -577l53 578q2 10 10 14.5t17 3t16 -8t6 -17.5l-65 -634q-3 -8 -14 -12t-24 -4t-23.5 4.5t-13.5 13.5q-16 119 -27 205.5t-18.5 149t-12.5 104.5t-8.5 73t-6 55t-6.5 49z" />
    <glyph glyph-name="w" unicode="w" horiz-adv-x="436" 
d="M420 655q-4 -28 -7 -56.5t-6.5 -64t-8.5 -81t-12.5 -107t-18.5 -142t-27 -186.5q-3 -9 -14.5 -13.5t-25.5 -4.5t-26 4t-15 12l-42 313l-39 -314q-3 -8 -14.5 -12t-25 -4t-25 4.5t-14.5 13.5q-16 106 -27.5 186.5t-19.5 142t-13.5 106.5t-9.5 80t-7 63.5t-7 56.5
q-1 11 6 16.5t16 6t17.5 -4.5t9.5 -15l74 -577l45 328q1 9 11 14t21.5 5.5t21 -4t11.5 -13.5l53 -336l70 586q1 10 9.5 15t17.5 4.5t16 -6t6 -16.5z" />
    <glyph glyph-name="x" unicode="x" horiz-adv-x="274" 
d="M164 342q13 -47 26.5 -93t25.5 -88t21.5 -77t16.5 -60q0 -12 -6.5 -18.5t-15.5 -7.5t-17 3.5t-10 13.5l-67 236l-66 -236q-2 -9 -10 -13.5t-17 -3.5t-15.5 7.5t-6.5 18.5q7 25 16.5 60t21.5 77t25 88t27 93l-88 312q-2 9 4.5 17t14.5 10q11 3 19 -4t12 -18q8 -31 25 -92
t38 -136q22 75 39 136t25 92q4 11 12 18t19 4q8 -2 14.5 -10t4.5 -17z" />
    <glyph glyph-name="y" unicode="y" horiz-adv-x="268" 
d="M194 652q-2 13 6 19t18 6t18.5 -6t7.5 -17v-167t0.5 -140.5t1 -119.5t0.5 -104q0 -62 -3 -104.5t-13.5 -69.5t-29.5 -40t-51 -16q-21 -2 -46.5 7t-45.5 32q-6 9 -5 18.5t6 16t12.5 8.5t14.5 -3q10 -11 29 -21.5t38 -8.5q18 2 26.5 13.5t11.5 26.5t3 32v29
q-11 -20 -26.5 -27.5t-34.5 -7.5q-41 0 -62 46t-29 120q-6 52 -8.5 117t-2.5 132t1 130t2 113q0 6 7.5 10t17 4t17 -5t7.5 -15q0 -24 -1.5 -80.5t-2 -127t2 -144.5t9.5 -132q6 -52 18.5 -84.5t28.5 -30.5q7 1 15.5 6.5t17 15.5t14.5 25.5t7 35.5q7 122 4 251t-1 257z" />
    <glyph glyph-name="z" unicode="z" horiz-adv-x="235" 
d="M153 625l-113 1q-12 -3 -18.5 5.5t-6.5 19t7 19.5t23 8h18.5h36.5t37.5 0.5t22.5 0.5q12 0 22 -2.5t16.5 -10t8.5 -20.5t-4 -35l-127 -558q11 0 27.5 0.5t34.5 1t35 1t28 0.5q13 0 17 -9.5t2 -20t-9 -18t-17 -3.5q-29 -4 -59 -2.5t-66 -2.5q-11 0 -20.5 1.5t-16.5 6.5
t-10 15t0 28z" />
    <glyph glyph-name="braceleft" unicode="{" horiz-adv-x="323" 
d="M298 777q-32 -16 -61.5 -43t-50 -68t-27.5 -97t6 -129q3 -17 -2.5 -25.5t-25.5 -20.5l-52 -29l50 -26q28 -14 31 -32.5t0 -46.5q-18 -208 133 -265q12 -5 13 -13.5t-4 -16.5t-14.5 -12.5t-17.5 -1.5q-93 39 -137 125t-21 213l-82 45q-9 3 -12.5 12t-3 19t5 18.5
t12.5 11.5l75 46q-8 49 -5 104t21.5 106.5t54 95.5t92.5 71q10 4 18.5 0.5t13 -11t2.5 -16.5t-12 -14z" />
    <glyph glyph-name="bar" unicode="|" horiz-adv-x="113" 
d="M27 10q-1 12 -1 55.5t0.5 106t1 138.5t1 153t-0.5 150t-3 129q2 8 10 12t17 4t16 -4.5t8 -13.5q3 -91 2.5 -181.5t-1.5 -181.5t-1 -182.5t4 -182.5q1 -8 -7.5 -12.5t-19 -5t-19 3.5t-7.5 12z" />
    <glyph glyph-name="braceright" unicode="}" horiz-adv-x="334" 
d="M33 777q-11 5 -12.5 14t3 16.5t13 11t18.5 -0.5q57 -27 92.5 -71t54 -95.5t21.5 -106.5t-5 -104l75 -46q8 -3 12.5 -11.5t5 -18.5t-3 -19t-12.5 -12l-82 -45q13 -135 -26.5 -217t-131.5 -121q-8 -3 -17.5 1.5t-14.5 12.5t-4 16.5t13 13.5q75 29 109.5 92.5t23.5 172.5
q-2 14 -2.5 25.5t2 21t10 17.5t21.5 15l50 26l-52 29q-20 12 -25.5 20.5t-2.5 25.5q13 73 6 129t-27.5 97t-50 68t-61.5 43z" />
    <glyph glyph-name="asciitilde" unicode="~" horiz-adv-x="338" 
d="M28 336q-2 18 1 38.5t13 37.5t28.5 28.5t47.5 11.5q26 0 44.5 -11.5t33.5 -26.5t27 -28t26 -15q7 -1 10 9t4 23t1 24.5v14.5q-1 8 5.5 12t15 3.5t16.5 -5t10 -13.5q1 -12 1 -32t-6 -39t-19 -33t-36 -14q-27 0 -43 13t-29 29t-27 28t-36 11q-14 -1 -22.5 -7t-13 -15.5
t-5 -20.5t1.5 -21q1 -7 -5.5 -12t-15.5 -6t-17.5 2.5t-10.5 13.5z" />
    <glyph glyph-name="exclamdown" unicode="&#xa1;" horiz-adv-x="118" 
d="M14.0049 654.006q0 9 8.5 15q8.49902 5.99902 16.499 5.99902q11.999 0 17.999 -8.99902q5.99902 -9 6.99902 -19.999v-72.9951q0 -46.998 0.5 -104.494t1 -121.992t1 -125.492q0.5 -60.9971 1 -113.993q0.5 -52.9971 0.5 -87.9951q-3 -11.999 -10.999 -16.499
q-8 -4.5 -16.499 -3q-8.5 1.5 -14.999 7.5q-6.5 5.99902 -6.5 15.999zM12.0059 731.002q0 12.999 7.49902 20.998q7.5 8 21.499 8q12.999 0 20.998 -8q8 -7.99902 8 -20.998q0 -14 -8 -21.499q-7.99902 -7.5 -20.998 -7.5q-28.998 0 -28.998 28.999z" />
    <glyph glyph-name="cent" unicode="&#xa2;" horiz-adv-x="260" 
d="M112 -2q-1 5 -1.5 15t-0.5 24q-42 10 -63 47.5t-19 109.5q0 120 1 195t3 118.5t3.5 61.5t3.5 25q5 38 24 66t48 40q-1 8 -1 15v15q2 8 9 12t15.5 4t15 -4.5t7.5 -13.5v-21q21 -2 36.5 -13.5t26 -28t15.5 -36.5t5 -39q0 -9 -6.5 -17t-17.5 -8q-16 0 -21 13t-8 28.5t-8 30
t-20 17.5q2 -142 -1 -283t0 -284q10 7 12.5 25.5t4.5 38t7.5 34t23.5 14.5q23 0 23 -24q0 -19 -2.5 -42t-10 -43.5t-21.5 -36t-36 -19.5q1 -8 1 -16.5t1 -17.5q1 -8 -7 -12.5t-18 -5t-17.5 3.5t-6.5 12zM77 169q1 -29 11 -48t22 -28q0 49 1 116t1.5 140.5t0.5 148t-1 140.5
q-9 -9 -17.5 -21t-9.5 -29q-1 -5 -2.5 -20t-2.5 -59t-2 -124.5t-1 -215.5z" />
    <glyph glyph-name="sterling" unicode="&#xa3;" horiz-adv-x="291" 
d="M74 380h-39q-8 0 -12.5 8t-5 17.5t3.5 17t12 6.5h40q1 101 3 152t4 60q3 18 10 38.5t18.5 37t27.5 27.5t38 11t39 -11t28.5 -28t17 -38t5.5 -41q0 -9 -6.5 -17t-17.5 -8q-17 0 -22 14t-8 31t-9 31t-25 14q-12 0 -20 -7.5t-13 -18t-8.5 -22.5t-4.5 -21q-1 -3 -1.5 -14.5
t-1.5 -35t-1.5 -61t-0.5 -93.5l106 1q9 0 13 -7t3.5 -16t-5 -16.5t-13.5 -7.5l-104 -2l2 -332l119 1q9 0 14 -7.5t5 -17t-4.5 -17.5t-12.5 -8q-30 0 -61 -1t-66 1q-30 -1 -38.5 13.5t-8.5 38.5v328z" />
    <glyph glyph-name="dieresis" unicode="&#xa8;" horiz-adv-x="205" 
d="M29 715q0 13 7.5 21t21.5 8q13 0 21 -8t8 -21q0 -14 -8 -21.5t-21 -7.5q-29 0 -29 29zM121 715q0 13 7.5 21t21.5 8q13 0 21 -8t8 -21q0 -14 -8 -21.5t-21 -7.5q-29 0 -29 29z" />
    <glyph glyph-name="copyright" unicode="&#xa9;" horiz-adv-x="461" 
d="M234 28q-51 0 -90 30t-65 79.5t-39.5 113t-14.5 129.5t12 129t39 112t66 79t94 30q53 0 91.5 -30.5t63.5 -80t36.5 -112.5t10 -128.5t-15 -128.5t-39.5 -112.5t-63 -79.5t-86 -30zM237 69q37 1 66.5 28.5t49.5 71t31 99t12 113.5t-8.5 113t-30 97.5t-52.5 68.5t-76 25
q-43 -1 -74 -28t-51 -71t-29 -99.5t-7.5 -113.5t13 -113t33 -98t52.5 -68.5t71 -24.5zM229 642q22 0 39 -11t28.5 -28t17 -38t5.5 -41q0 -9 -6.5 -17t-17.5 -8q-17 0 -21 15.5t-6 33t-8.5 31t-28.5 10.5q-9 -2 -16.5 -15.5t-13.5 -36.5t-9.5 -53.5t-5.5 -65.5
q-2 -39 0 -78.5t8 -72.5t17 -55t26 -25q18 -4 22.5 14t6.5 40.5t7 42t25 19.5q23 0 23 -24q0 -20 -3 -45t-12 -46.5t-25.5 -36t-42.5 -14.5q-51 1 -75 68t-24 210q0 46 4.5 87t15 72t28 49.5t42.5 18.5z" />
    <glyph glyph-name="logicalnot" unicode="&#xac;" horiz-adv-x="370" 
d="M295 378l-239 -1q-8 0 -12.5 8t-5 17.5t3.5 17t12 6.5h254q13 0 20 -4t10.5 -10.5t4 -14t0.5 -14.5l-3 -121q0 -9 -7 -13t-16 -3.5t-16.5 5t-7.5 13.5z" />
    <glyph glyph-name="macron" unicode="&#xaf;" horiz-adv-x="276" 
d="M40 688q-8 0 -12 6.5t-5 15.5t2.5 17t12.5 10h202q9 0 13 -7t3.5 -16t-5 -16.5t-13.5 -7.5z" />
    <glyph glyph-name="degree" unicode="&#xb0;" horiz-adv-x="185" 
d="M119 663q0 18 -18 18q-19 0 -19 -18q0 -19 19 -19q18 0 18 19zM160 663q0 -26 -15.5 -42t-42.5 -16q-26 0 -42 16t-16 42q0 27 16 42.5t42 15.5q27 0 42.5 -15.5t15.5 -42.5z" />
    <glyph glyph-name="plusminus" unicode="&#xb1;" horiz-adv-x="297" 
d="M176 402h78q9 0 13 -7.5t3.5 -16t-5.5 -16t-14 -7.5l-75 -1l1 -77q0 -8 -8 -12.5t-17.5 -4.5t-17.5 4t-6 12v78h-75q-8 0 -12.5 8t-4.5 17.5t4 17t12 6.5l76 -1v76q0 9 7 13t16 3.5t16.5 -5.5t7.5 -14zM54 202q-8 0 -12.5 6.5t-4.5 15t3.5 16t11.5 9.5l202 3q9 0 13 -7
t3.5 -16t-5 -16.5t-13.5 -7.5z" />
    <glyph glyph-name="twosuperior" unicode="&#xb2;" horiz-adv-x="176" 
d="M34 377q14 35 29.5 83.5t28 97.5t20.5 92t8 68q0 19 -7 29t-17 10q-12 0 -19 -6t-10.5 -15t-4 -19.5t1.5 -19.5q1 -6 -2 -10.5t-8 -6.5t-10 -0.5t-6 8.5q-4 15 -3 33.5t8.5 34t21 25.5t33.5 8q19 -2 35.5 -19t17.5 -49q1 -36 -10 -89.5t-26 -107.5t-29 -98.5t-20 -62.5
h9.5h22h24.5h17q6 0 8.5 -4.5t2 -10.5t-3 -10.5t-6.5 -4.5h-87q-5 0 -10.5 2t-9 7t-4 13.5t4.5 21.5z" />
    <glyph glyph-name="threesuperior" unicode="&#xb3;" horiz-adv-x="191" 
d="M25 381q-2 8 2 13t10 6.5t12 -1.5t7 -11q2 -14 13 -20.5t23 -6.5q20 0 30 21.5t12 54.5q2 28 -2 59t-13.5 57.5t-23 45t-31.5 20.5q-9 2 -10 13.5t11 16.5q17 10 27 28.5t12 36.5t-2.5 31.5t-15.5 13.5q-1 0 -4.5 -0.5t-7.5 -4.5t-7.5 -12.5t-4.5 -24.5q0 -5 -4.5 -7
t-10.5 -2t-10.5 2t-4.5 7q-1 29 13.5 49.5t40.5 20.5q24 0 36 -18.5t12.5 -43.5t-8.5 -50t-27 -37q16 -10 29 -31.5t22 -48.5t13 -58t3 -59q-1 -23 -6 -43t-15 -35t-24.5 -23.5t-33.5 -8.5q-20 0 -37.5 12t-24.5 38z" />
    <glyph glyph-name="acute" unicode="&#xb4;" horiz-adv-x="173" 
d="M86 703q-9 -10 -19.5 -10t-18 6t-10 15.5t4.5 19.5l59 58q10 9 20.5 8.5t17 -7t8 -16.5t-6.5 -18z" />
    <glyph glyph-name="cedilla" unicode="&#xb8;" horiz-adv-x="149" 
d="M49 -42q-8 -2 -12 -1t-5 7t0 18.5t1 32.5q0 8 8 12.5t17.5 5t17 -3.5t6.5 -12l-1 -23q21 -1 32 -17t10 -34.5t-15 -34t-44 -16.5q-11 0 -16 7.5t-5 16t4 14t12 2.5q12 1 17 6.5t3.5 11t-9.5 8.5t-21 0z" />
    <glyph glyph-name="onesuperior" unicode="&#xb9;" horiz-adv-x="105" 
d="M37 336q-1 7 -1 33t0.5 64t1 83.5t0.5 92t-0.5 90t-1.5 77.5q1 5 6 7.5t10.5 2t10 -3t4.5 -8.5q4 -109 0.5 -217.5t1.5 -218.5q0 -5 -5 -8t-11 -3t-11 2t-5 7z" />
    <glyph glyph-name="onequarter" unicode="&#xbc;" horiz-adv-x="383" 
d="M62 305q-1 7 -1 33t0.5 64t1 83.5t0.5 92t-0.5 90t-1.5 77.5q1 5 6 7.5t10.5 2t10 -3t4.5 -8.5q4 -109 0.5 -217.5t1.5 -218.5q0 -5 -5 -8t-11 -3t-11 2t-5 7zM41 16q2 12 15 55.5t32.5 106t42.5 138.5t46 153t43.5 149t33.5 127q4 7 10 9.5t12 0.5t9.5 -8t1.5 -15
q-22 -88 -48.5 -178.5t-54 -182t-54 -182.5t-47.5 -180q-2 -8 -9.5 -11t-16 -1.5t-14 6.5t-2.5 13zM321 231h-71q-17 0 -21 9t-4 16v193q0 6 4.5 9.5t10 3.5t10 -3.5t5.5 -9.5v-186q14 0 33 -0.5t33 0.5v191q1 5 6 7.5t10.5 2.5t9.5 -2.5t4 -8.5v-437q0 -6 -4.5 -8.5
t-10.5 -2.5t-10.5 3t-4.5 8v215z" />
    <glyph glyph-name="onehalf" unicode="&#xbd;" horiz-adv-x="359" 
d="M62 305q-1 7 -1 33t0.5 64t1 83.5t0.5 92t-0.5 90t-1.5 77.5q1 5 6 7.5t10.5 2t10 -3t4.5 -8.5q4 -109 0.5 -217.5t1.5 -218.5q0 -5 -5 -8t-11 -3t-11 2t-5 7zM41 16q2 12 15 55.5t32.5 106t42.5 138.5t46 153t43.5 149t33.5 127q4 7 10 9.5t12 0.5t9.5 -8t1.5 -15
q-22 -88 -48.5 -178.5t-54 -182t-54 -182.5t-47.5 -180q-2 -8 -9.5 -11t-16 -1.5t-14 6.5t-2.5 13zM213 53q14 35 29.5 83.5t28 97.5t20.5 92t8 68q0 19 -7 29t-17 10q-12 0 -19 -6t-10.5 -15t-4 -19.5t1.5 -19.5q1 -6 -2 -10.5t-8 -6.5t-10 -0.5t-6 8.5q-4 15 -3 33.5
t8.5 34t21 25.5t33.5 8q19 -2 35.5 -19t17.5 -49q1 -36 -10 -89.5t-26 -107.5t-29 -98.5t-20 -62.5h9.5h22h24.5h17q6 0 8.5 -4.5t2 -10.5t-3 -10.5t-6.5 -4.5h-87q-5 0 -10.5 2t-9 7t-4 13.5t4.5 21.5z" />
    <glyph glyph-name="threequarters" unicode="&#xbe;" horiz-adv-x="408" 
d="M69 16q2 12 15 55.5t32.5 106t42.5 138.5t46 153t43.5 149t33.5 127q4 7 10 9.5t12 0.5t9.5 -8t1.5 -15q-22 -88 -48.5 -178.5t-54 -182t-54 -182.5t-47.5 -180q-2 -8 -9.5 -11t-16 -1.5t-14 6.5t-2.5 13zM20 351q-2 8 2 13t10 6.5t12 -1.5t7 -11q2 -14 13 -20.5t23 -6.5
q20 0 30 21.5t12 54.5q2 28 -2 59t-13.5 57.5t-23 45t-31.5 20.5q-9 2 -10 13.5t11 16.5q17 10 27 28.5t12 36.5t-2.5 31.5t-15.5 13.5q-1 0 -4.5 -0.5t-7.5 -4.5t-7.5 -12.5t-4.5 -24.5q0 -5 -4.5 -7t-10.5 -2t-10.5 2t-4.5 7q-1 29 13.5 49.5t40.5 20.5q24 0 36 -18.5
t12.5 -43.5t-8.5 -50t-27 -37q16 -10 29 -31.5t22 -48.5t13 -58t3 -59q-1 -23 -6 -43t-15 -35t-24.5 -23.5t-33.5 -8.5q-20 0 -37.5 12t-24.5 38zM352 222h-71q-17 0 -21 9t-4 16v193q0 6 4.5 9.5t10 3.5t10 -3.5t5.5 -9.5v-186q14 0 33 -0.5t33 0.5v191q1 5 6 7.5t10.5 2.5
t9.5 -2.5t4 -8.5v-437q0 -6 -4.5 -8.5t-10.5 -2.5t-10.5 3t-4.5 8v215z" />
    <glyph glyph-name="questiondown" unicode="&#xbf;" horiz-adv-x="267" 
d="M230.001 178.035q0 -29.998 -4.5 -62.4961q-4.49902 -32.498 -15.999 -58.9961q-11.499 -26.498 -30.998 -42.498q-19.498 -15.998 -49.4961 -13.999q-37.998 3 -62.9971 28.999q-24.998 25.998 -39.9971 63.4961q-14.999 37.4971 -20.999 81.4941
q-5.99902 43.998 -5.99902 82.9951q1 52.9971 10.499 94.9941q9.49902 41.998 26.998 70.9961t42.498 42.4971q24.998 13.499 57.9961 8.5l1 109.993q0 7.99902 7.49902 12.999q7.5 5 16.999 5.5q9.5 0.5 16.999 -4.5q7.5 -5 7.5 -17.999v-135.991
q-3 -14.999 -12.999 -20.499q-10 -5.5 -20.999 -1.5q-30.998 8.99902 -50.9971 -5t-31.998 -40.9971t-16.499 -61.4961t-3.5 -66.4961q1 -33.998 6.5 -69.4961t15.999 -63.9961t25.498 -45.9971t35.998 -16.499q13.999 1 22.499 13.999q8.49902 12.999 13.499 32.498
t7.49902 40.998q2.5 21.498 3.5 39.4971q1 9 8 12.999q6.99902 4 15.499 3.5q8.49902 -0.5 15.999 -5q7.49902 -4.49902 9.49902 -12.499zM130.007 729.002q0 12.999 7.5 20.998q7.49902 8 21.499 8q12.999 0 20.998 -8q8 -7.99902 8 -20.998q0 -13.999 -8 -21.499
q-7.99902 -7.49902 -20.998 -7.49902q-28.999 0 -28.999 28.998z" />
    <glyph glyph-name="Agrave" unicode="&#xc0;" horiz-adv-x="322" 
d="M27 23q-1 3 4 45t13 105.5t18.5 140.5t21 152.5t20.5 140t17 103.5q3 17 13.5 27.5t23.5 12t24 -6t16 -25.5q15 -70 27 -143t22 -143t18.5 -134.5t15.5 -118.5t12.5 -94.5t10.5 -62.5q0 -12 -7.5 -18.5t-17 -7t-18 4.5t-10.5 16l-35 267h-110l-30 -270q-3 -11 -11 -15.5
t-16 -3t-15 8.5t-7 19zM117 337h90q-1 7 -3.5 30.5t-6.5 55.5t-8.5 69t-9.5 72t-10 64t-9 45zM113 841q-8 8 -6.5 18t8 16.5t17 7t20.5 -8.5l59 -58q7 -10 4.5 -19.5t-10 -15.5t-18 -6t-19.5 10z" />
    <glyph glyph-name="Aacute" unicode="&#xc1;" horiz-adv-x="322" 
d="M27 23q-1 3 4 45t13 105.5t18.5 140.5t21 152.5t20.5 140t17 103.5q3 17 13.5 27.5t23.5 12t24 -6t16 -25.5q15 -70 27 -143t22 -143t18.5 -134.5t15.5 -118.5t12.5 -94.5t10.5 -62.5q0 -12 -7.5 -18.5t-17 -7t-18 4.5t-10.5 16l-35 267h-110l-30 -270q-3 -11 -11 -15.5
t-16 -3t-15 8.5t-7 19zM117 337h90q-1 7 -3.5 30.5t-6.5 55.5t-8.5 69t-9.5 72t-10 64t-9 45zM153 785q-9 -10 -19.5 -10t-18 6t-10 15.5t4.5 19.5l59 58q10 9 20.5 8.5t17 -7t8 -16.5t-6.5 -18z" />
    <glyph glyph-name="Acircumflex" unicode="&#xc2;" horiz-adv-x="322" 
d="M27 23q-1 3 4 45t13 105.5t18.5 140.5t21 152.5t20.5 140t17 103.5q3 17 13.5 27.5t23.5 12t24 -6t16 -25.5q15 -70 27 -143t22 -143t18.5 -134.5t15.5 -118.5t12.5 -94.5t10.5 -62.5q0 -12 -7.5 -18.5t-17 -7t-18 4.5t-10.5 16l-35 267h-110l-30 -270q-3 -11 -11 -15.5
t-16 -3t-15 8.5t-7 19zM117 337h90q-1 7 -3.5 30.5t-6.5 55.5t-8.5 69t-9.5 72t-10 64t-9 45zM127 894q3 9 12 12.5t19 3t19 -5t12 -12.5l42 -91q3 -12 -2.5 -20.5t-15 -11.5t-19.5 1t-14 16l-22 53l-21 -53q-3 -11 -12 -14.5t-18.5 -2t-16.5 8.5t-6 18z" />
    <glyph glyph-name="Atilde" unicode="&#xc3;" horiz-adv-x="322" 
d="M27 23q-1 3 4 45t13 105.5t18.5 140.5t21 152.5t20.5 140t17 103.5q3 17 13.5 27.5t23.5 12t24 -6t16 -25.5q15 -70 27 -143t22 -143t18.5 -134.5t15.5 -118.5t12.5 -94.5t10.5 -62.5q0 -12 -7.5 -18.5t-17 -7t-18 4.5t-10.5 16l-35 267h-110l-30 -270q-3 -11 -11 -15.5
t-16 -3t-15 8.5t-7 19zM117 337h90q-1 7 -3.5 30.5t-6.5 55.5t-8.5 69t-9.5 72t-10 64t-9 45zM21 786q-2 18 1 38.5t13 38t28.5 28.5t47.5 11q31 0 50 -11.5t32.5 -26t23.5 -27t24 -14.5q7 -1 10 8t4 20.5t0.5 22t-0.5 13.5q-1 8 6 12.5t16 5t17 -3t10 -12.5
q2 -18 1.5 -38.5t-6.5 -38t-19 -29.5t-36 -12q-27 0 -43 13t-29 29t-27 28t-36 11q-14 -1 -22.5 -7t-13 -15.5t-5 -20.5t1.5 -21q1 -7 -5.5 -12t-15.5 -6t-17.5 2.5t-10.5 13.5z" />
    <glyph glyph-name="Adieresis" unicode="&#xc4;" horiz-adv-x="322" 
d="M27 23q-1 3 4 45t13 105.5t18.5 140.5t21 152.5t20.5 140t17 103.5q3 17 13.5 27.5t23.5 12t24 -6t16 -25.5q15 -70 27 -143t22 -143t18.5 -134.5t15.5 -118.5t12.5 -94.5t10.5 -62.5q0 -12 -7.5 -18.5t-17 -7t-18 4.5t-10.5 16l-35 267h-110l-30 -270q-3 -11 -11 -15.5
t-16 -3t-15 8.5t-7 19zM117 337h90q-1 7 -3.5 30.5t-6.5 55.5t-8.5 69t-9.5 72t-10 64t-9 45zM86 797q0 13 7.5 21t21.5 8q13 0 21 -8t8 -21q0 -14 -8 -21.5t-21 -7.5q-29 0 -29 29zM178 797q0 13 7.5 21t21.5 8q13 0 21 -8t8 -21q0 -14 -8 -21.5t-21 -7.5q-29 0 -29 29z
" />
    <glyph glyph-name="Aring" unicode="&#xc5;" horiz-adv-x="322" 
d="M27 23q-1 3 4 45t13 105.5t18.5 140.5t21 152.5t20.5 140t17 103.5q3 17 13.5 27.5t23.5 12t24 -6t16 -25.5q15 -70 27 -143t22 -143t18.5 -134.5t15.5 -118.5t12.5 -94.5t10.5 -62.5q0 -12 -7.5 -18.5t-17 -7t-18 4.5t-10.5 16l-35 267h-110l-30 -270q-3 -11 -11 -15.5
t-16 -3t-15 8.5t-7 19zM117 337h90q-1 7 -3.5 30.5t-6.5 55.5t-8.5 69t-9.5 72t-10 64t-9 45zM178 823q0 18 -18 18q-19 0 -19 -18q0 -19 19 -19q18 0 18 19zM219 823q0 -26 -15.5 -42t-42.5 -16q-26 0 -42 16t-16 42q0 27 16 42.5t42 15.5q27 0 42.5 -15.5t15.5 -42.5z" />
    <glyph glyph-name="AE" unicode="&#xc6;" horiz-adv-x="421" 
d="M230 288l-100 3l-66 -269q-4 -11 -12.5 -14.5t-17 -1.5t-14 9t-4.5 18q3 7 14 47.5t27 101.5t35.5 135l39 148t37.5 140.5t32 111.5q5 15 12 23t16 11.5t20.5 4t25.5 1.5q38 2 60.5 1.5t39.5 -1.5q13 0 19 -8t6 -17t-6 -16.5t-19 -7.5h-16.5t-29 -0.5t-29.5 -1t-19 -1.5
q0 -15 -0.5 -50.5t-1 -75.5t-0.5 -76.5t2 -52.5l82 -1q9 0 13 -7.5t3.5 -16.5t-5 -17t-13.5 -9l-80 -3q-1 -11 -1.5 -34t-1 -53.5t0 -65.5t1 -69.5t1 -66t0.5 -54.5l100 -3q8 0 12.5 -7.5t5 -16.5t-4 -16t-14.5 -7q-14 -3 -41.5 -2.5t-47.5 -0.5q-35 0 -47 11.5t-13 34.5z
M149 344l80 -3l-2 308z" />
    <glyph glyph-name="Ccedilla" unicode="&#xc7;" horiz-adv-x="249" 
d="M132 755q22 0 39 -11t28.5 -28t17 -38t5.5 -41q0 -9 -6.5 -17t-17.5 -8q-17 0 -22 14t-8 31t-9 31t-25 14q-12 0 -20 -7.5t-13 -18t-8.5 -22.5t-4.5 -21q-1 -5 -2 -32.5t-1.5 -86.5t-1 -152t-0.5 -228q0 -9 2.5 -23.5t8 -28t14.5 -23t22 -9.5q12 0 19.5 8.5t12 21t7.5 27
t7 27t9.5 20.5t15.5 8q23 0 23 -24q0 -20 -4.5 -44t-15.5 -45t-29 -35t-44 -14q-29 0 -48.5 16t-31 40.5t-16.5 52.5t-5 52q0 120 0.5 207.5t2 146t2.5 89t3 37.5q3 18 10 38.5t18.5 37t27.5 27.5t38 11zM111 -49q-8 -2 -12 -1t-5 7t0 18.5t1 32.5q0 8 8 12.5t17.5 5
t17 -3.5t6.5 -12l-1 -23q21 -1 32 -17t10 -34.5t-15 -34t-44 -16.5q-11 0 -16 7.5t-5 16t4 14t12 2.5q12 1 17 6.5t3.5 11t-9.5 8.5t-21 0z" />
    <glyph glyph-name="Egrave" unicode="&#xc8;" horiz-adv-x="217" 
d="M23 691q0 24 4 37.5t10.5 20t14.5 8t15 1.5h19h32.5t32.5 -0.5t20 -0.5q13 0 19 -8t6 -17t-6 -16.5t-19 -7.5h-16.5t-29 -0.5t-29.5 -1t-19 -1.5q0 -15 -0.5 -50.5t-1 -75.5t-0.5 -76.5t2 -52.5l82 -1q9 0 13 -7.5t3.5 -16.5t-5 -17t-13.5 -9l-80 -3q-1 -11 -1.5 -34
t-1 -53.5t0 -65.5t1 -69.5t1 -66t0.5 -54.5l100 -3q8 0 12.5 -7.5t5 -16.5t-4 -16t-14.5 -7q-14 -3 -41.5 -2.5t-47.5 -0.5q-35 0 -47 11.5t-13 34.5zM61 841q-8 8 -6.5 18t8 16.5t17 7t20.5 -8.5l59 -58q7 -10 4.5 -19.5t-10 -15.5t-18 -6t-19.5 10z" />
    <glyph glyph-name="Eacute" unicode="&#xc9;" horiz-adv-x="217" 
d="M23 691q0 24 4 37.5t10.5 20t14.5 8t15 1.5h19h32.5t32.5 -0.5t20 -0.5q13 0 19 -8t6 -17t-6 -16.5t-19 -7.5h-16.5t-29 -0.5t-29.5 -1t-19 -1.5q0 -15 -0.5 -50.5t-1 -75.5t-0.5 -76.5t2 -52.5l82 -1q9 0 13 -7.5t3.5 -16.5t-5 -17t-13.5 -9l-80 -3q-1 -11 -1.5 -34
t-1 -53.5t0 -65.5t1 -69.5t1 -66t0.5 -54.5l100 -3q8 0 12.5 -7.5t5 -16.5t-4 -16t-14.5 -7q-14 -3 -41.5 -2.5t-47.5 -0.5q-35 0 -47 11.5t-13 34.5zM101 785q-9 -10 -19.5 -10t-18 6t-10 15.5t4.5 19.5l59 58q10 9 20.5 8.5t17 -7t8 -16.5t-6.5 -18z" />
    <glyph glyph-name="Ecircumflex" unicode="&#xca;" horiz-adv-x="217" 
d="M23 691q0 24 4 37.5t10.5 20t14.5 8t15 1.5h19h32.5t32.5 -0.5t20 -0.5q13 0 19 -8t6 -17t-6 -16.5t-19 -7.5h-16.5t-29 -0.5t-29.5 -1t-19 -1.5q0 -15 -0.5 -50.5t-1 -75.5t-0.5 -76.5t2 -52.5l82 -1q9 0 13 -7.5t3.5 -16.5t-5 -17t-13.5 -9l-80 -3q-1 -11 -1.5 -34
t-1 -53.5t0 -65.5t1 -69.5t1 -66t0.5 -54.5l100 -3q8 0 12.5 -7.5t5 -16.5t-4 -16t-14.5 -7q-14 -3 -41.5 -2.5t-47.5 -0.5q-35 0 -47 11.5t-13 34.5zM75 894q3 9 12 12.5t19 3t19 -5t12 -12.5l42 -91q3 -12 -2.5 -20.5t-15 -11.5t-19.5 1t-14 16l-22 53l-21 -53
q-3 -11 -12 -14.5t-18.5 -2t-16.5 8.5t-6 18z" />
    <glyph glyph-name="Edieresis" unicode="&#xcb;" horiz-adv-x="217" 
d="M23 691q0 24 4 37.5t10.5 20t14.5 8t15 1.5h19h32.5t32.5 -0.5t20 -0.5q13 0 19 -8t6 -17t-6 -16.5t-19 -7.5h-16.5t-29 -0.5t-29.5 -1t-19 -1.5q0 -15 -0.5 -50.5t-1 -75.5t-0.5 -76.5t2 -52.5l82 -1q9 0 13 -7.5t3.5 -16.5t-5 -17t-13.5 -9l-80 -3q-1 -11 -1.5 -34
t-1 -53.5t0 -65.5t1 -69.5t1 -66t0.5 -54.5l100 -3q8 0 12.5 -7.5t5 -16.5t-4 -16t-14.5 -7q-14 -3 -41.5 -2.5t-47.5 -0.5q-35 0 -47 11.5t-13 34.5zM33 797q0 13 7.5 21t21.5 8q13 0 21 -8t8 -21q0 -14 -8 -21.5t-21 -7.5q-29 0 -29 29zM125 797q0 13 7.5 21t21.5 8
q13 0 21 -8t8 -21q0 -14 -8 -21.5t-21 -7.5q-29 0 -29 29z" />
    <glyph glyph-name="Igrave" unicode="&#xcc;" horiz-adv-x="113" 
d="M27 10q-1 12 -1 55.5t0.5 106t1 138.5t1 153t-0.5 150t-3 129q2 8 10 12t17 4t16 -4.5t8 -13.5q3 -91 2.5 -181.5t-1.5 -181.5t-1 -182.5t4 -182.5q1 -8 -7.5 -12.5t-19 -5t-19 3.5t-7.5 12zM10 841q-8 8 -6.5 18t8 16.5t17 7t20.5 -8.5l59 -58q7 -10 4.5 -19.5
t-10 -15.5t-18 -6t-19.5 10z" />
    <glyph glyph-name="Iacute" unicode="&#xcd;" horiz-adv-x="113" 
d="M27 10q-1 12 -1 55.5t0.5 106t1 138.5t1 153t-0.5 150t-3 129q2 8 10 12t17 4t16 -4.5t8 -13.5q3 -91 2.5 -181.5t-1.5 -181.5t-1 -182.5t4 -182.5q1 -8 -7.5 -12.5t-19 -5t-19 3.5t-7.5 12zM50 785q-9 -10 -19.5 -10t-18 6t-10 15.5t4.5 19.5l59 58q10 9 20.5 8.5t17 -7
t8 -16.5t-6.5 -18z" />
    <glyph glyph-name="Icircumflex" unicode="&#xce;" horiz-adv-x="113" 
d="M27 10q-1 12 -1 55.5t0.5 106t1 138.5t1 153t-0.5 150t-3 129q2 8 10 12t17 4t16 -4.5t8 -13.5q3 -91 2.5 -181.5t-1.5 -181.5t-1 -182.5t4 -182.5q1 -8 -7.5 -12.5t-19 -5t-19 3.5t-7.5 12zM24 894q3 9 12 12.5t19 3t19 -5t12 -12.5l42 -91q3 -12 -2.5 -20.5t-15 -11.5
t-19.5 1t-14 16l-22 53l-21 -53q-3 -11 -12 -14.5t-18.5 -2t-16.5 8.5t-6 18z" />
    <glyph glyph-name="Idieresis" unicode="&#xcf;" horiz-adv-x="113" 
d="M27 10q-1 12 -1 55.5t0.5 106t1 138.5t1 153t-0.5 150t-3 129q2 8 10 12t17 4t16 -4.5t8 -13.5q3 -91 2.5 -181.5t-1.5 -181.5t-1 -182.5t4 -182.5q1 -8 -7.5 -12.5t-19 -5t-19 3.5t-7.5 12zM-17 797q0 13 7.5 21t21.5 8q13 0 21 -8t8 -21q0 -14 -8 -21.5t-21 -7.5
q-29 0 -29 29zM75 797q0 13 7.5 21t21.5 8q13 0 21 -8t8 -21q0 -14 -8 -21.5t-21 -7.5q-29 0 -29 29z" />
    <glyph glyph-name="Eth" unicode="&#xd0;" horiz-adv-x="318" 
d="M55 353h-13q-8 0 -12.5 6.5t-4.5 15t3.5 16t11.5 9.5h15v333q0 12 6 17.5t13.5 6.5t15.5 -3.5t13 -12.5q40 4 70 -10.5t51.5 -41.5t36 -62.5t23 -71.5t12 -70t3.5 -57q1 -67 -7 -129.5t-29.5 -116t-59 -96t-96.5 -69.5q-2 -12 -10.5 -17.5t-17.5 -5.5t-16.5 5.5
t-7.5 16.5v337zM105 354v-282q47 20 75.5 60.5t44 90t20.5 103t5 98.5q0 19 -2.5 47.5t-8.5 59.5t-16 61.5t-26 53.5t-38.5 35t-52.5 7l-1 -287l116 2q9 0 13 -7t3.5 -16t-5 -16.5t-13.5 -7.5z" />
    <glyph glyph-name="Ntilde" unicode="&#xd1;" horiz-adv-x="368" 
d="M31 718q0 15 10.5 25.5t24 14t26.5 -2t19 -23.5l188 -616q-1 42 -3 117t-4 163t-3.5 177.5t-0.5 161.5q-1 13 7.5 20t19 7.5t19 -5.5t7.5 -20l5 -710q-3 -14 -14 -20t-23.5 -6t-22.5 5t-10 14l-196 645l4 -635q0 -11 -8.5 -17.5t-18.5 -7.5t-18.5 4.5t-9.5 17.5zM43 786
q-2 18 1 38.5t13 38t28.5 28.5t47.5 11q31 0 50 -11.5t32.5 -26t23.5 -27t24 -14.5q7 -1 10 8t4 20.5t0.5 22t-0.5 13.5q-1 8 6 12.5t16 5t17 -3t10 -12.5q2 -18 1.5 -38.5t-6.5 -38t-19 -29.5t-36 -12q-27 0 -43 13t-29 29t-27 28t-36 11q-14 -1 -22.5 -7t-13 -15.5
t-5 -20.5t1.5 -21q1 -7 -5.5 -12t-15.5 -6t-17.5 2.5t-10.5 13.5z" />
    <glyph glyph-name="Ograve" unicode="&#xd2;" horiz-adv-x="284" 
d="M143 -2q-30 0 -51 13t-34.5 34.5t-21 49.5t-10.5 59q-11 118 -9.5 224.5t11.5 193.5q4 36 12 68.5t21.5 58t33 41t48.5 17.5q28 1 49 -12.5t34.5 -38t21 -57.5t9.5 -69q4 -67 6.5 -119.5t2.5 -100.5t-2 -96.5t-6 -106.5q-3 -32 -9.5 -61t-19.5 -50.5t-34 -34.5t-52 -13z
M209 156q6 63 8.5 108.5t2 89.5t-3 94.5t-6.5 124.5q-2 27 -6.5 51t-13 41t-20 26.5t-26.5 8.5q-29 -3 -46 -38t-22 -84q-7 -65 -10.5 -116.5t-3.5 -99t3.5 -96t10.5 -108.5q3 -23 8 -44t13.5 -36.5t20.5 -24t28 -6.5q29 1 43.5 32.5t19.5 76.5zM94 841q-8 8 -6.5 18t8 16.5
t17 7t20.5 -8.5l59 -58q7 -10 4.5 -19.5t-10 -15.5t-18 -6t-19.5 10z" />
    <glyph glyph-name="Oacute" unicode="&#xd3;" horiz-adv-x="284" 
d="M143 -2q-30 0 -51 13t-34.5 34.5t-21 49.5t-10.5 59q-11 118 -9.5 224.5t11.5 193.5q4 36 12 68.5t21.5 58t33 41t48.5 17.5q28 1 49 -12.5t34.5 -38t21 -57.5t9.5 -69q4 -67 6.5 -119.5t2.5 -100.5t-2 -96.5t-6 -106.5q-3 -32 -9.5 -61t-19.5 -50.5t-34 -34.5t-52 -13z
M209 156q6 63 8.5 108.5t2 89.5t-3 94.5t-6.5 124.5q-2 27 -6.5 51t-13 41t-20 26.5t-26.5 8.5q-29 -3 -46 -38t-22 -84q-7 -65 -10.5 -116.5t-3.5 -99t3.5 -96t10.5 -108.5q3 -23 8 -44t13.5 -36.5t20.5 -24t28 -6.5q29 1 43.5 32.5t19.5 76.5zM134 785q-9 -10 -19.5 -10
t-18 6t-10 15.5t4.5 19.5l59 58q10 9 20.5 8.5t17 -7t8 -16.5t-6.5 -18z" />
    <glyph glyph-name="Ocircumflex" unicode="&#xd4;" horiz-adv-x="284" 
d="M143 -2q-30 0 -51 13t-34.5 34.5t-21 49.5t-10.5 59q-11 118 -9.5 224.5t11.5 193.5q4 36 12 68.5t21.5 58t33 41t48.5 17.5q28 1 49 -12.5t34.5 -38t21 -57.5t9.5 -69q4 -67 6.5 -119.5t2.5 -100.5t-2 -96.5t-6 -106.5q-3 -32 -9.5 -61t-19.5 -50.5t-34 -34.5t-52 -13z
M209 156q6 63 8.5 108.5t2 89.5t-3 94.5t-6.5 124.5q-2 27 -6.5 51t-13 41t-20 26.5t-26.5 8.5q-29 -3 -46 -38t-22 -84q-7 -65 -10.5 -116.5t-3.5 -99t3.5 -96t10.5 -108.5q3 -23 8 -44t13.5 -36.5t20.5 -24t28 -6.5q29 1 43.5 32.5t19.5 76.5zM108 894q3 9 12 12.5t19 3
t19 -5t12 -12.5l42 -91q3 -12 -2.5 -20.5t-15 -11.5t-19.5 1t-14 16l-22 53l-21 -53q-3 -11 -12 -14.5t-18.5 -2t-16.5 8.5t-6 18z" />
    <glyph glyph-name="Otilde" unicode="&#xd5;" horiz-adv-x="284" 
d="M143 -2q-30 0 -51 13t-34.5 34.5t-21 49.5t-10.5 59q-11 118 -9.5 224.5t11.5 193.5q4 36 12 68.5t21.5 58t33 41t48.5 17.5q28 1 49 -12.5t34.5 -38t21 -57.5t9.5 -69q4 -67 6.5 -119.5t2.5 -100.5t-2 -96.5t-6 -106.5q-3 -32 -9.5 -61t-19.5 -50.5t-34 -34.5t-52 -13z
M209 156q6 63 8.5 108.5t2 89.5t-3 94.5t-6.5 124.5q-2 27 -6.5 51t-13 41t-20 26.5t-26.5 8.5q-29 -3 -46 -38t-22 -84q-7 -65 -10.5 -116.5t-3.5 -99t3.5 -96t10.5 -108.5q3 -23 8 -44t13.5 -36.5t20.5 -24t28 -6.5q29 1 43.5 32.5t19.5 76.5zM2 786q-2 18 1 38.5t13 38
t28.5 28.5t47.5 11q31 0 50 -11.5t32.5 -26t23.5 -27t24 -14.5q7 -1 10 8t4 20.5t0.5 22t-0.5 13.5q-1 8 6 12.5t16 5t17 -3t10 -12.5q2 -18 1.5 -38.5t-6.5 -38t-19 -29.5t-36 -12q-27 0 -43 13t-29 29t-27 28t-36 11q-14 -1 -22.5 -7t-13 -15.5t-5 -20.5t1.5 -21
q1 -7 -5.5 -12t-15.5 -6t-17.5 2.5t-10.5 13.5z" />
    <glyph glyph-name="Odieresis" unicode="&#xd6;" horiz-adv-x="284" 
d="M143 -2q-30 0 -51 13t-34.5 34.5t-21 49.5t-10.5 59q-11 118 -9.5 224.5t11.5 193.5q4 36 12 68.5t21.5 58t33 41t48.5 17.5q28 1 49 -12.5t34.5 -38t21 -57.5t9.5 -69q4 -67 6.5 -119.5t2.5 -100.5t-2 -96.5t-6 -106.5q-3 -32 -9.5 -61t-19.5 -50.5t-34 -34.5t-52 -13z
M209 156q6 63 8.5 108.5t2 89.5t-3 94.5t-6.5 124.5q-2 27 -6.5 51t-13 41t-20 26.5t-26.5 8.5q-29 -3 -46 -38t-22 -84q-7 -65 -10.5 -116.5t-3.5 -99t3.5 -96t10.5 -108.5q3 -23 8 -44t13.5 -36.5t20.5 -24t28 -6.5q29 1 43.5 32.5t19.5 76.5zM67 797q0 13 7.5 21t21.5 8
q13 0 21 -8t8 -21q0 -14 -8 -21.5t-21 -7.5q-29 0 -29 29zM159 797q0 13 7.5 21t21.5 8q13 0 21 -8t8 -21q0 -14 -8 -21.5t-21 -7.5q-29 0 -29 29z" />
    <glyph glyph-name="multiply" unicode="&#xd7;" horiz-adv-x="297" 
d="M152 388l55 55q6 6 14 3.5t14 -9t7.5 -15t-4.5 -14.5l-52 -54l55 -54q6 -6 3.5 -14.5t-9.5 -15.5t-15 -9.5t-13 4.5l-55 55l-53 -53q-6 -6 -14.5 -3.5t-15.5 9.5t-9.5 15t4.5 13l54 53l-54 54q-6 6 -4 13.5t9 13.5t15.5 8t15.5 -4z" />
    <glyph glyph-name="Oslash" unicode="&#xd8;" horiz-adv-x="284" 
d="M143 -2q-30 0 -51 13t-34.5 34.5t-21 49.5t-10.5 59q-11 118 -9.5 224.5t11.5 193.5q4 36 12 68.5t21.5 58t33 41t48.5 17.5q28 1 49 -12.5t34.5 -38t21 -57.5t9.5 -69q4 -67 6.5 -119.5t2.5 -100.5t-2 -96.5t-6 -106.5q-3 -32 -9.5 -61t-19.5 -50.5t-34 -34.5t-52 -13z
M209 156q6 63 8.5 108.5t2 89.5t-3 94.5t-6.5 124.5q-2 27 -6.5 51t-13 41t-20 26.5t-26.5 8.5q-29 -3 -46 -38t-22 -84q-7 -65 -10.5 -116.5t-3.5 -99t3.5 -96t10.5 -108.5q3 -23 8 -44t13.5 -36.5t20.5 -24t28 -6.5q29 1 43.5 32.5t19.5 76.5zM17 21q2 12 14.5 55.5
t31.5 106t41.5 138t45 152.5t42.5 148.5t33 126.5q4 7 12.5 9t17 -0.5t14.5 -9t4 -15.5q-22 -88 -48.5 -178.5t-54 -182t-54 -182.5t-47.5 -180q-2 -8 -11 -10t-19.5 0.5t-17.5 8t-4 13.5z" />
    <glyph glyph-name="Ugrave" unicode="&#xd9;" horiz-adv-x="271" 
d="M249 732q-2 -191 -3.5 -328.5t-12 -227t-33.5 -133t-67 -44.5q-33 -1 -54 26.5t-33.5 77t-17 118.5t-6 151t-0.5 174t1 189q1 15 10.5 21t19.5 5.5t18 -7t7 -17.5q-1 -144 -1 -266.5t5 -213t17 -142.5t34 -54q18 -2 30.5 34.5t20.5 117t11 208.5t0 308q0 16 8 23.5
t18 6.5t18.5 -8t9.5 -19zM88 841q-8 8 -6.5 18t8 16.5t17 7t20.5 -8.5l59 -58q7 -10 4.5 -19.5t-10 -15.5t-18 -6t-19.5 10z" />
    <glyph glyph-name="Uacute" unicode="&#xda;" horiz-adv-x="271" 
d="M249 732q-2 -191 -3.5 -328.5t-12 -227t-33.5 -133t-67 -44.5q-33 -1 -54 26.5t-33.5 77t-17 118.5t-6 151t-0.5 174t1 189q1 15 10.5 21t19.5 5.5t18 -7t7 -17.5q-1 -144 -1 -266.5t5 -213t17 -142.5t34 -54q18 -2 30.5 34.5t20.5 117t11 208.5t0 308q0 16 8 23.5
t18 6.5t18.5 -8t9.5 -19zM128 785q-9 -10 -19.5 -10t-18 6t-10 15.5t4.5 19.5l59 58q10 9 20.5 8.5t17 -7t8 -16.5t-6.5 -18z" />
    <glyph glyph-name="Ucircumflex" unicode="&#xdb;" horiz-adv-x="271" 
d="M249 732q-2 -191 -3.5 -328.5t-12 -227t-33.5 -133t-67 -44.5q-33 -1 -54 26.5t-33.5 77t-17 118.5t-6 151t-0.5 174t1 189q1 15 10.5 21t19.5 5.5t18 -7t7 -17.5q-1 -144 -1 -266.5t5 -213t17 -142.5t34 -54q18 -2 30.5 34.5t20.5 117t11 208.5t0 308q0 16 8 23.5
t18 6.5t18.5 -8t9.5 -19zM102 894q3 9 12 12.5t19 3t19 -5t12 -12.5l42 -91q3 -12 -2.5 -20.5t-15 -11.5t-19.5 1t-14 16l-22 53l-21 -53q-3 -11 -12 -14.5t-18.5 -2t-16.5 8.5t-6 18z" />
    <glyph glyph-name="Udieresis" unicode="&#xdc;" horiz-adv-x="271" 
d="M249 732q-2 -191 -3.5 -328.5t-12 -227t-33.5 -133t-67 -44.5q-33 -1 -54 26.5t-33.5 77t-17 118.5t-6 151t-0.5 174t1 189q1 15 10.5 21t19.5 5.5t18 -7t7 -17.5q-1 -144 -1 -266.5t5 -213t17 -142.5t34 -54q18 -2 30.5 34.5t20.5 117t11 208.5t0 308q0 16 8 23.5
t18 6.5t18.5 -8t9.5 -19zM60 797q0 13 7.5 21t21.5 8q13 0 21 -8t8 -21q0 -14 -8 -21.5t-21 -7.5q-29 0 -29 29zM152 797q0 13 7.5 21t21.5 8q13 0 21 -8t8 -21q0 -14 -8 -21.5t-21 -7.5q-29 0 -29 29z" />
    <glyph glyph-name="Yacute" unicode="&#xdd;" 
d="M196 737q-2 13 5.5 19t17 6t17.5 -6t7 -17q0 -91 -0.5 -163.5t-0.5 -133v-112v-100.5q0 -62 -3.5 -104.5t-14 -69.5t-29.5 -40t-51 -16q-21 -2 -46.5 7t-45.5 32q-6 9 -5 18.5t6 16.5t12.5 9t14.5 -3q10 -11 29 -21.5t38 -8.5q18 2 26.5 13t12.5 26.5t4 32v28.5
q-11 -20 -27.5 -27.5t-35.5 -7.5q-21 0 -36.5 13t-27 36t-19 54.5t-11.5 68.5q-6 52 -8 112.5t-2 121t1.5 119t2.5 108.5q0 6 7.5 10t16 4t15.5 -5t7 -15q0 -4 -1 -31t-2 -68t-1 -92t2 -103.5t6 -102.5t11 -88.5t18.5 -62t27.5 -22.5q7 0 16 5.5t17.5 16t15 26t7.5 35.5
q3 61 4 120t1 118v119.5t1 124.5zM124 785q-9 -10 -19.5 -10t-18 6t-10 15.5t4.5 19.5l59 58q10 9 20.5 8.5t17 -7t8 -16.5t-6.5 -18z" />
    <glyph glyph-name="Thorn" unicode="&#xde;" horiz-adv-x="236" 
d="M23 11q14 336 9 730q1 9 7.5 14.5t14.5 6.5t15 -3t10 -14q0 -2 0.5 -8.5t0.5 -14t-0.5 -14.5t-0.5 -9q21 12 40.5 16t36 -1t29 -19.5t17.5 -39.5q6 -28 8.5 -77t2.5 -106.5t-2 -119.5t-6 -116.5t-9 -96t-10 -58.5q-6 -21 -20.5 -30.5t-31 -11.5t-32.5 2t-27 10l-1 -38
q0 -9 -7.5 -14.5t-16.5 -6t-17 3.5t-10 15zM75 108q7 -7 16 -11.5t18.5 -5.5t17.5 4t14 17t10 48.5t7 86.5t4 108t1 113t-2.5 101.5t-6.5 74.5q-2 15 -10.5 20t-20 2t-23.5 -11.5t-21 -18.5z" />
    <glyph glyph-name="germandbls" unicode="&#xdf;" horiz-adv-x="257" 
d="M65 -15q-2 -9 -9.5 -13.5t-15.5 -5t-14.5 4t-7.5 13.5l2 678q-2 49 25 68t64 14q24 -3 45.5 -12.5t38 -26.5t26.5 -40.5t10 -54.5q0 -40 -9.5 -70t-24 -52.5t-32 -38t-33.5 -25.5q22 -6 41 -19t34 -34t24 -52.5t11 -75.5q3 -60 -10.5 -104.5t-35.5 -73t-50.5 -41
t-55.5 -10.5q-7 8 -6.5 24.5t8.5 22.5q20 -2 39.5 9.5t34.5 34t23.5 55.5t7.5 75q-2 52 -13.5 82.5t-27.5 46t-34.5 19.5t-33.5 3q-5 3 -8 12.5t-3 20.5t2 20.5t8 12.5q24 10 42 28.5t29.5 40t17 44t5.5 41.5q-2 33 -16.5 60.5t-51.5 35.5q-19 4 -33 -12t-14 -45z" />
    <glyph glyph-name="agrave" unicode="&#xe0;" 
d="M182 23q-16 -8 -25.5 -11t-26.5 -3q-27 1 -44 12t-27.5 29t-15.5 41t-7 47q-3 35 -4.5 79.5t-2 91t0.5 90.5t3 79q1 22 4.5 54.5t13 62.5t28.5 52.5t51 24.5q38 3 57 -26l2 20q1 10 9 15.5t18 6t18 -4.5t9 -17q-4 -151 -6 -272t-2 -205t1 -128t3 -41q-4 -8 -13.5 -13.5
t-18.5 -5.5q-18 0 -25 22zM80 467q-1 -11 -2 -47.5t-1.5 -83t0.5 -97t5 -89.5q1 -12 3 -27.5t7.5 -29.5t15.5 -23.5t28 -9.5q20 0 29.5 16.5t16.5 31.5l7 460q-3 8 -8 18t-11 18t-14.5 13.5t-19.5 4.5q-20 -2 -31 -20.5t-16 -43.5t-6.5 -50.5t-2.5 -40.5zM91 776
q-8 8 -6.5 18t8 16.5t17 7t20.5 -8.5l59 -58q7 -10 4.5 -19.5t-10 -15.5t-18 -6t-19.5 10z" />
    <glyph glyph-name="aacute" unicode="&#xe1;" 
d="M182 23q-16 -8 -25.5 -11t-26.5 -3q-27 1 -44 12t-27.5 29t-15.5 41t-7 47q-3 35 -4.5 79.5t-2 91t0.5 90.5t3 79q1 22 4.5 54.5t13 62.5t28.5 52.5t51 24.5q38 3 57 -26l2 20q1 10 9 15.5t18 6t18 -4.5t9 -17q-4 -151 -6 -272t-2 -205t1 -128t3 -41q-4 -8 -13.5 -13.5
t-18.5 -5.5q-18 0 -25 22zM80 467q-1 -11 -2 -47.5t-1.5 -83t0.5 -97t5 -89.5q1 -12 3 -27.5t7.5 -29.5t15.5 -23.5t28 -9.5q20 0 29.5 16.5t16.5 31.5l7 460q-3 8 -8 18t-11 18t-14.5 13.5t-19.5 4.5q-20 -2 -31 -20.5t-16 -43.5t-6.5 -50.5t-2.5 -40.5zM124 703
q-9 -10 -19.5 -10t-18 6t-10 15.5t4.5 19.5l59 58q10 9 20.5 8.5t17 -7t8 -16.5t-6.5 -18z" />
    <glyph glyph-name="acircumflex" unicode="&#xe2;" 
d="M182 23q-16 -8 -25.5 -11t-26.5 -3q-27 1 -44 12t-27.5 29t-15.5 41t-7 47q-3 35 -4.5 79.5t-2 91t0.5 90.5t3 79q1 22 4.5 54.5t13 62.5t28.5 52.5t51 24.5q38 3 57 -26l2 20q1 10 9 15.5t18 6t18 -4.5t9 -17q-4 -151 -6 -272t-2 -205t1 -128t3 -41q-4 -8 -13.5 -13.5
t-18.5 -5.5q-18 0 -25 22zM80 467q-1 -11 -2 -47.5t-1.5 -83t0.5 -97t5 -89.5q1 -12 3 -27.5t7.5 -29.5t15.5 -23.5t28 -9.5q20 0 29.5 16.5t16.5 31.5l7 460q-3 8 -8 18t-11 18t-14.5 13.5t-19.5 4.5q-20 -2 -31 -20.5t-16 -43.5t-6.5 -50.5t-2.5 -40.5zM117 823
q3 9 12 12.5t19 3t19 -5t12 -12.5l42 -91q3 -12 -2.5 -20.5t-15 -11.5t-19.5 1t-14 16l-22 53l-21 -53q-3 -11 -12 -14.5t-18.5 -2t-16.5 8.5t-6 18z" />
    <glyph glyph-name="atilde" unicode="&#xe3;" 
d="M182 23q-16 -8 -25.5 -11t-26.5 -3q-27 1 -44 12t-27.5 29t-15.5 41t-7 47q-3 35 -4.5 79.5t-2 91t0.5 90.5t3 79q1 22 4.5 54.5t13 62.5t28.5 52.5t51 24.5q38 3 57 -26l2 20q1 10 9 15.5t18 6t18 -4.5t9 -17q-4 -151 -6 -272t-2 -205t1 -128t3 -41q-4 -8 -13.5 -13.5
t-18.5 -5.5q-18 0 -25 22zM80 467q-1 -11 -2 -47.5t-1.5 -83t0.5 -97t5 -89.5q1 -12 3 -27.5t7.5 -29.5t15.5 -23.5t28 -9.5q20 0 29.5 16.5t16.5 31.5l7 460q-3 8 -8 18t-11 18t-14.5 13.5t-19.5 4.5q-20 -2 -31 -20.5t-16 -43.5t-6.5 -50.5t-2.5 -40.5zM-3 717
q-2 18 1 38.5t13 38t28.5 28.5t47.5 11q31 0 50 -11.5t32.5 -26t23.5 -27t24 -14.5q7 -1 10 8t4 20.5t0.5 22t-0.5 13.5q-1 8 6 12.5t16 5t17 -3t10 -12.5q2 -18 1.5 -38.5t-6.5 -38t-19 -29.5t-36 -12q-27 0 -43 13t-29 29t-27 28t-36 11q-14 -1 -22.5 -7t-13 -15.5
t-5 -20.5t1.5 -21q1 -7 -5.5 -12t-15.5 -6t-17.5 2.5t-10.5 13.5z" />
    <glyph glyph-name="adieresis" unicode="&#xe4;" 
d="M182 23q-16 -8 -25.5 -11t-26.5 -3q-27 1 -44 12t-27.5 29t-15.5 41t-7 47q-3 35 -4.5 79.5t-2 91t0.5 90.5t3 79q1 22 4.5 54.5t13 62.5t28.5 52.5t51 24.5q38 3 57 -26l2 20q1 10 9 15.5t18 6t18 -4.5t9 -17q-4 -151 -6 -272t-2 -205t1 -128t3 -41q-4 -8 -13.5 -13.5
t-18.5 -5.5q-18 0 -25 22zM80 467q-1 -11 -2 -47.5t-1.5 -83t0.5 -97t5 -89.5q1 -12 3 -27.5t7.5 -29.5t15.5 -23.5t28 -9.5q20 0 29.5 16.5t16.5 31.5l7 460q-3 8 -8 18t-11 18t-14.5 13.5t-19.5 4.5q-20 -2 -31 -20.5t-16 -43.5t-6.5 -50.5t-2.5 -40.5zM63 729
q0 13 7.5 21t21.5 8q13 0 21 -8t8 -21q0 -14 -8 -21.5t-21 -7.5q-29 0 -29 29zM155 729q0 13 7.5 21t21.5 8q13 0 21 -8t8 -21q0 -14 -8 -21.5t-21 -7.5q-29 0 -29 29z" />
    <glyph glyph-name="aring" unicode="&#xe5;" 
d="M182 23q-16 -8 -25.5 -11t-26.5 -3q-27 1 -44 12t-27.5 29t-15.5 41t-7 47q-3 35 -4.5 79.5t-2 91t0.5 90.5t3 79q1 22 4.5 54.5t13 62.5t28.5 52.5t51 24.5q38 3 57 -26l2 20q1 10 9 15.5t18 6t18 -4.5t9 -17q-4 -151 -6 -272t-2 -205t1 -128t3 -41q-4 -8 -13.5 -13.5
t-18.5 -5.5q-18 0 -25 22zM80 467q-1 -11 -2 -47.5t-1.5 -83t0.5 -97t5 -89.5q1 -12 3 -27.5t7.5 -29.5t15.5 -23.5t28 -9.5q20 0 29.5 16.5t16.5 31.5l7 460q-3 8 -8 18t-11 18t-14.5 13.5t-19.5 4.5q-20 -2 -31 -20.5t-16 -43.5t-6.5 -50.5t-2.5 -40.5zM149 741
q0 18 -18 18q-19 0 -19 -18q0 -19 19 -19q18 0 18 19zM190 741q0 -26 -15.5 -42t-42.5 -16q-26 0 -42 16t-16 42q0 27 16 42.5t42 15.5q27 0 42.5 -15.5t15.5 -42.5z" />
    <glyph glyph-name="ae" unicode="&#xe6;" horiz-adv-x="340" 
d="M224 0q-28 -4 -47 21q-15 -8 -24.5 -10.5t-26.5 -2.5q-27 1 -44 12t-27.5 29t-15.5 41t-7 47q-3 35 -4.5 79.5t-2 91t0.5 90.5t3 79q1 22 4.5 54.5t13 62.5t28.5 52.5t51 24.5q30 2 47 -15q20 24 49 26q31 1 49 -13.5t27 -36t11.5 -47t2.5 -47.5q0 -25 -13.5 -38
t-33.5 -18.5t-43 -6t-42 0.5q-3 -14 -4.5 -51t-0.5 -84t4 -98t9 -93.5t15.5 -69.5t22.5 -26q10 1 17 19.5t12 47.5t7.5 65t3.5 71t0 65t-4 48q0 8 7.5 12.5t16.5 4.5t17.5 -5t10.5 -16q1 -31 2 -68.5t-1 -76.5t-7.5 -77t-16 -68.5t-27 -51t-40.5 -24.5zM132 59q14 0 23 9
q-12 35 -18.5 82t-9 98.5t-2.5 103.5t2.5 97t5.5 79t7 49q2 11 5 20.5t6 18.5q-8 5 -19 5q-20 -2 -31 -20.5t-16 -43.5t-6.5 -50.5t-2.5 -40.5q-1 -11 -2 -47.5t-1.5 -83t0.5 -97t5 -89.5q1 -12 3 -27.5t7.5 -29.5t15.5 -23.5t28 -9.5zM224 634q-12 -1 -19.5 -14t-11 -30.5
t-5 -34.5t-1.5 -27q5 0 17 -1t25 -0.5t23 3.5t11 11q0 7 -0.5 23t-4 32t-11.5 28t-23 10z" />
    <glyph glyph-name="ccedilla" unicode="&#xe7;" horiz-adv-x="247" 
d="M135 675q22 0 39 -11t28.5 -28t17 -38t5.5 -41q0 -9 -6.5 -17t-17.5 -8q-17 0 -22 14t-8 31t-9 31t-25 14q-12 0 -20 -7.5t-13 -18t-8.5 -22.5t-4.5 -21q-1 -5 -2.5 -20t-2.5 -59t-2 -124.5t-1 -215.5q0 -9 2.5 -23.5t8 -28t14.5 -23t22 -9.5q18 0 22.5 18t6.5 40t7 40
t25 18q23 0 23 -24q0 -20 -3 -44.5t-12 -46.5t-25.5 -36.5t-42.5 -14.5q-29 0 -48.5 16t-31 40.5t-16.5 52.5t-5 52q0 120 1 195t3 118.5t3.5 61.5t3.5 25q3 18 10 38.5t18.5 37t27.5 27.5t38 11zM109 -47q-8 -2 -12 -1t-5 7t0 18.5t1 32.5q0 8 8 12.5t17.5 5t17 -3.5
t6.5 -12l-1 -23q21 -1 32 -17t10 -34.5t-15 -34t-44 -16.5q-11 0 -16 7.5t-5 16t4 14t12 2.5q12 1 17 6.5t3.5 11t-9.5 8.5t-21 0z" />
    <glyph glyph-name="egrave" unicode="&#xe8;" horiz-adv-x="242" 
d="M126 0q-24 -2 -41 18.5t-28.5 56t-18 82.5t-9 97.5t-2.5 101.5t2.5 95t6 77.5t6.5 48.5q11 48 31 76t51 29t49 -13.5t27 -36t11.5 -47t2.5 -47.5q0 -25 -14 -38t-34.5 -18.5t-43.5 -6t-42 0.5q-3 -14 -4.5 -51t-1 -84t3.5 -98t9.5 -93.5t16.5 -69.5t24 -26q10 1 17 19.5
t12 47.5t7.5 65t3.5 71t0 65t-4 48q0 8 7.5 12.5t16.5 4.5t17.5 -5t10.5 -16q1 -31 1.5 -69t-2 -78.5t-8.5 -79t-16.5 -69t-26.5 -49.5t-38 -21zM126 634q-12 -1 -20 -14t-13.5 -30.5t-7.5 -34.5t-2 -27q5 0 18 -1t27 -0.5t25 3.5t12 11q0 7 -0.5 23t-4 32t-11.5 28t-23 10z
M73 759q-8 8 -6.5 18t8 16.5t17 7t20.5 -8.5l59 -58q7 -10 4.5 -19.5t-10 -15.5t-18 -6t-19.5 10z" />
    <glyph glyph-name="eacute" unicode="&#xe9;" horiz-adv-x="242" 
d="M126 0q-24 -2 -41 18.5t-28.5 56t-18 82.5t-9 97.5t-2.5 101.5t2.5 95t6 77.5t6.5 48.5q11 48 31 76t51 29t49 -13.5t27 -36t11.5 -47t2.5 -47.5q0 -25 -14 -38t-34.5 -18.5t-43.5 -6t-42 0.5q-3 -14 -4.5 -51t-1 -84t3.5 -98t9.5 -93.5t16.5 -69.5t24 -26q10 1 17 19.5
t12 47.5t7.5 65t3.5 71t0 65t-4 48q0 8 7.5 12.5t16.5 4.5t17.5 -5t10.5 -16q1 -31 1.5 -69t-2 -78.5t-8.5 -79t-16.5 -69t-26.5 -49.5t-38 -21zM126 634q-12 -1 -20 -14t-13.5 -30.5t-7.5 -34.5t-2 -27q5 0 18 -1t27 -0.5t25 3.5t12 11q0 7 -0.5 23t-4 32t-11.5 28t-23 10z
M113 703q-9 -10 -19.5 -10t-18 6t-10 15.5t4.5 19.5l59 58q10 9 20.5 8.5t17 -7t8 -16.5t-6.5 -18z" />
    <glyph glyph-name="ecircumflex" unicode="&#xea;" horiz-adv-x="242" 
d="M126 0q-24 -2 -41 18.5t-28.5 56t-18 82.5t-9 97.5t-2.5 101.5t2.5 95t6 77.5t6.5 48.5q11 48 31 76t51 29t49 -13.5t27 -36t11.5 -47t2.5 -47.5q0 -25 -14 -38t-34.5 -18.5t-43.5 -6t-42 0.5q-3 -14 -4.5 -51t-1 -84t3.5 -98t9.5 -93.5t16.5 -69.5t24 -26q10 1 17 19.5
t12 47.5t7.5 65t3.5 71t0 65t-4 48q0 8 7.5 12.5t16.5 4.5t17.5 -5t10.5 -16q1 -31 1.5 -69t-2 -78.5t-8.5 -79t-16.5 -69t-26.5 -49.5t-38 -21zM126 634q-12 -1 -20 -14t-13.5 -30.5t-7.5 -34.5t-2 -27q5 0 18 -1t27 -0.5t25 3.5t12 11q0 7 -0.5 23t-4 32t-11.5 28t-23 10z
M87 812q3 9 12 12.5t19 3t19 -5t12 -12.5l42 -91q3 -12 -2.5 -20.5t-15 -11.5t-19.5 1t-14 16l-22 53l-21 -53q-3 -11 -12 -14.5t-18.5 -2t-16.5 8.5t-6 18z" />
    <glyph glyph-name="edieresis" unicode="&#xeb;" horiz-adv-x="242" 
d="M126 0q-24 -2 -41 18.5t-28.5 56t-18 82.5t-9 97.5t-2.5 101.5t2.5 95t6 77.5t6.5 48.5q11 48 31 76t51 29t49 -13.5t27 -36t11.5 -47t2.5 -47.5q0 -25 -14 -38t-34.5 -18.5t-43.5 -6t-42 0.5q-3 -14 -4.5 -51t-1 -84t3.5 -98t9.5 -93.5t16.5 -69.5t24 -26q10 1 17 19.5
t12 47.5t7.5 65t3.5 71t0 65t-4 48q0 8 7.5 12.5t16.5 4.5t17.5 -5t10.5 -16q1 -31 1.5 -69t-2 -78.5t-8.5 -79t-16.5 -69t-26.5 -49.5t-38 -21zM126 634q-12 -1 -20 -14t-13.5 -30.5t-7.5 -34.5t-2 -27q5 0 18 -1t27 -0.5t25 3.5t12 11q0 7 -0.5 23t-4 32t-11.5 28t-23 10z
M46 715q0 13 7.5 21t21.5 8q13 0 21 -8t8 -21q0 -14 -8 -21.5t-21 -7.5q-29 0 -29 29zM138 715q0 13 7.5 21t21.5 8q13 0 21 -8t8 -21q0 -14 -8 -21.5t-21 -7.5q-29 0 -29 29z" />
    <glyph glyph-name="igrave" unicode="&#xec;" horiz-adv-x="118" 
d="M35 651q0 9 8.5 15t16.5 6q12 0 18 -9t7 -20v-73t0.5 -104.5t1 -122t1 -125.5t1 -114t0.5 -88q-3 -12 -11 -16.5t-16.5 -3t-15 7.5t-6.5 16zM13 759q-8 8 -6.5 18t8 16.5t17 7t20.5 -8.5l59 -58q7 -10 4.5 -19.5t-10 -15.5t-18 -6t-19.5 10z" />
    <glyph glyph-name="iacute" unicode="&#xed;" horiz-adv-x="118" 
d="M35 651q0 9 8.5 15t16.5 6q12 0 18 -9t7 -20v-73t0.5 -104.5t1 -122t1 -125.5t1 -114t0.5 -88q-3 -12 -11 -16.5t-16.5 -3t-15 7.5t-6.5 16zM53 703q-9 -10 -19.5 -10t-18 6t-10 15.5t4.5 19.5l59 58q10 9 20.5 8.5t17 -7t8 -16.5t-6.5 -18z" />
    <glyph glyph-name="icircumflex" unicode="&#xee;" horiz-adv-x="118" 
d="M35 651q0 9 8.5 15t16.5 6q12 0 18 -9t7 -20v-73t0.5 -104.5t1 -122t1 -125.5t1 -114t0.5 -88q-3 -12 -11 -16.5t-16.5 -3t-15 7.5t-6.5 16zM27 812q3 9 12 12.5t19 3t19 -5t12 -12.5l42 -91q3 -12 -2.5 -20.5t-15 -11.5t-19.5 1t-14 16l-22 53l-21 -53q-3 -11 -12 -14.5
t-18.5 -2t-16.5 8.5t-6 18z" />
    <glyph glyph-name="idieresis" unicode="&#xef;" horiz-adv-x="118" 
d="M35 651q0 9 8.5 15t16.5 6q12 0 18 -9t7 -20v-73t0.5 -104.5t1 -122t1 -125.5t1 -114t0.5 -88q-3 -12 -11 -16.5t-16.5 -3t-15 7.5t-6.5 16zM-15 715q0 13 7.5 21t21.5 8q13 0 21 -8t8 -21q0 -14 -8 -21.5t-21 -7.5q-29 0 -29 29zM77 715q0 13 7.5 21t21.5 8q13 0 21 -8
t8 -21q0 -14 -8 -21.5t-21 -7.5q-29 0 -29 29z" />
    <glyph glyph-name="ntilde" unicode="&#xf1;" horiz-adv-x="254" 
d="M29 26q0 15 1.5 59t2.5 103t2 126.5t0.5 130.5t-3.5 115t-9 80q-5 22 4.5 29.5t20.5 7.5q7 0 12 -5t8.5 -12t6 -14.5t5.5 -13.5q3 0 9 6t16 13.5t23 14.5t30 8q25 2 40 -33.5t22 -93t8 -130.5t0 -145.5t-3.5 -137t-2.5 -106.5q-2 -15 -10 -22t-17 -7.5t-16.5 5t-6.5 16.5
q5 130 7 226t1 163t-4 109t-7.5 65t-10.5 30.5t-12 6.5q-8 -2 -17.5 -8.5t-18 -15.5t-15.5 -18t-10 -15v-150.5t-0.5 -135t-1.5 -125.5t-1 -122q0 -17 -8.5 -24t-18 -7t-18 7.5t-8.5 19.5zM-13 704q-2 18 1 38.5t13 38t28.5 28.5t47.5 11q31 0 50 -11.5t32.5 -26t23.5 -27
t24 -14.5q7 -1 10 8t4 20.5t0.5 22t-0.5 13.5q-1 8 6 12.5t16 5t17 -3t10 -12.5q2 -18 1.5 -38.5t-6.5 -38t-19 -29.5t-36 -12q-27 0 -43 13t-29 29t-27 28t-36 11q-14 -1 -22.5 -7t-13 -15.5t-5 -20.5t1.5 -21q1 -7 -5.5 -12t-15.5 -6t-17.5 2.5t-10.5 13.5z" />
    <glyph glyph-name="ograve" unicode="&#xf2;" horiz-adv-x="222" 
d="M26 90q-4 57 -5.5 116.5t-0.5 117.5t2.5 111t3.5 95q4 77 32 114.5t62 36.5q33 -1 59 -38.5t27 -112.5q1 -59 1 -122.5t-1 -123t-3 -110.5t-5 -84q-4 -44 -29 -67.5t-54 -23.5q-15 0 -30.5 6.5t-28 18.5t-21 29t-9.5 37zM157 530q0 51 -11.5 72.5t-25.5 22.5
q-16 1 -29.5 -21.5t-15.5 -73.5q-2 -56 -4 -118t-2 -120.5t1.5 -110t6.5 -86.5q3 -22 13 -32.5t22 -10.5q13 0 24 11t13 29q4 39 6 90.5t2.5 110t0 119.5t-0.5 118zM63 759q-8 8 -6.5 18t8 16.5t17 7t20.5 -8.5l59 -58q7 -10 4.5 -19.5t-10 -15.5t-18 -6t-19.5 10z" />
    <glyph glyph-name="oacute" unicode="&#xf3;" horiz-adv-x="222" 
d="M26 90q-4 57 -5.5 116.5t-0.5 117.5t2.5 111t3.5 95q4 77 32 114.5t62 36.5q33 -1 59 -38.5t27 -112.5q1 -59 1 -122.5t-1 -123t-3 -110.5t-5 -84q-4 -44 -29 -67.5t-54 -23.5q-15 0 -30.5 6.5t-28 18.5t-21 29t-9.5 37zM157 530q0 51 -11.5 72.5t-25.5 22.5
q-16 1 -29.5 -21.5t-15.5 -73.5q-2 -56 -4 -118t-2 -120.5t1.5 -110t6.5 -86.5q3 -22 13 -32.5t22 -10.5q13 0 24 11t13 29q4 39 6 90.5t2.5 110t0 119.5t-0.5 118zM103 703q-9 -10 -19.5 -10t-18 6t-10 15.5t4.5 19.5l59 58q10 9 20.5 8.5t17 -7t8 -16.5t-6.5 -18z" />
    <glyph glyph-name="ocircumflex" unicode="&#xf4;" horiz-adv-x="222" 
d="M26 90q-4 57 -5.5 116.5t-0.5 117.5t2.5 111t3.5 95q4 77 32 114.5t62 36.5q33 -1 59 -38.5t27 -112.5q1 -59 1 -122.5t-1 -123t-3 -110.5t-5 -84q-4 -44 -29 -67.5t-54 -23.5q-15 0 -30.5 6.5t-28 18.5t-21 29t-9.5 37zM157 530q0 51 -11.5 72.5t-25.5 22.5
q-16 1 -29.5 -21.5t-15.5 -73.5q-2 -56 -4 -118t-2 -120.5t1.5 -110t6.5 -86.5q3 -22 13 -32.5t22 -10.5q13 0 24 11t13 29q4 39 6 90.5t2.5 110t0 119.5t-0.5 118zM77 812q3 9 12 12.5t19 3t19 -5t12 -12.5l42 -91q3 -12 -2.5 -20.5t-15 -11.5t-19.5 1t-14 16l-22 53
l-21 -53q-3 -11 -12 -14.5t-18.5 -2t-16.5 8.5t-6 18z" />
    <glyph glyph-name="otilde" unicode="&#xf5;" horiz-adv-x="222" 
d="M26 90q-4 57 -5.5 116.5t-0.5 117.5t2.5 111t3.5 95q4 77 32 114.5t62 36.5q33 -1 59 -38.5t27 -112.5q1 -59 1 -122.5t-1 -123t-3 -110.5t-5 -84q-4 -44 -29 -67.5t-54 -23.5q-15 0 -30.5 6.5t-28 18.5t-21 29t-9.5 37zM157 530q0 51 -11.5 72.5t-25.5 22.5
q-16 1 -29.5 -21.5t-15.5 -73.5q-2 -56 -4 -118t-2 -120.5t1.5 -110t6.5 -86.5q3 -22 13 -32.5t22 -10.5q13 0 24 11t13 29q4 39 6 90.5t2.5 110t0 119.5t-0.5 118zM-29 704q-2 18 1 38.5t13 38t28.5 28.5t47.5 11q31 0 50 -11.5t32.5 -26t23.5 -27t24 -14.5q7 -1 10 8
t4 20.5t0.5 22t-0.5 13.5q-1 8 6 12.5t16 5t17 -3t10 -12.5q2 -18 1.5 -38.5t-6.5 -38t-19 -29.5t-36 -12q-27 0 -43 13t-29 29t-27 28t-36 11q-14 -1 -22.5 -7t-13 -15.5t-5 -20.5t1.5 -21q1 -7 -5.5 -12t-15.5 -6t-17.5 2.5t-10.5 13.5z" />
    <glyph glyph-name="odieresis" unicode="&#xf6;" horiz-adv-x="222" 
d="M26 90q-4 57 -5.5 116.5t-0.5 117.5t2.5 111t3.5 95q4 77 32 114.5t62 36.5q33 -1 59 -38.5t27 -112.5q1 -59 1 -122.5t-1 -123t-3 -110.5t-5 -84q-4 -44 -29 -67.5t-54 -23.5q-15 0 -30.5 6.5t-28 18.5t-21 29t-9.5 37zM157 530q0 51 -11.5 72.5t-25.5 22.5
q-16 1 -29.5 -21.5t-15.5 -73.5q-2 -56 -4 -118t-2 -120.5t1.5 -110t6.5 -86.5q3 -22 13 -32.5t22 -10.5q13 0 24 11t13 29q4 39 6 90.5t2.5 110t0 119.5t-0.5 118zM36 715q0 13 7.5 21t21.5 8q13 0 21 -8t8 -21q0 -14 -8 -21.5t-21 -7.5q-29 0 -29 29zM128 715q0 13 7.5 21
t21.5 8q13 0 21 -8t8 -21q0 -14 -8 -21.5t-21 -7.5q-29 0 -29 29z" />
    <glyph glyph-name="divide" unicode="&#xf7;" horiz-adv-x="283" 
d="M165 284q0 -13 -7.5 -21t-21.5 -8q-13 0 -21 8t-8 21q0 14 8 21.5t21 7.5q29 0 29 -29zM168 432q0 -13 -7.5 -21t-21.5 -8q-13 0 -21 8t-8 21q0 14 8 21.5t21 7.5q29 0 29 -29zM38 331q-8 0 -12.5 8t-5 17.5t3.5 17t12 6.5l202 3q9 0 13 -7t3.5 -16t-5 -16.5t-13.5 -7.5z
" />
    <glyph glyph-name="oslash" unicode="&#xf8;" horiz-adv-x="222" 
d="M26 90q-4 57 -5.5 116.5t-0.5 117.5t2.5 111t3.5 95q4 77 32 114.5t62 36.5q8 0 16 -3l5 30q4 7 12.5 9t17 -0.5t14.5 -9t4 -15.5l-8 -53q24 -39 25 -109q1 -59 1 -122.5t-1 -123t-3 -110.5t-5 -84q-4 -44 -29 -67.5t-54 -23.5q-12 0 -27 5l-2 -13q-2 -8 -10.5 -10
t-17.5 0.5t-15.5 8t-3.5 13.5l5 35q-17 23 -18 52zM149 92q4 34 5.5 78.5t2 94.5t0.5 103.5v105.5l-62 -417q6 -5 17 -5q13 0 24 11t13 29zM75 530q-3 -76 -5.5 -160.5t-0.5 -157.5l59 410q-5 3 -8 3q-16 1 -29.5 -21.5t-15.5 -73.5z" />
    <glyph glyph-name="ugrave" unicode="&#xf9;" horiz-adv-x="232" 
d="M212 654q0 -15 -1 -62.5t-2 -112t-1.5 -138t-1 -140t0 -118t2.5 -72.5q1 -9 -6 -13.5t-16.5 -4.5t-17 3.5t-7.5 11.5l-3 29q-13 -13 -27 -23t-30 -12q-39 -4 -56 43.5t-22 134.5t-2.5 208.5t2.5 266.5q1 15 9.5 21t18 5.5t17 -7t6.5 -17.5q-1 -144 -1.5 -255t2.5 -186.5
t9.5 -115t20.5 -39.5q13 0 22 13t23 31q7 142 10.5 273.5t-1.5 270.5q0 16 8 23.5t17.5 7.5t17.5 -7t9 -19zM68 759q-8 8 -6.5 18t8 16.5t17 7t20.5 -8.5l59 -58q7 -10 4.5 -19.5t-10 -15.5t-18 -6t-19.5 10z" />
    <glyph glyph-name="uacute" unicode="&#xfa;" horiz-adv-x="232" 
d="M212 654q0 -15 -1 -62.5t-2 -112t-1.5 -138t-1 -140t0 -118t2.5 -72.5q1 -9 -6 -13.5t-16.5 -4.5t-17 3.5t-7.5 11.5l-3 29q-13 -13 -27 -23t-30 -12q-39 -4 -56 43.5t-22 134.5t-2.5 208.5t2.5 266.5q1 15 9.5 21t18 5.5t17 -7t6.5 -17.5q-1 -144 -1.5 -255t2.5 -186.5
t9.5 -115t20.5 -39.5q13 0 22 13t23 31q7 142 10.5 273.5t-1.5 270.5q0 16 8 23.5t17.5 7.5t17.5 -7t9 -19zM108 703q-9 -10 -19.5 -10t-18 6t-10 15.5t4.5 19.5l59 58q10 9 20.5 8.5t17 -7t8 -16.5t-6.5 -18z" />
    <glyph glyph-name="ucircumflex" unicode="&#xfb;" horiz-adv-x="232" 
d="M212 654q0 -15 -1 -62.5t-2 -112t-1.5 -138t-1 -140t0 -118t2.5 -72.5q1 -9 -6 -13.5t-16.5 -4.5t-17 3.5t-7.5 11.5l-3 29q-13 -13 -27 -23t-30 -12q-39 -4 -56 43.5t-22 134.5t-2.5 208.5t2.5 266.5q1 15 9.5 21t18 5.5t17 -7t6.5 -17.5q-1 -144 -1.5 -255t2.5 -186.5
t9.5 -115t20.5 -39.5q13 0 22 13t23 31q7 142 10.5 273.5t-1.5 270.5q0 16 8 23.5t17.5 7.5t17.5 -7t9 -19zM89 819q3 9 12 12.5t19 3t19 -5t12 -12.5l42 -91q3 -12 -2.5 -20.5t-15 -11.5t-19.5 1t-14 16l-22 53l-21 -53q-3 -11 -12 -14.5t-18.5 -2t-16.5 8.5t-6 18z" />
    <glyph glyph-name="udieresis" unicode="&#xfc;" horiz-adv-x="232" 
d="M212 654q0 -15 -1 -62.5t-2 -112t-1.5 -138t-1 -140t0 -118t2.5 -72.5q1 -9 -6 -13.5t-16.5 -4.5t-17 3.5t-7.5 11.5l-3 29q-13 -13 -27 -23t-30 -12q-39 -4 -56 43.5t-22 134.5t-2.5 208.5t2.5 266.5q1 15 9.5 21t18 5.5t17 -7t6.5 -17.5q-1 -144 -1.5 -255t2.5 -186.5
t9.5 -115t20.5 -39.5q13 0 22 13t23 31q7 142 10.5 273.5t-1.5 270.5q0 16 8 23.5t17.5 7.5t17.5 -7t9 -19zM42 721q0 13 7.5 21t21.5 8q13 0 21 -8t8 -21q0 -14 -8 -21.5t-21 -7.5q-29 0 -29 29zM134 721q0 13 7.5 21t21.5 8q13 0 21 -8t8 -21q0 -14 -8 -21.5t-21 -7.5
q-29 0 -29 29z" />
    <glyph glyph-name="yacute" unicode="&#xfd;" horiz-adv-x="268" 
d="M194 652q-2 13 6 19t18 6t18.5 -6t7.5 -17v-167t0.5 -140.5t1 -119.5t0.5 -104q0 -62 -3 -104.5t-13.5 -69.5t-29.5 -40t-51 -16q-21 -2 -46.5 7t-45.5 32q-6 9 -5 18.5t6 16t12.5 8.5t14.5 -3q10 -11 29 -21.5t38 -8.5q18 2 26.5 13.5t11.5 26.5t3 32v29
q-11 -20 -26.5 -27.5t-34.5 -7.5q-41 0 -62 46t-29 120q-6 52 -8.5 117t-2.5 132t1 130t2 113q0 6 7.5 10t17 4t17 -5t7.5 -15q0 -24 -1.5 -80.5t-2 -127t2 -144.5t9.5 -132q6 -52 18.5 -84.5t28.5 -30.5q7 1 15.5 6.5t17 15.5t14.5 25.5t7 35.5q7 122 4 251t-1 257z
M126 703q-9 -10 -19.5 -10t-18 6t-10 15.5t4.5 19.5l59 58q10 9 20.5 8.5t17 -7t8 -16.5t-6.5 -18z" />
    <glyph glyph-name="thorn" unicode="&#xfe;" horiz-adv-x="227" 
d="M16 -82q3 84 5.5 184t3.5 206t1 213.5t-1 205.5q1 9 7.5 14.5t14.5 6.5t15 -3t10 -14q0 -2 0.5 -12.5t0.5 -23t-0.5 -23.5t-0.5 -13q21 12 40.5 16t36 -1t29 -19.5t17.5 -39.5q6 -28 8.5 -77t2.5 -106.5t-2 -119.5t-6 -116.5t-9 -96t-10 -58.5q-6 -21 -20.5 -30.5
t-31 -11.5t-32.5 2t-27 10l-1 -91q0 -9 -7.5 -14.5t-16.5 -6t-17 3.5t-10 15zM68 68q7 -7 16 -11.5t18.5 -5.5t17.5 4t14 17q5 12 9.5 48.5t7.5 86.5t4 108t1 113t-2.5 101.5t-6.5 74.5q-2 15 -10.5 20t-20 2t-23.5 -11.5t-21 -18.5z" />
    <glyph glyph-name="ydieresis" unicode="&#xff;" horiz-adv-x="268" 
d="M194 652q-2 13 6 19t18 6t18.5 -6t7.5 -17v-167t0.5 -140.5t1 -119.5t0.5 -104q0 -62 -3 -104.5t-13.5 -69.5t-29.5 -40t-51 -16q-21 -2 -46.5 7t-45.5 32q-6 9 -5 18.5t6 16t12.5 8.5t14.5 -3q10 -11 29 -21.5t38 -8.5q18 2 26.5 13.5t11.5 26.5t3 32v29
q-11 -20 -26.5 -27.5t-34.5 -7.5q-41 0 -62 46t-29 120q-6 52 -8.5 117t-2.5 132t1 130t2 113q0 6 7.5 10t17 4t17 -5t7.5 -15q0 -24 -1.5 -80.5t-2 -127t2 -144.5t9.5 -132q6 -52 18.5 -84.5t28.5 -30.5q7 1 15.5 6.5t17 15.5t14.5 25.5t7 35.5q7 122 4 251t-1 257zM59 715
q0 13 7.5 21t21.5 8q13 0 21 -8t8 -21q0 -14 -8 -21.5t-21 -7.5q-29 0 -29 29zM151 715q0 13 7.5 21t21.5 8q13 0 21 -8t8 -21q0 -14 -8 -21.5t-21 -7.5q-29 0 -29 29z" />
    <glyph glyph-name="Amacron" unicode="&#x100;" horiz-adv-x="322" 
d="M27 23q-1 3 4 45t13 105.5t18.5 140.5t21 152.5t20.5 140t17 103.5q3 17 13.5 27.5t23.5 12t24 -6t16 -25.5q15 -70 27 -143t22 -143t18.5 -134.5t15.5 -118.5t12.5 -94.5t10.5 -62.5q0 -12 -7.5 -18.5t-17 -7t-18 4.5t-10.5 16l-35 267h-110l-30 -270q-3 -11 -11 -15.5
t-16 -3t-15 8.5t-7 19zM117 337h90q-1 7 -3.5 30.5t-6.5 55.5t-8.5 69t-9.5 72t-10 64t-9 45zM62 770q-8 0 -12 6.5t-5 15.5t2.5 17t12.5 10h202q9 0 13 -7t3.5 -16t-5 -16.5t-13.5 -7.5z" />
    <glyph glyph-name="amacron" unicode="&#x101;" 
d="M182 23q-16 -8 -25.5 -11t-26.5 -3q-27 1 -44 12t-27.5 29t-15.5 41t-7 47q-3 35 -4.5 79.5t-2 91t0.5 90.5t3 79q1 22 4.5 54.5t13 62.5t28.5 52.5t51 24.5q38 3 57 -26l2 20q1 10 9 15.5t18 6t18 -4.5t9 -17q-4 -151 -6 -272t-2 -205t1 -128t3 -41q-4 -8 -13.5 -13.5
t-18.5 -5.5q-18 0 -25 22zM80 467q-1 -11 -2 -47.5t-1.5 -83t0.5 -97t5 -89.5q1 -12 3 -27.5t7.5 -29.5t15.5 -23.5t28 -9.5q20 0 29.5 16.5t16.5 31.5l7 460q-3 8 -8 18t-11 18t-14.5 13.5t-19.5 4.5q-20 -2 -31 -20.5t-16 -43.5t-6.5 -50.5t-2.5 -40.5zM38 705
q-8 0 -12 6.5t-5 15.5t2.5 17t12.5 10h202q9 0 13 -7t3.5 -16t-5 -16.5t-13.5 -7.5z" />
    <glyph glyph-name="Abreve" unicode="&#x102;" horiz-adv-x="322" 
d="M27 23q-1 3 4 45t13 105.5t18.5 140.5t21 152.5t20.5 140t17 103.5q3 17 13.5 27.5t23.5 12t24 -6t16 -25.5q15 -70 27 -143t22 -143t18.5 -134.5t15.5 -118.5t12.5 -94.5t10.5 -62.5q0 -12 -7.5 -18.5t-17 -7t-18 4.5t-10.5 16l-35 267h-110l-30 -270q-3 -11 -11 -15.5
t-16 -3t-15 8.5t-7 19zM117 337h90q-1 7 -3.5 30.5t-6.5 55.5t-8.5 69t-9.5 72t-10 64t-9 45zM209 829q4 9 12.5 11.5t16.5 0t13 -9.5t1 -16q-11 -25 -38 -38t-57 -13t-56.5 14t-34.5 42q-2 8 3 13.5t12.5 7t15.5 -1t11 -9.5q8 -18 23 -24.5t31 -5t29 9.5t18 19z" />
    <glyph glyph-name="abreve" unicode="&#x103;" 
d="M182 23q-16 -8 -25.5 -11t-26.5 -3q-27 1 -44 12t-27.5 29t-15.5 41t-7 47q-3 35 -4.5 79.5t-2 91t0.5 90.5t3 79q1 22 4.5 54.5t13 62.5t28.5 52.5t51 24.5q38 3 57 -26l2 20q1 10 9 15.5t18 6t18 -4.5t9 -17q-4 -151 -6 -272t-2 -205t1 -128t3 -41q-4 -8 -13.5 -13.5
t-18.5 -5.5q-18 0 -25 22zM80 467q-1 -11 -2 -47.5t-1.5 -83t0.5 -97t5 -89.5q1 -12 3 -27.5t7.5 -29.5t15.5 -23.5t28 -9.5q20 0 29.5 16.5t16.5 31.5l7 460q-3 8 -8 18t-11 18t-14.5 13.5t-19.5 4.5q-20 -2 -31 -20.5t-16 -43.5t-6.5 -50.5t-2.5 -40.5zM180 747
q4 9 12.5 11.5t16.5 0t13 -9.5t1 -16q-11 -25 -38 -38t-57 -13t-56.5 14t-34.5 42q-2 8 3 13.5t12.5 7t15.5 -1t11 -9.5q8 -18 23 -24.5t31 -5t29 9.5t18 19z" />
    <glyph glyph-name="Aogonek" unicode="&#x104;" horiz-adv-x="322" 
d="M27 23q-1 3 4 45t13 105.5t18.5 140.5t21 152.5t20.5 140t17 103.5q3 17 13.5 27.5t23.5 12t24 -6t16 -25.5q15 -70 27 -143t22 -143t18.5 -134.5t15.5 -118.5t12.5 -94.5t10.5 -62.5q0 -12 -7.5 -18.5t-17 -7t-18 4.5t-10.5 16l-35 267h-110l-30 -270q-3 -11 -11 -15.5
t-16 -3t-15 8.5t-7 19zM117 337h90q-1 7 -3.5 30.5t-6.5 55.5t-8.5 69t-9.5 72t-10 64t-9 45zM293 43q-6 -9 -10 -19.5t-3.5 -21.5t6 -22t18.5 -21q5 -7 1 -13.5t-11.5 -10t-16.5 -3t-15 6.5q-15 18 -19 36t-0.5 34.5t11.5 30t16 20.5q6 5 11 4.5t9 -3.5t5 -8.5t-2 -9.5z
" />
    <glyph glyph-name="aogonek" unicode="&#x105;" 
d="M182 23q-16 -8 -25.5 -11t-26.5 -3q-27 1 -44 12t-27.5 29t-15.5 41t-7 47q-3 35 -4.5 79.5t-2 91t0.5 90.5t3 79q1 22 4.5 54.5t13 62.5t28.5 52.5t51 24.5q38 3 57 -26l2 20q1 10 9 15.5t18 6t18 -4.5t9 -17q-4 -151 -6 -272t-2 -205t1 -128t3 -41q-4 -8 -13.5 -13.5
t-18.5 -5.5q-18 0 -25 22zM80 467q-1 -11 -2 -47.5t-1.5 -83t0.5 -97t5 -89.5q1 -12 3 -27.5t7.5 -29.5t15.5 -23.5t28 -9.5q20 0 29.5 16.5t16.5 31.5l7 460q-3 8 -8 18t-11 18t-14.5 13.5t-19.5 4.5q-20 -2 -31 -20.5t-16 -43.5t-6.5 -50.5t-2.5 -40.5zM228 26
q-6 -9 -10 -19.5t-3.5 -21.5t6 -22t18.5 -21q5 -7 1 -13.5t-11.5 -10t-16.5 -3t-15 6.5q-15 18 -19 36t-0.5 34.5t11.5 30t16 20.5q6 5 11 4.5t9 -3.5t5 -8.5t-2 -9.5z" />
    <glyph glyph-name="Cacute" unicode="&#x106;" horiz-adv-x="249" 
d="M132 755q22 0 39 -11t28.5 -28t17 -38t5.5 -41q0 -9 -6.5 -17t-17.5 -8q-17 0 -22 14t-8 31t-9 31t-25 14q-12 0 -20 -7.5t-13 -18t-8.5 -22.5t-4.5 -21q-1 -5 -2 -32.5t-1.5 -86.5t-1 -152t-0.5 -228q0 -9 2.5 -23.5t8 -28t14.5 -23t22 -9.5q12 0 19.5 8.5t12 21t7.5 27
t7 27t9.5 20.5t15.5 8q23 0 23 -24q0 -20 -4.5 -44t-15.5 -45t-29 -35t-44 -14q-29 0 -48.5 16t-31 40.5t-16.5 52.5t-5 52q0 120 0.5 207.5t2 146t2.5 89t3 37.5q3 18 10 38.5t18.5 37t27.5 27.5t38 11zM117 785q-9 -10 -19.5 -10t-18 6t-10 15.5t4.5 19.5l59 58
q10 9 20.5 8.5t17 -7t8 -16.5t-6.5 -18z" />
    <glyph glyph-name="cacute" unicode="&#x107;" horiz-adv-x="246" 
d="M135 675q22 0 39 -11t28.5 -28t17 -38t5.5 -41q0 -9 -6.5 -17t-17.5 -8q-17 0 -22 14t-8 31t-9 31t-25 14q-12 0 -20 -7.5t-13 -18t-8.5 -22.5t-4.5 -21q-1 -5 -2.5 -20t-2.5 -59t-2 -124.5t-1 -215.5q0 -9 2.5 -23.5t8 -28t14.5 -23t22 -9.5q18 0 22.5 18t6.5 40t7 40
t25 18q23 0 23 -24q0 -20 -3 -44.5t-12 -46.5t-25.5 -36.5t-42.5 -14.5q-29 0 -48.5 16t-31 40.5t-16.5 52.5t-5 52q0 120 1 195t3 118.5t3.5 61.5t3.5 25q3 18 10 38.5t18.5 37t27.5 27.5t38 11zM120 703q-9 -10 -19.5 -10t-18 6t-10 15.5t4.5 19.5l59 58q10 9 20.5 8.5
t17 -7t8 -16.5t-6.5 -18z" />
    <glyph glyph-name="Ccircumflex" unicode="&#x108;" horiz-adv-x="249" 
d="M132 755q22 0 39 -11t28.5 -28t17 -38t5.5 -41q0 -9 -6.5 -17t-17.5 -8q-17 0 -22 14t-8 31t-9 31t-25 14q-12 0 -20 -7.5t-13 -18t-8.5 -22.5t-4.5 -21q-1 -5 -2 -32.5t-1.5 -86.5t-1 -152t-0.5 -228q0 -9 2.5 -23.5t8 -28t14.5 -23t22 -9.5q12 0 19.5 8.5t12 21t7.5 27
t7 27t9.5 20.5t15.5 8q23 0 23 -24q0 -20 -4.5 -44t-15.5 -45t-29 -35t-44 -14q-29 0 -48.5 16t-31 40.5t-16.5 52.5t-5 52q0 120 0.5 207.5t2 146t2.5 89t3 37.5q3 18 10 38.5t18.5 37t27.5 27.5t38 11zM91 894q3 9 12 12.5t19 3t19 -5t12 -12.5l42 -91q3 -12 -2.5 -20.5
t-15 -11.5t-19.5 1t-14 16l-22 53l-21 -53q-3 -11 -12 -14.5t-18.5 -2t-16.5 8.5t-6 18z" />
    <glyph glyph-name="ccircumflex" unicode="&#x109;" horiz-adv-x="247" 
d="M135 675q22 0 39 -11t28.5 -28t17 -38t5.5 -41q0 -9 -6.5 -17t-17.5 -8q-17 0 -22 14t-8 31t-9 31t-25 14q-12 0 -20 -7.5t-13 -18t-8.5 -22.5t-4.5 -21q-1 -5 -2.5 -20t-2.5 -59t-2 -124.5t-1 -215.5q0 -9 2.5 -23.5t8 -28t14.5 -23t22 -9.5q18 0 22.5 18t6.5 40t7 40
t25 18q23 0 23 -24q0 -20 -3 -44.5t-12 -46.5t-25.5 -36.5t-42.5 -14.5q-29 0 -48.5 16t-31 40.5t-16.5 52.5t-5 52q0 120 1 195t3 118.5t3.5 61.5t3.5 25q3 18 10 38.5t18.5 37t27.5 27.5t38 11zM90 812q3 9 12 12.5t19 3t19 -5t12 -12.5l42 -91q3 -12 -2.5 -20.5
t-15 -11.5t-19.5 1t-14 16l-22 53l-21 -53q-3 -11 -12 -14.5t-18.5 -2t-16.5 8.5t-6 18z" />
    <glyph glyph-name="Cdotaccent" unicode="&#x10a;" horiz-adv-x="249" 
d="M132 755q22 0 39 -11t28.5 -28t17 -38t5.5 -41q0 -9 -6.5 -17t-17.5 -8q-17 0 -22 14t-8 31t-9 31t-25 14q-12 0 -20 -7.5t-13 -18t-8.5 -22.5t-4.5 -21q-1 -5 -2 -32.5t-1.5 -86.5t-1 -152t-0.5 -228q0 -9 2.5 -23.5t8 -28t14.5 -23t22 -9.5q12 0 19.5 8.5t12 21t7.5 27
t7 27t9.5 20.5t15.5 8q23 0 23 -24q0 -20 -4.5 -44t-15.5 -45t-29 -35t-44 -14q-29 0 -48.5 16t-31 40.5t-16.5 52.5t-5 52q0 120 0.5 207.5t2 146t2.5 89t3 37.5q3 18 10 38.5t18.5 37t27.5 27.5t38 11zM95 795q0 13 7.5 21t21.5 8q13 0 21 -8t8 -21q0 -14 -8 -21.5
t-21 -7.5q-29 0 -29 29z" />
    <glyph glyph-name="cdotaccent" unicode="&#x10b;" horiz-adv-x="247" 
d="M135 675q22 0 39 -11t28.5 -28t17 -38t5.5 -41q0 -9 -6.5 -17t-17.5 -8q-17 0 -22 14t-8 31t-9 31t-25 14q-12 0 -20 -7.5t-13 -18t-8.5 -22.5t-4.5 -21q-1 -5 -2.5 -20t-2.5 -59t-2 -124.5t-1 -215.5q0 -9 2.5 -23.5t8 -28t14.5 -23t22 -9.5q18 0 22.5 18t6.5 40t7 40
t25 18q23 0 23 -24q0 -20 -3 -44.5t-12 -46.5t-25.5 -36.5t-42.5 -14.5q-29 0 -48.5 16t-31 40.5t-16.5 52.5t-5 52q0 120 1 195t3 118.5t3.5 61.5t3.5 25q3 18 10 38.5t18.5 37t27.5 27.5t38 11zM107 718q0 13 7.5 21t21.5 8q13 0 21 -8t8 -21q0 -14 -8 -21.5t-21 -7.5
q-29 0 -29 29z" />
    <glyph glyph-name="Ccaron" unicode="&#x10c;" horiz-adv-x="249" 
d="M132 755q22 0 39 -11t28.5 -28t17 -38t5.5 -41q0 -9 -6.5 -17t-17.5 -8q-17 0 -22 14t-8 31t-9 31t-25 14q-12 0 -20 -7.5t-13 -18t-8.5 -22.5t-4.5 -21q-1 -5 -2 -32.5t-1.5 -86.5t-1 -152t-0.5 -228q0 -9 2.5 -23.5t8 -28t14.5 -23t22 -9.5q12 0 19.5 8.5t12 21t7.5 27
t7 27t9.5 20.5t15.5 8q23 0 23 -24q0 -20 -4.5 -44t-15.5 -45t-29 -35t-44 -14q-29 0 -48.5 16t-31 40.5t-16.5 52.5t-5 52q0 120 0.5 207.5t2 146t2.5 89t3 37.5q3 18 10 38.5t18.5 37t27.5 27.5t38 11zM158 784q-3 -9 -12 -12.5t-19 -3t-19 5t-12 12.5l-42 91
q-3 12 2.5 20t15 11t19 -0.5t14.5 -15.5l22 -53l21 53q3 10 12 14t18.5 2.5t16.5 -8.5t6 -18z" />
    <glyph glyph-name="ccaron" unicode="&#x10d;" horiz-adv-x="249" 
d="M135 675q22 0 39 -11t28.5 -28t17 -38t5.5 -41q0 -9 -6.5 -17t-17.5 -8q-17 0 -22 14t-8 31t-9 31t-25 14q-12 0 -20 -7.5t-13 -18t-8.5 -22.5t-4.5 -21q-1 -5 -2.5 -20t-2.5 -59t-2 -124.5t-1 -215.5q0 -9 2.5 -23.5t8 -28t14.5 -23t22 -9.5q18 0 22.5 18t6.5 40t7 40
t25 18q23 0 23 -24q0 -20 -3 -44.5t-12 -46.5t-25.5 -36.5t-42.5 -14.5q-29 0 -48.5 16t-31 40.5t-16.5 52.5t-5 52q0 120 1 195t3 118.5t3.5 61.5t3.5 25q3 18 10 38.5t18.5 37t27.5 27.5t38 11zM148 704q-3 -9 -12 -12.5t-19 -3t-19 5t-12 12.5l-42 91q-3 12 2.5 20t15 11
t19 -0.5t14.5 -15.5l22 -53l21 53q3 10 12 14t18.5 2.5t16.5 -8.5t6 -18z" />
    <glyph glyph-name="Dcaron" unicode="&#x10e;" horiz-adv-x="286" 
d="M23 733q0 12 6 17.5t13.5 6.5t15.5 -3.5t13 -12.5q40 4 70 -10.5t51.5 -41.5t36 -62.5t23 -71.5t12 -70t3.5 -57q1 -67 -7 -129.5t-29.5 -116t-59 -96t-96.5 -69.5q-2 -12 -10.5 -17.5t-17.5 -5.5t-16.5 5.5t-7.5 16.5v717zM73 72q47 20 75.5 60.5t44 90t20.5 103t5 98.5
q0 19 -2.5 47.5t-8.5 59.5t-16 61.5t-26 53.5t-38.5 35t-52.5 7zM176 784q-3 -9 -12 -12.5t-19 -3t-19 5t-12 12.5l-42 91q-3 12 2.5 20t15 11t19 -0.5t14.5 -15.5l22 -53l21 53q3 10 12 14t18.5 2.5t16.5 -8.5t6 -18z" />
    <glyph glyph-name="dcaron" unicode="&#x10f;" horiz-adv-x="356" 
d="M188 21q-16 -8 -27.5 -10t-28.5 -4q-19 -2 -37 9.5t-32.5 34t-23.5 54.5t-9 71q0 95 4 186.5t18 189.5q3 18 8.5 36t15.5 32.5t25 24t35 11.5q41 3 60 -26v114q0 10 8 15.5t18 6t18.5 -4.5t9.5 -17q1 -149 -0.5 -282.5t-3 -233t-2.5 -156.5t1 -54q-4 -8 -13.5 -13.5
t-18.5 -5.5q-18 0 -25 22zM80 184q0 -14 1.5 -35.5t7.5 -41.5t17.5 -34.5t31.5 -14.5t31.5 16.5t18.5 31.5l7 446q-4 10 -11 21t-15.5 19.5t-18.5 12t-20 -2.5q-9 -5 -14.5 -14.5t-9.5 -19.5t-5.5 -18.5t-2.5 -12.5q0 -3 -3 -15.5t-6.5 -49.5t-6 -105t-2.5 -183zM280 650
q-7 7 -6 15.5t6.5 14.5t14.5 7t17 -8q9 -10 15 -26.5t6.5 -35.5t-5 -39t-19.5 -36q-7 -8 -16 -8.5t-16 4t-10 11.5t2 13q13 10 18.5 23t5.5 25.5t-3.5 23t-9.5 16.5z" />
    <glyph glyph-name="Dcroat" unicode="&#x110;" horiz-adv-x="286" 
d="M23 393h-34q-8 0 -12 6.5t-5 15.5t2.5 17t12.5 10h36v291q0 12 6 17.5t13.5 6.5t15.5 -3.5t13 -12.5q40 4 70 -10.5t51.5 -41.5t36 -62.5t23 -71.5t12 -70t3.5 -57q1 -67 -7 -129.5t-29.5 -116t-59 -96t-96.5 -69.5q-2 -12 -10.5 -17.5t-17.5 -5.5t-16.5 5.5t-7.5 16.5
v377zM73 442h90q9 0 13 -7t3.5 -16t-5 -16.5t-13.5 -7.5l-88 -1v-322q47 20 75.5 60.5t44 90t20.5 103t5 98.5q0 19 -2.5 47.5t-8.5 59.5t-16 61.5t-26 53.5t-38.5 35t-52.5 7z" />
    <glyph glyph-name="dcroat" unicode="&#x111;" horiz-adv-x="280" 
d="M188 21q-16 -8 -27.5 -10t-28.5 -4q-19 -2 -37 9.5t-32.5 34t-23.5 54.5t-9 71q0 95 4 186.5t18 189.5q3 18 8.5 36t15.5 32.5t25 24t35 11.5q41 3 60 -26v47h-26q-8 0 -12.5 6.5t-4.5 15t3.5 16t11.5 9.5h28v20q0 10 8 15.5t18 6t18.5 -4.5t9.5 -17v-18l33 1q9 0 13 -7
t3.5 -16t-5 -16.5t-13.5 -7.5l-31 -1q0 -138 -1.5 -259.5t-3 -212t-2 -141.5t1.5 -48q-4 -8 -13.5 -13.5t-18.5 -5.5q-18 0 -25 22zM80 184q0 -14 1.5 -35.5t7.5 -41.5t17.5 -34.5t31.5 -14.5t31.5 16.5t18.5 31.5l7 446q-4 10 -11 21t-15.5 19.5t-18.5 12t-20 -2.5
q-9 -5 -14.5 -14.5t-9.5 -19.5t-5.5 -18.5t-2.5 -12.5q0 -3 -3 -22t-6.5 -60t-6 -107.5t-2.5 -163.5z" />
    <glyph glyph-name="Emacron" unicode="&#x112;" horiz-adv-x="217" 
d="M23 691q0 24 4 37.5t10.5 20t14.5 8t15 1.5h19h32.5t32.5 -0.5t20 -0.5q13 0 19 -8t6 -17t-6 -16.5t-19 -7.5h-16.5t-29 -0.5t-29.5 -1t-19 -1.5q0 -15 -0.5 -50.5t-1 -75.5t-0.5 -76.5t2 -52.5l82 -1q9 0 13 -7.5t3.5 -16.5t-5 -17t-13.5 -9l-80 -3q-1 -11 -1.5 -34
t-1 -53.5t0 -65.5t1 -69.5t1 -66t0.5 -54.5l100 -3q8 0 12.5 -7.5t5 -16.5t-4 -16t-14.5 -7q-14 -3 -41.5 -2.5t-47.5 -0.5q-35 0 -47 11.5t-13 34.5zM11 770q-8 0 -12 6.5t-5 15.5t2.5 17t12.5 10h202q9 0 13 -7t3.5 -16t-5 -16.5t-13.5 -7.5z" />
    <glyph glyph-name="emacron" unicode="&#x113;" horiz-adv-x="242" 
d="M126 0q-24 -2 -41 18.5t-28.5 56t-18 82.5t-9 97.5t-2.5 101.5t2.5 95t6 77.5t6.5 48.5q11 48 31 76t51 29t49 -13.5t27 -36t11.5 -47t2.5 -47.5q0 -25 -14 -38t-34.5 -18.5t-43.5 -6t-42 0.5q-3 -14 -4.5 -51t-1 -84t3.5 -98t9.5 -93.5t16.5 -69.5t24 -26q10 1 17 19.5
t12 47.5t7.5 65t3.5 71t0 65t-4 48q0 8 7.5 12.5t16.5 4.5t17.5 -5t10.5 -16q1 -31 1.5 -69t-2 -78.5t-8.5 -79t-16.5 -69t-26.5 -49.5t-38 -21zM126 634q-12 -1 -20 -14t-13.5 -30.5t-7.5 -34.5t-2 -27q5 0 18 -1t27 -0.5t25 3.5t12 11q0 7 -0.5 23t-4 32t-11.5 28t-23 10z
M27 702q-8 0 -12 6.5t-5 15.5t2.5 17t12.5 10h202q9 0 13 -7t3.5 -16t-5 -16.5t-13.5 -7.5z" />
    <glyph glyph-name="Ebreve" unicode="&#x114;" horiz-adv-x="217" 
d="M23 691q0 24 4 37.5t10.5 20t14.5 8t15 1.5h19h32.5t32.5 -0.5t20 -0.5q13 0 19 -8t6 -17t-6 -16.5t-19 -7.5h-16.5t-29 -0.5t-29.5 -1t-19 -1.5q0 -15 -0.5 -50.5t-1 -75.5t-0.5 -76.5t2 -52.5l82 -1q9 0 13 -7.5t3.5 -16.5t-5 -17t-13.5 -9l-80 -3q-1 -11 -1.5 -34
t-1 -53.5t0 -65.5t1 -69.5t1 -66t0.5 -54.5l100 -3q8 0 12.5 -7.5t5 -16.5t-4 -16t-14.5 -7q-14 -3 -41.5 -2.5t-47.5 -0.5q-35 0 -47 11.5t-13 34.5zM158 829q4 9 12.5 11.5t16.5 0t13 -9.5t1 -16q-11 -25 -38 -38t-57 -13t-56.5 14t-34.5 42q-2 8 3 13.5t12.5 7t15.5 -1
t11 -9.5q8 -18 23 -24.5t31 -5t29 9.5t18 19z" />
    <glyph glyph-name="ebreve" unicode="&#x115;" horiz-adv-x="242" 
d="M126 0q-24 -2 -41 18.5t-28.5 56t-18 82.5t-9 97.5t-2.5 101.5t2.5 95t6 77.5t6.5 48.5q11 48 31 76t51 29t49 -13.5t27 -36t11.5 -47t2.5 -47.5q0 -25 -14 -38t-34.5 -18.5t-43.5 -6t-42 0.5q-3 -14 -4.5 -51t-1 -84t3.5 -98t9.5 -93.5t16.5 -69.5t24 -26q10 1 17 19.5
t12 47.5t7.5 65t3.5 71t0 65t-4 48q0 8 7.5 12.5t16.5 4.5t17.5 -5t10.5 -16q1 -31 1.5 -69t-2 -78.5t-8.5 -79t-16.5 -69t-26.5 -49.5t-38 -21zM126 634q-12 -1 -20 -14t-13.5 -30.5t-7.5 -34.5t-2 -27q5 0 18 -1t27 -0.5t25 3.5t12 11q0 7 -0.5 23t-4 32t-11.5 28t-23 10z
M173 779q4 9 12.5 11.5t16.5 0t13 -9.5t1 -16q-11 -25 -38 -38t-57 -13t-56.5 14t-34.5 42q-2 8 3 13.5t12.5 7t15.5 -1t11 -9.5q8 -18 23 -24.5t31 -5t29 9.5t18 19z" />
    <glyph glyph-name="Edotaccent" unicode="&#x116;" horiz-adv-x="217" 
d="M23 691q0 24 4 37.5t10.5 20t14.5 8t15 1.5h19h32.5t32.5 -0.5t20 -0.5q13 0 19 -8t6 -17t-6 -16.5t-19 -7.5h-16.5t-29 -0.5t-29.5 -1t-19 -1.5q0 -15 -0.5 -50.5t-1 -75.5t-0.5 -76.5t2 -52.5l82 -1q9 0 13 -7.5t3.5 -16.5t-5 -17t-13.5 -9l-80 -3q-1 -11 -1.5 -34
t-1 -53.5t0 -65.5t1 -69.5t1 -66t0.5 -54.5l100 -3q8 0 12.5 -7.5t5 -16.5t-4 -16t-14.5 -7q-14 -3 -41.5 -2.5t-47.5 -0.5q-35 0 -47 11.5t-13 34.5zM79 795q0 13 7.5 21t21.5 8q13 0 21 -8t8 -21q0 -14 -8 -21.5t-21 -7.5q-29 0 -29 29z" />
    <glyph glyph-name="edotaccent" unicode="&#x117;" horiz-adv-x="242" 
d="M126 0q-24 -2 -41 18.5t-28.5 56t-18 82.5t-9 97.5t-2.5 101.5t2.5 95t6 77.5t6.5 48.5q11 48 31 76t51 29t49 -13.5t27 -36t11.5 -47t2.5 -47.5q0 -25 -14 -38t-34.5 -18.5t-43.5 -6t-42 0.5q-3 -14 -4.5 -51t-1 -84t3.5 -98t9.5 -93.5t16.5 -69.5t24 -26q10 1 17 19.5
t12 47.5t7.5 65t3.5 71t0 65t-4 48q0 8 7.5 12.5t16.5 4.5t17.5 -5t10.5 -16q1 -31 1.5 -69t-2 -78.5t-8.5 -79t-16.5 -69t-26.5 -49.5t-38 -21zM126 634q-12 -1 -20 -14t-13.5 -30.5t-7.5 -34.5t-2 -27q5 0 18 -1t27 -0.5t25 3.5t12 11q0 7 -0.5 23t-4 32t-11.5 28t-23 10z
M92 727q0 13 7.5 21t21.5 8q13 0 21 -8t8 -21q0 -14 -8 -21.5t-21 -7.5q-29 0 -29 29z" />
    <glyph glyph-name="Eogonek" unicode="&#x118;" horiz-adv-x="217" 
d="M23 691q0 24 4 37.5t10.5 20t14.5 8t15 1.5h19h32.5t32.5 -0.5t20 -0.5q13 0 19 -8t6 -17t-6 -16.5t-19 -7.5h-16.5t-29 -0.5t-29.5 -1t-19 -1.5q0 -15 -0.5 -50.5t-1 -75.5t-0.5 -76.5t2 -52.5l82 -1q9 0 13 -7.5t3.5 -16.5t-5 -17t-13.5 -9l-80 -3q-1 -11 -1.5 -34
t-1 -53.5t0 -65.5t1 -69.5t1 -66t0.5 -54.5l100 -3q8 0 12.5 -7.5t5 -16.5t-4 -16t-14.5 -7q-14 -3 -41.5 -2.5t-47.5 -0.5q-35 0 -47 11.5t-13 34.5zM178 18q-6 -9 -10 -19.5t-3.5 -21.5t6 -22t18.5 -21q5 -7 1 -13.5t-11.5 -10t-16.5 -3t-15 6.5q-15 18 -19 36t-0.5 34.5
t11.5 30t16 20.5q6 5 11 4.5t9 -3.5t5 -8.5t-2 -9.5z" />
    <glyph glyph-name="eogonek" unicode="&#x119;" horiz-adv-x="242" 
d="M126 0q-24 -2 -41 18.5t-28.5 56t-18 82.5t-9 97.5t-2.5 101.5t2.5 95t6 77.5t6.5 48.5q11 48 31 76t51 29t49 -13.5t27 -36t11.5 -47t2.5 -47.5q0 -25 -14 -38t-34.5 -18.5t-43.5 -6t-42 0.5q-3 -14 -4.5 -51t-1 -84t3.5 -98t9.5 -93.5t16.5 -69.5t24 -26q10 1 17 19.5
t12 47.5t7.5 65t3.5 71t0 65t-4 48q0 8 7.5 12.5t16.5 4.5t17.5 -5t10.5 -16q1 -31 1.5 -69t-2 -78.5t-8.5 -79t-16.5 -69t-26.5 -49.5t-38 -21zM126 634q-12 -1 -20 -14t-13.5 -30.5t-7.5 -34.5t-2 -27q5 0 18 -1t27 -0.5t25 3.5t12 11q0 7 -0.5 23t-4 32t-11.5 28t-23 10z
M169 40q-6 -9 -10 -19.5t-3.5 -21.5t6 -22t18.5 -21q5 -7 1 -13.5t-11.5 -10t-16.5 -3t-15 6.5q-15 18 -19 36t-0.5 34.5t11.5 30t16 20.5q6 5 11 4.5t9 -3.5t5 -8.5t-2 -9.5z" />
    <glyph glyph-name="Ecaron" unicode="&#x11a;" horiz-adv-x="217" 
d="M23 691q0 24 4 37.5t10.5 20t14.5 8t15 1.5h19h32.5t32.5 -0.5t20 -0.5q13 0 19 -8t6 -17t-6 -16.5t-19 -7.5h-16.5t-29 -0.5t-29.5 -1t-19 -1.5q0 -15 -0.5 -50.5t-1 -75.5t-0.5 -76.5t2 -52.5l82 -1q9 0 13 -7.5t3.5 -16.5t-5 -17t-13.5 -9l-80 -3q-1 -11 -1.5 -34
t-1 -53.5t0 -65.5t1 -69.5t1 -66t0.5 -54.5l100 -3q8 0 12.5 -7.5t5 -16.5t-4 -16t-14.5 -7q-14 -3 -41.5 -2.5t-47.5 -0.5q-35 0 -47 11.5t-13 34.5zM142 784q-3 -9 -12 -12.5t-19 -3t-19 5t-12 12.5l-42 91q-3 12 2.5 20t15 11t19 -0.5t14.5 -15.5l22 -53l21 53
q3 10 12 14t18.5 2.5t16.5 -8.5t6 -18z" />
    <glyph glyph-name="ecaron" unicode="&#x11b;" horiz-adv-x="242" 
d="M126 0q-24 -2 -41 18.5t-28.5 56t-18 82.5t-9 97.5t-2.5 101.5t2.5 95t6 77.5t6.5 48.5q11 48 31 76t51 29t49 -13.5t27 -36t11.5 -47t2.5 -47.5q0 -25 -14 -38t-34.5 -18.5t-43.5 -6t-42 0.5q-3 -14 -4.5 -51t-1 -84t3.5 -98t9.5 -93.5t16.5 -69.5t24 -26q10 1 17 19.5
t12 47.5t7.5 65t3.5 71t0 65t-4 48q0 8 7.5 12.5t16.5 4.5t17.5 -5t10.5 -16q1 -31 1.5 -69t-2 -78.5t-8.5 -79t-16.5 -69t-26.5 -49.5t-38 -21zM126 634q-12 -1 -20 -14t-13.5 -30.5t-7.5 -34.5t-2 -27q5 0 18 -1t27 -0.5t25 3.5t12 11q0 7 -0.5 23t-4 32t-11.5 28t-23 10z
M156 715q-3 -9 -12 -12.5t-19 -3t-19 5t-12 12.5l-42 91q-3 12 2.5 20t15 11t19 -0.5t14.5 -15.5l22 -53l21 53q3 10 12 14t18.5 2.5t16.5 -8.5t6 -18z" />
    <glyph glyph-name="Gcircumflex" unicode="&#x11c;" horiz-adv-x="248" 
d="M130 2q-62 3 -85.5 94.5t-26.5 264.5q-3 204 32 300t93 96q28 0 44.5 -15t25 -36t11 -44.5t1.5 -40.5q0 -11 -8 -16.5t-17 -6t-16 3t-6 11.5q1 16 1.5 32t-2 29t-10.5 22t-24 11q-20 2 -34.5 -28.5t-24 -81t-14 -114.5t-4.5 -129q0 -57 4 -110.5t12 -95.5t19 -68t26 -28
q13 -2 25 24t20 72t11 109t-3 136l-58 -1q-10 1 -14 9t-4 16q0 11 6 16t15 7l47 1q19 0 29.5 -3t16 -10t6.5 -18.5t2 -29.5q1 -15 2 -49t-0.5 -76.5t-6.5 -88t-16 -82.5t-29 -60t-46 -22zM110 896q3 9 12 12.5t19 3t19 -5t12 -12.5l42 -91q3 -12 -2.5 -20.5t-15 -11.5
t-19.5 1t-14 16l-22 53l-21 -53q-3 -11 -12 -14.5t-18.5 -2t-16.5 8.5t-6 18z" />
    <glyph glyph-name="gcircumflex" unicode="&#x11d;" horiz-adv-x="288" 
d="M73 -68q-6 9 -5 18.5t6 16t12.5 8.5t14.5 -3q10 -11 29 -21.5t38 -8.5q18 2 26.5 13.5t11.5 26.5t3 32v29q-11 -20 -26.5 -27.5t-34.5 -7.5q-23 0 -40 12t-29 33t-20 50t-12 64q-5 40 -7.5 86.5t-2.5 92.5t1.5 87.5t4.5 72.5q2 27 7 58.5t17.5 58t36 43.5t62.5 14
q11 -1 21.5 -3.5t22.5 -6.5h2q5 0 11.5 1t12.5 0t10.5 -4t5.5 -12q-1 -150 2 -264.5t5 -198t0.5 -140t-11 -91t-29.5 -50.5t-54 -18q-21 -2 -46.5 7t-45.5 32zM170 631q-23 5 -38 -8.5t-23.5 -35t-12 -46t-4.5 -41.5q-2 -26 -3 -60.5t-1 -72t1.5 -76t4.5 -71.5
q2 -33 6.5 -62.5t11.5 -51t17 -33.5t24 -12q12 0 20 8t12.5 18.5t7 23t5.5 21.5q-1 103 1.5 213.5t2.5 214.5v55q-17 13 -32 16zM119 832q3 9 12 12.5t19 3t19 -5t12 -12.5l42 -91q3 -12 -2.5 -20.5t-15 -11.5t-19.5 1t-14 16l-22 53l-21 -53q-3 -11 -12 -14.5t-18.5 -2
t-16.5 8.5t-6 18z" />
    <glyph glyph-name="Gbreve" unicode="&#x11e;" horiz-adv-x="248" 
d="M130 2q-62 3 -85.5 94.5t-26.5 264.5q-3 204 32 300t93 96q28 0 44.5 -15t25 -36t11 -44.5t1.5 -40.5q0 -11 -8 -16.5t-17 -6t-16 3t-6 11.5q1 16 1.5 32t-2 29t-10.5 22t-24 11q-20 2 -34.5 -28.5t-24 -81t-14 -114.5t-4.5 -129q0 -57 4 -110.5t12 -95.5t19 -68t26 -28
q13 -2 25 24t20 72t11 109t-3 136l-58 -1q-10 1 -14 9t-4 16q0 11 6 16t15 7l47 1q19 0 29.5 -3t16 -10t6.5 -18.5t2 -29.5q1 -15 2 -49t-0.5 -76.5t-6.5 -88t-16 -82.5t-29 -60t-46 -22zM197 833q4 9 12.5 11.5t16.5 0t13 -9.5t1 -16q-11 -25 -38 -38t-57 -13t-56.5 14
t-34.5 42q-2 8 3 13.5t12.5 7t15.5 -1t11 -9.5q8 -18 23 -24.5t31 -5t29 9.5t18 19z" />
    <glyph glyph-name="gbreve" unicode="&#x11f;" horiz-adv-x="288" 
d="M73 -68q-6 9 -5 18.5t6 16t12.5 8.5t14.5 -3q10 -11 29 -21.5t38 -8.5q18 2 26.5 13.5t11.5 26.5t3 32v29q-11 -20 -26.5 -27.5t-34.5 -7.5q-23 0 -40 12t-29 33t-20 50t-12 64q-5 40 -7.5 86.5t-2.5 92.5t1.5 87.5t4.5 72.5q2 27 7 58.5t17.5 58t36 43.5t62.5 14
q11 -1 21.5 -3.5t22.5 -6.5h2q5 0 11.5 1t12.5 0t10.5 -4t5.5 -12q-1 -150 2 -264.5t5 -198t0.5 -140t-11 -91t-29.5 -50.5t-54 -18q-21 -2 -46.5 7t-45.5 32zM170 631q-23 5 -38 -8.5t-23.5 -35t-12 -46t-4.5 -41.5q-2 -26 -3 -60.5t-1 -72t1.5 -76t4.5 -71.5
q2 -33 6.5 -62.5t11.5 -51t17 -33.5t24 -12q12 0 20 8t12.5 18.5t7 23t5.5 21.5q-1 103 1.5 213.5t2.5 214.5v55q-17 13 -32 16zM204 763q4 9 12.5 11.5t16.5 0t13 -9.5t1 -16q-11 -25 -38 -38t-57 -13t-56.5 14t-34.5 42q-2 8 3 13.5t12.5 7t15.5 -1t11 -9.5
q8 -18 23 -24.5t31 -5t29 9.5t18 19z" />
    <glyph glyph-name="Gdotaccent" unicode="&#x120;" horiz-adv-x="248" 
d="M130 2q-62 3 -85.5 94.5t-26.5 264.5q-3 204 32 300t93 96q28 0 44.5 -15t25 -36t11 -44.5t1.5 -40.5q0 -11 -8 -16.5t-17 -6t-16 3t-6 11.5q1 16 1.5 32t-2 29t-10.5 22t-24 11q-20 2 -34.5 -28.5t-24 -81t-14 -114.5t-4.5 -129q0 -57 4 -110.5t12 -95.5t19 -68t26 -28
q13 -2 25 24t20 72t11 109t-3 136l-58 -1q-10 1 -14 9t-4 16q0 11 6 16t15 7l47 1q19 0 29.5 -3t16 -10t6.5 -18.5t2 -29.5q1 -15 2 -49t-0.5 -76.5t-6.5 -88t-16 -82.5t-29 -60t-46 -22zM111 802q0 13 7.5 21t21.5 8q13 0 21 -8t8 -21q0 -14 -8 -21.5t-21 -7.5
q-29 0 -29 29z" />
    <glyph glyph-name="gdotaccent" unicode="&#x121;" horiz-adv-x="288" 
d="M73 -68q-6 9 -5 18.5t6 16t12.5 8.5t14.5 -3q10 -11 29 -21.5t38 -8.5q18 2 26.5 13.5t11.5 26.5t3 32v29q-11 -20 -26.5 -27.5t-34.5 -7.5q-23 0 -40 12t-29 33t-20 50t-12 64q-5 40 -7.5 86.5t-2.5 92.5t1.5 87.5t4.5 72.5q2 27 7 58.5t17.5 58t36 43.5t62.5 14
q11 -1 21.5 -3.5t22.5 -6.5h2q5 0 11.5 1t12.5 0t10.5 -4t5.5 -12q-1 -150 2 -264.5t5 -198t0.5 -140t-11 -91t-29.5 -50.5t-54 -18q-21 -2 -46.5 7t-45.5 32zM170 631q-23 5 -38 -8.5t-23.5 -35t-12 -46t-4.5 -41.5q-2 -26 -3 -60.5t-1 -72t1.5 -76t4.5 -71.5
q2 -33 6.5 -62.5t11.5 -51t17 -33.5t24 -12q12 0 20 8t12.5 18.5t7 23t5.5 21.5q-1 103 1.5 213.5t2.5 214.5v55q-17 13 -32 16zM115 727q0 13 7.5 21t21.5 8q13 0 21 -8t8 -21q0 -14 -8 -21.5t-21 -7.5q-29 0 -29 29z" />
    <glyph glyph-name="Gcommaaccent" unicode="&#x122;" horiz-adv-x="248" 
d="M130 2q-62 3 -85.5 94.5t-26.5 264.5q-3 204 32 300t93 96q28 0 44.5 -15t25 -36t11 -44.5t1.5 -40.5q0 -11 -8 -16.5t-17 -6t-16 3t-6 11.5q1 16 1.5 32t-2 29t-10.5 22t-24 11q-20 2 -34.5 -28.5t-24 -81t-14 -114.5t-4.5 -129q0 -57 4 -110.5t12 -95.5t19 -68t26 -28
q13 -2 25 24t20 72t11 109t-3 136l-58 -1q-10 1 -14 9t-4 16q0 11 6 16t15 7l47 1q19 0 29.5 -3t16 -10t6.5 -18.5t2 -29.5q1 -15 2 -49t-0.5 -76.5t-6.5 -88t-16 -82.5t-29 -60t-46 -22zM116 -52q-7 7 -5.5 15.5t8 14.5t16 7t17.5 -8q9 -10 15 -26t7 -34.5t-5.5 -38.5
t-21.5 -38q-6 -6 -14 -6.5t-15 2.5t-11 9.5t-2 14.5q13 10 18.5 23t5.5 25.5t-3.5 23t-9.5 16.5z" />
    <glyph glyph-name="gcommaaccent" unicode="&#x123;" horiz-adv-x="288" 
d="M73 -68q-6 9 -5 18.5t6 16t12.5 8.5t14.5 -3q10 -11 29 -21.5t38 -8.5q18 2 26.5 13.5t11.5 26.5t3 32v29q-11 -20 -26.5 -27.5t-34.5 -7.5q-23 0 -40 12t-29 33t-20 50t-12 64q-5 40 -7.5 86.5t-2.5 92.5t1.5 87.5t4.5 72.5q2 27 7 58.5t17.5 58t36 43.5t62.5 14
q11 -1 21.5 -3.5t22.5 -6.5h2q5 0 11.5 1t12.5 0t10.5 -4t5.5 -12q-1 -150 2 -264.5t5 -198t0.5 -140t-11 -91t-29.5 -50.5t-54 -18q-21 -2 -46.5 7t-45.5 32zM170 631q-23 5 -38 -8.5t-23.5 -35t-12 -46t-4.5 -41.5q-2 -26 -3 -60.5t-1 -72t1.5 -76t4.5 -71.5
q2 -33 6.5 -62.5t11.5 -51t17 -33.5t24 -12q12 0 20 8t12.5 18.5t7 23t5.5 21.5q-1 103 1.5 213.5t2.5 214.5v55q-17 13 -32 16zM175 747q7 -7 6 -15.5t-6.5 -14.5t-14.5 -7t-17 8q-9 10 -15 26.5t-6.5 35.5t5 39t19.5 36q7 8 16 8.5t16 -4t10 -11.5t-2 -13
q-13 -11 -18.5 -23.5t-5.5 -25t3.5 -23t9.5 -16.5z" />
    <glyph glyph-name="Hcircumflex" unicode="&#x124;" horiz-adv-x="294" 
d="M191 8q-1 10 -1 45v86t1 114t1 130l-107 -2q1 -111 -1 -205.5t-4 -163.5q1 -8 -7 -12.5t-18 -5t-17.5 3.5t-6.5 12q1 21 2.5 58.5t2 86.5t0.5 106.5v118.5h-14q-8 0 -12.5 8t-5 17.5t3.5 17t12 6.5h16q-1 85 -3 166t-4 147q2 8 9 12t15.5 4t15 -4.5t7.5 -13.5
q4 -80 6 -158t3 -153l107 2q1 85 0 166t-3 143q2 8 9 12t15.5 4t15 -4.5t7.5 -13.5q2 -77 2.5 -153t-0.5 -154l21 1q8 -2 12 -9.5t4 -16t-4.5 -15t-13.5 -6.5l-20 -1q-1 -94 -1 -187t4 -187q1 -8 -7 -12.5t-18 -5t-17.5 3.5t-6.5 12zM97 895q3 9 12 12.5t19 3t19 -5
t12 -12.5l42 -91q3 -12 -2.5 -20.5t-15 -11.5t-19.5 1t-14 16l-22 53l-21 -53q-3 -11 -12 -14.5t-18.5 -2t-16.5 8.5t-6 18z" />
    <glyph glyph-name="hcircumflex" unicode="&#x125;" horiz-adv-x="250" 
d="M170 10q1 49 2.5 108.5t3 124t2 132t0.5 133.5q0 24 -2 52.5t-11.5 46t-28.5 17.5t-53 -32l-7 -580q0 -8 -6.5 -11t-15 -2.5t-16 5t-9.5 10.5q1 24 2 82t1.5 131.5t0.5 155t0.5 153.5t0.5 126v73q1 12 9.5 18t18 5.5t17.5 -7t7 -17.5l2 -74q32 17 54.5 16t37.5 -13.5
t23.5 -33t12.5 -43.5t5 -45t1 -36q0 -55 -1 -116t-2 -124.5t-1.5 -128t0.5 -126.5q-1 -9 -8 -13t-16 -3.5t-16 4.5t-8 12zM95 899q3 9 12 12.5t19 3t19 -5t12 -12.5l42 -91q3 -12 -2.5 -20.5t-15 -11.5t-19.5 1t-14 16l-22 53l-21 -53q-3 -11 -12 -14.5t-18.5 -2t-16.5 8.5
t-6 18z" />
    <glyph glyph-name="Hbar" unicode="&#x126;" horiz-adv-x="294" 
d="M191 8q-1 10 -1 45v86t1 114t1 130l-107 -2q1 -111 -1 -205.5t-4 -163.5q1 -8 -7 -12.5t-18 -5t-17.5 3.5t-6.5 12q1 21 2.5 58.5t2 86.5t0.5 106.5v118.5h-14q-8 0 -12.5 8t-5 17.5t3.5 17t12 6.5h16q-1 85 -3 166t-4 147q2 8 9 12t15.5 4t15 -4.5t7.5 -13.5
q4 -80 6 -158t3 -153l107 2q1 85 0 166t-3 143q2 8 9 12t15.5 4t15 -4.5t7.5 -13.5q2 -77 2.5 -153t-0.5 -154l21 1q8 -2 12 -9.5t4 -16t-4.5 -15t-13.5 -6.5l-20 -1q-1 -94 -1 -187t4 -187q1 -8 -7 -12.5t-18 -5t-17.5 3.5t-6.5 12zM35 503q-8 0 -12 6.5t-5 15.5t2.5 17
t12.5 10h202q9 0 13 -7t3.5 -16t-5 -16.5t-13.5 -7.5z" />
    <glyph glyph-name="hbar" unicode="&#x127;" horiz-adv-x="250" 
d="M170 10q1 49 2.5 108.5t3 124t2 132t0.5 133.5q0 24 -2 52.5t-11.5 46t-28.5 17.5t-53 -32l-7 -580q0 -8 -6.5 -11t-15 -2.5t-16 5t-9.5 10.5q1 21 1.5 68.5t1 109t1 132t0.5 138v126.5v98h-18q-8 0 -12 6.5t-5 15.5t2.5 17t12.5 10h21q1 12 9 17.5t18 5.5t17.5 -6
t7.5 -17h22q9 0 13 -7t3.5 -16t-5 -16.5t-13.5 -7.5l-19 -1l1 -27q32 17 54.5 16t37.5 -13.5t23.5 -33t12.5 -43.5t5 -45t1 -36q0 -55 -1 -116t-2 -124.5t-1.5 -128t0.5 -126.5q-1 -9 -8 -13t-16 -3.5t-16 4.5t-8 12z" />
    <glyph glyph-name="Itilde" unicode="&#x128;" horiz-adv-x="113" 
d="M27 10q-1 12 -1 55.5t0.5 106t1 138.5t1 153t-0.5 150t-3 129q2 8 10 12t17 4t16 -4.5t8 -13.5q3 -91 2.5 -181.5t-1.5 -181.5t-1 -182.5t4 -182.5q1 -8 -7.5 -12.5t-19 -5t-19 3.5t-7.5 12zM-83 786q-2 18 1 38.5t13 38t28.5 28.5t47.5 11q31 0 50 -11.5t32.5 -26
t23.5 -27t24 -14.5q7 -1 10 8t4 20.5t0.5 22t-0.5 13.5q-1 8 6 12.5t16 5t17 -3t10 -12.5q2 -18 1.5 -38.5t-6.5 -38t-19 -29.5t-36 -12q-27 0 -43 13t-29 29t-27 28t-36 11q-14 -1 -22.5 -7t-13 -15.5t-5 -20.5t1.5 -21q1 -7 -5.5 -12t-15.5 -6t-17.5 2.5t-10.5 13.5z" />
    <glyph glyph-name="itilde" unicode="&#x129;" horiz-adv-x="118" 
d="M35 651q0 9 8.5 15t16.5 6q12 0 18 -9t7 -20v-73t0.5 -104.5t1 -122t1 -125.5t1 -114t0.5 -88q-3 -12 -11 -16.5t-16.5 -3t-15 7.5t-6.5 16zM-81 704q-2 18 1 38.5t13 38t28.5 28.5t47.5 11q31 0 50 -11.5t32.5 -26t23.5 -27t24 -14.5q7 -1 10 8t4 20.5t0.5 22t-0.5 13.5
q-1 8 6 12.5t16 5t17 -3t10 -12.5q2 -18 1.5 -38.5t-6.5 -38t-19 -29.5t-36 -12q-27 0 -43 13t-29 29t-27 28t-36 11q-14 -1 -22.5 -7t-13 -15.5t-5 -20.5t1.5 -21q1 -7 -5.5 -12t-15.5 -6t-17.5 2.5t-10.5 13.5z" />
    <glyph glyph-name="Imacron" unicode="&#x12a;" horiz-adv-x="113" 
d="M27 10q-1 12 -1 55.5t0.5 106t1 138.5t1 153t-0.5 150t-3 129q2 8 10 12t17 4t16 -4.5t8 -13.5q3 -91 2.5 -181.5t-1.5 -181.5t-1 -182.5t4 -182.5q1 -8 -7.5 -12.5t-19 -5t-19 3.5t-7.5 12zM-41 770q-8 0 -12 6.5t-5 15.5t2.5 17t12.5 10h202q9 0 13 -7t3.5 -16
t-5 -16.5t-13.5 -7.5z" />
    <glyph glyph-name="imacron" unicode="&#x12b;" horiz-adv-x="118" 
d="M35 651q0 9 8.5 15t16.5 6q12 0 18 -9t7 -20v-73t0.5 -104.5t1 -122t1 -125.5t1 -114t0.5 -88q-3 -12 -11 -16.5t-16.5 -3t-15 7.5t-6.5 16zM-39 688q-8 0 -12 6.5t-5 15.5t2.5 17t12.5 10h202q9 0 13 -7t3.5 -16t-5 -16.5t-13.5 -7.5z" />
    <glyph glyph-name="Ibreve" unicode="&#x12c;" horiz-adv-x="113" 
d="M27 10q-1 12 -1 55.5t0.5 106t1 138.5t1 153t-0.5 150t-3 129q2 8 10 12t17 4t16 -4.5t8 -13.5q3 -91 2.5 -181.5t-1.5 -181.5t-1 -182.5t4 -182.5q1 -8 -7.5 -12.5t-19 -5t-19 3.5t-7.5 12zM107 835q4 9 12.5 11.5t16.5 0t13 -9.5t1 -16q-11 -25 -38 -38t-57 -13
t-56.5 14t-34.5 42q-2 8 3 13.5t12.5 7t15.5 -1t11 -9.5q8 -18 23 -24.5t31 -5t29 9.5t18 19z" />
    <glyph glyph-name="ibreve" unicode="&#x12d;" horiz-adv-x="118" 
d="M35 651q0 9 8.5 15t16.5 6q12 0 18 -9t7 -20v-73t0.5 -104.5t1 -122t1 -125.5t1 -114t0.5 -88q-3 -12 -11 -16.5t-16.5 -3t-15 7.5t-6.5 16zM108 747q4 9 12.5 11.5t16.5 0t13 -9.5t1 -16q-11 -25 -38 -38t-57 -13t-56.5 14t-34.5 42q-2 8 3 13.5t12.5 7t15.5 -1t11 -9.5
q8 -18 23 -24.5t31 -5t29 9.5t18 19z" />
    <glyph glyph-name="Iogonek" unicode="&#x12e;" horiz-adv-x="113" 
d="M27 10q-1 12 -1 55.5t0.5 106t1 138.5t1 153t-0.5 150t-3 129q2 8 10 12t17 4t16 -4.5t8 -13.5q3 -91 2.5 -181.5t-1.5 -181.5t-1 -182.5t4 -182.5q1 -8 -7.5 -12.5t-19 -5t-19 3.5t-7.5 12zM63 18q-6 -9 -10 -19.5t-3.5 -21.5t6 -22t18.5 -21q5 -7 1 -13.5t-11.5 -10
t-16.5 -3t-15 6.5q-15 18 -19 36t-0.5 34.5t11.5 30t16 20.5q6 5 11 4.5t9 -3.5t5 -8.5t-2 -9.5z" />
    <glyph glyph-name="iogonek" unicode="&#x12f;" horiz-adv-x="118" 
d="M35 651q0 9 8.5 15t16.5 6q12 0 18 -9t7 -20v-73t0.5 -104.5t1 -122t1 -125.5t1 -114t0.5 -88q-3 -12 -11 -16.5t-16.5 -3t-15 7.5t-6.5 16zM33 723q0 13 7.5 21t21.5 8q13 0 21 -8t8 -21q0 -14 -8 -21.5t-21 -7.5q-29 0 -29 29zM77 21q-6 -9 -10 -19.5t-3.5 -21.5t6 -22
t18.5 -21q5 -7 1 -13.5t-11.5 -10t-16.5 -3t-15 6.5q-15 18 -19 36t-0.5 34.5t11.5 30t16 20.5q6 5 11 4.5t9 -3.5t5 -8.5t-2 -9.5z" />
    <glyph glyph-name="Idotaccent" unicode="&#x130;" horiz-adv-x="113" 
d="M27 10q-1 12 -1 55.5t0.5 106t1 138.5t1 153t-0.5 150t-3 129q2 8 10 12t17 4t16 -4.5t8 -13.5q3 -91 2.5 -181.5t-1.5 -181.5t-1 -182.5t4 -182.5q1 -8 -7.5 -12.5t-19 -5t-19 3.5t-7.5 12zM22 803q0 13 7.5 21t21.5 8q13 0 21 -8t8 -21q0 -14 -8 -21.5t-21 -7.5
q-29 0 -29 29z" />
    <glyph glyph-name="dotlessi" unicode="&#x131;" horiz-adv-x="118" 
d="M35 651q0 9 8.5 15t16.5 6q12 0 18 -9t7 -20v-73t0.5 -104.5t1 -122t1 -125.5t1 -114t0.5 -88q-3 -12 -11 -16.5t-16.5 -3t-15 7.5t-6.5 16z" />
    <glyph glyph-name="Jcircumflex" unicode="&#x134;" horiz-adv-x="258" 
d="M120 0q-38 0 -58.5 25t-30 59.5t-10.5 72t1 63.5q1 10 10 14.5t19.5 3.5t18 -6t6.5 -14q-2 -12 -3.5 -39.5t2 -56t13.5 -50t32 -20.5q11 1 21 6.5t17.5 27t13 65t8.5 119t3 189t-2 276.5q-2 10 6.5 16t19.5 6.5t20 -4.5t9 -18q-4 -175 -1.5 -312t-4.5 -231t-31 -143.5
t-79 -48.5zM173 894q3 9 12 12.5t19 3t19 -5t12 -12.5l42 -91q3 -12 -2.5 -20.5t-15 -11.5t-19.5 1t-14 16l-22 53l-21 -53q-3 -11 -12 -14.5t-18.5 -2t-16.5 8.5t-6 18z" />
    <glyph glyph-name="jcircumflex" unicode="&#x135;" horiz-adv-x="128" 
d="M-2 -104q-11 1 -17 10.5t-7 21t4.5 21t19.5 9.5q15 0 23 6t12.5 15t5.5 20t1 21q0 84 0.5 161t1 153.5t1 156t1.5 167.5q0 12 8 17.5t17.5 4.5t17.5 -7.5t7 -17.5v-126v-102.5t-0.5 -90.5t-1 -89.5t-0.5 -100.5v-122q0 -24 -4 -47.5t-14.5 -42t-29 -29.5t-46.5 -9z
M32 812q3 9 12 12.5t19 3t19 -5t12 -12.5l42 -91q3 -12 -2.5 -20.5t-15 -11.5t-19.5 1t-14 16l-22 53l-21 -53q-3 -11 -12 -14.5t-18.5 -2t-16.5 8.5t-6 18z" />
    <glyph glyph-name="Kcommaaccent" unicode="&#x136;" horiz-adv-x="298" 
d="M130 574l-48 -52l-8 -504q-1 -9 -8 -13.5t-15.5 -5t-16.5 3.5t-11 12q-1 6 -0.5 40.5t2 116t4 218.5t4.5 348q0 15 8 21t17 5t17 -6.5t8 -12.5v-147l131 160q7 8 16 8t15.5 -5t8.5 -14t-6 -19q-12 -16 -21.5 -27t-18.5 -21.5t-18 -22t-20 -27.5q21 -113 37 -194.5
t28 -149.5t21.5 -132.5t18.5 -142.5q0 -8 -8.5 -10.5t-13.5 -2.5q-9 0 -16.5 4t-8.5 14zM127 -33q-7 7 -5.5 15.5t8 14.5t16 7t17.5 -8q9 -10 15 -26t7 -34.5t-5.5 -38.5t-21.5 -38q-6 -6 -14 -6.5t-15 2.5t-11 9.5t-2 14.5q13 10 18.5 23t5.5 25.5t-3.5 23t-9.5 16.5z" />
    <glyph glyph-name="kcommaaccent" unicode="&#x137;" horiz-adv-x="230" 
d="M26 742q0 10 7 15t15 6t15 -3.5t9 -14.5v-189l82 120q6 4 14 3.5t14.5 -6t10 -14t0.5 -18.5l-93 -129q4 -6 11 -31.5t16 -64t19.5 -87t21.5 -101t21 -106.5t19 -102q0 -12 -7.5 -19t-16 -8.5t-16 2.5t-8.5 13q-11 64 -23.5 133.5t-25 131.5t-22.5 110t-16 69
q0 -29 1.5 -84.5t3 -119t2.5 -126.5t0 -108q0 -8 -8 -14t-17 -8t-17 0.5t-9 10.5zM104 -14q-7 7 -5.5 15.5t8 14.5t16 7t17.5 -8q9 -10 15 -26t7 -34.5t-5.5 -38.5t-21.5 -38q-6 -6 -14 -6.5t-15 2.5t-11 9.5t-2 14.5q13 10 18.5 23t5.5 25.5t-3.5 23t-9.5 16.5z" />
    <glyph glyph-name="Lacute" unicode="&#x139;" horiz-adv-x="227" 
d="M27 737q0 12 8 19t17.5 7.5t17.5 -5.5t8 -21l-3 -686h119q9 0 14 -7.5t5 -17.5t-4.5 -18t-12.5 -8q-30 0 -61 -0.5t-66 1.5q-30 -1 -38.5 14t-8.5 39zM106 785q-9 -10 -19.5 -10t-18 6t-10 15.5t4.5 19.5l59 58q10 9 20.5 8.5t17 -7t8 -16.5t-6.5 -18z" />
    <glyph glyph-name="lacute" unicode="&#x13a;" horiz-adv-x="106" 
d="M31 10q-1 12 -1 55.5t0.5 106t1 138.5t1 153t-0.5 150t-3 129q2 8 9 12t15.5 4t15 -4.5t7.5 -13.5q3 -91 2.5 -181.5t-1.5 -181.5t-1 -182.5t4 -182.5q1 -8 -7 -12.5t-18 -5t-17.5 3.5t-6.5 12zM54 781q-9 -10 -19.5 -10t-18 6t-10 15.5t4.5 19.5l59 58q10 9 20.5 8.5
t17 -7t8 -16.5t-6.5 -18z" />
    <glyph glyph-name="Lcommaaccent" unicode="&#x13b;" horiz-adv-x="227" 
d="M27 737q0 12 8 19t17.5 7.5t17.5 -5.5t8 -21l-3 -686h119q9 0 14 -7.5t5 -17.5t-4.5 -18t-12.5 -8q-30 0 -61 -0.5t-66 1.5q-30 -1 -38.5 14t-8.5 39zM92 -61q-7 7 -5.5 15.5t8 14.5t16 7t17.5 -8q9 -10 15 -26t7 -34.5t-5.5 -38.5t-21.5 -38q-6 -6 -14 -6.5t-15 2.5
t-11 9.5t-2 14.5q13 10 18.5 23t5.5 25.5t-3.5 23t-9.5 16.5z" />
    <glyph glyph-name="lcommaaccent" unicode="&#x13c;" horiz-adv-x="106" 
d="M31 10q-1 12 -1 55.5t0.5 106t1 138.5t1 153t-0.5 150t-3 129q2 8 9 12t15.5 4t15 -4.5t7.5 -13.5q3 -91 2.5 -181.5t-1.5 -181.5t-1 -182.5t4 -182.5q1 -8 -7 -12.5t-18 -5t-17.5 3.5t-6.5 12zM37 -51q-7 7 -5.5 15.5t8 14.5t16 7t17.5 -8q9 -10 15 -26t7 -34.5
t-5.5 -38.5t-21.5 -38q-6 -6 -14 -6.5t-15 2.5t-11 9.5t-2 14.5q13 10 18.5 23t5.5 25.5t-3.5 23t-9.5 16.5z" />
    <glyph glyph-name="Lcaron" unicode="&#x13d;" horiz-adv-x="227" 
d="M27 737q0 12 8 19t17.5 7.5t17.5 -5.5t8 -21l-3 -686h119q9 0 14 -7.5t5 -17.5t-4.5 -18t-12.5 -8q-30 0 -61 -0.5t-66 1.5q-30 -1 -38.5 14t-8.5 39zM130 663q-7 7 -6 15.5t6.5 14.5t14.5 7t17 -8q9 -10 15 -26.5t6.5 -35.5t-5 -39t-19.5 -36q-7 -8 -16 -8.5t-16 4
t-10 11.5t2 13q13 10 18.5 23t5.5 25.5t-3.5 23t-9.5 16.5z" />
    <glyph glyph-name="lcaron" unicode="&#x13e;" horiz-adv-x="181" 
d="M31 10q-1 12 -1 55.5t0.5 106t1 138.5t1 153t-0.5 150t-3 129q2 8 9 12t15.5 4t15 -4.5t7.5 -13.5q3 -91 2.5 -181.5t-1.5 -181.5t-1 -182.5t4 -182.5q1 -8 -7 -12.5t-18 -5t-17.5 3.5t-6.5 12zM107 672q-7 7 -6 15.5t6.5 14.5t14.5 7t17 -8q9 -10 15 -26.5t6.5 -35.5
t-5 -39t-19.5 -36q-7 -8 -16 -8.5t-16 4t-10 11.5t2 13q13 10 18.5 23t5.5 25.5t-3.5 23t-9.5 16.5z" />
    <glyph glyph-name="Ldot" unicode="&#x13f;" horiz-adv-x="227" 
d="M27 737q0 12 8 19t17.5 7.5t17.5 -5.5t8 -21l-3 -686h119q9 0 14 -7.5t5 -17.5t-4.5 -18t-12.5 -8q-30 0 -61 -0.5t-66 1.5q-30 -1 -38.5 14t-8.5 39zM110 346q0 13 7.5 21t21.5 8q13 0 21 -8t8 -21q0 -14 -8 -21.5t-21 -7.5q-29 0 -29 29z" />
    <glyph glyph-name="ldot" unicode="&#x140;" horiz-adv-x="166" 
d="M31 10q-1 12 -1 55.5t0.5 106t1 138.5t1 153t-0.5 150t-3 129q2 8 9 12t15.5 4t15 -4.5t7.5 -13.5q3 -91 2.5 -181.5t-1.5 -181.5t-1 -182.5t4 -182.5q1 -8 -7 -12.5t-18 -5t-17.5 3.5t-6.5 12zM89 323q0 13 7.5 21t21.5 8q13 0 21 -8t8 -21q0 -14 -8 -21.5t-21 -7.5
q-29 0 -29 29z" />
    <glyph glyph-name="Lslash" unicode="&#x141;" horiz-adv-x="227" 
d="M24 313l-31 -13q-8 -4 -14.5 0.5t-10 12t-3 16t7.5 13.5l51 23l3 372q0 12 8 19t17.5 7.5t17.5 -5.5t8 -21l-2 -349l41 18q8 3 14.5 -2t9.5 -13t1.5 -17t-9.5 -13l-57 -25l-1 -285h119q9 0 14 -7.5t5 -17.5t-4.5 -18t-12.5 -8q-30 0 -61 -0.5t-66 1.5q-30 -1 -38.5 14
t-8.5 39z" />
    <glyph glyph-name="lslash" unicode="&#x142;" horiz-adv-x="181" 
d="M63 10q-1 9 -1 39v73.5t1 98.5t1 115l-18 -12q-7 -5 -14 -1.5t-12 10.5t-6 15.5t5 14.5l45 30v94.5v92.5t-1 86t-2 76q2 8 9 12t15.5 4t15 -4.5t7.5 -13.5q2 -80 2.5 -158.5t-0.5 -157.5l22 15q7 5 14 1.5t11.5 -11t5 -16.5t-6.5 -14l-47 -32q-1 -89 -1 -177.5t4 -177.5
q1 -8 -7 -12.5t-18 -5t-17.5 3.5t-6.5 12z" />
    <glyph glyph-name="Nacute" unicode="&#x143;" horiz-adv-x="368" 
d="M31 718q0 15 10.5 25.5t24 14t26.5 -2t19 -23.5l188 -616q-1 42 -3 117t-4 163t-3.5 177.5t-0.5 161.5q-1 13 7.5 20t19 7.5t19 -5.5t7.5 -20l5 -710q-3 -14 -14 -20t-23.5 -6t-22.5 5t-10 14l-196 645l4 -635q0 -11 -8.5 -17.5t-18.5 -7.5t-18.5 4.5t-9.5 17.5zM176 785
q-9 -10 -19.5 -10t-18 6t-10 15.5t4.5 19.5l59 58q10 9 20.5 8.5t17 -7t8 -16.5t-6.5 -18z" />
    <glyph glyph-name="nacute" unicode="&#x144;" horiz-adv-x="254" 
d="M29 26q0 15 1.5 59t2.5 103t2 126.5t0.5 130.5t-3.5 115t-9 80q-5 22 4.5 29.5t20.5 7.5q7 0 12 -5t8.5 -12t6 -14.5t5.5 -13.5q3 0 9 6t16 13.5t23 14.5t30 8q25 2 40 -33.5t22 -93t8 -130.5t0 -145.5t-3.5 -137t-2.5 -106.5q-2 -15 -10 -22t-17 -7.5t-16.5 5t-6.5 16.5
q5 130 7 226t1 163t-4 109t-7.5 65t-10.5 30.5t-12 6.5q-8 -2 -17.5 -8.5t-18 -15.5t-15.5 -18t-10 -15v-150.5t-0.5 -135t-1.5 -125.5t-1 -122q0 -17 -8.5 -24t-18 -7t-18 7.5t-8.5 19.5zM119 703q-9 -10 -19.5 -10t-18 6t-10 15.5t4.5 19.5l59 58q10 9 20.5 8.5t17 -7
t8 -16.5t-6.5 -18z" />
    <glyph glyph-name="Ncommaaccent" unicode="&#x145;" horiz-adv-x="368" 
d="M31 718q0 15 10.5 25.5t24 14t26.5 -2t19 -23.5l188 -616q-1 42 -3 117t-4 163t-3.5 177.5t-0.5 161.5q-1 13 7.5 20t19 7.5t19 -5.5t7.5 -20l5 -710q-3 -14 -14 -20t-23.5 -6t-22.5 5t-10 14l-196 645l4 -635q0 -11 -8.5 -17.5t-18.5 -7.5t-18.5 4.5t-9.5 17.5zM182 1
q-7 7 -5.5 15.5t8 14.5t16 7t17.5 -8q9 -10 15 -26t7 -34.5t-5.5 -38.5t-21.5 -38q-6 -6 -14 -6.5t-15 2.5t-11 9.5t-2 14.5q13 10 18.5 23t5.5 25.5t-3.5 23t-9.5 16.5z" />
    <glyph glyph-name="ncommaaccent" unicode="&#x146;" horiz-adv-x="254" 
d="M29 26q0 15 1.5 59t2.5 103t2 126.5t0.5 130.5t-3.5 115t-9 80q-5 22 4.5 29.5t20.5 7.5q7 0 12 -5t8.5 -12t6 -14.5t5.5 -13.5q3 0 9 6t16 13.5t23 14.5t30 8q25 2 40 -33.5t22 -93t8 -130.5t0 -145.5t-3.5 -137t-2.5 -106.5q-2 -15 -10 -22t-17 -7.5t-16.5 5t-6.5 16.5
q5 130 7 226t1 163t-4 109t-7.5 65t-10.5 30.5t-12 6.5q-8 -2 -17.5 -8.5t-18 -15.5t-15.5 -18t-10 -15v-150.5t-0.5 -135t-1.5 -125.5t-1 -122q0 -17 -8.5 -24t-18 -7t-18 7.5t-8.5 19.5zM103 -16q-7 7 -5.5 15.5t8 14.5t16 7t17.5 -8q9 -10 15 -26t7 -34.5t-5.5 -38.5
t-21.5 -38q-6 -6 -14 -6.5t-15 2.5t-11 9.5t-2 14.5q13 10 18.5 23t5.5 25.5t-3.5 23t-9.5 16.5z" />
    <glyph glyph-name="Ncaron" unicode="&#x147;" horiz-adv-x="368" 
d="M31 718q0 15 10.5 25.5t24 14t26.5 -2t19 -23.5l188 -616q-1 42 -3 117t-4 163t-3.5 177.5t-0.5 161.5q-1 13 7.5 20t19 7.5t19 -5.5t7.5 -20l5 -710q-3 -14 -14 -20t-23.5 -6t-22.5 5t-10 14l-196 645l4 -635q0 -11 -8.5 -17.5t-18.5 -7.5t-18.5 4.5t-9.5 17.5zM217 784
q-3 -9 -12 -12.5t-19 -3t-19 5t-12 12.5l-42 91q-3 12 2.5 20t15 11t19 -0.5t14.5 -15.5l22 -53l21 53q3 10 12 14t18.5 2.5t16.5 -8.5t6 -18z" />
    <glyph glyph-name="ncaron" unicode="&#x148;" horiz-adv-x="254" 
d="M29 26q0 15 1.5 59t2.5 103t2 126.5t0.5 130.5t-3.5 115t-9 80q-5 22 4.5 29.5t20.5 7.5q7 0 12 -5t8.5 -12t6 -14.5t5.5 -13.5q3 0 9 6t16 13.5t23 14.5t30 8q25 2 40 -33.5t22 -93t8 -130.5t0 -145.5t-3.5 -137t-2.5 -106.5q-2 -15 -10 -22t-17 -7.5t-16.5 5t-6.5 16.5
q5 130 7 226t1 163t-4 109t-7.5 65t-10.5 30.5t-12 6.5q-8 -2 -17.5 -8.5t-18 -15.5t-15.5 -18t-10 -15v-150.5t-0.5 -135t-1.5 -125.5t-1 -122q0 -17 -8.5 -24t-18 -7t-18 7.5t-8.5 19.5zM181 709q-3 -9 -12 -12.5t-19 -3t-19 5t-12 12.5l-42 91q-3 12 2.5 20t15 11
t19 -0.5t14.5 -15.5l22 -53l21 53q3 10 12 14t18.5 2.5t16.5 -8.5t6 -18z" />
    <glyph glyph-name="napostrophe" unicode="&#x149;" horiz-adv-x="254" 
d="M29 26q0 15 1.5 59t2.5 103t2 126.5t0.5 130.5t-3.5 115t-9 80q-5 22 4.5 29.5t20.5 7.5q7 0 12 -5t8.5 -12t6 -14.5t5.5 -13.5q3 0 9 6t16 13.5t23 14.5t30 8q25 2 40 -33.5t22 -93t8 -130.5t0 -145.5t-3.5 -137t-2.5 -106.5q-2 -15 -10 -22t-17 -7.5t-16.5 5t-6.5 16.5
q5 130 7 226t1 163t-4 109t-7.5 65t-10.5 30.5t-12 6.5q-8 -2 -17.5 -8.5t-18 -15.5t-15.5 -18t-10 -15v-150.5t-0.5 -135t-1.5 -125.5t-1 -122q0 -17 -8.5 -24t-18 -7t-18 7.5t-8.5 19.5zM28 805q-7 7 -5.5 15.5t8 14.5t16 7t17.5 -8q9 -10 15 -26t7 -34.5t-5.5 -38.5
t-21.5 -38q-6 -6 -14 -6.5t-15 2.5t-11 9.5t-2 14.5q13 10 18.5 23t5.5 25.5t-3.5 23t-9.5 16.5z" />
    <glyph glyph-name="Omacron" unicode="&#x14c;" horiz-adv-x="284" 
d="M143 -2q-30 0 -51 13t-34.5 34.5t-21 49.5t-10.5 59q-11 118 -9.5 224.5t11.5 193.5q4 36 12 68.5t21.5 58t33 41t48.5 17.5q28 1 49 -12.5t34.5 -38t21 -57.5t9.5 -69q4 -67 6.5 -119.5t2.5 -100.5t-2 -96.5t-6 -106.5q-3 -32 -9.5 -61t-19.5 -50.5t-34 -34.5t-52 -13z
M209 156q6 63 8.5 108.5t2 89.5t-3 94.5t-6.5 124.5q-2 27 -6.5 51t-13 41t-20 26.5t-26.5 8.5q-29 -3 -46 -38t-22 -84q-7 -65 -10.5 -116.5t-3.5 -99t3.5 -96t10.5 -108.5q3 -23 8 -44t13.5 -36.5t20.5 -24t28 -6.5q29 1 43.5 32.5t19.5 76.5zM43 770q-8 0 -12 6.5
t-5 15.5t2.5 17t12.5 10h202q9 0 13 -7t3.5 -16t-5 -16.5t-13.5 -7.5z" />
    <glyph glyph-name="omacron" unicode="&#x14d;" horiz-adv-x="222" 
d="M26 90q-4 57 -5.5 116.5t-0.5 117.5t2.5 111t3.5 95q4 77 32 114.5t62 36.5q33 -1 59 -38.5t27 -112.5q1 -59 1 -122.5t-1 -123t-3 -110.5t-5 -84q-4 -44 -29 -67.5t-54 -23.5q-15 0 -30.5 6.5t-28 18.5t-21 29t-9.5 37zM157 530q0 51 -11.5 72.5t-25.5 22.5
q-16 1 -29.5 -21.5t-15.5 -73.5q-2 -56 -4 -118t-2 -120.5t1.5 -110t6.5 -86.5q3 -22 13 -32.5t22 -10.5q13 0 24 11t13 29q4 39 6 90.5t2.5 110t0 119.5t-0.5 118zM16 705q-8 0 -12 6.5t-5 15.5t2.5 17t12.5 10h202q9 0 13 -7t3.5 -16t-5 -16.5t-13.5 -7.5z" />
    <glyph glyph-name="Obreve" unicode="&#x14e;" horiz-adv-x="284" 
d="M143 -2q-30 0 -51 13t-34.5 34.5t-21 49.5t-10.5 59q-11 118 -9.5 224.5t11.5 193.5q4 36 12 68.5t21.5 58t33 41t48.5 17.5q28 1 49 -12.5t34.5 -38t21 -57.5t9.5 -69q4 -67 6.5 -119.5t2.5 -100.5t-2 -96.5t-6 -106.5q-3 -32 -9.5 -61t-19.5 -50.5t-34 -34.5t-52 -13z
M209 156q6 63 8.5 108.5t2 89.5t-3 94.5t-6.5 124.5q-2 27 -6.5 51t-13 41t-20 26.5t-26.5 8.5q-29 -3 -46 -38t-22 -84q-7 -65 -10.5 -116.5t-3.5 -99t3.5 -96t10.5 -108.5q3 -23 8 -44t13.5 -36.5t20.5 -24t28 -6.5q29 1 43.5 32.5t19.5 76.5zM195 836q4 9 12.5 11.5
t16.5 0t13 -9.5t1 -16q-11 -25 -38 -38t-57 -13t-56.5 14t-34.5 42q-2 8 3 13.5t12.5 7t15.5 -1t11 -9.5q8 -18 23 -24.5t31 -5t29 9.5t18 19z" />
    <glyph glyph-name="obreve" unicode="&#x14f;" horiz-adv-x="222" 
d="M26 90q-4 57 -5.5 116.5t-0.5 117.5t2.5 111t3.5 95q4 77 32 114.5t62 36.5q33 -1 59 -38.5t27 -112.5q1 -59 1 -122.5t-1 -123t-3 -110.5t-5 -84q-4 -44 -29 -67.5t-54 -23.5q-15 0 -30.5 6.5t-28 18.5t-21 29t-9.5 37zM157 530q0 51 -11.5 72.5t-25.5 22.5
q-16 1 -29.5 -21.5t-15.5 -73.5q-2 -56 -4 -118t-2 -120.5t1.5 -110t6.5 -86.5q3 -22 13 -32.5t22 -10.5q13 0 24 11t13 29q4 39 6 90.5t2.5 110t0 119.5t-0.5 118zM160 775q4 9 12.5 11.5t16.5 0t13 -9.5t1 -16q-11 -25 -38 -38t-57 -13t-56.5 14t-34.5 42q-2 8 3 13.5
t12.5 7t15.5 -1t11 -9.5q8 -18 23 -24.5t31 -5t29 9.5t18 19z" />
    <glyph glyph-name="Ohungarumlaut" unicode="&#x150;" horiz-adv-x="284" 
d="M143 -2q-30 0 -51 13t-34.5 34.5t-21 49.5t-10.5 59q-11 118 -9.5 224.5t11.5 193.5q4 36 12 68.5t21.5 58t33 41t48.5 17.5q28 1 49 -12.5t34.5 -38t21 -57.5t9.5 -69q4 -67 6.5 -119.5t2.5 -100.5t-2 -96.5t-6 -106.5q-3 -32 -9.5 -61t-19.5 -50.5t-34 -34.5t-52 -13z
M209 156q6 63 8.5 108.5t2 89.5t-3 94.5t-6.5 124.5q-2 27 -6.5 51t-13 41t-20 26.5t-26.5 8.5q-29 -3 -46 -38t-22 -84q-7 -65 -10.5 -116.5t-3.5 -99t3.5 -96t10.5 -108.5q3 -23 8 -44t13.5 -36.5t20.5 -24t28 -6.5q29 1 43.5 32.5t19.5 76.5zM85 785q-9 -10 -19.5 -10
t-18 6t-10 15.5t4.5 19.5l59 58q10 9 20.5 8.5t17 -7t8 -16.5t-6.5 -18zM187 780q-9 -10 -19.5 -10t-18 6t-10 15.5t4.5 19.5l59 58q10 9 20.5 8.5t17 -7t8 -16.5t-6.5 -18z" />
    <glyph glyph-name="ohungarumlaut" unicode="&#x151;" horiz-adv-x="222" 
d="M26 90q-4 57 -5.5 116.5t-0.5 117.5t2.5 111t3.5 95q4 77 32 114.5t62 36.5q33 -1 59 -38.5t27 -112.5q1 -59 1 -122.5t-1 -123t-3 -110.5t-5 -84q-4 -44 -29 -67.5t-54 -23.5q-15 0 -30.5 6.5t-28 18.5t-21 29t-9.5 37zM157 530q0 51 -11.5 72.5t-25.5 22.5
q-16 1 -29.5 -21.5t-15.5 -73.5q-2 -56 -4 -118t-2 -120.5t1.5 -110t6.5 -86.5q3 -22 13 -32.5t22 -10.5q13 0 24 11t13 29q4 39 6 90.5t2.5 110t0 119.5t-0.5 118zM64 715q-9 -10 -19.5 -10t-18 6t-10 15.5t4.5 19.5l59 58q10 9 20.5 8.5t17 -7t8 -16.5t-6.5 -18zM166 710
q-9 -10 -19.5 -10t-18 6t-10 15.5t4.5 19.5l59 58q10 9 20.5 8.5t17 -7t8 -16.5t-6.5 -18z" />
    <glyph glyph-name="OE" unicode="&#x152;" horiz-adv-x="333" 
d="M156 2q-35 0 -61.5 30.5t-44 81.5t-26 116t-7.5 133.5t10 135.5t27.5 121t45.5 89.5t63 42.5q7 2 24.5 3t37 2t38 1t29.5 -1q13 0 19 -8t6 -17t-6 -16.5t-19 -7.5h-16.5t-29 -0.5t-29.5 -1t-19 -1.5q0 -15 -0.5 -50.5t-1 -75.5t-0.5 -76.5t2 -52.5l82 -1q9 0 13 -7.5
t3.5 -16.5t-5 -17t-13.5 -9l-80 -3q-2 -17 -2.5 -60t0 -95.5t1.5 -105t1 -87.5l100 2q8 0 12.5 -7.5t5 -16.5t-4 -16t-14.5 -7q-12 1 -30.5 1t-38.5 -0.5t-39 -1t-33 -0.5zM144 692q-36 -49 -55 -115t-25.5 -135.5t-1.5 -138t17.5 -123t30.5 -90t38 -39.5l-4 640v1z" />
    <glyph glyph-name="oe" unicode="&#x153;" horiz-adv-x="350" 
d="M234 0q-33 -2 -53 35q-12 -16 -28.5 -24t-33.5 -8q-15 0 -30.5 6.5t-28 18.5t-21 29t-9.5 37q-4 57 -5.5 116.5t-0.5 117.5t2.5 111t3.5 95q4 77 32 114.5t62 36.5q32 -2 56 -34q22 30 52 31q31 1 49 -13.5t27 -36t11.5 -47t2.5 -47.5q0 -25 -14 -38t-34.5 -18.5
t-43.5 -6t-42 0.5q-3 -14 -4.5 -51t-1 -84t3.5 -98t9.5 -93.5t16.5 -69.5t24 -26q10 1 17 19.5t12 47.5t7.5 65t3.5 71t0 65t-4 48q0 8 7.5 12.5t16.5 4.5t17.5 -5t10.5 -16q1 -31 1.5 -69t-2 -78.5t-8.5 -79t-16.5 -69t-26.5 -49.5t-38 -21zM153 96v8.5t1 8.5
q-8 38 -12.5 83.5t-6 92t-0.5 92.5t3 84.5t5.5 68t6.5 43.5q2 10 4 17q-5 18 -13.5 26t-16.5 9q-16 1 -29.5 -21.5t-15.5 -73.5q-2 -56 -4 -118t-2 -120.5t1.5 -110t6.5 -86.5q3 -22 13 -32.5t22 -10.5q13 0 24 11t13 29zM234 634q-12 -1 -20 -14t-13.5 -30.5t-7.5 -34.5
t-2 -27q5 0 18 -1t27 -0.5t25 3.5t12 11q0 7 -0.5 23t-4 32t-11.5 28t-23 10z" />
    <glyph glyph-name="Racute" unicode="&#x154;" horiz-adv-x="325" 
d="M24 13q3 57 5 142t3 182.5t0 200t-5 192.5q2 17 12 22.5t20.5 2.5t17 -13.5t1.5 -23.5q56 38 99.5 39t72.5 -24t41.5 -70.5t6.5 -99.5q-6 -53 -29.5 -93t-60.5 -63l1 -2.5t3.5 -13.5t7 -34t12.5 -66t19 -108.5t27 -160.5q0 -14 -7.5 -20t-16.5 -6t-17 5t-9 13l-68 380
q-22 -4 -40.5 -4t-34.5 -2l-7 -378q-4 -9 -13.5 -12.5t-19 -2t-16.5 6.5t-5 11zM85 444q30 -6 58 1t49.5 24t36 42.5t17.5 55.5q5 45 -4.5 78t-31 48t-53.5 8.5t-73 -41.5v-40v-67t0.5 -68t0.5 -41zM155 785q-9 -10 -19.5 -10t-18 6t-10 15.5t4.5 19.5l59 58q10 9 20.5 8.5
t17 -7t8 -16.5t-6.5 -18z" />
    <glyph glyph-name="racute" unicode="&#x155;" horiz-adv-x="186" 
d="M29 19v137.5v110.5v94t-1 89.5t-2.5 95.5t-3.5 112q0 12 8 17.5t18 4.5t17.5 -7t6.5 -17q21 10 44 12t48 -23q6 -5 7 -14t-2 -17t-9 -12t-15 1q-8 10 -28.5 14t-40.5 -14l5 -579q1 -12 -6.5 -19t-17 -7.5t-18.5 4.5t-10 17zM86 703q-9 -10 -19.5 -10t-18 6t-10 15.5
t4.5 19.5l59 58q10 9 20.5 8.5t17 -7t8 -16.5t-6.5 -18z" />
    <glyph glyph-name="Rcommaaccent" unicode="&#x156;" horiz-adv-x="325" 
d="M24 13q3 57 5 142t3 182.5t0 200t-5 192.5q2 17 12 22.5t20.5 2.5t17 -13.5t1.5 -23.5q56 38 99.5 39t72.5 -24t41.5 -70.5t6.5 -99.5q-6 -53 -29.5 -93t-60.5 -63l1 -2.5t3.5 -13.5t7 -34t12.5 -66t19 -108.5t27 -160.5q0 -14 -7.5 -20t-16.5 -6t-17 5t-9 13l-68 380
q-22 -4 -40.5 -4t-34.5 -2l-7 -378q-4 -9 -13.5 -12.5t-19 -2t-16.5 6.5t-5 11zM85 444q30 -6 58 1t49.5 24t36 42.5t17.5 55.5q5 45 -4.5 78t-31 48t-53.5 8.5t-73 -41.5v-40v-67t0.5 -68t0.5 -41zM125 -22q-7 7 -5.5 15.5t8 14.5t16 7t17.5 -8q9 -10 15 -26t7 -34.5
t-5.5 -38.5t-21.5 -38q-6 -6 -14 -6.5t-15 2.5t-11 9.5t-2 14.5q13 10 18.5 23t5.5 25.5t-3.5 23t-9.5 16.5z" />
    <glyph glyph-name="rcommaaccent" unicode="&#x157;" horiz-adv-x="184" 
d="M26 19v137.5v110.5v94t-1 89.5t-2.5 95.5t-3.5 112q0 12 8 17.5t18 4.5t17.5 -7t6.5 -17q21 10 44 12t48 -23q6 -5 7 -14t-2 -17t-9 -12t-15 1q-8 10 -28.5 14t-40.5 -14l5 -579q1 -12 -6.5 -19t-17 -7.5t-18.5 4.5t-10 17zM73 -40q-7 7 -5.5 15.5t8 14.5t16 7t17.5 -8
q9 -10 15 -26t7 -34.5t-5.5 -38.5t-21.5 -38q-6 -6 -14 -6.5t-15 2.5t-11 9.5t-2 14.5q13 10 18.5 23t5.5 25.5t-3.5 23t-9.5 16.5z" />
    <glyph glyph-name="Rcaron" unicode="&#x158;" horiz-adv-x="325" 
d="M24 13q3 57 5 142t3 182.5t0 200t-5 192.5q2 17 12 22.5t20.5 2.5t17 -13.5t1.5 -23.5q56 38 99.5 39t72.5 -24t41.5 -70.5t6.5 -99.5q-6 -53 -29.5 -93t-60.5 -63l1 -2.5t3.5 -13.5t7 -34t12.5 -66t19 -108.5t27 -160.5q0 -14 -7.5 -20t-16.5 -6t-17 5t-9 13l-68 380
q-22 -4 -40.5 -4t-34.5 -2l-7 -378q-4 -9 -13.5 -12.5t-19 -2t-16.5 6.5t-5 11zM85 444q30 -6 58 1t49.5 24t36 42.5t17.5 55.5q5 45 -4.5 78t-31 48t-53.5 8.5t-73 -41.5v-40v-67t0.5 -68t0.5 -41zM221 784q-3 -9 -12 -12.5t-19 -3t-19 5t-12 12.5l-42 91q-3 12 2.5 20
t15 11t19 -0.5t14.5 -15.5l22 -53l21 53q3 10 12 14t18.5 2.5t16.5 -8.5t6 -18z" />
    <glyph glyph-name="rcaron" unicode="&#x159;" horiz-adv-x="183" 
d="M26 19v137.5v110.5v94t-1 89.5t-2.5 95.5t-3.5 112q0 12 8 17.5t18 4.5t17.5 -7t6.5 -17q21 10 44 12t48 -23q6 -5 7 -14t-2 -17t-9 -12t-15 1q-8 10 -28.5 14t-40.5 -14l5 -579q1 -12 -6.5 -19t-17 -7.5t-18.5 4.5t-10 17zM126 702q-3 -9 -12 -12.5t-19 -3t-19 5
t-12 12.5l-42 91q-3 12 2.5 20t15 11t19 -0.5t14.5 -15.5l22 -53l21 53q3 10 12 14t18.5 2.5t16.5 -8.5t6 -18z" />
    <glyph glyph-name="Sacute" unicode="&#x15a;" horiz-adv-x="295" 
d="M144 0q-36 0 -60.5 17.5t-39 44.5t-18.5 59.5t1 62.5q1 12 9 17.5t17 4.5t16.5 -7t8.5 -18q-4 -37 2 -62t16.5 -40.5t23.5 -22t24 -6.5q32 0 50 18.5t23 47.5q6 36 0.5 66t-19 57.5t-34 54t-45.5 56.5q-17 19 -33 39.5t-28.5 45.5t-21 54.5t-8.5 66.5q0 31 4 66.5
t18 65.5t39 50t67 20q28 0 49 -14t34.5 -38t20.5 -55.5t7 -65.5q0 -13 -7.5 -19.5t-17 -7t-17 5.5t-7.5 18q0 35 -6 58t-15 37t-20.5 20t-23.5 6q-24 0 -39 -15.5t-23.5 -38t-11.5 -47t-3 -43.5q0 -27 7.5 -50.5t19.5 -44.5t26.5 -40t29.5 -37q23 -27 44 -55t36.5 -58
t24.5 -63.5t8 -72.5q-2 -60 -36.5 -99t-91.5 -39zM140 785q-9 -10 -19.5 -10t-18 6t-10 15.5t4.5 19.5l59 58q10 9 20.5 8.5t17 -7t8 -16.5t-6.5 -18z" />
    <glyph glyph-name="sacute" unicode="&#x15b;" horiz-adv-x="213" 
d="M32 163q0 17 9 24t19.5 6t18 -9t5.5 -20q-2 -10 -2.5 -28t2 -36t8.5 -32t17 -16q12 -2 18.5 20.5t9 55.5t1 69.5t-5.5 63.5q-4 25 -21 40t-35.5 30.5t-33.5 37.5t-15 60l1 137q0 20 5.5 40t17 35.5t28 25.5t37.5 10q10 0 21.5 -2.5t21.5 -15t16.5 -38.5t5.5 -73
q0 -8 -7 -12t-16 -4t-17 4t-9 12q1 33 -1 49.5t-5 23t-6 6.5h-5q-11 0 -18 -8t-11.5 -19t-6 -22.5t-1.5 -19.5l-1 -121q0 -25 13 -42t30.5 -31.5t34 -30t23.5 -36.5q4 -13 8 -39.5t5 -59.5t-1.5 -68t-11.5 -63.5t-25.5 -47.5t-42.5 -19q-29 0 -44.5 17t-23 42t-9 53t-1.5 51
zM99 703q-9 -10 -19.5 -10t-18 6t-10 15.5t4.5 19.5l59 58q10 9 20.5 8.5t17 -7t8 -16.5t-6.5 -18z" />
    <glyph glyph-name="Scircumflex" unicode="&#x15c;" horiz-adv-x="295" 
d="M144 0q-36 0 -60.5 17.5t-39 44.5t-18.5 59.5t1 62.5q1 12 9 17.5t17 4.5t16.5 -7t8.5 -18q-4 -37 2 -62t16.5 -40.5t23.5 -22t24 -6.5q32 0 50 18.5t23 47.5q6 36 0.5 66t-19 57.5t-34 54t-45.5 56.5q-17 19 -33 39.5t-28.5 45.5t-21 54.5t-8.5 66.5q0 31 4 66.5
t18 65.5t39 50t67 20q28 0 49 -14t34.5 -38t20.5 -55.5t7 -65.5q0 -13 -7.5 -19.5t-17 -7t-17 5.5t-7.5 18q0 35 -6 58t-15 37t-20.5 20t-23.5 6q-24 0 -39 -15.5t-23.5 -38t-11.5 -47t-3 -43.5q0 -27 7.5 -50.5t19.5 -44.5t26.5 -40t29.5 -37q23 -27 44 -55t36.5 -58
t24.5 -63.5t8 -72.5q-2 -60 -36.5 -99t-91.5 -39zM114 894q3 9 12 12.5t19 3t19 -5t12 -12.5l42 -91q3 -12 -2.5 -20.5t-15 -11.5t-19.5 1t-14 16l-22 53l-21 -53q-3 -11 -12 -14.5t-18.5 -2t-16.5 8.5t-6 18z" />
    <glyph glyph-name="scircumflex" unicode="&#x15d;" horiz-adv-x="213" 
d="M32 163q0 17 9 24t19.5 6t18 -9t5.5 -20q-2 -10 -2.5 -28t2 -36t8.5 -32t17 -16q12 -2 18.5 20.5t9 55.5t1 69.5t-5.5 63.5q-4 25 -21 40t-35.5 30.5t-33.5 37.5t-15 60l1 137q0 20 5.5 40t17 35.5t28 25.5t37.5 10q10 0 21.5 -2.5t21.5 -15t16.5 -38.5t5.5 -73
q0 -8 -7 -12t-16 -4t-17 4t-9 12q1 33 -1 49.5t-5 23t-6 6.5h-5q-11 0 -18 -8t-11.5 -19t-6 -22.5t-1.5 -19.5l-1 -121q0 -25 13 -42t30.5 -31.5t34 -30t23.5 -36.5q4 -13 8 -39.5t5 -59.5t-1.5 -68t-11.5 -63.5t-25.5 -47.5t-42.5 -19q-29 0 -44.5 17t-23 42t-9 53t-1.5 51
zM73 812q3 9 12 12.5t19 3t19 -5t12 -12.5l42 -91q3 -12 -2.5 -20.5t-15 -11.5t-19.5 1t-14 16l-22 53l-21 -53q-3 -11 -12 -14.5t-18.5 -2t-16.5 8.5t-6 18z" />
    <glyph glyph-name="Scedilla" unicode="&#x15e;" horiz-adv-x="295" 
d="M144 0q-36 0 -60.5 17.5t-39 44.5t-18.5 59.5t1 62.5q1 12 9 17.5t17 4.5t16.5 -7t8.5 -18q-4 -37 2 -62t16.5 -40.5t23.5 -22t24 -6.5q32 0 50 18.5t23 47.5q6 36 0.5 66t-19 57.5t-34 54t-45.5 56.5q-17 19 -33 39.5t-28.5 45.5t-21 54.5t-8.5 66.5q0 31 4 66.5
t18 65.5t39 50t67 20q28 0 49 -14t34.5 -38t20.5 -55.5t7 -65.5q0 -13 -7.5 -19.5t-17 -7t-17 5.5t-7.5 18q0 35 -6 58t-15 37t-20.5 20t-23.5 6q-24 0 -39 -15.5t-23.5 -38t-11.5 -47t-3 -43.5q0 -27 7.5 -50.5t19.5 -44.5t26.5 -40t29.5 -37q23 -27 44 -55t36.5 -58
t24.5 -63.5t8 -72.5q-2 -60 -36.5 -99t-91.5 -39zM131 -47q-8 -2 -12 -1t-5 7t0 18.5t1 32.5q0 8 8 12.5t17.5 5t17 -3.5t6.5 -12l-1 -23q21 -1 32 -17t10 -34.5t-15 -34t-44 -16.5q-11 0 -16 7.5t-5 16t4 14t12 2.5q12 1 17 6.5t3.5 11t-9.5 8.5t-21 0z" />
    <glyph glyph-name="scedilla" unicode="&#x15f;" horiz-adv-x="213" 
d="M32 163q0 17 9 24t19.5 6t18 -9t5.5 -20q-2 -10 -2.5 -28t2 -36t8.5 -32t17 -16q12 -2 18.5 20.5t9 55.5t1 69.5t-5.5 63.5q-4 25 -21 40t-35.5 30.5t-33.5 37.5t-15 60l1 137q0 20 5.5 40t17 35.5t28 25.5t37.5 10q10 0 21.5 -2.5t21.5 -15t16.5 -38.5t5.5 -73
q0 -8 -7 -12t-16 -4t-17 4t-9 12q1 33 -1 49.5t-5 23t-6 6.5h-5q-11 0 -18 -8t-11.5 -19t-6 -22.5t-1.5 -19.5l-1 -121q0 -25 13 -42t30.5 -31.5t34 -30t23.5 -36.5q4 -13 8 -39.5t5 -59.5t-1.5 -68t-11.5 -63.5t-25.5 -47.5t-42.5 -19q-29 0 -44.5 17t-23 42t-9 53t-1.5 51
zM98 -53q-8 -2 -12 -1t-5 7t0 18.5t1 32.5q0 8 8 12.5t17.5 5t17 -3.5t6.5 -12l-1 -23q21 -1 32 -17t10 -34.5t-15 -34t-44 -16.5q-11 0 -16 7.5t-5 16t4 14t12 2.5q12 1 17 6.5t3.5 11t-9.5 8.5t-21 0z" />
    <glyph glyph-name="Scaron" unicode="&#x160;" horiz-adv-x="295" 
d="M144 0q-36 0 -60.5 17.5t-39 44.5t-18.5 59.5t1 62.5q1 12 9 17.5t17 4.5t16.5 -7t8.5 -18q-4 -37 2 -62t16.5 -40.5t23.5 -22t24 -6.5q32 0 50 18.5t23 47.5q6 36 0.5 66t-19 57.5t-34 54t-45.5 56.5q-17 19 -33 39.5t-28.5 45.5t-21 54.5t-8.5 66.5q0 31 4 66.5
t18 65.5t39 50t67 20q28 0 49 -14t34.5 -38t20.5 -55.5t7 -65.5q0 -13 -7.5 -19.5t-17 -7t-17 5.5t-7.5 18q0 35 -6 58t-15 37t-20.5 20t-23.5 6q-24 0 -39 -15.5t-23.5 -38t-11.5 -47t-3 -43.5q0 -27 7.5 -50.5t19.5 -44.5t26.5 -40t29.5 -37q23 -27 44 -55t36.5 -58
t24.5 -63.5t8 -72.5q-2 -60 -36.5 -99t-91.5 -39zM181 784q-3 -9 -12 -12.5t-19 -3t-19 5t-12 12.5l-42 91q-3 12 2.5 20t15 11t19 -0.5t14.5 -15.5l22 -53l21 53q3 10 12 14t18.5 2.5t16.5 -8.5t6 -18z" />
    <glyph glyph-name="scaron" unicode="&#x161;" horiz-adv-x="213" 
d="M32 163q0 17 9 24t19.5 6t18 -9t5.5 -20q-2 -10 -2.5 -28t2 -36t8.5 -32t17 -16q12 -2 18.5 20.5t9 55.5t1 69.5t-5.5 63.5q-4 25 -21 40t-35.5 30.5t-33.5 37.5t-15 60l1 137q0 20 5.5 40t17 35.5t28 25.5t37.5 10q10 0 21.5 -2.5t21.5 -15t16.5 -38.5t5.5 -73
q0 -8 -7 -12t-16 -4t-17 4t-9 12q1 33 -1 49.5t-5 23t-6 6.5h-5q-11 0 -18 -8t-11.5 -19t-6 -22.5t-1.5 -19.5l-1 -121q0 -25 13 -42t30.5 -31.5t34 -30t23.5 -36.5q4 -13 8 -39.5t5 -59.5t-1.5 -68t-11.5 -63.5t-25.5 -47.5t-42.5 -19q-29 0 -44.5 17t-23 42t-9 53t-1.5 51
zM140 702q-3 -9 -12 -12.5t-19 -3t-19 5t-12 12.5l-42 91q-3 12 2.5 20t15 11t19 -0.5t14.5 -15.5l22 -53l21 53q3 10 12 14t18.5 2.5t16.5 -8.5t6 -18z" />
    <glyph glyph-name="Tcommaaccent" unicode="&#x162;" horiz-adv-x="327" 
d="M142 16v150.5t-0.5 160t-0.5 177.5v204h-102q-10 0 -16.5 7t-8 15t3 15.5t16.5 9.5q9 1 43.5 1t76 -1t80.5 -1t57 1q10 1 15 -7t5 -17.5t-5.5 -17t-16.5 -5.5h-95l-5 -690q-1 -9 -8.5 -14t-16.5 -5.5t-15.5 3.5t-6.5 14zM143 -53q-7 7 -5.5 15.5t8 14.5t16 7t17.5 -8
q9 -10 15 -26t7 -34.5t-5.5 -38.5t-21.5 -38q-6 -6 -14 -6.5t-15 2.5t-11 9.5t-2 14.5q13 10 18.5 23t5.5 25.5t-3.5 23t-9.5 16.5z" />
    <glyph glyph-name="tcommaaccent" unicode="&#x163;" horiz-adv-x="186" 
d="M66 15q0 128 0.5 223t0.5 162.5t-0.5 112t-0.5 71t-0.5 39t-0.5 17.5h-31q-8 -1 -12.5 6t-4.5 16t3.5 17t11.5 8h33v55q-1 10 6.5 14.5t17 4.5t18 -4t9.5 -13l1 -57h38q9 1 13 -6.5t4 -16.5t-4.5 -16.5t-11.5 -7.5h-38v-155v-162t0.5 -159.5t0.5 -145.5q0 -12 -9 -17
t-19.5 -4.5t-18.5 5.5t-6 13zM72 -48q-7 7 -5.5 15.5t8 14.5t16 7t17.5 -8q9 -10 15 -26t7 -34.5t-5.5 -38.5t-21.5 -38q-6 -6 -14 -6.5t-15 2.5t-11 9.5t-2 14.5q13 10 18.5 23t5.5 25.5t-3.5 23t-9.5 16.5z" />
    <glyph glyph-name="Tcaron" unicode="&#x164;" horiz-adv-x="327" 
d="M142 16v150.5t-0.5 160t-0.5 177.5v204h-102q-10 0 -16.5 7t-8 15t3 15.5t16.5 9.5q9 1 43.5 1t76 -1t80.5 -1t57 1q10 1 15 -7t5 -17.5t-5.5 -17t-16.5 -5.5h-95l-5 -690q-1 -9 -8.5 -14t-16.5 -5.5t-15.5 3.5t-6.5 14zM197 784q-3 -9 -12 -12.5t-19 -3t-19 5t-12 12.5
l-42 91q-3 12 2.5 20t15 11t19 -0.5t14.5 -15.5l22 -53l21 53q3 10 12 14t18.5 2.5t16.5 -8.5t6 -18z" />
    <glyph glyph-name="tcaron" unicode="&#x165;" horiz-adv-x="247" 
d="M66 15q0 128 0.5 223t0.5 162.5t-0.5 112t-0.5 71t-0.5 39t-0.5 17.5h-31q-8 -1 -12.5 6t-4.5 16t3.5 17t11.5 8h33v55q-1 10 6.5 14.5t17 4.5t18 -4t9.5 -13l1 -57h38q9 1 13 -6.5t4 -16.5t-4.5 -16.5t-11.5 -7.5h-38v-155v-162t0.5 -159.5t0.5 -145.5q0 -12 -9 -17
t-19.5 -4.5t-18.5 5.5t-6 13zM177 701q-7 7 -6 15.5t6.5 14.5t14.5 7t17 -8q9 -10 15 -26.5t6.5 -35.5t-5 -39t-19.5 -36q-7 -8 -16 -8.5t-16 4t-10 11.5t2 13q13 10 18.5 23t5.5 25.5t-3.5 23t-9.5 16.5z" />
    <glyph glyph-name="Tbar" unicode="&#x166;" horiz-adv-x="327" 
d="M142 16v150.5t-0.5 160t-0.5 177.5v204h-102q-10 0 -16.5 7t-8 15t3 15.5t16.5 9.5q9 1 43.5 1t76 -1t80.5 -1t57 1q10 1 15 -7t5 -17.5t-5.5 -17t-16.5 -5.5h-95l-5 -690q-1 -9 -8.5 -14t-16.5 -5.5t-15.5 3.5t-6.5 14zM68 621q-8 0 -12 6.5t-5 15.5t2.5 17t12.5 10h202
q9 0 13 -7t3.5 -16t-5 -16.5t-13.5 -7.5z" />
    <glyph glyph-name="tbar" unicode="&#x167;" horiz-adv-x="186" 
d="M66 15q0 120 0.5 211t0.5 157.5t-0.5 111.5t-0.5 74h-32q-8 0 -12 6.5t-5 15.5t2.5 17t12.5 10h34q0 8 -0.5 13.5t-0.5 8.5h-31q-8 -1 -12.5 6t-4.5 16t3.5 17t11.5 8h33v55q-1 10 6.5 14.5t17 4.5t18 -4t9.5 -13l1 -57h38q9 1 13 -6.5t4 -16.5t-4.5 -16.5t-11.5 -7.5
h-38v-22h37q9 0 13 -7t3.5 -16t-5 -16.5t-13.5 -7.5l-35 -1v-141v-143.5t0.5 -139.5t0.5 -128q0 -12 -9 -17t-19.5 -4.5t-18.5 5.5t-6 13z" />
    <glyph glyph-name="Utilde" unicode="&#x168;" horiz-adv-x="271" 
d="M249 732q-2 -191 -3.5 -328.5t-12 -227t-33.5 -133t-67 -44.5q-33 -1 -54 26.5t-33.5 77t-17 118.5t-6 151t-0.5 174t1 189q1 15 10.5 21t19.5 5.5t18 -7t7 -17.5q-1 -144 -1 -266.5t5 -213t17 -142.5t34 -54q18 -2 30.5 34.5t20.5 117t11 208.5t0 308q0 16 8 23.5
t18 6.5t18.5 -8t9.5 -19zM-4 786q-2 18 1 38.5t13 38t28.5 28.5t47.5 11q31 0 50 -11.5t32.5 -26t23.5 -27t24 -14.5q7 -1 10 8t4 20.5t0.5 22t-0.5 13.5q-1 8 6 12.5t16 5t17 -3t10 -12.5q2 -18 1.5 -38.5t-6.5 -38t-19 -29.5t-36 -12q-27 0 -43 13t-29 29t-27 28t-36 11
q-14 -1 -22.5 -7t-13 -15.5t-5 -20.5t1.5 -21q1 -7 -5.5 -12t-15.5 -6t-17.5 2.5t-10.5 13.5z" />
    <glyph glyph-name="utilde" unicode="&#x169;" horiz-adv-x="232" 
d="M212 654q0 -15 -1 -62.5t-2 -112t-1.5 -138t-1 -140t0 -118t2.5 -72.5q1 -9 -6 -13.5t-16.5 -4.5t-17 3.5t-7.5 11.5l-3 29q-13 -13 -27 -23t-30 -12q-39 -4 -56 43.5t-22 134.5t-2.5 208.5t2.5 266.5q1 15 9.5 21t18 5.5t17 -7t6.5 -17.5q-1 -144 -1.5 -255t2.5 -186.5
t9.5 -115t20.5 -39.5q13 0 22 13t23 31q7 142 10.5 273.5t-1.5 270.5q0 16 8 23.5t17.5 7.5t17.5 -7t9 -19zM-24 704q-2 18 1 38.5t13 38t28.5 28.5t47.5 11q31 0 50 -11.5t32.5 -26t23.5 -27t24 -14.5q7 -1 10 8t4 20.5t0.5 22t-0.5 13.5q-1 8 6 12.5t16 5t17 -3t10 -12.5
q2 -18 1.5 -38.5t-6.5 -38t-19 -29.5t-36 -12q-27 0 -43 13t-29 29t-27 28t-36 11q-14 -1 -22.5 -7t-13 -15.5t-5 -20.5t1.5 -21q1 -7 -5.5 -12t-15.5 -6t-17.5 2.5t-10.5 13.5z" />
    <glyph glyph-name="Umacron" unicode="&#x16a;" horiz-adv-x="271" 
d="M249 732q-2 -191 -3.5 -328.5t-12 -227t-33.5 -133t-67 -44.5q-33 -1 -54 26.5t-33.5 77t-17 118.5t-6 151t-0.5 174t1 189q1 15 10.5 21t19.5 5.5t18 -7t7 -17.5q-1 -144 -1 -266.5t5 -213t17 -142.5t34 -54q18 -2 30.5 34.5t20.5 117t11 208.5t0 308q0 16 8 23.5
t18 6.5t18.5 -8t9.5 -19zM38 770q-8 0 -12 6.5t-5 15.5t2.5 17t12.5 10h202q9 0 13 -7t3.5 -16t-5 -16.5t-13.5 -7.5z" />
    <glyph glyph-name="umacron" unicode="&#x16b;" horiz-adv-x="232" 
d="M212 654q0 -15 -1 -62.5t-2 -112t-1.5 -138t-1 -140t0 -118t2.5 -72.5q1 -9 -6 -13.5t-16.5 -4.5t-17 3.5t-7.5 11.5l-3 29q-13 -13 -27 -23t-30 -12q-39 -4 -56 43.5t-22 134.5t-2.5 208.5t2.5 266.5q1 15 9.5 21t18 5.5t17 -7t6.5 -17.5q-1 -144 -1.5 -255t2.5 -186.5
t9.5 -115t20.5 -39.5q13 0 22 13t23 31q7 142 10.5 273.5t-1.5 270.5q0 16 8 23.5t17.5 7.5t17.5 -7t9 -19zM17 698q-8 0 -12 6.5t-5 15.5t2.5 17t12.5 10h202q9 0 13 -7t3.5 -16t-5 -16.5t-13.5 -7.5z" />
    <glyph glyph-name="Ubreve" unicode="&#x16c;" horiz-adv-x="271" 
d="M249 732q-2 -191 -3.5 -328.5t-12 -227t-33.5 -133t-67 -44.5q-33 -1 -54 26.5t-33.5 77t-17 118.5t-6 151t-0.5 174t1 189q1 15 10.5 21t19.5 5.5t18 -7t7 -17.5q-1 -144 -1 -266.5t5 -213t17 -142.5t34 -54q18 -2 30.5 34.5t20.5 117t11 208.5t0 308q0 16 8 23.5
t18 6.5t18.5 -8t9.5 -19zM183 829q4 9 12.5 11.5t16.5 0t13 -9.5t1 -16q-11 -25 -38 -38t-57 -13t-56.5 14t-34.5 42q-2 8 3 13.5t12.5 7t15.5 -1t11 -9.5q8 -18 23 -24.5t31 -5t29 9.5t18 19z" />
    <glyph glyph-name="ubreve" unicode="&#x16d;" horiz-adv-x="232" 
d="M212 654q0 -15 -1 -62.5t-2 -112t-1.5 -138t-1 -140t0 -118t2.5 -72.5q1 -9 -6 -13.5t-16.5 -4.5t-17 3.5t-7.5 11.5l-3 29q-13 -13 -27 -23t-30 -12q-39 -4 -56 43.5t-22 134.5t-2.5 208.5t2.5 266.5q1 15 9.5 21t18 5.5t17 -7t6.5 -17.5q-1 -144 -1.5 -255t2.5 -186.5
t9.5 -115t20.5 -39.5q13 0 22 13t23 31q7 142 10.5 273.5t-1.5 270.5q0 16 8 23.5t17.5 7.5t17.5 -7t9 -19zM165 747q4 9 12.5 11.5t16.5 0t13 -9.5t1 -16q-11 -25 -38 -38t-57 -13t-56.5 14t-34.5 42q-2 8 3 13.5t12.5 7t15.5 -1t11 -9.5q8 -18 23 -24.5t31 -5t29 9.5
t18 19z" />
    <glyph glyph-name="Uring" unicode="&#x16e;" horiz-adv-x="271" 
d="M249 732q-2 -191 -3.5 -328.5t-12 -227t-33.5 -133t-67 -44.5q-33 -1 -54 26.5t-33.5 77t-17 118.5t-6 151t-0.5 174t1 189q1 15 10.5 21t19.5 5.5t18 -7t7 -17.5q-1 -144 -1 -266.5t5 -213t17 -142.5t34 -54q18 -2 30.5 34.5t20.5 117t11 208.5t0 308q0 16 8 23.5
t18 6.5t18.5 -8t9.5 -19zM152 823q0 18 -18 18q-19 0 -19 -18q0 -19 19 -19q18 0 18 19zM193 823q0 -26 -15.5 -42t-42.5 -16q-26 0 -42 16t-16 42q0 27 16 42.5t42 15.5q27 0 42.5 -15.5t15.5 -42.5z" />
    <glyph glyph-name="uring" unicode="&#x16f;" horiz-adv-x="232" 
d="M212 654q0 -15 -1 -62.5t-2 -112t-1.5 -138t-1 -140t0 -118t2.5 -72.5q1 -9 -6 -13.5t-16.5 -4.5t-17 3.5t-7.5 11.5l-3 29q-13 -13 -27 -23t-30 -12q-39 -4 -56 43.5t-22 134.5t-2.5 208.5t2.5 266.5q1 15 9.5 21t18 5.5t17 -7t6.5 -17.5q-1 -144 -1.5 -255t2.5 -186.5
t9.5 -115t20.5 -39.5q13 0 22 13t23 31q7 142 10.5 273.5t-1.5 270.5q0 16 8 23.5t17.5 7.5t17.5 -7t9 -19zM133 741q0 18 -18 18q-19 0 -19 -18q0 -19 19 -19q18 0 18 19zM174 741q0 -26 -15.5 -42t-42.5 -16q-26 0 -42 16t-16 42q0 27 16 42.5t42 15.5q27 0 42.5 -15.5
t15.5 -42.5z" />
    <glyph glyph-name="Uhungarumlaut" unicode="&#x170;" horiz-adv-x="271" 
d="M249 732q-2 -191 -3.5 -328.5t-12 -227t-33.5 -133t-67 -44.5q-33 -1 -54 26.5t-33.5 77t-17 118.5t-6 151t-0.5 174t1 189q1 15 10.5 21t19.5 5.5t18 -7t7 -17.5q-1 -144 -1 -266.5t5 -213t17 -142.5t34 -54q18 -2 30.5 34.5t20.5 117t11 208.5t0 308q0 16 8 23.5
t18 6.5t18.5 -8t9.5 -19zM91 789q-9 -10 -19.5 -10t-18 6t-10 15.5t4.5 19.5l59 58q10 9 20.5 8.5t17 -7t8 -16.5t-6.5 -18zM193 784q-9 -10 -19.5 -10t-18 6t-10 15.5t4.5 19.5l59 58q10 9 20.5 8.5t17 -7t8 -16.5t-6.5 -18z" />
    <glyph glyph-name="uhungarumlaut" unicode="&#x171;" horiz-adv-x="232" 
d="M212 654q0 -15 -1 -62.5t-2 -112t-1.5 -138t-1 -140t0 -118t2.5 -72.5q1 -9 -6 -13.5t-16.5 -4.5t-17 3.5t-7.5 11.5l-3 29q-13 -13 -27 -23t-30 -12q-39 -4 -56 43.5t-22 134.5t-2.5 208.5t2.5 266.5q1 15 9.5 21t18 5.5t17 -7t6.5 -17.5q-1 -144 -1.5 -255t2.5 -186.5
t9.5 -115t20.5 -39.5q13 0 22 13t23 31q7 142 10.5 273.5t-1.5 270.5q0 16 8 23.5t17.5 7.5t17.5 -7t9 -19zM67 708q-9 -10 -19.5 -10t-18 6t-10 15.5t4.5 19.5l59 58q10 9 20.5 8.5t17 -7t8 -16.5t-6.5 -18zM169 703q-9 -10 -19.5 -10t-18 6t-10 15.5t4.5 19.5l59 58
q10 9 20.5 8.5t17 -7t8 -16.5t-6.5 -18z" />
    <glyph glyph-name="Uogonek" unicode="&#x172;" horiz-adv-x="271" 
d="M249 732q-2 -191 -3.5 -328.5t-12 -227t-33.5 -133t-67 -44.5q-33 -1 -54 26.5t-33.5 77t-17 118.5t-6 151t-0.5 174t1 189q1 15 10.5 21t19.5 5.5t18 -7t7 -17.5q-1 -144 -1 -266.5t5 -213t17 -142.5t34 -54q18 -2 30.5 34.5t20.5 117t11 208.5t0 308q0 16 8 23.5
t18 6.5t18.5 -8t9.5 -19zM192 40q-6 -9 -10 -19.5t-3.5 -21.5t6 -22t18.5 -21q5 -7 1 -13.5t-11.5 -10t-16.5 -3t-15 6.5q-15 18 -19 36t-0.5 34.5t11.5 30t16 20.5q6 5 11 4.5t9 -3.5t5 -8.5t-2 -9.5z" />
    <glyph glyph-name="uogonek" unicode="&#x173;" horiz-adv-x="232" 
d="M212 654q0 -15 -1 -62.5t-2 -112t-1.5 -138t-1 -140t0 -118t2.5 -72.5q1 -9 -6 -13.5t-16.5 -4.5t-17 3.5t-7.5 11.5l-3 29q-13 -13 -27 -23t-30 -12q-39 -4 -56 43.5t-22 134.5t-2.5 208.5t2.5 266.5q1 15 9.5 21t18 5.5t17 -7t6.5 -17.5q-1 -144 -1.5 -255t2.5 -186.5
t9.5 -115t20.5 -39.5q13 0 22 13t23 31q7 142 10.5 273.5t-1.5 270.5q0 16 8 23.5t17.5 7.5t17.5 -7t9 -19zM198 14q-6 -9 -10 -19.5t-3.5 -21.5t6 -22t18.5 -21q5 -7 1 -13.5t-11.5 -10t-16.5 -3t-15 6.5q-15 18 -19 36t-0.5 34.5t11.5 30t16 20.5q6 5 11 4.5t9 -3.5
t5 -8.5t-2 -9.5z" />
    <glyph glyph-name="Wcircumflex" unicode="&#x174;" horiz-adv-x="460" 
d="M445 739q-6 -42 -12.5 -100t-17 -143t-26 -202t-39.5 -276q-3 -9 -14.5 -13.5t-25.5 -4.5t-26 4t-15 12l-42 313l-39 -314q-3 -8 -14.5 -12t-25 -4t-25 4.5t-14.5 13.5q-24 159 -39.5 276.5t-25 203t-15.5 144t-12 100.5q-1 11 6 16.5t16 6t17.5 -4.5t9.5 -15l82 -666
l45 328q1 9 11 14t21.5 5.5t21 -4t11.5 -13.5l53 -336l85 670q1 10 9.5 15t17.5 4.5t16 -6t6 -16.5zM196 894q3 9 12 12.5t19 3t19 -5t12 -12.5l42 -91q3 -12 -2.5 -20.5t-15 -11.5t-19.5 1t-14 16l-22 53l-21 -53q-3 -11 -12 -14.5t-18.5 -2t-16.5 8.5t-6 18z" />
    <glyph glyph-name="wcircumflex" unicode="&#x175;" horiz-adv-x="436" 
d="M420 655q-4 -28 -7 -56.5t-6.5 -64t-8.5 -81t-12.5 -107t-18.5 -142t-27 -186.5q-3 -9 -14.5 -13.5t-25.5 -4.5t-26 4t-15 12l-42 313l-39 -314q-3 -8 -14.5 -12t-25 -4t-25 4.5t-14.5 13.5q-16 106 -27.5 186.5t-19.5 142t-13.5 106.5t-9.5 80t-7 63.5t-7 56.5
q-1 11 6 16.5t16 6t17.5 -4.5t9.5 -15l74 -577l45 328q1 9 11 14t21.5 5.5t21 -4t11.5 -13.5l53 -336l70 586q1 10 9.5 15t17.5 4.5t16 -6t6 -16.5zM184 812q3 9 12 12.5t19 3t19 -5t12 -12.5l42 -91q3 -12 -2.5 -20.5t-15 -11.5t-19.5 1t-14 16l-22 53l-21 -53
q-3 -11 -12 -14.5t-18.5 -2t-16.5 8.5t-6 18z" />
    <glyph glyph-name="Ycircumflex" unicode="&#x176;" 
d="M196 737q-2 13 5.5 19t17 6t17.5 -6t7 -17q0 -91 -0.5 -163.5t-0.5 -133v-112v-100.5q0 -62 -3.5 -104.5t-14 -69.5t-29.5 -40t-51 -16q-21 -2 -46.5 7t-45.5 32q-6 9 -5 18.5t6 16.5t12.5 9t14.5 -3q10 -11 29 -21.5t38 -8.5q18 2 26.5 13t12.5 26.5t4 32v28.5
q-11 -20 -27.5 -27.5t-35.5 -7.5q-21 0 -36.5 13t-27 36t-19 54.5t-11.5 68.5q-6 52 -8 112.5t-2 121t1.5 119t2.5 108.5q0 6 7.5 10t16 4t15.5 -5t7 -15q0 -4 -1 -31t-2 -68t-1 -92t2 -103.5t6 -102.5t11 -88.5t18.5 -62t27.5 -22.5q7 0 16 5.5t17.5 16t15 26t7.5 35.5
q3 61 4 120t1 118v119.5t1 124.5zM98 894q3 9 12 12.5t19 3t19 -5t12 -12.5l42 -91q3 -12 -2.5 -20.5t-15 -11.5t-19.5 1t-14 16l-22 53l-21 -53q-3 -11 -12 -14.5t-18.5 -2t-16.5 8.5t-6 18z" />
    <glyph glyph-name="ycircumflex" unicode="&#x177;" horiz-adv-x="268" 
d="M194 652q-2 13 6 19t18 6t18.5 -6t7.5 -17v-167t0.5 -140.5t1 -119.5t0.5 -104q0 -62 -3 -104.5t-13.5 -69.5t-29.5 -40t-51 -16q-21 -2 -46.5 7t-45.5 32q-6 9 -5 18.5t6 16t12.5 8.5t14.5 -3q10 -11 29 -21.5t38 -8.5q18 2 26.5 13.5t11.5 26.5t3 32v29
q-11 -20 -26.5 -27.5t-34.5 -7.5q-41 0 -62 46t-29 120q-6 52 -8.5 117t-2.5 132t1 130t2 113q0 6 7.5 10t17 4t17 -5t7.5 -15q0 -24 -1.5 -80.5t-2 -127t2 -144.5t9.5 -132q6 -52 18.5 -84.5t28.5 -30.5q7 1 15.5 6.5t17 15.5t14.5 25.5t7 35.5q7 122 4 251t-1 257z
M100 812q3 9 12 12.5t19 3t19 -5t12 -12.5l42 -91q3 -12 -2.5 -20.5t-15 -11.5t-19.5 1t-14 16l-22 53l-21 -53q-3 -11 -12 -14.5t-18.5 -2t-16.5 8.5t-6 18z" />
    <glyph glyph-name="Ydieresis" unicode="&#x178;" 
d="M196 737q-2 13 5.5 19t17 6t17.5 -6t7 -17q0 -91 -0.5 -163.5t-0.5 -133v-112v-100.5q0 -62 -3.5 -104.5t-14 -69.5t-29.5 -40t-51 -16q-21 -2 -46.5 7t-45.5 32q-6 9 -5 18.5t6 16.5t12.5 9t14.5 -3q10 -11 29 -21.5t38 -8.5q18 2 26.5 13t12.5 26.5t4 32v28.5
q-11 -20 -27.5 -27.5t-35.5 -7.5q-21 0 -36.5 13t-27 36t-19 54.5t-11.5 68.5q-6 52 -8 112.5t-2 121t1.5 119t2.5 108.5q0 6 7.5 10t16 4t15.5 -5t7 -15q0 -4 -1 -31t-2 -68t-1 -92t2 -103.5t6 -102.5t11 -88.5t18.5 -62t27.5 -22.5q7 0 16 5.5t17.5 16t15 26t7.5 35.5
q3 61 4 120t1 118v119.5t1 124.5zM67 798q0 13 7.5 21t21.5 8q13 0 21 -8t8 -21q0 -14 -8 -21.5t-21 -7.5q-29 0 -29 29zM159 798q0 13 7.5 21t21.5 8q13 0 21 -8t8 -21q0 -14 -8 -21.5t-21 -7.5q-29 0 -29 29z" />
    <glyph glyph-name="Zacute" unicode="&#x179;" horiz-adv-x="252" 
d="M177 702l-129 1q-12 -3 -18.5 5.5t-6.5 19t7 19.5t23 8h21h42t43 0.5t25 0.5q12 0 22 -2.5t16.5 -10t8.5 -20.5t-4 -35l-150 -635h138q13 0 17 -9.5t2 -20t-9 -18t-17 -3.5q-29 -4 -66 -1t-73 -1q-11 0 -20.5 1.5t-16.5 6.5t-10 15t0 28zM118 785q-9 -10 -19.5 -10t-18 6
t-10 15.5t4.5 19.5l59 58q10 9 20.5 8.5t17 -7t8 -16.5t-6.5 -18z" />
    <glyph glyph-name="zacute" unicode="&#x17a;" horiz-adv-x="235" 
d="M153 625l-113 1q-12 -3 -18.5 5.5t-6.5 19t7 19.5t23 8h18.5h36.5t37.5 0.5t22.5 0.5q12 0 22 -2.5t16.5 -10t8.5 -20.5t-4 -35l-127 -558q11 0 27.5 0.5t34.5 1t35 1t28 0.5q13 0 17 -9.5t2 -20t-9 -18t-17 -3.5q-29 -4 -59 -2.5t-66 -2.5q-11 0 -20.5 1.5t-16.5 6.5
t-10 15t0 28zM110 703q-9 -10 -19.5 -10t-18 6t-10 15.5t4.5 19.5l59 58q10 9 20.5 8.5t17 -7t8 -16.5t-6.5 -18z" />
    <glyph glyph-name="Zdotaccent" unicode="&#x17b;" horiz-adv-x="252" 
d="M177 702l-129 1q-12 -3 -18.5 5.5t-6.5 19t7 19.5t23 8h21h42t43 0.5t25 0.5q12 0 22 -2.5t16.5 -10t8.5 -20.5t-4 -35l-150 -635h138q13 0 17 -9.5t2 -20t-9 -18t-17 -3.5q-29 -4 -66 -1t-73 -1q-11 0 -20.5 1.5t-16.5 6.5t-10 15t0 28zM97 795q0 13 7.5 21t21.5 8
q13 0 21 -8t8 -21q0 -14 -8 -21.5t-21 -7.5q-29 0 -29 29z" />
    <glyph glyph-name="zdotaccent" unicode="&#x17c;" horiz-adv-x="235" 
d="M153 625l-113 1q-12 -3 -18.5 5.5t-6.5 19t7 19.5t23 8h18.5h36.5t37.5 0.5t22.5 0.5q12 0 22 -2.5t16.5 -10t8.5 -20.5t-4 -35l-127 -558q11 0 27.5 0.5t34.5 1t35 1t28 0.5q13 0 17 -9.5t2 -20t-9 -18t-17 -3.5q-29 -4 -59 -2.5t-66 -2.5q-11 0 -20.5 1.5t-16.5 6.5
t-10 15t0 28zM87 729q0 13 7.5 21t21.5 8q13 0 21 -8t8 -21q0 -14 -8 -21.5t-21 -7.5q-29 0 -29 29z" />
    <glyph glyph-name="Zcaron" unicode="&#x17d;" horiz-adv-x="252" 
d="M177 702l-129 1q-12 -3 -18.5 5.5t-6.5 19t7 19.5t23 8h21h42t43 0.5t25 0.5q12 0 22 -2.5t16.5 -10t8.5 -20.5t-4 -35l-150 -635h138q13 0 17 -9.5t2 -20t-9 -18t-17 -3.5q-29 -4 -66 -1t-73 -1q-11 0 -20.5 1.5t-16.5 6.5t-10 15t0 28zM159 784q-3 -9 -12 -12.5t-19 -3
t-19 5t-12 12.5l-42 91q-3 12 2.5 20t15 11t19 -0.5t14.5 -15.5l22 -53l21 53q3 10 12 14t18.5 2.5t16.5 -8.5t6 -18z" />
    <glyph glyph-name="zcaron" unicode="&#x17e;" horiz-adv-x="235" 
d="M153 625l-113 1q-12 -3 -18.5 5.5t-6.5 19t7 19.5t23 8h18.5h36.5t37.5 0.5t22.5 0.5q12 0 22 -2.5t16.5 -10t8.5 -20.5t-4 -35l-127 -558q11 0 27.5 0.5t34.5 1t35 1t28 0.5q13 0 17 -9.5t2 -20t-9 -18t-17 -3.5q-29 -4 -59 -2.5t-66 -2.5q-11 0 -20.5 1.5t-16.5 6.5
t-10 15t0 28zM151 702q-3 -9 -12 -12.5t-19 -3t-19 5t-12 12.5l-42 91q-3 12 2.5 20t15 11t19 -0.5t14.5 -15.5l22 -53l21 53q3 10 12 14t18.5 2.5t16.5 -8.5t6 -18z" />
    <glyph glyph-name="AEacute" unicode="&#x1fc;" horiz-adv-x="421" 
d="M230 288l-100 3l-66 -269q-4 -11 -12.5 -14.5t-17 -1.5t-14 9t-4.5 18q3 7 14 47.5t27 101.5t35.5 135l39 148t37.5 140.5t32 111.5q5 15 12 23t16 11.5t20.5 4t25.5 1.5q38 2 60.5 1.5t39.5 -1.5q13 0 19 -8t6 -17t-6 -16.5t-19 -7.5h-16.5t-29 -0.5t-29.5 -1t-19 -1.5
q0 -15 -0.5 -50.5t-1 -75.5t-0.5 -76.5t2 -52.5l82 -1q9 0 13 -7.5t3.5 -16.5t-5 -17t-13.5 -9l-80 -3q-1 -11 -1.5 -34t-1 -53.5t0 -65.5t1 -69.5t1 -66t0.5 -54.5l100 -3q8 0 12.5 -7.5t5 -16.5t-4 -16t-14.5 -7q-14 -3 -41.5 -2.5t-47.5 -0.5q-35 0 -47 11.5t-13 34.5z
M149 344l80 -3l-2 308zM311 817q-9 -10 -19.5 -10t-18 6t-10 15.5t4.5 19.5l59 58q10 9 20.5 8.5t17 -7t8 -16.5t-6.5 -18z" />
    <glyph glyph-name="aeacute" unicode="&#x1fd;" horiz-adv-x="338" 
d="M224 0q-28 -4 -47 21q-15 -8 -24.5 -10.5t-26.5 -2.5q-27 1 -44 12t-27.5 29t-15.5 41t-7 47q-3 35 -4.5 79.5t-2 91t0.5 90.5t3 79q1 22 4.5 54.5t13 62.5t28.5 52.5t51 24.5q30 2 47 -15q20 24 49 26q31 1 49 -13.5t27 -36t11.5 -47t2.5 -47.5q0 -25 -13.5 -38
t-33.5 -18.5t-43 -6t-42 0.5q-3 -14 -4.5 -51t-0.5 -84t4 -98t9 -93.5t15.5 -69.5t22.5 -26q10 1 17 19.5t12 47.5t7.5 65t3.5 71t0 65t-4 48q0 8 7.5 12.5t16.5 4.5t17.5 -5t10.5 -16q1 -31 2 -68.5t-1 -76.5t-7.5 -77t-16 -68.5t-27 -51t-40.5 -24.5zM132 59q14 0 23 9
q-12 35 -18.5 82t-9 98.5t-2.5 103.5t2.5 97t5.5 79t7 49q2 11 5 20.5t6 18.5q-8 5 -19 5q-20 -2 -31 -20.5t-16 -43.5t-6.5 -50.5t-2.5 -40.5q-1 -11 -2 -47.5t-1.5 -83t0.5 -97t5 -89.5q1 -12 3 -27.5t7.5 -29.5t15.5 -23.5t28 -9.5zM224 634q-12 -1 -19.5 -14t-11 -30.5
t-5 -34.5t-1.5 -27q5 0 17 -1t25 -0.5t23 3.5t11 11q0 7 -0.5 23t-4 32t-11.5 28t-23 10zM161 703q-9 -10 -19.5 -10t-18 6t-10 15.5t4.5 19.5l59 58q10 9 20.5 8.5t17 -7t8 -16.5t-6.5 -18z" />
    <glyph glyph-name="Oslashacute" unicode="&#x1fe;" horiz-adv-x="284" 
d="M143 -2q-30 0 -51 13t-34.5 34.5t-21 49.5t-10.5 59q-11 118 -9.5 224.5t11.5 193.5q4 36 12 68.5t21.5 58t33 41t48.5 17.5q28 1 49 -12.5t34.5 -38t21 -57.5t9.5 -69q4 -67 6.5 -119.5t2.5 -100.5t-2 -96.5t-6 -106.5q-3 -32 -9.5 -61t-19.5 -50.5t-34 -34.5t-52 -13z
M209 156q6 63 8.5 108.5t2 89.5t-3 94.5t-6.5 124.5q-2 27 -6.5 51t-13 41t-20 26.5t-26.5 8.5q-29 -3 -46 -38t-22 -84q-7 -65 -10.5 -116.5t-3.5 -99t3.5 -96t10.5 -108.5q3 -23 8 -44t13.5 -36.5t20.5 -24t28 -6.5q29 1 43.5 32.5t19.5 76.5zM17 21q2 12 14.5 55.5
t31.5 106t41.5 138t45 152.5t42.5 148.5t33 126.5q4 7 12.5 9t17 -0.5t14.5 -9t4 -15.5q-22 -88 -48.5 -178.5t-54 -182t-54 -182.5t-47.5 -180q-2 -8 -11 -10t-19.5 0.5t-17.5 8t-4 13.5zM134 785q-9 -10 -19.5 -10t-18 6t-10 15.5t4.5 19.5l59 58q10 9 20.5 8.5t17 -7
t8 -16.5t-6.5 -18z" />
    <glyph glyph-name="oslashacute" unicode="&#x1ff;" horiz-adv-x="227" 
d="M26 90q-4 57 -5.5 116.5t-0.5 117.5t2.5 111t3.5 95q4 77 32 114.5t62 36.5q8 0 16 -3l5 30q4 7 12.5 9t17 -0.5t14.5 -9t4 -15.5l-8 -53q24 -39 25 -109q1 -59 1 -122.5t-1 -123t-3 -110.5t-5 -84q-4 -44 -29 -67.5t-54 -23.5q-12 0 -27 5l-2 -13q-2 -8 -10.5 -10
t-17.5 0.5t-15.5 8t-3.5 13.5l5 35q-17 23 -18 52zM149 92q4 34 5.5 78.5t2 94.5t0.5 103.5v105.5l-62 -417q6 -5 17 -5q13 0 24 11t13 29zM75 530q-3 -76 -5.5 -160.5t-0.5 -157.5l59 410q-5 3 -8 3q-16 1 -29.5 -21.5t-15.5 -73.5zM103 703q-9 -10 -19.5 -10t-18 6
t-10 15.5t4.5 19.5l59 58q10 9 20.5 8.5t17 -7t8 -16.5t-6.5 -18z" />
    <glyph glyph-name="Scommaaccent" unicode="&#x218;" horiz-adv-x="295" 
d="M144 0q-36 0 -60.5 17.5t-39 44.5t-18.5 59.5t1 62.5q1 12 9 17.5t17 4.5t16.5 -7t8.5 -18q-4 -37 2 -62t16.5 -40.5t23.5 -22t24 -6.5q32 0 50 18.5t23 47.5q6 36 0.5 66t-19 57.5t-34 54t-45.5 56.5q-17 19 -33 39.5t-28.5 45.5t-21 54.5t-8.5 66.5q0 31 4 66.5
t18 65.5t39 50t67 20q28 0 49 -14t34.5 -38t20.5 -55.5t7 -65.5q0 -13 -7.5 -19.5t-17 -7t-17 5.5t-7.5 18q0 35 -6 58t-15 37t-20.5 20t-23.5 6q-24 0 -39 -15.5t-23.5 -38t-11.5 -47t-3 -43.5q0 -27 7.5 -50.5t19.5 -44.5t26.5 -40t29.5 -37q23 -27 44 -55t36.5 -58
t24.5 -63.5t8 -72.5q-2 -60 -36.5 -99t-91.5 -39zM135 -51q-7 7 -5.5 15.5t8 14.5t16 7t17.5 -8q9 -10 15 -26t7 -34.5t-5.5 -38.5t-21.5 -38q-6 -6 -14 -6.5t-15 2.5t-11 9.5t-2 14.5q13 10 18.5 23t5.5 25.5t-3.5 23t-9.5 16.5z" />
    <glyph glyph-name="scommaaccent" unicode="&#x219;" horiz-adv-x="213" 
d="M32 163q0 17 9 24t19.5 6t18 -9t5.5 -20q-2 -10 -2.5 -28t2 -36t8.5 -32t17 -16q12 -2 18.5 20.5t9 55.5t1 69.5t-5.5 63.5q-4 25 -21 40t-35.5 30.5t-33.5 37.5t-15 60l1 137q0 20 5.5 40t17 35.5t28 25.5t37.5 10q10 0 21.5 -2.5t21.5 -15t16.5 -38.5t5.5 -73
q0 -8 -7 -12t-16 -4t-17 4t-9 12q1 33 -1 49.5t-5 23t-6 6.5h-5q-11 0 -18 -8t-11.5 -19t-6 -22.5t-1.5 -19.5l-1 -121q0 -25 13 -42t30.5 -31.5t34 -30t23.5 -36.5q4 -13 8 -39.5t5 -59.5t-1.5 -68t-11.5 -63.5t-25.5 -47.5t-42.5 -19q-29 0 -44.5 17t-23 42t-9 53t-1.5 51
zM94 -54q-7 7 -5.5 15.5t8 14.5t16 7t17.5 -8q9 -10 15 -26t7 -34.5t-5.5 -38.5t-21.5 -38q-6 -6 -14 -6.5t-15 2.5t-11 9.5t-2 14.5q13 10 18.5 23t5.5 25.5t-3.5 23t-9.5 16.5z" />
    <glyph glyph-name="dotlessj" unicode="&#x237;" horiz-adv-x="128" 
d="M-2 -104q-11 1 -17 10.5t-7 21t4.5 21t19.5 9.5q15 0 23 6t12.5 15t5.5 20t1 21q0 84 0.5 161t1 153.5t1 156t1.5 167.5q0 12 8 17.5t17.5 4.5t17.5 -7.5t7 -17.5v-126v-102.5t-0.5 -90.5t-1 -89.5t-0.5 -100.5v-122q0 -24 -4 -47.5t-14.5 -42t-29 -29.5t-46.5 -9z" />
    <glyph glyph-name="wsuperior" unicode="&#x2b7;" horiz-adv-x="291" 
d="M268 709q-3 -25 -6 -52t-7.5 -69t-12.5 -104t-22 -158q-2 -5 -9 -8t-15 -3t-15.5 2.5t-9.5 7.5l-25 188l-23 -188q-2 -5 -9 -7.5t-15 -2.5t-15 2.5t-9 8.5q-14 95 -22.5 157t-13.5 103.5t-8 68.5t-6 52q-1 7 3.5 10t10 3t10.5 -2.5t5 -8.5l45 -347l27 197q1 6 6.5 9
t12.5 3t13 -2.5t7 -8.5l32 -201l42 351q0 6 5 9t10.5 3t10 -3t3.5 -10z" />
    <glyph glyph-name="ysuperior" unicode="&#x2b8;" horiz-adv-x="172" 
d="M105 690l-66 1q-8 -2 -12 3t-4 11.5t4.5 12t14.5 4.5h11h22t22.5 0.5t13.5 0.5q14 0 23 -7.5t2 -33.5l-74 -335q13 0 36.5 1t36.5 1q8 0 10.5 -5.5t1.5 -12t-5.5 -11t-10.5 -2.5q-17 -2 -35 -1.5t-40 -1.5q-13 0 -23 5t-5 26z" />
    <glyph glyph-name="circumflex" unicode="&#x2c6;" horiz-adv-x="199" 
d="M66 812q3 9 12 12.5t19 3t19 -5t12 -12.5l42 -91q3 -12 -2.5 -20.5t-15 -11.5t-19.5 1t-14 16l-22 53l-21 -53q-3 -11 -12 -14.5t-18.5 -2t-16.5 8.5t-6 18z" />
    <glyph glyph-name="caron" unicode="&#x2c7;" horiz-adv-x="199" 
d="M128 702q-3 -9 -12 -12.5t-19 -3t-19 5t-12 12.5l-42 91q-3 12 2.5 20t15 11t19 -0.5t14.5 -15.5l22 -53l21 53q3 10 12 14t18.5 2.5t16.5 -8.5t6 -18z" />
    <glyph glyph-name="breve" unicode="&#x2d8;" horiz-adv-x="246" 
d="M169 747q4 9 12.5 11.5t16.5 0t13 -9.5t1 -16q-11 -25 -38 -38t-57 -13t-56.5 14t-34.5 42q-2 8 3 13.5t12.5 7t15.5 -1t11 -9.5q8 -18 23 -24.5t31 -5t29 9.5t18 19z" />
    <glyph glyph-name="dotaccent" unicode="&#x2d9;" horiz-adv-x="104" 
d="M22 713q0 13 7.5 21t21.5 8q13 0 21 -8t8 -21q0 -14 -8 -21.5t-21 -7.5q-29 0 -29 29z" />
    <glyph glyph-name="ring" unicode="&#x2da;" horiz-adv-x="160" 
d="M97 741q0 18 -18 18q-19 0 -19 -18q0 -19 19 -19q18 0 18 19zM138 741q0 -26 -15.5 -42t-42.5 -16q-26 0 -42 16t-16 42q0 27 16 42.5t42 15.5q27 0 42.5 -15.5t15.5 -42.5z" />
    <glyph glyph-name="ogonek" unicode="&#x2db;" horiz-adv-x="116" 
d="M80 43q-6 -9 -10 -19.5t-3.5 -21.5t6 -22t18.5 -21q5 -7 1 -13.5t-11.5 -10t-16.5 -3t-15 6.5q-15 18 -19 36t-0.5 34.5t11.5 30t16 20.5q6 5 11 4.5t9 -3.5t5 -8.5t-2 -9.5z" />
    <glyph glyph-name="tilde" unicode="&#x2dc;" horiz-adv-x="334" 
d="M32 704q-2 18 1 38.5t13 38t28.5 28.5t47.5 11q31 0 50 -11.5t32.5 -26t23.5 -27t24 -14.5q7 -1 10 8t4 20.5t0.5 22t-0.5 13.5q-1 8 6 12.5t16 5t17 -3t10 -12.5q2 -18 1.5 -38.5t-6.5 -38t-19 -29.5t-36 -12q-27 0 -43 13t-29 29t-27 28t-36 11q-14 -1 -22.5 -7
t-13 -15.5t-5 -20.5t1.5 -21q1 -7 -5.5 -12t-15.5 -6t-17.5 2.5t-10.5 13.5z" />
    <glyph glyph-name="hungarumlaut" unicode="&#x2dd;" horiz-adv-x="276" 
d="M86 703q-9 -10 -19.5 -10t-18 6t-10 15.5t4.5 19.5l59 58q10 9 20.5 8.5t17 -7t8 -16.5t-6.5 -18zM188 698q-9 -10 -19.5 -10t-18 6t-10 15.5t4.5 19.5l59 58q10 9 20.5 8.5t17 -7t8 -16.5t-6.5 -18z" />
    <glyph glyph-name="xsuperior" unicode="&#x2e3;" horiz-adv-x="181" 
d="M106 520l31 -108.5t23 -82.5q0 -7 -4 -11t-9.5 -4.5t-10.5 2t-6 8.5l-40 142l-39 -142q-2 -6 -6.5 -8.5t-10 -2t-9.5 4.5t-4 11q8 30 23 82.5l31 108.5l-53 187q-1 6 3 10.5t9 6.5q7 2 11.5 -2.5t6.5 -11.5q5 -18 15 -54.5t23 -81.5q14 45 24 81.5t15 54.5q2 7 6.5 11.5
t11.5 2.5q5 -2 9 -6.5t3 -10.5z" />
    <glyph glyph-name="Wgrave" unicode="&#x1e80;" horiz-adv-x="460" 
d="M445 739q-6 -42 -12.5 -100t-17 -143t-26 -202t-39.5 -276q-3 -9 -14.5 -13.5t-25.5 -4.5t-26 4t-15 12l-42 313l-39 -314q-3 -8 -14.5 -12t-25 -4t-25 4.5t-14.5 13.5q-24 159 -39.5 276.5t-25 203t-15.5 144t-12 100.5q-1 11 6 16.5t16 6t17.5 -4.5t9.5 -15l82 -666
l45 328q1 9 11 14t21.5 5.5t21 -4t11.5 -13.5l53 -336l85 670q1 10 9.5 15t17.5 4.5t16 -6t6 -16.5zM182 841q-8 8 -6.5 18t8 16.5t17 7t20.5 -8.5l59 -58q7 -10 4.5 -19.5t-10 -15.5t-18 -6t-19.5 10z" />
    <glyph glyph-name="wgrave" unicode="&#x1e81;" horiz-adv-x="436" 
d="M420 655q-4 -28 -7 -56.5t-6.5 -64t-8.5 -81t-12.5 -107t-18.5 -142t-27 -186.5q-3 -9 -14.5 -13.5t-25.5 -4.5t-26 4t-15 12l-42 313l-39 -314q-3 -8 -14.5 -12t-25 -4t-25 4.5t-14.5 13.5q-16 106 -27.5 186.5t-19.5 142t-13.5 106.5t-9.5 80t-7 63.5t-7 56.5
q-1 11 6 16.5t16 6t17.5 -4.5t9.5 -15l74 -577l45 328q1 9 11 14t21.5 5.5t21 -4t11.5 -13.5l53 -336l70 586q1 10 9.5 15t17.5 4.5t16 -6t6 -16.5zM170 759q-8 8 -6.5 18t8 16.5t17 7t20.5 -8.5l59 -58q7 -10 4.5 -19.5t-10 -15.5t-18 -6t-19.5 10z" />
    <glyph glyph-name="Wacute" unicode="&#x1e82;" horiz-adv-x="460" 
d="M445 739q-6 -42 -12.5 -100t-17 -143t-26 -202t-39.5 -276q-3 -9 -14.5 -13.5t-25.5 -4.5t-26 4t-15 12l-42 313l-39 -314q-3 -8 -14.5 -12t-25 -4t-25 4.5t-14.5 13.5q-24 159 -39.5 276.5t-25 203t-15.5 144t-12 100.5q-1 11 6 16.5t16 6t17.5 -4.5t9.5 -15l82 -666
l45 328q1 9 11 14t21.5 5.5t21 -4t11.5 -13.5l53 -336l85 670q1 10 9.5 15t17.5 4.5t16 -6t6 -16.5zM222 785q-9 -10 -19.5 -10t-18 6t-10 15.5t4.5 19.5l59 58q10 9 20.5 8.5t17 -7t8 -16.5t-6.5 -18z" />
    <glyph glyph-name="wacute" unicode="&#x1e83;" horiz-adv-x="436" 
d="M420 655q-4 -28 -7 -56.5t-6.5 -64t-8.5 -81t-12.5 -107t-18.5 -142t-27 -186.5q-3 -9 -14.5 -13.5t-25.5 -4.5t-26 4t-15 12l-42 313l-39 -314q-3 -8 -14.5 -12t-25 -4t-25 4.5t-14.5 13.5q-16 106 -27.5 186.5t-19.5 142t-13.5 106.5t-9.5 80t-7 63.5t-7 56.5
q-1 11 6 16.5t16 6t17.5 -4.5t9.5 -15l74 -577l45 328q1 9 11 14t21.5 5.5t21 -4t11.5 -13.5l53 -336l70 586q1 10 9.5 15t17.5 4.5t16 -6t6 -16.5zM210 703q-9 -10 -19.5 -10t-18 6t-10 15.5t4.5 19.5l59 58q10 9 20.5 8.5t17 -7t8 -16.5t-6.5 -18z" />
    <glyph glyph-name="Wdieresis" unicode="&#x1e84;" horiz-adv-x="460" 
d="M445 739q-6 -42 -12.5 -100t-17 -143t-26 -202t-39.5 -276q-3 -9 -14.5 -13.5t-25.5 -4.5t-26 4t-15 12l-42 313l-39 -314q-3 -8 -14.5 -12t-25 -4t-25 4.5t-14.5 13.5q-24 159 -39.5 276.5t-25 203t-15.5 144t-12 100.5q-1 11 6 16.5t16 6t17.5 -4.5t9.5 -15l82 -666
l45 328q1 9 11 14t21.5 5.5t21 -4t11.5 -13.5l53 -336l85 670q1 10 9.5 15t17.5 4.5t16 -6t6 -16.5zM155 797q0 13 7.5 21t21.5 8q13 0 21 -8t8 -21q0 -14 -8 -21.5t-21 -7.5q-29 0 -29 29zM247 797q0 13 7.5 21t21.5 8q13 0 21 -8t8 -21q0 -14 -8 -21.5t-21 -7.5
q-29 0 -29 29z" />
    <glyph glyph-name="wdieresis" unicode="&#x1e85;" horiz-adv-x="436" 
d="M420 655q-4 -28 -7 -56.5t-6.5 -64t-8.5 -81t-12.5 -107t-18.5 -142t-27 -186.5q-3 -9 -14.5 -13.5t-25.5 -4.5t-26 4t-15 12l-42 313l-39 -314q-3 -8 -14.5 -12t-25 -4t-25 4.5t-14.5 13.5q-16 106 -27.5 186.5t-19.5 142t-13.5 106.5t-9.5 80t-7 63.5t-7 56.5
q-1 11 6 16.5t16 6t17.5 -4.5t9.5 -15l74 -577l45 328q1 9 11 14t21.5 5.5t21 -4t11.5 -13.5l53 -336l70 586q1 10 9.5 15t17.5 4.5t16 -6t6 -16.5zM143 715q0 13 7.5 21t21.5 8q13 0 21 -8t8 -21q0 -14 -8 -21.5t-21 -7.5q-29 0 -29 29zM235 715q0 13 7.5 21t21.5 8
q13 0 21 -8t8 -21q0 -14 -8 -21.5t-21 -7.5q-29 0 -29 29z" />
    <glyph glyph-name="Ygrave" unicode="&#x1ef2;" 
d="M196 737q-2 13 5.5 19t17 6t17.5 -6t7 -17q0 -91 -0.5 -163.5t-0.5 -133v-112v-100.5q0 -62 -3.5 -104.5t-14 -69.5t-29.5 -40t-51 -16q-21 -2 -46.5 7t-45.5 32q-6 9 -5 18.5t6 16.5t12.5 9t14.5 -3q10 -11 29 -21.5t38 -8.5q18 2 26.5 13t12.5 26.5t4 32v28.5
q-11 -20 -27.5 -27.5t-35.5 -7.5q-21 0 -36.5 13t-27 36t-19 54.5t-11.5 68.5q-6 52 -8 112.5t-2 121t1.5 119t2.5 108.5q0 6 7.5 10t16 4t15.5 -5t7 -15q0 -4 -1 -31t-2 -68t-1 -92t2 -103.5t6 -102.5t11 -88.5t18.5 -62t27.5 -22.5q7 0 16 5.5t17.5 16t15 26t7.5 35.5
q3 61 4 120t1 118v119.5t1 124.5zM84 841q-8 8 -6.5 18t8 16.5t17 7t20.5 -8.5l59 -58q7 -10 4.5 -19.5t-10 -15.5t-18 -6t-19.5 10z" />
    <glyph glyph-name="ygrave" unicode="&#x1ef3;" horiz-adv-x="268" 
d="M194 652q-2 13 6 19t18 6t18.5 -6t7.5 -17v-167t0.5 -140.5t1 -119.5t0.5 -104q0 -62 -3 -104.5t-13.5 -69.5t-29.5 -40t-51 -16q-21 -2 -46.5 7t-45.5 32q-6 9 -5 18.5t6 16t12.5 8.5t14.5 -3q10 -11 29 -21.5t38 -8.5q18 2 26.5 13.5t11.5 26.5t3 32v29
q-11 -20 -26.5 -27.5t-34.5 -7.5q-41 0 -62 46t-29 120q-6 52 -8.5 117t-2.5 132t1 130t2 113q0 6 7.5 10t17 4t17 -5t7.5 -15q0 -24 -1.5 -80.5t-2 -127t2 -144.5t9.5 -132q6 -52 18.5 -84.5t28.5 -30.5q7 1 15.5 6.5t17 15.5t14.5 25.5t7 35.5q7 122 4 251t-1 257zM86 759
q-8 8 -6.5 18t8 16.5t17 7t20.5 -8.5l59 -58q7 -10 4.5 -19.5t-10 -15.5t-18 -6t-19.5 10z" />
    <glyph glyph-name="endash" unicode="&#x2013;" horiz-adv-x="295" 
d="M55 327q-8 0 -12 6.5t-5 15.5t2.5 17t12.5 10h202q9 0 13 -7t3.5 -16t-5 -16.5t-13.5 -7.5z" />
    <glyph glyph-name="emdash" unicode="&#x2014;" horiz-adv-x="356" 
d="M55 327q-9 0 -14 7.5t-5.5 16.5t4 17t13.5 8h266q9 0 13 -7t3.5 -16t-5 -16.5t-13.5 -7.5z" />
    <glyph glyph-name="quoteleft" unicode="&#x2018;" horiz-adv-x="120" 
d="M75 601q7 -7 6 -15.5t-6.5 -14.5t-14.5 -7t-17 8q-9 10 -15 26.5t-6.5 35.5t5 39t19.5 36q7 8 16 8.5t16 -4t10 -11.5t-2 -13q-13 -11 -18.5 -23.5t-5.5 -25t3.5 -23t9.5 -16.5z" />
    <glyph glyph-name="quoteright" unicode="&#x2019;" horiz-adv-x="120" 
d="M35 680q-7 7 -6 15.5t6.5 14.5t14.5 7t17 -8q9 -10 15 -26.5t6.5 -35.5t-5 -39t-19.5 -36q-7 -8 -16 -8.5t-16 4t-10 11.5t2 13q13 10 18.5 23t5.5 25.5t-3.5 23t-9.5 16.5z" />
    <glyph glyph-name="quotesinglbase" unicode="&#x201a;" horiz-adv-x="120" 
d="M39 86q-7 7 -6 15.5t6.5 14.5t14.5 7t17 -8q9 -10 15 -26.5t6.5 -35.5t-5 -39t-19.5 -36q-7 -8 -16 -8.5t-16 4t-10 11.5t2 13q13 10 18.5 23t5.5 25.5t-3.5 23t-9.5 16.5z" />
    <glyph glyph-name="quotedblleft" unicode="&#x201c;" horiz-adv-x="186" 
d="M150 603q7 -7 6 -15.5t-6.5 -14.5t-14.5 -7t-17 8q-9 10 -15 26.5t-6.5 35.5t5 39t19.5 36q7 8 16 8.5t16 -4t10 -11.5t-2 -13q-13 -11 -18.5 -23.5t-5.5 -25t3.5 -23t9.5 -16.5zM75 601q7 -7 6 -15.5t-6.5 -14.5t-14.5 -7t-17 8q-9 10 -15 26.5t-6.5 35.5t5 39t19.5 36
q7 8 16 8.5t16 -4t10 -11.5t-2 -13q-13 -11 -18.5 -23.5t-5.5 -25t3.5 -23t9.5 -16.5z" />
    <glyph glyph-name="quotedblright" unicode="&#x201d;" horiz-adv-x="186" 
d="M35 680q-7 7 -6 15.5t6.5 14.5t14.5 7t17 -8q9 -10 15 -26.5t6.5 -35.5t-5 -39t-19.5 -36q-7 -8 -16 -8.5t-16 4t-10 11.5t2 13q13 10 18.5 23t5.5 25.5t-3.5 23t-9.5 16.5zM110 682q-7 7 -6 15.5t6.5 14.5t14.5 7t17 -8q9 -10 15 -26.5t6.5 -35.5t-5 -39t-19.5 -36
q-7 -8 -16 -8.5t-16 4t-10 11.5t2 13q13 10 18.5 23t5.5 25.5t-3.5 23t-9.5 16.5z" />
    <glyph glyph-name="quotedblbase" unicode="&#x201e;" horiz-adv-x="186" 
d="M31 77q-7 7 -6 15.5t6.5 14.5t14.5 7t17 -8q9 -10 15 -26.5t6.5 -35.5t-5 -39t-19.5 -36q-7 -8 -16 -8.5t-16 4t-10 11.5t2 13q13 10 18.5 23t5.5 25.5t-3.5 23t-9.5 16.5zM106 79q-7 7 -6 15.5t6.5 14.5t14.5 7t17 -8q9 -10 15 -26.5t6.5 -35.5t-5 -39t-19.5 -36
q-7 -8 -16 -8.5t-16 4t-10 11.5t2 13q13 10 18.5 23t5.5 25.5t-3.5 23t-9.5 16.5z" />
    <glyph glyph-name="bullet" unicode="&#x2022;" horiz-adv-x="165" 
d="M144 357q0 -26 -15.5 -42t-42.5 -16q-26 0 -42 16t-16 42q0 27 16 42.5t42 15.5q27 0 42.5 -15.5t15.5 -42.5z" />
    <glyph glyph-name="ellipsis" unicode="&#x2026;" horiz-adv-x="254" 
d="M18 31q0 13 7.5 21t21.5 8q13 0 21 -8t8 -21q0 -14 -8 -21.5t-21 -7.5q-29 0 -29 29zM96 31q0 13 7.5 21t21.5 8q13 0 21 -8t8 -21q0 -14 -8 -21.5t-21 -7.5q-29 0 -29 29zM174 31q0 13 7.5 21t21.5 8q13 0 21 -8t8 -21q0 -14 -8 -21.5t-21 -7.5q-29 0 -29 29z" />
    <glyph glyph-name="fraction" unicode="&#x2044;" horiz-adv-x="299" 
d="M26 21q2 12 14.5 55.5t31.5 106t41.5 138t45 152.5t42.5 148.5t33 126.5q4 7 12.5 9t17 -0.5t14.5 -9t4 -15.5q-22 -88 -48.5 -178.5t-54 -182t-54 -182.5t-47.5 -180q-2 -8 -11 -10t-19.5 0.5t-17.5 8t-4 13.5z" />
    <glyph glyph-name="zerosuperior" unicode="&#x2070;" horiz-adv-x="208" 
d="M112 331q-18 0 -30.5 7.5t-21 20.5t-12.5 30t-6 35q-7 71 -6 135t7 116q3 21 7.5 41t12.5 35t20 24.5t29 10.5t29.5 -7.5t20.5 -23t12.5 -34t5.5 -41.5q3 -41 4.5 -72.5t1.5 -60t-1 -57.5t-4 -64q-2 -19 -5.5 -36.5t-11.5 -30.5t-20.5 -20.5t-31.5 -7.5zM152 425
q4 38 5 65.5t1 53.5t-2 56.5t-4 75.5q-2 32 -11.5 55t-27.5 21t-28 -23t-13 -50q-5 -39 -7 -70t-2 -59.5t2.5 -57.5t6.5 -65q1 -14 4.5 -26.5t8.5 -22t12 -14.5t17 -4q17 1 26 20t12 45z" />
    <glyph glyph-name="foursuperior" unicode="&#x2074;" horiz-adv-x="179" 
d="M122 557h-71q-17 0 -21 9t-4 16v193q0 6 4.5 9.5t10 3.5t10 -3.5t5.5 -9.5v-186q14 0 33 -0.5t33 0.5v191q1 5 6 7.5t10.5 2.5t9.5 -2.5t4 -8.5v-437q0 -6 -4.5 -8.5t-10.5 -2.5t-10.5 3t-4.5 8v215z" />
    <glyph glyph-name="fivesuperior" unicode="&#x2075;" horiz-adv-x="189" 
d="M32 438q1 7 6 10t10.5 3t9.5 -3.5t4 -9.5q0 -12 1.5 -26t4.5 -26t8 -19t14 -6q12 1 21 12t15 27.5t9 37.5t3 42q0 17 -3 37.5t-11 35.5t-23 20t-38 -10q-9 -6 -19 -4t-12 15q-1 23 -1 44v42t0.5 43.5t0.5 49.5q0 33 33 32h88q4 1 7 -3t3.5 -9.5t-2 -10.5t-9.5 -6h-92
v-159q54 18 79.5 -9t27.5 -103q0 -24 -3 -50t-12 -48.5t-24 -38t-38 -17.5q-18 -2 -29.5 8t-17.5 26t-8.5 35.5t-2.5 37.5z" />
    <glyph glyph-name="sixsuperior" unicode="&#x2076;" horiz-adv-x="179" 
d="M26 513v101.5t6 87.5t20.5 61t43.5 24q31 1 46.5 -22t13.5 -62q0 -6 -5 -8.5t-11 -2t-10 3t-2 7.5q0 9 -1 19.5t-4.5 18.5t-9.5 13.5t-16 4.5q-11 -1 -18.5 -10.5t-12 -25.5t-7 -37t-3.5 -44q-1 -30 -1 -66.5v-64.5q17 18 41 23t42 -18q11 -14 16 -34t4 -43
q-1 -46 -18 -76.5t-47 -30.5q-26 0 -40 16t-20 41.5t-6.5 58t-0.5 65.5zM57 464v-25t3 -34t10.5 -29.5t22.5 -12.5q18 0 27 24.5t8 51.5q0 23 -6.5 41t-20.5 22q-10 2 -22.5 -7t-21.5 -31z" />
    <glyph glyph-name="sevensuperior" unicode="&#x2077;" horiz-adv-x="181" 
d="M124 752h-77q-7 -2 -11 3t-4 11.5t4.5 12t13.5 4.5h12.5h25.5t26 0.5t15 0.5q14 0 23.5 -7.5t2.5 -33.5l-96 -405q-3 -4 -9 -5.5t-11 -0.5t-8.5 4t-1.5 8z" />
    <glyph glyph-name="eightsuperior" unicode="&#x2078;" horiz-adv-x="181" 
d="M110 573q13 -19 24.5 -44.5t18.5 -52.5t8.5 -53.5t-5 -47t-22 -32.5t-42.5 -11q-38 1 -54.5 24.5t-15.5 59.5t15.5 79t38.5 83q-7 10 -15.5 29t-15.5 41.5t-10.5 46.5t0.5 44t16 33.5t37 15.5q18 2 35.5 -10.5t24.5 -39t0 -68t-38 -97.5zM87 758q-6 0 -13.5 -8.5
t-9.5 -26.5t4 -46t26 -66q13 23 20.5 49t7 48t-8.5 36.5t-26 13.5zM92 359q25 2 32.5 25t4.5 53t-13.5 60.5t-23.5 48.5q-27 -47 -35 -82.5t-4.5 -59t15.5 -35t24 -10.5z" />
    <glyph glyph-name="ninesuperior" unicode="&#x2079;" horiz-adv-x="201" 
d="M173 345q-1 -3 -6 -5.5t-10 -3t-9.5 1.5t-5.5 7v234q-26 -15 -47 -12.5t-36.5 16t-24.5 35t-9 46.5q-1 31 8.5 58t25.5 44t38 20.5t46 -12.5v11q-2 4 2.5 6.5t10.5 2.5t12 -3t7 -11zM143 742q-20 15 -36 14t-27.5 -13t-18 -32t-6.5 -43q0 -22 7 -38.5t19 -24.5t27.5 -7
t33.5 15z" />
    <glyph glyph-name="nsuperior" unicode="&#x207f;" horiz-adv-x="172" 
d="M24 329q0 9 0.5 35.5t1.5 61.5t1.5 75.5t0 78.5t-2 69.5t-5.5 48.5q-2 13 3 17.5t12 4.5q9 0 12.5 -10t6.5 -17q2 0 6 3.5t10 8t13.5 8.5t17.5 5q15 1 24 -20t13.5 -56t5 -78.5t0 -87t-2 -82.5t-1.5 -64q-1 -9 -6 -13t-10.5 -4.5t-10 3t-3.5 10.5q4 117 4.5 188.5t-2 110
t-7.5 50.5t-11 11q-10 -2 -21.5 -14.5t-15.5 -20.5v-90v-80.5t-0.5 -75t-0.5 -73.5q0 -10 -5 -14.5t-11 -4.5t-11 4t-5 12z" />
    <glyph glyph-name="zeroinferior" unicode="&#x2080;" horiz-adv-x="199" 
d="M104 -79q-18 0 -30.5 7.5t-21 20.5t-12.5 30t-6 35q-7 71 -6 135t7 116q3 21 7.5 41t12.5 35t20 24.5t29 10.5t29.5 -7.5t20.5 -23t12.5 -34t5.5 -41.5q3 -41 4.5 -72.5t1.5 -60t-1 -57.5t-4 -64q-2 -19 -5.5 -36.5t-11.5 -30.5t-20.5 -20.5t-31.5 -7.5zM144 15
q4 38 5 65.5t1 53.5t-2 56.5t-4 75.5q-2 32 -11.5 55t-27.5 21t-28 -23t-13 -50q-5 -39 -7 -70t-2 -59.5t2.5 -57.5t6.5 -65q1 -14 4.5 -26.5t8.5 -22t12 -14.5t17 -4q17 1 26 20t12 45z" />
    <glyph glyph-name="oneinferior" unicode="&#x2081;" horiz-adv-x="81" 
d="M23 -74q-1 7 -1 33t0.5 64t1 83.5t0.5 92t-0.5 90t-1.5 77.5q1 5 6 7.5t10.5 2t10 -3t4.5 -8.5q4 -109 0.5 -217.5t1.5 -218.5q0 -5 -5 -8t-11 -3t-11 2t-5 7z" />
    <glyph glyph-name="twoinferior" unicode="&#x2082;" horiz-adv-x="172" 
d="M28 -33q14 35 29.5 83.5t28 97.5t20.5 92t8 68q0 19 -7 29t-17 10q-12 0 -19 -6t-10.5 -15t-4 -19.5t1.5 -19.5q1 -6 -2 -10.5t-8 -6.5t-10 -0.5t-6 8.5q-4 15 -3 33.5t8.5 34t21 25.5t33.5 8q19 -2 35.5 -19t17.5 -49q1 -36 -10 -89.5t-26 -107.5t-29 -98.5t-20 -62.5
h9.5h22h24.5h17q6 0 8.5 -4.5t2 -10.5t-3 -10.5t-6.5 -4.5h-87q-5 0 -10.5 2t-9 7t-4 13.5t4.5 21.5z" />
    <glyph glyph-name="threeinferior" unicode="&#x2083;" horiz-adv-x="184" 
d="M22 -29q-2 8 2 13t10 6.5t12 -1.5t7 -11q2 -14 13 -20.5t23 -6.5q20 0 30 21.5t12 54.5q2 28 -2 59t-13.5 57.5t-23 45t-31.5 20.5q-9 2 -10 13.5t11 16.5q17 10 27 28.5t12 36.5t-2.5 31.5t-15.5 13.5q-1 0 -4.5 -0.5t-7.5 -4.5t-7.5 -12.5t-4.5 -24.5q0 -5 -4.5 -7
t-10.5 -2t-10.5 2t-4.5 7q-1 29 13.5 49.5t40.5 20.5q24 0 36 -18.5t12.5 -43.5t-8.5 -50t-27 -37q16 -10 29 -31.5t22 -48.5t13 -58t3 -59q-1 -23 -6 -43t-15 -35t-24.5 -23.5t-33.5 -8.5q-20 0 -37.5 12t-24.5 38z" />
    <glyph glyph-name="fourinferior" unicode="&#x2084;" horiz-adv-x="176" 
d="M119 147h-71q-17 0 -21 9t-4 16v193q0 6 4.5 9.5t10 3.5t10 -3.5t5.5 -9.5v-186q14 0 33 -0.5t33 0.5v191q1 5 6 7.5t10.5 2.5t9.5 -2.5t4 -8.5v-437q0 -6 -4.5 -8.5t-10.5 -2.5t-10.5 3t-4.5 8v215z" />
    <glyph glyph-name="fiveinferior" unicode="&#x2085;" horiz-adv-x="182" 
d="M29 28q1 7 6 10t10.5 3t9.5 -3.5t4 -9.5q0 -12 1.5 -26t4.5 -26t8 -19t14 -6q12 1 21 12t15 27.5t9 37.5t3 42q0 17 -3 37.5t-11 35.5t-23 20t-38 -10q-9 -6 -19 -4t-12 15q-1 23 -1 44v42t0.5 43.5t0.5 49.5q0 33 33 32h88q4 1 7 -3t3.5 -9.5t-2 -10.5t-9.5 -6h-92v-159
q54 18 79.5 -9t27.5 -103q0 -24 -3 -50t-12 -48.5t-24 -38t-38 -17.5q-18 -2 -29.5 8t-17.5 26t-8.5 35.5t-2.5 37.5z" />
    <glyph glyph-name="sixinferior" unicode="&#x2086;" horiz-adv-x="176" 
d="M26 103v101.5t6 87.5t20.5 61t43.5 24q31 1 46.5 -22t13.5 -62q0 -6 -5 -8.5t-11 -2t-10 3t-2 7.5q0 9 -1 19.5t-4.5 18.5t-9.5 13.5t-16 4.5q-11 -1 -18.5 -10.5t-12 -25.5t-7 -37t-3.5 -44q-1 -30 -1 -66.5v-64.5q17 18 41 23t42 -18q11 -14 16 -34t4 -43
q-1 -46 -18 -76.5t-47 -30.5q-26 0 -40 16t-20 41.5t-6.5 58t-0.5 65.5zM57 54v-25t3 -34t10.5 -29.5t22.5 -12.5q18 0 27 24.5t8 51.5q0 23 -6.5 41t-20.5 22q-10 2 -22.5 -7t-21.5 -31z" />
    <glyph glyph-name="seveninferior" unicode="&#x2087;" horiz-adv-x="179" 
d="M126 342h-77q-7 -2 -11 3t-4 11.5t4.5 12t13.5 4.5h12.5h25.5t26 0.5t15 0.5q14 0 23.5 -7.5t2.5 -33.5l-96 -405q-3 -4 -9 -5.5t-11 -0.5t-8.5 4t-1.5 8z" />
    <glyph glyph-name="eightinferior" unicode="&#x2088;" horiz-adv-x="176" 
d="M109 163q13 -19 24.5 -44.5t18.5 -52.5t8.5 -53.5t-5 -47t-22 -32.5t-42.5 -11q-38 1 -54.5 24.5t-15.5 59.5t15.5 79t38.5 83q-7 10 -15.5 29t-15.5 41.5t-10.5 46.5t0.5 44t16 33.5t37 15.5q18 2 35.5 -10.5t24.5 -39t0 -68t-38 -97.5zM86 348q-6 0 -13.5 -8.5
t-9.5 -26.5t4 -46t26 -66q13 23 20.5 49t7 48t-8.5 36.5t-26 13.5zM91 -51q25 2 32.5 25t4.5 53t-13.5 60.5t-23.5 48.5q-27 -47 -35 -82.5t-4.5 -59t15.5 -35t24 -10.5z" />
    <glyph glyph-name="nineinferior" unicode="&#x2089;" horiz-adv-x="186" 
d="M168 -65q-1 -3 -6 -5.5t-10 -3t-9.5 1.5t-5.5 7v234q-26 -15 -47 -12.5t-36.5 16t-24.5 35t-9 46.5q-1 31 8.5 58t25.5 44t38 20.5t46 -12.5v11q-2 4 2.5 6.5t10.5 2.5t12 -3t7 -11zM138 332q-20 15 -36 14t-27.5 -13t-18 -32t-6.5 -43q0 -22 7 -38.5t19 -24.5t27.5 -7
t33.5 15z" />
    <glyph glyph-name="Euro" unicode="&#x20ac;" horiz-adv-x="291" 
d="M125 292v-158q0 -9 2.5 -23.5t8 -28t14.5 -23t22 -9.5q12 0 19.5 8.5t12 21t7.5 27t7 27t9.5 20.5t15.5 8q23 0 23 -24q0 -20 -4.5 -44t-15.5 -45t-29 -35t-44 -14q-29 0 -48.5 16t-31 40.5t-16.5 52.5t-5 52v130h-38q-8 0 -12.5 8t-5 17.5t3.5 17t12 6.5h40v40h-37
q-8 0 -12.5 8t-5 17.5t3.5 17t12 6.5h40q1 101 3 152t4 60q3 18 10 38.5t18.5 37t27.5 27.5t38 11t39 -11t28.5 -28t17 -38t5.5 -41q0 -9 -6.5 -17t-17.5 -8q-17 0 -22 14t-8 31t-9 31t-25 14q-12 0 -20 -7.5t-13 -18t-8.5 -22.5t-4.5 -21q-2 -6 -3 -53t-2 -151l106 1
q9 0 13 -7t3.5 -16t-5 -16.5t-13.5 -7.5l-104 -2v-41l105 1q9 0 13 -7t3.5 -16t-5 -16.5t-13.5 -7.5z" />
    <glyph glyph-name="onethird" unicode="&#x2153;" horiz-adv-x="375" 
d="M62 305q-1 7 -1 33t0.5 64t1 83.5t0.5 92t-0.5 90t-1.5 77.5q1 5 6 7.5t10.5 2t10 -3t4.5 -8.5q4 -109 0.5 -217.5t1.5 -218.5q0 -5 -5 -8t-11 -3t-11 2t-5 7zM41 16q2 12 15 55.5t32.5 106t42.5 138.5t46 153t43.5 149t33.5 127q4 7 10 9.5t12 0.5t9.5 -8t1.5 -15
q-22 -88 -48.5 -178.5t-54 -182t-54 -182.5t-47.5 -180q-2 -8 -9.5 -11t-16 -1.5t-14 6.5t-2.5 13zM212 51q-2 8 2 13t10 6.5t12 -1.5t7 -11q2 -14 13 -20.5t23 -6.5q20 0 30 21.5t12 54.5q2 28 -2 59t-13.5 57.5t-23 45t-31.5 20.5q-9 2 -10 13.5t11 16.5q17 10 27 28.5
t12 36.5t-2.5 31.5t-15.5 13.5q-1 0 -4.5 -0.5t-7.5 -4.5t-7.5 -12.5t-4.5 -24.5q0 -5 -4.5 -7t-10.5 -2t-10.5 2t-4.5 7q-1 29 13.5 49.5t40.5 20.5q24 0 36 -18.5t12.5 -43.5t-8.5 -50t-27 -37q16 -10 29 -31.5t22 -48.5t13 -58t3 -59q-1 -23 -6 -43t-15 -35t-24.5 -23.5
t-33.5 -8.5q-20 0 -37.5 12t-24.5 38z" />
    <glyph glyph-name="twothirds" unicode="&#x2154;" horiz-adv-x="408" 
d="M74 16q2 12 15 55.5t32.5 106t42.5 138.5t46 153t43.5 149t33.5 127q4 7 10 9.5t12 0.5t9.5 -8t1.5 -15q-22 -88 -48.5 -178.5t-54 -182t-54 -182.5t-47.5 -180q-2 -8 -9.5 -11t-16 -1.5t-14 6.5t-2.5 13zM245 51q-2 8 2 13t10 6.5t12 -1.5t7 -11q2 -14 13 -20.5t23 -6.5
q20 0 30 21.5t12 54.5q2 28 -2 59t-13.5 57.5t-23 45t-31.5 20.5q-9 2 -10 13.5t11 16.5q17 10 27 28.5t12 36.5t-2.5 31.5t-15.5 13.5q-1 0 -4.5 -0.5t-7.5 -4.5t-7.5 -12.5t-4.5 -24.5q0 -5 -4.5 -7t-10.5 -2t-10.5 2t-4.5 7q-1 29 13.5 49.5t40.5 20.5q24 0 36 -18.5
t12.5 -43.5t-8.5 -50t-27 -37q16 -10 29 -31.5t22 -48.5t13 -58t3 -59q-1 -23 -6 -43t-15 -35t-24.5 -23.5t-33.5 -8.5q-20 0 -37.5 12t-24.5 38zM36 351q14 35 29.5 83.5t28 97.5t20.5 92t8 68q0 19 -7 29t-17 10q-12 0 -19 -6t-10.5 -15t-4 -19.5t1.5 -19.5q1 -6 -2 -10.5
t-8 -6.5t-10 -0.5t-6 8.5q-4 15 -3 33.5t8.5 34t21 25.5t33.5 8q19 -2 35.5 -19t17.5 -49q1 -36 -10 -89.5t-26 -107.5t-29 -98.5t-20 -62.5h9.5h22h24.5h17q6 0 8.5 -4.5t2 -10.5t-3 -10.5t-6.5 -4.5h-87q-5 0 -10.5 2t-9 7t-4 13.5t4.5 21.5z" />
    <glyph glyph-name="oneeighth" unicode="&#x215b;" horiz-adv-x="359" 
d="M62 305q-1 7 -1 33t0.5 64t1 83.5t0.5 92t-0.5 90t-1.5 77.5q1 5 6 7.5t10.5 2t10 -3t4.5 -8.5q4 -109 0.5 -217.5t1.5 -218.5q0 -5 -5 -8t-11 -3t-11 2t-5 7zM41 16q2 12 15 55.5t32.5 106t42.5 138.5t46 153t43.5 149t33.5 127q4 7 10 9.5t12 0.5t9.5 -8t1.5 -15
q-22 -88 -48.5 -178.5t-54 -182t-54 -182.5t-47.5 -180q-2 -8 -9.5 -11t-16 -1.5t-14 6.5t-2.5 13zM290 241q13 -19 24.5 -44.5t18.5 -52.5t8.5 -53.5t-5 -47t-22 -32.5t-42.5 -11q-38 1 -54.5 24.5t-15.5 59.5t15.5 79t38.5 83q-7 10 -15.5 29t-15.5 41.5t-10.5 46.5
t0.5 44t16 33.5t37 15.5q18 2 35.5 -10.5t24.5 -39t0 -68t-38 -97.5zM267 426q-6 0 -13.5 -8.5t-9.5 -26.5t4 -46t26 -66q13 23 20.5 49t7 48t-8.5 36.5t-26 13.5zM272 27q25 2 32.5 25t4.5 53t-13.5 60.5t-23.5 48.5q-27 -47 -35 -82.5t-4.5 -59t15.5 -35t24 -10.5z" />
    <glyph glyph-name="threeeighths" unicode="&#x215c;" horiz-adv-x="377" 
d="M68 16q2 12 15 55.5t32.5 106t42.5 138.5t46 153t43.5 149t33.5 127q4 7 10 9.5t12 0.5t9.5 -8t1.5 -15q-22 -88 -48.5 -178.5t-54 -182t-54 -182.5t-47.5 -180q-2 -8 -9.5 -11t-16 -1.5t-14 6.5t-2.5 13zM20 350q-2 8 2 13t10 6.5t12 -1.5t7 -11q2 -14 13 -20.5t23 -6.5
q20 0 30 21.5t12 54.5q2 28 -2 59t-13.5 57.5t-23 45t-31.5 20.5q-9 2 -10 13.5t11 16.5q17 10 27 28.5t12 36.5t-2.5 31.5t-15.5 13.5q-1 0 -4.5 -0.5t-7.5 -4.5t-7.5 -12.5t-4.5 -24.5q0 -5 -4.5 -7t-10.5 -2t-10.5 2t-4.5 7q-1 29 13.5 49.5t40.5 20.5q24 0 36 -18.5
t12.5 -43.5t-8.5 -50t-27 -37q16 -10 29 -31.5t22 -48.5t13 -58t3 -59q-1 -23 -6 -43t-15 -35t-24.5 -23.5t-33.5 -8.5q-20 0 -37.5 12t-24.5 38zM308 242q13 -19 24.5 -44.5t18.5 -52.5t8.5 -53.5t-5 -47t-22 -32.5t-42.5 -11q-38 1 -54.5 24.5t-15.5 59.5t15.5 79t38.5 83
q-7 10 -15.5 29t-15.5 41.5t-10.5 46.5t0.5 44t16 33.5t37 15.5q18 2 35.5 -10.5t24.5 -39t0 -68t-38 -97.5zM285 427q-6 0 -13.5 -8.5t-9.5 -26.5t4 -46t26 -66q13 23 20.5 49t7 48t-8.5 36.5t-26 13.5zM290 28q25 2 32.5 25t4.5 53t-13.5 60.5t-23.5 48.5
q-27 -47 -35 -82.5t-4.5 -59t15.5 -35t24 -10.5z" />
    <glyph glyph-name="fiveeighths" unicode="&#x215d;" horiz-adv-x="397" 
d="M74 16q2 12 15 55.5t32.5 106t42.5 138.5t46 153t43.5 149t33.5 127q4 7 10 9.5t12 0.5t9.5 -8t1.5 -15q-22 -88 -48.5 -178.5t-54 -182t-54 -182.5t-47.5 -180q-2 -8 -9.5 -11t-16 -1.5t-14 6.5t-2.5 13zM323 241q13 -19 24.5 -44.5t18.5 -52.5t8.5 -53.5t-5 -47
t-22 -32.5t-42.5 -11q-38 1 -54.5 24.5t-15.5 59.5t15.5 79t38.5 83q-7 10 -15.5 29t-15.5 41.5t-10.5 46.5t0.5 44t16 33.5t37 15.5q18 2 35.5 -10.5t24.5 -39t0 -68t-38 -97.5zM300 426q-6 0 -13.5 -8.5t-9.5 -26.5t4 -46t26 -66q13 23 20.5 49t7 48t-8.5 36.5t-26 13.5z
M305 27q25 2 32.5 25t4.5 53t-13.5 60.5t-23.5 48.5q-27 -47 -35 -82.5t-4.5 -59t15.5 -35t24 -10.5zM29 410q1 7 6 10t10.5 3t9.5 -3.5t4 -9.5q0 -12 1.5 -26t4.5 -26t8 -19t14 -6q12 1 21 12t15 27.5t9 37.5t3 42q0 17 -3 37.5t-11 35.5t-23 20t-38 -10q-9 -6 -19 -4
t-12 15q-1 23 -1 44v42t0.5 43.5t0.5 49.5q0 33 33 32h88q4 1 7 -3t3.5 -9.5t-2 -10.5t-9.5 -6h-92v-159q54 18 79.5 -9t27.5 -103q0 -24 -3 -50t-12 -48.5t-24 -38t-38 -17.5q-18 -2 -29.5 8t-17.5 26t-8.5 35.5t-2.5 37.5z" />
    <glyph glyph-name="seveneighths" unicode="&#x215e;" horiz-adv-x="353" 
d="M32 16q2 12 15 55.5t32.5 106t42.5 138.5t46 153t43.5 149t33.5 127q4 7 10 9.5t12 0.5t9.5 -8t1.5 -15q-22 -88 -48.5 -178.5t-54 -182t-54 -182.5t-47.5 -180q-2 -8 -9.5 -11t-16 -1.5t-14 6.5t-2.5 13zM281 241q13 -19 24.5 -44.5t18.5 -52.5t8.5 -53.5t-5 -47
t-22 -32.5t-42.5 -11q-38 1 -54.5 24.5t-15.5 59.5t15.5 79t38.5 83q-7 10 -15.5 29t-15.5 41.5t-10.5 46.5t0.5 44t16 33.5t37 15.5q18 2 35.5 -10.5t24.5 -39t0 -68t-38 -97.5zM258 426q-6 0 -13.5 -8.5t-9.5 -26.5t4 -46t26 -66q13 23 20.5 49t7 48t-8.5 36.5t-26 13.5z
M263 27q25 2 32.5 25t4.5 53t-13.5 60.5t-23.5 48.5q-27 -47 -35 -82.5t-4.5 -59t15.5 -35t24 -10.5zM141 722h-77q-7 -2 -11 3t-4 11.5t4.5 12t13.5 4.5h12.5h25.5t26 0.5t15 0.5q14 0 23.5 -7.5t2.5 -33.5l-96 -405q-3 -4 -9 -5.5t-11 -0.5t-8.5 4t-1.5 8z" />
    <glyph glyph-name="minus" unicode="&#x2212;" horiz-adv-x="295" 
d="M55 327q-8 0 -12.5 8t-5 17.5t3.5 17t12 6.5l202 3q9 0 13 -7t3.5 -16t-5 -16.5t-13.5 -7.5z" />
    <glyph glyph-name="approxequal" unicode="&#x2248;" horiz-adv-x="338" 
d="M32 357q-2 18 1 38.5t13 37.5t28.5 28.5t47.5 11.5q26 0 44.5 -11.5t33.5 -26.5t27 -28t26 -15q7 -1 10 9t4 23t1 24.5v14.5q-1 8 5.5 12t15 3.5t16.5 -5t10 -13.5q1 -12 1 -32t-6 -39t-19 -33t-36 -14q-27 0 -43 13t-29 29t-27 28t-36 11q-14 -1 -22.5 -7t-13 -15.5
t-5 -20.5t1.5 -21q1 -7 -5.5 -12t-15.5 -6t-17.5 2.5t-10.5 13.5zM35 213q-2 18 1 38.5t13 37.5t28.5 28.5t47.5 11.5q26 0 44.5 -11.5t33.5 -26.5t27 -28t26 -15q7 -1 10 9t4 23t1 24.5v14.5q-1 8 5.5 12t15 3.5t16.5 -5t10 -13.5q1 -12 1 -32t-6 -39t-19 -33t-36 -14
q-27 0 -43 13t-29 29t-27 28t-36 11q-14 -1 -22.5 -7t-13 -15.5t-5 -20.5t1.5 -21q1 -7 -5.5 -12t-15.5 -6t-17.5 2.5t-10.5 13.5z" />
    <glyph glyph-name="notequal" unicode="&#x2260;" horiz-adv-x="294" 
d="M158 290l-22 -79q-2 -8 -10.5 -10t-17.5 0.5t-15 8.5t-3 14l17 65l-52 -1q-8 0 -12.5 8t-5 17.5t3.5 17t12 6.5l67 1l10 41l-74 -2q-8 0 -12.5 8t-5 17.5t3.5 17t12 6.5l89 1l19 71q4 7 12.5 9t17 -0.5t14.5 -9t4 -15.5l-15 -54l61 1q9 0 13 -7t3.5 -16t-5 -16.5
t-13.5 -7.5l-72 -2l-11 -41l84 1q9 0 13 -7t3.5 -16t-5 -16.5t-13.5 -7.5z" />
    <glyph glyph-name="lessequal" unicode="&#x2264;" horiz-adv-x="230" 
d="M38 361q-9 3 -12.5 12t-3 19t5 18.5t12.5 11.5l120 55q12 3 20.5 -3t11.5 -15.5t-1 -19.5t-17 -14l-81 -33l83 -31q11 -3 15 -12t2.5 -18.5t-8.5 -16.5t-18 -6zM38 235q-8 0 -12.5 8t-5 17.5t3.5 17t12 6.5l163 -1q9 0 13 -7t3.5 -16t-5 -16.5t-13.5 -7.5z" />
    <glyph glyph-name="greaterequal" unicode="&#x2265;" horiz-adv-x="243" 
d="M69 308q-11 -1 -18 6t-8.5 16.5t2.5 18.5t15 12l83 31l-81 33q-13 4 -17 14t-1 19.5t11.5 15.5t20.5 3l120 -55q8 -3 12.5 -11.5t5 -18.5t-3 -19t-12.5 -12zM39 236q-9 0 -13.5 7.5t-5 16.5t3.5 16t13 7l163 1q8 1 12 -6.5t3.5 -17t-5 -17.5t-12.5 -8z" />
    <glyph glyph-name="commaaccent" horiz-adv-x="520" 
d="M233 224q-7 7 -5.5 15.5t8 14.5t16 7t17.5 -8q9 -10 15 -26t7 -34.5t-5.5 -38.5t-21.5 -38q-6 -6 -14 -6.5t-15 2.5t-11 9.5t-2 14.5q13 10 18.5 23t5.5 25.5t-3.5 23t-9.5 16.5z" />
    </font>
</defs>
</svg>
